<?xml version="1.0" encoding="utf-8"?>
<!-- Generator: Adobe Illustrator 26.5.0, SVG Export Plug-In . SVG Version: 6.00 Build 0)  -->
<svg version="1.1" id="Capa_1" xmlns="http://www.w3.org/2000/svg" xmlns:xlink="http://www.w3.org/1999/xlink" x="0px" y="0px"
	 viewBox="0 0 1200 60" style="enable-background:new 0 0 1200 60;" xml:space="preserve">
<style type="text/css">
	.st0{clip-path:url(#SVGID_00000021834920326115308880000003467441732663995024_);}
	.st1{fill:#FF4826;}
	.st2{enable-background:new    ;}
	.st3{fill:#FDFDFD;}
	.st4{fill:#C74129;}
	.st5{fill:#C2F0F1;}
	.st6{fill:#FFFFFF;}
</style>
<g>
	<defs>
		<rect id="SVGID_1_" y="0" width="1200" height="60"/>
	</defs>
	<clipPath id="SVGID_00000138542080628848018820000002613897967720317877_">
		<use xlink:href="#SVGID_1_"  style="overflow:visible;"/>
	</clipPath>
	<g id="a" style="clip-path:url(#SVGID_00000138542080628848018820000002613897967720317877_);">
		<rect y="0" width="1200" height="60"/>
		<image style="overflow:visible;enable-background:new    ;" width="1200" height="60" xlink:href="15FEB18342A8309.png" >
		</image>
		<path class="st1" d="M-80-4h1305v74H-80V-4z"/>
		<g class="st2">
			<path class="st3" d="M220,23.8c0.9-0.2,2.2-0.3,3.6-0.3c1.9,0,3.2,0.3,4.1,1.1c0.8,0.6,1.3,1.5,1.3,2.7c0,1.5-1,2.7-2.6,3.3v0
				c1.4,0.4,3.1,1.5,3.1,3.8c0,1.3-0.5,2.3-1.3,3c-1.1,1-2.8,1.4-5.2,1.4c-1.3,0-2.4-0.1-3-0.2V23.8z M221.9,30h1.8
				c2.1,0,3.3-1.1,3.3-2.5c0-1.8-1.3-2.5-3.3-2.5c-0.9,0-1.4,0.1-1.7,0.1V30z M221.9,37.2c0.4,0.1,0.9,0.1,1.6,0.1
				c2,0,3.9-0.7,3.9-2.9c0-2.1-1.8-2.9-3.9-2.9h-1.6V37.2z"/>
			<path class="st3" d="M249.5,31c0,5.2-3.2,7.9-7,7.9c-4,0-6.8-3.1-6.8-7.7c0-4.8,3-7.9,7-7.9C246.8,23.3,249.5,26.5,249.5,31z
				 M237.8,31.2c0,3.2,1.7,6.1,4.8,6.1c3.1,0,4.8-2.8,4.8-6.3c0-3-1.6-6.1-4.8-6.1C239.4,24.9,237.8,27.9,237.8,31.2z"/>
			<path class="st3" d="M269.4,31c0,5.2-3.2,7.9-7,7.9c-4,0-6.8-3.1-6.8-7.7c0-4.8,3-7.9,7-7.9C266.7,23.3,269.4,26.5,269.4,31z
				 M257.7,31.2c0,3.2,1.7,6.1,4.8,6.1c3.1,0,4.8-2.8,4.8-6.3c0-3-1.6-6.1-4.8-6.1C259.3,24.9,257.7,27.9,257.7,31.2z"/>
			<path class="st3" d="M276.4,23.6h1.9v7.3h0.1c0.4-0.6,0.8-1.1,1.2-1.6l4.6-5.7h2.4l-5.5,6.4l5.9,8.7h-2.3l-5-7.4l-1.4,1.7v5.7
				h-1.9V23.6z"/>
			<path class="st3" d="M304.6,33.9l-1.6,4.7h-2l5.1-15.1h2.3l5.1,15.1h-2.1l-1.6-4.7H304.6z M309.6,32.4l-1.5-4.3
				c-0.3-1-0.6-1.9-0.8-2.8h0c-0.2,0.9-0.5,1.8-0.8,2.7l-1.5,4.4H309.6z"/>
			<path class="st3" d="M329.6,23.8c0.9-0.2,2.2-0.3,3.7-0.3c1.9,0,3.3,0.4,4.2,1.3c0.8,0.7,1.3,1.8,1.3,3.2c0,1.4-0.4,2.4-1.2,3.2
				c-1,1.1-2.7,1.7-4.6,1.7c-0.6,0-1.1,0-1.6-0.1v6h-1.9V23.8z M331.5,31c0.4,0.1,1,0.2,1.6,0.2c2.3,0,3.8-1.1,3.8-3.2
				c0-2-1.4-3-3.6-3c-0.8,0-1.5,0.1-1.8,0.2V31z"/>
			<path class="st3" d="M345.9,23.8c1-0.2,2.4-0.3,3.7-0.3c2.1,0,3.4,0.4,4.4,1.2c0.8,0.7,1.2,1.7,1.2,2.9c0,2-1.3,3.3-2.8,3.8v0.1
				c1.2,0.4,1.9,1.5,2.2,3c0.5,2.1,0.8,3.6,1.2,4.1h-2c-0.2-0.4-0.6-1.7-1-3.6c-0.4-2.1-1.3-2.9-3-2.9h-1.8v6.5h-1.9V23.8z
				 M347.9,30.7h2c2.1,0,3.4-1.1,3.4-2.9c0-1.9-1.4-2.8-3.5-2.8c-0.9,0-1.6,0.1-1.9,0.2V30.7z"/>
			<path class="st3" d="M364.4,23.6v15.1h-1.9V23.6H364.4z"/>
			<path class="st3" d="M375.6,38.7l-4.9-15.1h2.1l2.3,7.4c0.6,2,1.2,3.9,1.6,5.6h0c0.4-1.7,1.1-3.6,1.7-5.6l2.5-7.4h2.1l-5.4,15.1
				H375.6z"/>
			<path class="st3" d="M390.4,33.9l-1.6,4.7h-2l5.1-15.1h2.3l5.1,15.1h-2.1l-1.6-4.7H390.4z M395.4,32.4l-1.5-4.3
				c-0.3-1-0.6-1.9-0.8-2.8h0c-0.2,0.9-0.5,1.8-0.8,2.7l-1.5,4.4H395.4z"/>
			<path class="st3" d="M407.3,25.2h-4.6v-1.7h11.2v1.7h-4.6v13.4h-2V25.2z"/>
			<path class="st3" d="M427.8,31.6H422V37h6.5v1.6H420V23.6h8.1v1.6H422V30h5.9V31.6z"/>
			<path class="st3" d="M444.7,23.8c1-0.2,2.4-0.3,3.7-0.3c2.1,0,3.4,0.4,4.4,1.2c0.8,0.7,1.2,1.7,1.2,2.9c0,2-1.3,3.3-2.8,3.8v0.1
				c1.2,0.4,1.9,1.5,2.2,3c0.5,2.1,0.8,3.6,1.2,4.1h-2c-0.2-0.4-0.6-1.7-1-3.6c-0.4-2.1-1.3-2.9-3-2.9h-1.8v6.5h-1.9V23.8z
				 M446.7,30.7h2c2.1,0,3.4-1.1,3.4-2.9c0-1.9-1.4-2.8-3.5-2.8c-0.9,0-1.6,0.1-1.9,0.2V30.7z"/>
			<path class="st3" d="M474.2,31c0,5.2-3.2,7.9-7,7.9c-4,0-6.8-3.1-6.8-7.7c0-4.8,3-7.9,7-7.9C471.5,23.3,474.2,26.5,474.2,31z
				 M462.5,31.2c0,3.2,1.7,6.1,4.8,6.1c3.1,0,4.8-2.8,4.8-6.3c0-3-1.6-6.1-4.8-6.1C464.1,24.9,462.5,27.9,462.5,31.2z"/>
			<path class="st3" d="M494.1,31c0,5.2-3.2,7.9-7,7.9c-4,0-6.8-3.1-6.8-7.7c0-4.8,3-7.9,7-7.9C491.4,23.3,494.1,26.5,494.1,31z
				 M482.4,31.2c0,3.2,1.7,6.1,4.8,6.1c3.1,0,4.8-2.8,4.8-6.3c0-3-1.6-6.1-4.8-6.1C484,24.9,482.4,27.9,482.4,31.2z"/>
			<path class="st3" d="M513.8,32c-0.1-2.1-0.2-4.6-0.2-6.5h-0.1c-0.5,1.8-1.1,3.6-1.9,5.7l-2.7,7.3h-1.5l-2.4-7.2
				c-0.7-2.1-1.3-4.1-1.7-5.9h0c0,1.9-0.2,4.4-0.3,6.7l-0.4,6.5h-1.9l1.1-15.1h2.5l2.6,7.3c0.6,1.9,1.1,3.5,1.5,5.1h0.1
				c0.4-1.5,0.9-3.2,1.6-5.1l2.7-7.3h2.5l0.9,15.1h-1.9L513.8,32z"/>
			<path class="st3" d="M542.2,38.7c-0.4-0.4-0.8-0.8-1.4-1.5c-1.3,1.2-2.8,1.7-4.4,1.7c-2.9,0-4.6-2-4.6-4.2c0-2.1,1.2-3.5,3-4.4
				v-0.1c-0.8-1-1.3-2.1-1.3-3.2c0-1.8,1.3-3.7,3.8-3.7c1.9,0,3.3,1.3,3.3,3.2c0,1.6-0.9,2.8-3.3,4v0.1c1.3,1.5,2.7,3.1,3.7,4.2
				c0.7-1.1,1.2-2.5,1.5-4.4h1.8c-0.4,2.4-1.1,4.3-2.2,5.6c0.8,0.9,1.6,1.7,2.5,2.7H542.2z M539.8,36.1c-0.9-1-2.6-2.8-4.2-4.7
				c-0.8,0.5-1.9,1.5-1.9,3.1c0,1.7,1.3,3,3.1,3C538,37.4,539.1,36.9,539.8,36.1z M535.2,26.9c0,1.1,0.5,1.9,1.1,2.7
				c1.5-0.9,2.5-1.7,2.5-3c0-0.9-0.5-1.9-1.7-1.9C535.9,24.7,535.2,25.7,535.2,26.9z"/>
			<path class="st3" d="M571.5,38c-0.9,0.3-2.6,0.8-4.6,0.8c-2.3,0-4.2-0.6-5.6-2c-1.3-1.3-2.1-3.3-2.1-5.6c0-4.5,3.1-7.8,8.2-7.8
				c1.7,0,3.1,0.4,3.8,0.7l-0.5,1.6c-0.8-0.4-1.8-0.6-3.3-0.6c-3.7,0-6.1,2.3-6.1,6.1c0,3.8,2.3,6.1,5.8,6.1c1.3,0,2.1-0.2,2.6-0.4
				v-4.5h-3.1v-1.6h5V38z"/>
			<path class="st3" d="M586.7,31.6h-5.9V37h6.5v1.6h-8.5V23.6h8.1v1.6h-6.2V30h5.9V31.6z"/>
			<path class="st3" d="M597.6,25.2H593v-1.7h11.2v1.7h-4.6v13.4h-2V25.2z"/>
		</g>
		<g class="st2">
			<path class="st3" d="M795.6,23.7h6.9c1.9,0,3.2,0.6,4,1.7c0.5,0.7,0.7,1.4,0.7,2.3c0,1-0.3,1.8-0.9,2.5c-0.3,0.3-0.7,0.7-1.3,0.9
				c0.8,0.3,1.4,0.7,1.8,1.1c0.7,0.7,1.1,1.7,1.1,2.9c0,1-0.3,2-1,2.8c-1,1.3-2.5,1.9-4.6,1.9h-6.8V23.7z M801.8,30.5
				c0.9,0,1.6-0.1,2.2-0.4c0.8-0.4,1.2-1.1,1.2-2.2c0-1-0.4-1.8-1.3-2.1c-0.5-0.2-1.2-0.3-2.2-0.3h-3.9v5H801.8z M802.5,37.9
				c1.3,0,2.3-0.4,2.9-1.2c0.4-0.5,0.5-1.1,0.5-1.8c0-1.2-0.5-2-1.6-2.4c-0.6-0.2-1.3-0.3-2.2-0.3h-4.4v5.6H802.5z"/>
			<path class="st3" d="M815.4,23.7h7.3c1.2,0,2.2,0.2,3,0.5c1.5,0.7,2.2,1.9,2.2,3.8c0,1-0.2,1.7-0.6,2.4c-0.4,0.6-1,1.1-1.7,1.5
				c0.6,0.3,1.1,0.6,1.4,1c0.3,0.4,0.5,1.1,0.5,2l0.1,2.2c0,0.6,0.1,1.1,0.2,1.4c0.1,0.5,0.4,0.8,0.7,1v0.4h-2.7
				c-0.1-0.1-0.1-0.3-0.2-0.5s-0.1-0.6-0.1-1.3l-0.1-2.7c0-1-0.4-1.8-1.1-2.1c-0.4-0.2-1-0.3-1.9-0.3h-4.8v6.9h-2.2V23.7z
				 M822.4,31.1c1,0,1.8-0.2,2.4-0.6c0.6-0.4,0.9-1.1,0.9-2.2c0-1.1-0.4-1.9-1.2-2.3c-0.4-0.2-1-0.3-1.7-0.3h-5.2v5.5H822.4z"/>
			<path class="st3" d="M835.9,23.7h11.6v2h-9.5v4.9h8.8v1.9h-8.8v5.4h9.7v1.9h-11.8V23.7z"/>
			<path class="st3" d="M859.8,23.7h2.5l5.8,16h-2.4l-1.6-4.8h-6.3l-1.7,4.8h-2.2L859.8,23.7z M863.4,33.2l-2.4-7.1l-2.6,7.1H863.4z
				"/>
			<path class="st3" d="M874.5,23.7h2.1v7.9l8-7.9h3l-6.9,6.5l7,9.6H885l-5.8-8.1l-2.6,2.5v5.6h-2.1V23.7z"/>
			<path class="st3" d="M894.1,23.7h11.1v2h-9v4.9h7.9v1.9h-7.9v7.3h-2.2V23.7z"/>
			<path class="st3" d="M915.5,23.7h2.5l5.8,16h-2.4l-1.6-4.8h-6.3l-1.7,4.8h-2.2L915.5,23.7z M919.1,33.2l-2.4-7.1l-2.6,7.1H919.1z
				"/>
			<path class="st3" d="M931.7,34.6c0,0.9,0.3,1.6,0.6,2.2c0.7,1.1,1.9,1.6,3.7,1.6c0.8,0,1.5-0.1,2.1-0.3c1.2-0.5,1.9-1.3,1.9-2.4
				c0-0.9-0.3-1.5-0.8-1.9c-0.5-0.4-1.4-0.7-2.5-1l-2.1-0.5c-1.4-0.3-2.3-0.7-2.9-1.1c-1-0.7-1.5-1.7-1.5-3c0-1.4,0.5-2.6,1.5-3.6
				c1-0.9,2.3-1.4,4.1-1.4c1.6,0,3,0.4,4.2,1.2c1.1,0.8,1.7,2.1,1.7,3.9h-2c-0.1-0.9-0.3-1.5-0.7-2c-0.6-0.8-1.7-1.3-3.2-1.3
				c-1.2,0-2.1,0.3-2.7,0.8s-0.8,1.2-0.8,1.9c0,0.8,0.3,1.4,1,1.7c0.4,0.2,1.4,0.5,2.8,0.9l2.2,0.5c1.1,0.2,1.9,0.6,2.4,1
				c1,0.8,1.5,1.8,1.5,3.3c0,1.8-0.6,3-1.9,3.8c-1.3,0.8-2.7,1.1-4.4,1.1c-1.9,0-3.5-0.5-4.6-1.5c-1.1-1-1.6-2.4-1.6-4.1H931.7z"/>
			<path class="st3" d="M961.3,23.7v1.9h-5.4v14.1h-2.2V25.6h-5.4v-1.9H961.3z"/>
		</g>
		<g class="st2">
			<path class="st4" d="M645.5,33.7h-10.8v12.9h-7.4V14.4h19.6l0.9,5.8h-13.1v7.7h10L645.5,33.7z"/>
			<path class="st4" d="M662,14.4h11.9c3.8,0,6.9,0.9,9.3,2.6c2.4,1.8,3.6,4.4,3.6,7.8c0,1.9-0.4,3.6-1.3,5
				c-0.9,1.5-2.1,2.6-3.6,3.5l7.5,13.2h-8.3l-6-11.2h-5.8v11.2H662V14.4z M673.7,20.3h-4.3v9.2h4.4c1.6,0,2.9-0.4,3.9-1.2
				c1-0.8,1.5-1.9,1.5-3.3c0-1.6-0.5-2.7-1.4-3.5C676.8,20.7,675.4,20.3,673.7,20.3z"/>
			<path class="st4" d="M703.3,46.5V14.4h20.3l0.9,5.8h-13.8v7.2h10.2l0.9,5.8h-11.1v7.5h14.8l0.9,5.8H703.3z"/>
			<path class="st4" d="M740.7,46.5V14.4h20.3l0.9,5.8H748v7.2h10.2l0.9,5.8H748v7.5h14.8l0.9,5.8H740.7z"/>
		</g>
		<g class="st2">
			<path class="st5" d="M651,33.7h-10.8v12.9h-7.4V14.4h19.6l0.9,5.8h-13.1v7.7h10L651,33.7z"/>
			<path class="st5" d="M667.5,14.4h11.9c3.8,0,6.9,0.9,9.3,2.6c2.4,1.8,3.6,4.4,3.6,7.8c0,1.9-0.4,3.6-1.3,5
				c-0.9,1.5-2.1,2.6-3.6,3.5l7.5,13.2h-8.3l-6-11.2h-5.8v11.2h-7.4V14.4z M679.1,20.3h-4.3v9.2h4.4c1.6,0,2.9-0.4,3.9-1.2
				c1-0.8,1.5-1.9,1.5-3.3c0-1.6-0.5-2.7-1.4-3.5C682.2,20.7,680.9,20.3,679.1,20.3z"/>
			<path class="st5" d="M708.7,46.5V14.4H729l0.9,5.8h-13.8v7.2h10.2l0.9,5.8h-11.1v7.5h14.8l0.9,5.8H708.7z"/>
			<path class="st5" d="M746.1,46.5V14.4h20.3l0.9,5.8h-13.8v7.2h10.2l0.9,5.8h-11.1v7.5h14.8l0.9,5.8H746.1z"/>
		</g>
		<g transform="translate(1049.611 107.498)">
			<path class="st6" d="M-82.5-81.6c0.1-0.4,0.5-0.6,0.9-0.6c6.4,0,12.9,0,19.3,0c0.6,0,0.9,0.3,0.9,0.9c0,0.6,0,0.6,0.6,0.6
				c0.7,0,1.3,0,2,0c1.1,0.2,1.9,1.1,1.9,2.2c0,1.8-0.7,3.6-2.1,4.8c-1.3,1.3-3,2-4.9,1.9c-0.3,0-0.5,0.1-0.6,0.3
				c-0.3,0.4-0.6,0.8-0.9,1.2c0.1,0,0.2,0.1,0.3,0c1,0,1.9,0,2.9,0c0.4-0.1,0.8,0.2,0.9,0.7c0,0.2,0,0.4-0.2,0.6
				c-1,2-3.2,3.3-5.5,3.3c-3.3,0-6.6,0-9.9,0c-2.4,0-4.6-1.4-5.6-3.6v-0.4c0.1-0.4,0.5-0.6,0.9-0.6c0.9,0,1.9,0,2.8,0
				c0.1,0,0.2,0,0.3,0c-0.2-0.2-0.4-0.4-0.5-0.6c-1.7-2.2-2.8-4.8-3.2-7.5c-0.1-0.7-0.2-1.3-0.2-2L-82.5-81.6z M-72-80.6L-72-80.6
				h-8.7c-0.3,0-0.3,0-0.3,0.3c0.1,2.1,0.6,4.2,1.5,6.1c0.7,1.5,1.7,2.9,3,4c0.1,0.1,0.2,0.1,0.4,0.1c2.7,0,5.4,0,8.1,0
				c0.1,0,0.2,0,0.3-0.1c0.6-0.4,1.1-0.9,1.5-1.5c1.9-2.5,3-5.5,3.1-8.6c0-0.4,0-0.4-0.3-0.4L-72-80.6z M-80.3-68.5
				c0.9,0.9,2.1,1.5,3.4,1.5c3.3,0,6.6,0,9.9,0c0.8,0,1.6-0.2,2.3-0.6c0.4-0.2,0.7-0.5,1-0.8L-80.3-68.5z M-58.4-78.2
				c0.1-0.4-0.2-0.8-0.6-0.9c-0.1,0-0.1,0-0.2,0c-0.7,0-1.4,0-2,0c-0.2,0-0.2,0-0.3,0.2c-0.1,0.5-0.1,0.9-0.2,1.4
				c-0.3,1.4-0.7,2.8-1.4,4.1c0,0.1-0.1,0.2-0.1,0.2c0.1,0.1,0.2,0,0.3,0c0,0,0,0,0.1,0C-60.4-73.6-58.5-75.7-58.4-78.2L-58.4-78.2z
				"/>
			<path class="st6" d="M-67.3-91.2c0.4,0.1,0.7,0.5,0.5,1c0,0.2-0.1,0.3-0.2,0.4c-0.5,0.5-0.5,1.4,0.1,1.9c0.8,0.8,1,2,0.6,3.1
				c-0.1,0.3-0.3,0.7-0.6,0.9c-0.3,0.3-0.8,0.4-1.1,0.1c0,0,0,0,0,0c-0.3-0.3-0.3-0.8-0.1-1.1c0.5-0.5,0.6-1.4,0-1.9
				c0,0-0.1-0.1-0.1-0.1c-1-1.1-1-2.7-0.1-3.8c0.1-0.2,0.3-0.3,0.5-0.4L-67.3-91.2z"/>
			<path class="st6" d="M-76.3-91.2c0.4,0.1,0.7,0.5,0.5,1c0,0.2-0.1,0.3-0.2,0.4c-0.5,0.6-0.5,1.4,0.1,1.9c0.8,0.8,1,2.1,0.6,3.1
				c-0.1,0.3-0.3,0.6-0.6,0.9c-0.3,0.3-0.8,0.4-1.1,0.1c0,0,0,0,0,0c-0.3-0.3-0.3-0.8-0.1-1.1c0.5-0.5,0.6-1.4,0-1.9
				c0,0-0.1-0.1-0.1-0.1c-1-1.1-1-2.7-0.1-3.8c0.1-0.2,0.3-0.3,0.5-0.4L-76.3-91.2z"/>
			<path class="st6" d="M-71.8-91.2c0.4,0.1,0.7,0.5,0.5,1c0,0.2-0.1,0.3-0.2,0.4c-0.5,0.5-0.5,1.4,0.1,1.9c0.8,0.8,1,2,0.6,3.1
				c-0.1,0.3-0.3,0.7-0.6,0.9c-0.3,0.3-0.8,0.4-1.1,0.1c0,0,0,0,0,0c-0.3-0.3-0.3-0.8-0.1-1.1c0.5-0.5,0.6-1.4,0-1.9
				c0,0-0.1-0.1-0.1-0.1c-1-1.1-1-2.7-0.1-3.8c0.1-0.2,0.3-0.3,0.5-0.4L-71.8-91.2z"/>
		</g>
	</g>
</g>
</svg>
