<?xml version="1.0" encoding="UTF-8" standalone="no"?>
<svg
   xmlns:dc="http://purl.org/dc/elements/1.1/"
   xmlns:cc="http://creativecommons.org/ns#"
   xmlns:rdf="http://www.w3.org/1999/02/22-rdf-syntax-ns#"
   xmlns:svg="http://www.w3.org/2000/svg"
   xmlns="http://www.w3.org/2000/svg"
   viewBox="0 0 82.666664 66.666664"
   height="66.666664"
   width="82.666664"
   xml:space="preserve"
   id="svg2"
   version="1.1"><metadata
     id="metadata8"><rdf:RDF><cc:Work
         rdf:about=""><dc:format>image/svg+xml</dc:format><dc:type
           rdf:resource="http://purl.org/dc/dcmitype/StillImage" /></cc:Work></rdf:RDF></metadata><defs
     id="defs6"><clipPath
       id="clipPath18"
       clipPathUnits="userSpaceOnUse"><path
         id="path16"
         d="M 0,50 H 62 V 0 H 0 Z" /></clipPath></defs><g
     transform="matrix(1.3333333,0,0,-1.3333333,0,66.666667)"
     id="g10"><g
       id="g12"><g
         clip-path="url(#clipPath18)"
         id="g14"><g
           transform="translate(53.416,40.3555)"
           id="g20"><path
             id="path22"
             style="fill:#3e3736;fill-opacity:1;fill-rule:nonzero;stroke:none"
             d="m 0,0 c -0.459,0 -0.83,0.372 -0.83,0.83 0,0.458 0.371,0.83 0.83,0.83 0.458,0 0.83,-0.372 0.83,-0.83 C 0.83,0.372 0.458,0 0,0 m -6.641,-33.649 -0.551,0.551 c -1.07,1.071 -2.804,1.072 -3.874,0.003 0,-10e-4 -10e-4,-0.002 -0.002,-0.003 l -0.619,-0.617 c -0.421,-0.421 -1.105,-0.421 -1.528,0 l -0.618,0.617 c -0.311,0.308 -0.69,0.535 -1.107,0.664 v 9.193 c 0,0.459 -0.373,0.83 -0.831,0.83 -0.458,0 -0.83,-0.371 -0.83,-0.83 v -9.196 c -0.418,-0.128 -0.797,-0.356 -1.108,-0.664 l -0.617,-0.617 c -0.423,-0.421 -1.107,-0.421 -1.529,0 l -0.618,0.617 c -1.069,1.072 -2.803,1.073 -3.874,0.003 0,-10e-4 -10e-4,-0.002 -0.002,-0.003 l -0.618,-0.617 c -0.422,-0.421 -1.106,-0.421 -1.529,0 l -0.617,0.617 c -0.314,0.31 -0.699,0.538 -1.121,0.664 0,0.023 0.013,0.041 0.013,0.062 v 14.114 c 0,0.458 -0.372,0.83 -0.83,0.83 -0.459,0 -0.83,-0.372 -0.83,-0.83 v -14.11 c 0,-0.022 0.01,-0.04 0.012,-0.062 -0.422,-0.127 -0.807,-0.354 -1.12,-0.664 l -0.618,-0.617 c -0.423,-0.422 -1.106,-0.422 -1.529,0 l -0.617,0.617 c -1.069,1.071 -2.804,1.072 -3.874,0.003 -10e-4,-10e-4 -0.002,-0.002 -0.002,-0.003 l -0.553,-0.552 V 3.32 H -6.641 Z M -44.822,0 c -0.458,0 -0.83,0.372 -0.83,0.83 0,0.458 0.372,0.83 0.83,0.83 0.459,0 0.83,-0.372 0.83,-0.83 0,-0.458 -0.371,-0.83 -0.83,-0.83 M 2.346,1.668 C 1.992,2.66 1.053,3.322 0,3.32 -1.052,3.316 -1.987,2.651 -2.338,1.66 H -4.98 v 2.49 c 0,0.458 -0.373,0.83 -0.831,0.83 h -33.201 c -0.458,0 -0.83,-0.372 -0.83,-0.83 V 1.66 h -2.642 c -0.459,1.297 -1.882,1.976 -3.178,1.518 C -46.958,2.719 -47.638,1.296 -47.18,0 c 0.458,-1.297 1.881,-1.976 3.178,-1.518 0.709,0.251 1.267,0.809 1.518,1.518 h 2.642 v -34.861 c 10e-4,-0.227 0.093,-0.444 0.258,-0.601 0.165,-0.153 0.385,-0.236 0.61,-0.228 l 0.83,0.038 c 0.207,0.009 0.403,0.095 0.549,0.242 l 1.139,1.139 c 0.42,0.422 1.104,0.423 1.526,0.002 l 0.003,-0.002 0.617,-0.618 c 1.085,-1.035 2.792,-1.035 3.877,0 l 0.617,0.618 c 0.421,0.422 1.104,0.423 1.526,0.002 10e-4,-0.001 0.002,-0.002 0.003,-0.002 l 0.618,-0.618 c 1.085,-1.035 2.791,-1.035 3.876,0 l 0.617,0.618 c 0.421,0.422 1.104,0.423 1.527,0.002 l 0.003,-0.002 0.617,-0.618 c 1.085,-1.035 2.792,-1.035 3.876,0 l 0.618,0.618 c 0.157,0.15 0.356,0.247 0.571,0.279 0.123,-0.053 0.263,-0.053 0.387,0 0.214,-0.032 0.414,-0.129 0.57,-0.279 l 0.618,-0.618 c 1.085,-1.035 2.791,-1.035 3.876,0 l 0.617,0.618 c 0.421,0.422 1.105,0.423 1.527,0.002 l 0.003,-0.002 1.138,-1.139 c 0.147,-0.147 0.342,-0.233 0.549,-0.242 l 0.83,-0.038 h 0.038 c 0.458,0 0.831,0.371 0.831,0.83 V 0 h 2.642 c 0.461,-1.293 1.883,-1.968 3.177,-1.508 1.293,0.461 1.968,1.883 1.507,3.176" /></g><g
           transform="translate(28.5151,42.0156)"
           id="g24"><path
             id="path26"
             style="fill:#3e3736;fill-opacity:1;fill-rule:nonzero;stroke:none"
             d="m 0,0 h -10.791 c -0.458,0 -0.83,-0.372 -0.83,-0.83 0,-0.459 0.372,-0.83 0.83,-0.83 H 0 c 0.458,0 0.83,0.371 0.83,0.83 C 0.83,-0.372 0.458,0 0,0" /></g><g
           transform="translate(44.2852,42.0156)"
           id="g28"><path
             id="path30"
             style="fill:#3e3736;fill-opacity:1;fill-rule:nonzero;stroke:none"
             d="m 0,0 h -10.79 c -0.458,0 -0.83,-0.372 -0.83,-0.83 0,-0.459 0.372,-0.83 0.83,-0.83 H 0 c 0.459,0 0.83,0.371 0.83,0.83 C 0.83,-0.372 0.459,0 0,0" /></g><g
           transform="translate(44.2852,37.8652)"
           id="g32"><path
             id="path34"
             style="fill:#3e3736;fill-opacity:1;fill-rule:nonzero;stroke:none"
             d="m 0,0 c -0.458,0 -0.83,-0.372 -0.83,-0.83 v -9.961 c 0,-0.458 0.372,-0.83 0.83,-0.83 0.459,0 0.83,0.372 0.83,0.83 V -0.83 C 0.83,-0.372 0.459,0 0,0" /></g><g
           transform="translate(31.0049,34.5449)"
           id="g36"><path
             id="path38"
             style="fill:#3e3736;fill-opacity:1;fill-rule:nonzero;stroke:none"
             d="m 0,0 c -0.458,0 -0.83,-0.372 -0.83,-0.83 v -9.96 c 0,-0.459 0.372,-0.83 0.83,-0.83 0.458,0 0.83,0.371 0.83,0.83 v 9.96 C 0.83,-0.372 0.458,0 0,0" /></g><g
           transform="translate(37.6455,23.7549)"
           id="g40"><path
             id="path42"
             style="fill:#3e3736;fill-opacity:1;fill-rule:nonzero;stroke:none"
             d="m 0,0 c -0.459,0 -0.83,-0.372 -0.83,-0.83 v -2.49 c 0,-0.458 0.371,-0.83 0.83,-0.83 0.458,0 0.83,0.372 0.83,0.83 v 2.49 C 0.83,-0.372 0.458,0 0,0" /></g><g
           transform="translate(24.3647,27.9048)"
           id="g44"><path
             id="path46"
             style="fill:#3e3736;fill-opacity:1;fill-rule:nonzero;stroke:none"
             d="m 0,0 c -0.458,0 -0.83,-0.372 -0.83,-0.83 v -1.66 c 0,-0.458 0.372,-0.83 0.83,-0.83 0.458,0 0.83,0.372 0.83,0.83 v 1.66 C 0.83,-0.372 0.458,0 0,0" /></g></g></g></g></svg>