<?xml version="1.0" encoding="UTF-8" standalone="no"?>
<svg
   xmlns:dc="http://purl.org/dc/elements/1.1/"
   xmlns:cc="http://creativecommons.org/ns#"
   xmlns:rdf="http://www.w3.org/1999/02/22-rdf-syntax-ns#"
   xmlns:svg="http://www.w3.org/2000/svg"
   xmlns="http://www.w3.org/2000/svg"
   viewBox="0 0 82.666664 66.666664"
   height="66.666664"
   width="82.666664"
   xml:space="preserve"
   id="svg2"
   version="1.1"><metadata
     id="metadata8"><rdf:RDF><cc:Work
         rdf:about=""><dc:format>image/svg+xml</dc:format><dc:type
           rdf:resource="http://purl.org/dc/dcmitype/StillImage" /></cc:Work></rdf:RDF></metadata><defs
     id="defs6"><clipPath
       id="clipPath18"
       clipPathUnits="userSpaceOnUse"><path
         id="path16"
         d="M 0,50 H 62 V 0 H 0 Z" /></clipPath></defs><g
     transform="matrix(1.3333333,0,0,-1.3333333,0,66.666667)"
     id="g10"><g
       id="g12"><g
         clip-path="url(#clipPath18)"
         id="g14"><g
           transform="translate(20.5083,23.6748)"
           id="g20"><path
             id="path22"
             style="fill:#3e3736;fill-opacity:1;fill-rule:nonzero;stroke:none"
             d="M 0,0 C 0.282,0.793 1.033,1.324 1.875,1.325 H 19.108 C 19.951,1.324 20.702,0.793 20.983,0 Z m 14.216,-10.542 c -1.783,-0.72 -3.737,-0.908 -5.626,-0.543 -0.626,0.121 -1.237,0.303 -1.827,0.545 -3.764,1.508 -6.226,5.159 -6.213,9.214 h 19.884 c 0.013,-4.056 -2.452,-7.709 -6.218,-9.216 m -7.038,-6.691 v 5.135 l 0.061,-0.016 c 0.067,-0.021 0.133,-0.035 0.199,-0.054 0.243,-0.069 0.488,-0.13 0.735,-0.182 0.119,-0.025 0.238,-0.046 0.357,-0.066 0.205,-0.036 0.411,-0.066 0.619,-0.09 0.126,-0.015 0.25,-0.031 0.378,-0.041 0.27,-0.023 0.54,-0.036 0.811,-0.039 0.051,0 0.1,-0.007 0.15,-0.007 0.051,0 0.1,0.006 0.151,0.007 0.271,0.003 0.542,0.016 0.811,0.039 0.128,0.01 0.254,0.026 0.38,0.041 0.206,0.025 0.41,0.054 0.613,0.089 0.121,0.021 0.243,0.043 0.363,0.066 0.241,0.05 0.48,0.111 0.715,0.177 0.074,0.021 0.148,0.037 0.223,0.059 0.018,0.006 0.039,0.01 0.058,0.015 l 0.004,-5.133 z M 17.12,2.651 H 3.864 V 3.977 H 17.12 Z M 1.875,5.302 c -0.366,0 -0.663,0.297 -0.663,0.663 V 17.232 H 19.771 V 5.965 c 0,-0.366 -0.297,-0.663 -0.663,-0.663 z m -1.988,13.919 c 0,0.366 0.297,0.663 0.663,0.663 h 19.884 c 0.366,0 0.662,-0.297 0.662,-0.663 0,-0.366 -0.296,-0.663 -0.662,-0.663 H 0.55 c -0.366,0 -0.663,0.297 -0.663,0.663 M 19.108,2.651 h -0.662 v 1.326 h 0.662 c 1.099,0 1.988,0.89 1.988,1.988 v 11.389 c 1.034,0.364 1.576,1.497 1.213,2.531 -0.28,0.795 -1.032,1.326 -1.875,1.324 H 0.55 c -1.096,0.002 -1.986,-0.884 -1.988,-1.98 -0.001,-0.843 0.53,-1.594 1.325,-1.875 V 5.965 c 0,-1.098 0.89,-1.988 1.988,-1.988 H 2.538 V 2.651 H 1.875 C 0.046,2.648 -1.437,1.166 -1.439,-0.663 c 0,-0.366 0.297,-0.663 0.663,-0.663 -0.013,-4.429 2.585,-8.45 6.628,-10.258 v -6.312 c 0,-0.367 0.297,-0.663 0.663,-0.663 h 7.953 c 0.366,0 0.663,0.296 0.663,0.663 v 6.312 c 4.043,1.809 6.641,5.829 6.628,10.258 0.366,0 0.663,0.297 0.663,0.663 -0.002,1.829 -1.484,3.311 -3.314,3.314" /></g><g
           transform="translate(24.3721,37.5933)"
           id="g24"><path
             id="path26"
             style="fill:#3e3736;fill-opacity:1;fill-rule:nonzero;stroke:none"
             d="m 0,0 c -0.366,0 -0.663,0.297 -0.663,0.663 0,0.366 0.297,0.663 0.663,0.663 0.366,0 0.663,-0.297 0.663,-0.663 C 0.663,0.297 0.366,0 0,0 M 3.977,1.326 H 1.866 C 1.5,2.361 0.364,2.904 -0.671,2.538 -1.707,2.171 -2.249,1.036 -1.883,0 -1.517,-1.035 -0.381,-1.578 0.654,-1.212 1.221,-1.012 1.666,-0.566 1.866,0 H 3.977 C 4.343,0 4.64,0.297 4.64,0.663 4.64,1.029 4.343,1.326 3.977,1.326" /></g></g></g></g></svg>