<?xml version="1.0" encoding="UTF-8" standalone="no"?>
<svg
   xmlns:dc="http://purl.org/dc/elements/1.1/"
   xmlns:cc="http://creativecommons.org/ns#"
   xmlns:rdf="http://www.w3.org/1999/02/22-rdf-syntax-ns#"
   xmlns:svg="http://www.w3.org/2000/svg"
   xmlns="http://www.w3.org/2000/svg"
   viewBox="0 0 48.3456 42.666668"
   height="42.666668"
   width="48.3456"
   xml:space="preserve"
   id="svg2"
   version="1.1"><metadata
     id="metadata8"><rdf:RDF><cc:Work
         rdf:about=""><dc:format>image/svg+xml</dc:format><dc:type
           rdf:resource="http://purl.org/dc/dcmitype/StillImage" /></cc:Work></rdf:RDF></metadata><defs
     id="defs6"><clipPath
       id="clipPath18"
       clipPathUnits="userSpaceOnUse"><path
         id="path16"
         d="M 0,32 H 36.259 V 0 H 0 Z" /></clipPath></defs><g
     transform="matrix(1.3333333,0,0,-1.3333333,0,42.666667)"
     id="g10"><g
       id="g12"><g
         clip-path="url(#clipPath18)"
         id="g14"><g
           transform="translate(11.373,17.1167)"
           id="g20"><path
             id="path22"
             style="fill:#3e3736;fill-opacity:1;fill-rule:nonzero;stroke:none"
             d="m 0,0 c -2.119,0 -3.842,1.723 -3.842,3.84 0,2.118 1.723,3.84 3.842,3.84 2.119,0 3.843,-1.722 3.843,-3.84 C 3.843,1.723 2.119,0 0,0 m 0,9.515 c -3.13,0 -5.677,-2.546 -5.677,-5.675 0,-3.129 2.547,-5.674 5.677,-5.674 3.131,0 5.678,2.545 5.678,5.674 0,3.129 -2.547,5.675 -5.678,5.675" /></g><g
           transform="translate(12.8799,22.4893)"
           id="g24"><path
             id="path26"
             style="fill:#3e3736;fill-opacity:1;fill-rule:nonzero;stroke:none"
             d="m 0,0 c -0.506,0 -0.917,-0.411 -0.917,-0.917 v -1.23 c 0,-0.507 0.411,-0.918 0.917,-0.918 0.507,0 0.917,0.411 0.917,0.918 v 1.23 C 0.917,-0.411 0.507,0 0,0" /></g><g
           transform="translate(9.8662,22.4893)"
           id="g28"><path
             id="path30"
             style="fill:#3e3736;fill-opacity:1;fill-rule:nonzero;stroke:none"
             d="m 0,0 c -0.506,0 -0.917,-0.411 -0.917,-0.917 v -1.23 c 0,-0.507 0.411,-0.918 0.917,-0.918 0.507,0 0.917,0.411 0.917,0.918 v 1.23 C 0.917,-0.411 0.507,0 0,0" /></g><g
           transform="translate(30.7295,19.8843)"
           id="g32"><path
             id="path34"
             style="fill:#3e3736;fill-opacity:1;fill-rule:nonzero;stroke:none"
             d="m 0,0 c 0,-0.551 -0.448,-1 -0.999,-1 h -2.855 c -0.551,0 -1,0.449 -1,1 V 3.85 H 0 Z M -26.422,-4.487 V 6.632 c 0,0.828 0.673,1.502 1.501,1.502 h 11.129 c 0.828,0 1.502,-0.674 1.502,-1.502 V -4.487 c 0,-0.828 -0.674,-1.502 -1.502,-1.502 h -11.129 c -0.828,0 -1.501,0.674 -1.501,1.502 M 2.14,5.685 h -2.142 v 3.366 c 0,0.507 -0.411,0.918 -0.918,0.918 -0.507,0 -0.917,-0.411 -0.917,-0.918 V 5.685 h -1.179 v 3.366 c 0,0.507 -0.411,0.918 -0.918,0.918 -0.506,0 -0.917,-0.411 -0.917,-0.918 V 5.685 H -6.993 C -7.5,5.685 -7.91,5.274 -7.91,4.768 -7.91,4.261 -7.5,3.85 -6.993,3.85 h 0.305 V 0 c 0,-1.563 1.271,-2.834 2.834,-2.834 h 0.51 v -11.149 c 0,-1.059 -0.862,-1.92 -1.921,-1.92 -1.059,0 -1.921,0.861 -1.921,1.92 v 1.429 c 0,2.001 -1.628,3.63 -3.631,3.63 -2.002,0 -3.631,-1.629 -3.631,-3.63 v -1.355 c 0,-1.099 -0.895,-1.994 -1.995,-1.994 -0.534,0 -1.035,0.208 -1.411,0.584 -0.377,0.377 -0.585,0.877 -0.585,1.409 v 6.086 h 4.647 c 1.84,0 3.337,1.497 3.337,3.337 V 6.632 c 0,1.84 -1.497,3.337 -3.337,3.337 h -11.129 c -1.839,0 -3.336,-1.497 -3.336,-3.337 V -4.487 c 0,-1.84 1.497,-3.337 3.336,-3.337 h 4.648 v -6.086 c 0,-1.022 0.398,-1.983 1.122,-2.707 0.723,-0.722 1.684,-1.12 2.707,-1.12 h 10e-4 c 2.111,0 3.83,1.718 3.83,3.828 v 1.355 c 0,0.99 0.805,1.795 1.796,1.795 0.99,0 1.796,-0.805 1.796,-1.795 v -1.429 c 0,-2.07 1.685,-3.754 3.756,-3.754 2.071,0 3.756,1.684 3.756,3.754 v 11.149 h 0.51 c 1.562,0 2.834,1.271 2.834,2.834 V 3.85 H 2.14 c 0.506,0 0.918,0.411 0.918,0.918 0,0.506 -0.412,0.917 -0.918,0.917" /></g></g></g></g></svg>