<?xml version="1.0" encoding="UTF-8" standalone="no"?>
<svg
   xmlns:dc="http://purl.org/dc/elements/1.1/"
   xmlns:cc="http://creativecommons.org/ns#"
   xmlns:rdf="http://www.w3.org/1999/02/22-rdf-syntax-ns#"
   xmlns:svg="http://www.w3.org/2000/svg"
   xmlns="http://www.w3.org/2000/svg"
   viewBox="0 0 48.3456 42.666668"
   height="42.666668"
   width="48.3456"
   xml:space="preserve"
   id="svg2"
   version="1.1"><metadata
     id="metadata8"><rdf:RDF><cc:Work
         rdf:about=""><dc:format>image/svg+xml</dc:format><dc:type
           rdf:resource="http://purl.org/dc/dcmitype/StillImage" /></cc:Work></rdf:RDF></metadata><defs
     id="defs6"><clipPath
       id="clipPath18"
       clipPathUnits="userSpaceOnUse"><path
         id="path16"
         d="M 0,32 H 36.259 V 0 H 0 Z" /></clipPath></defs><g
     transform="matrix(1.3333333,0,0,-1.3333333,0,42.666667)"
     id="g10"><g
       id="g12"><g
         clip-path="url(#clipPath18)"
         id="g14"><g
           transform="translate(33.1484,21.8594)"
           id="g20"><path
             id="path22"
             style="fill:#3e3736;fill-opacity:1;fill-rule:nonzero;stroke:none"
             d="m 0,0 c 0,-0.368 -0.299,-0.667 -0.667,-0.667 h -4.526 v 1.83 h 4.526 C -0.299,1.163 0,0.864 0,0.497 Z m -2.438,-13.446 c 0,-0.546 -0.272,-0.832 -0.366,-0.832 h -2.389 v 12.339 h 2.755 z M -5.687,4.363 C -6.105,3.912 -6.578,3.052 -6.466,1.521 v -9.77 h -21.6 v 1.217 h 6.226 c 0.351,0 0.636,0.284 0.636,0.636 0,0.351 -0.285,0.636 -0.636,0.636 h -6.226 V 5.232 c 0,1.17 0.952,2.122 2.122,2.122 h 20.115 c 0.007,0 0.014,0 0.02,0 0.896,0.028 1.737,-0.329 2.356,-1.003 0.406,-0.441 0.698,-0.996 0.868,-1.629 -0.419,0.25 -0.892,0.389 -1.385,0.389 -0.661,0 -1.271,-0.266 -1.717,-0.748 m -0.779,-16.621 h -21.601 v 2.736 h 21.601 z m 0,-3.255 c 0,-1.426 -0.024,-2.33 -0.363,-2.844 -0.22,-0.334 -0.707,-0.718 -2.536,-0.718 h -16.579 c -1.17,0 -2.122,0.952 -2.122,2.122 v 3.423 h 21.6 z m 4.028,18.139 v -0.19 h -2.743 c 0.059,0.455 0.203,0.82 0.428,1.063 0.26,0.28 0.569,0.339 0.783,0.339 0.532,0 1.224,-0.381 1.532,-1.212 m -26.901,-3.293 h -0.032 c -0.368,0 -0.667,0.299 -0.667,0.667 v 0.497 c 0,0.367 0.299,0.666 0.667,0.666 h 0.032 z m 28.672,3.103 h -0.498 v 0.279 c 0.145,1.794 -0.334,3.39 -1.351,4.497 -0.87,0.947 -2.057,1.454 -3.324,1.415 h -20.104 c -1.872,0 -3.395,-1.523 -3.395,-3.395 V 2.436 h -0.032 c -1.069,0 -1.94,-0.87 -1.94,-1.939 V 0 c 0,-1.069 0.871,-1.939 1.94,-1.939 h 0.032 v -15.014 c 0,-1.872 1.523,-3.395 3.395,-3.395 h 16.579 c 1.928,0 3.004,0.386 3.599,1.29 0.568,0.863 0.573,2.088 0.573,3.506 h 2.389 c 0.919,0 1.639,0.925 1.639,2.106 v 11.507 h 0.498 c 1.069,0 1.939,0.87 1.939,1.939 v 0.497 c 0,1.069 -0.87,1.939 -1.939,1.939" /></g><g
           transform="translate(13.3027,16.0996)"
           id="g24"><path
             id="path26"
             style="fill:#3e3736;fill-opacity:1;fill-rule:nonzero;stroke:none"
             d="m 0,0 h -0.051 c -0.352,0 -0.636,-0.285 -0.636,-0.636 0,-0.352 0.284,-0.636 0.636,-0.636 H 0 c 0.352,0 0.636,0.284 0.636,0.636 C 0.636,-0.285 0.352,0 0,0" /></g></g></g></g></svg>