<?xml version="1.0" encoding="UTF-8" standalone="no"?>
<svg
   xmlns:dc="http://purl.org/dc/elements/1.1/"
   xmlns:cc="http://creativecommons.org/ns#"
   xmlns:rdf="http://www.w3.org/1999/02/22-rdf-syntax-ns#"
   xmlns:svg="http://www.w3.org/2000/svg"
   xmlns="http://www.w3.org/2000/svg"
   viewBox="0 0 33.333332 30.197733"
   height="30.197733"
   width="33.333332"
   xml:space="preserve"
   id="svg2"
   version="1.1"><metadata
     id="metadata8"><rdf:RDF><cc:Work
         rdf:about=""><dc:format>image/svg+xml</dc:format><dc:type
           rdf:resource="http://purl.org/dc/dcmitype/StillImage" /></cc:Work></rdf:RDF></metadata><defs
     id="defs6"><clipPath
       id="clipPath18"
       clipPathUnits="userSpaceOnUse"><path
         id="path16"
         d="M 0,22.648 H 25 V 0 H 0 Z" /></clipPath></defs><g
     transform="matrix(1.3333333,0,0,-1.3333333,0,30.197733)"
     id="g10"><g
       id="g12"><g
         clip-path="url(#clipPath18)"
         id="g14"><g
           transform="translate(11.5591,5.8173)"
           id="g20"><path
             id="path22"
             style="fill:#3f4c49;fill-opacity:1;fill-rule:nonzero;stroke:none"
             d="m 0,0 c -0.158,-0.157 -0.158,-0.414 0,-0.572 0.158,-0.158 0.415,-0.158 0.572,0 C 0.73,-0.414 0.73,-0.157 0.572,0 0.415,0.158 0.158,0.158 0,0" /></g><g
           transform="translate(14.9277,2.2402)"
           id="g24"><path
             id="path26"
             style="fill:#3f4c49;fill-opacity:1;fill-rule:nonzero;stroke:none"
             d="m 0,0 c -2.216,0.81 -4.647,2.466 -6.845,4.664 -2.147,2.147 -3.773,4.513 -4.578,6.663 -0.605,1.614 -1.01,3.853 0.49,5.353 l 0.857,0.857 3.544,-5.212 -0.598,-0.597 c -0.34,-0.34 -0.447,-0.842 -0.277,-1.29 0.128,-0.524 0.716,-1.613 1.309,-2.415 0.873,-1.18 2.457,-2.812 5.048,-3.883 0.455,-0.189 0.975,-0.085 1.323,0.262 L 0.859,4.989 6.098,1.067 5.63,0.601 C 4.021,-1.009 1.681,-0.614 0,0 m -7.515,18.008 c 0.004,-0.007 0.009,-0.013 0.013,-0.019 l 2.219,-3.084 c 0.302,-0.483 0.232,-1.098 -0.172,-1.502 l -0.495,-0.495 -3.543,5.212 0.095,0.094 c 0.551,0.552 1.467,0.448 1.883,-0.206 M 3.438,6.258 6.509,3.646 C 6.522,3.635 6.538,3.624 6.554,3.613 7.21,3.196 7.309,2.278 6.76,1.73 L 6.676,1.646 1.438,5.567 1.949,6.078 c 0.4,0.401 1.008,0.473 1.489,0.18 M 7.013,4.28 3.939,6.895 C 3.925,6.906 3.91,6.917 3.895,6.928 3.088,7.44 2.053,7.327 1.377,6.651 L -0.3,4.976 C -0.415,4.859 -0.589,4.825 -0.74,4.888 -2.633,5.67 -4.187,6.849 -5.361,8.39 c -0.895,1.175 -1.218,2.109 -1.26,2.24 -0.005,0.029 -0.013,0.057 -0.025,0.084 -0.062,0.152 -0.028,0.325 0.088,0.441 l 1.676,1.676 c 0.676,0.676 0.79,1.711 0.277,2.518 -0.005,0.006 -0.009,0.013 -0.014,0.019 l -2.219,3.085 c -0.699,1.083 -2.22,1.247 -3.133,0.334 l -0.335,-0.336 c -0.001,0 -0.001,0 -0.001,0 l -1.198,-1.199 c -1.429,-1.428 -1.663,-3.575 -0.676,-6.209 0.845,-2.256 2.537,-4.725 4.764,-6.951 2.279,-2.28 4.815,-4.003 7.14,-4.853 2.3,-0.84 4.748,-0.944 6.479,0.788 l 1.131,1.13 c 0.908,0.909 0.75,2.421 -0.32,3.123" /></g><g
           transform="translate(10.7993,6.7841)"
           id="g28"><path
             id="path30"
             style="fill:#3f4c49;fill-opacity:1;fill-rule:nonzero;stroke:none"
             d="M 0,0 C -0.428,0.375 -1.167,1.021 -1.557,1.421 -2.512,2.402 -3.514,3.593 -4.11,4.452 -4.237,4.636 -4.49,4.682 -4.673,4.554 -4.857,4.427 -4.903,4.175 -4.776,3.991 -4.024,2.906 -2.92,1.661 -2.137,0.856 -1.726,0.434 -0.98,-0.218 -0.534,-0.608 -0.366,-0.756 -0.11,-0.739 0.038,-0.571 0.185,-0.403 0.168,-0.147 0,0" /></g></g></g></g></svg>