<?xml version="1.0" encoding="UTF-8" standalone="no"?>
<svg
   xmlns:dc="http://purl.org/dc/elements/1.1/"
   xmlns:cc="http://creativecommons.org/ns#"
   xmlns:rdf="http://www.w3.org/1999/02/22-rdf-syntax-ns#"
   xmlns:svg="http://www.w3.org/2000/svg"
   xmlns="http://www.w3.org/2000/svg"
   viewBox="0 0 82.666664 66.666664"
   height="66.666664"
   width="82.666664"
   xml:space="preserve"
   id="svg2"
   version="1.1"><metadata
     id="metadata8"><rdf:RDF><cc:Work
         rdf:about=""><dc:format>image/svg+xml</dc:format><dc:type
           rdf:resource="http://purl.org/dc/dcmitype/StillImage" /></cc:Work></rdf:RDF></metadata><defs
     id="defs6"><clipPath
       id="clipPath18"
       clipPathUnits="userSpaceOnUse"><path
         id="path16"
         d="M 0,50 H 62 V 0 H 0 Z" /></clipPath></defs><g
     transform="matrix(1.3333333,0,0,-1.3333333,0,66.666667)"
     id="g10"><g
       id="g12"><g
         clip-path="url(#clipPath18)"
         id="g14"><g
           transform="translate(52.1846,15.1709)"
           id="g20"><path
             id="path22"
             style="fill:#3e3736;fill-opacity:1;fill-rule:nonzero;stroke:none"
             d="m 0,0 h -35.914 c -0.495,0 -0.897,-0.401 -0.897,-0.897 0,-0.497 0.402,-0.898 0.897,-0.898 H 0 v -2.514 h -1.773 c -0.007,0 -0.014,0.001 -0.022,0.001 h -4.849 c -0.006,0 -0.014,-0.001 -0.021,-0.001 h -29.039 c -0.007,0 -0.014,0.001 -0.022,0.001 h -4.848 c -0.008,0 -0.015,-0.001 -0.022,-0.001 H -42.37 V 6.284 c 0,2.673 2.175,4.847 4.848,4.847 h 1.077 15.26 15.261 1.077 C -2.174,11.131 0,8.957 0,6.284 Z m -2.692,-9.156 h -3.054 v 3.052 h 3.054 z m -33.932,0 h -3.053 v 3.052 h 3.053 z m 1.077,27.229 c 0,0.924 0.752,1.676 1.675,1.676 h 10.114 c 0.924,0 1.676,-0.752 1.676,-1.676 v -5.146 h -13.465 z m 15.26,0 c 0,0.924 0.752,1.676 1.676,1.676 h 10.114 c 0.924,0 1.676,-0.752 1.676,-1.676 v -5.146 h -13.466 z m 19.39,-6.452 v 10.461 c 0,4.455 -3.624,8.079 -8.08,8.079 h -8.482 c -0.496,0 -0.897,-0.402 -0.897,-0.898 0,-0.496 0.401,-0.898 0.897,-0.898 h 8.482 c 3.465,0 6.285,-2.819 6.285,-6.283 v -9.516 c -0.677,0.232 -1.401,0.361 -2.155,0.361 h -0.179 v 5.146 c 0,1.914 -1.558,3.471 -3.471,3.471 h -10.114 c -1.02,0 -1.938,-0.442 -2.574,-1.144 -0.635,0.702 -1.553,1.144 -2.573,1.144 h -10.114 c -1.914,0 -3.471,-1.557 -3.471,-3.471 v -5.146 h -0.179 c -0.754,0 -1.478,-0.129 -2.155,-0.361 v 9.516 c 0,3.464 2.819,6.283 6.284,6.283 h 8.663 c 0.496,0 0.897,0.402 0.897,0.898 0,0.496 -0.401,0.898 -0.897,0.898 h -8.663 c -4.455,0 -8.079,-3.624 -8.079,-8.079 V 11.621 c -1.632,-1.211 -2.693,-3.152 -2.693,-5.337 v -11.49 c 0,-0.496 0.402,-0.898 0.898,-0.898 h 1.795 v -3.95 c 0,-0.496 0.402,-0.897 0.898,-0.897 h 4.848 c 0.496,0 0.898,0.401 0.898,0.897 v 3.95 h 27.287 v -3.95 c 0,-0.496 0.401,-0.897 0.897,-0.897 h 4.849 c 0.496,0 0.898,0.401 0.898,0.897 v 3.95 h 1.795 c 0.496,0 0.898,0.402 0.898,0.898 v 11.49 c 0,2.185 -1.061,4.126 -2.693,5.337" /></g><g
           transform="translate(31.186,45.5176)"
           id="g24"><path
             id="path26"
             style="fill:#3e3736;fill-opacity:1;fill-rule:nonzero;stroke:none"
             d="M 0,0 C -0.167,0.167 -0.399,0.263 -0.635,0.263 -0.871,0.263 -1.103,0.167 -1.27,0 c -0.167,-0.167 -0.263,-0.398 -0.263,-0.635 0,-0.236 0.096,-0.467 0.263,-0.634 0.167,-0.167 0.399,-0.263 0.635,-0.263 0.236,0 0.468,0.096 0.635,0.263 0.167,0.167 0.263,0.397 0.263,0.634 C 0.263,-0.398 0.167,-0.167 0,0" /></g><g
           transform="translate(12.8804,15.3564)"
           id="g28"><path
             id="path30"
             style="fill:#3e3736;fill-opacity:1;fill-rule:nonzero;stroke:none"
             d="m 0,0 c -0.167,0.167 -0.398,0.264 -0.634,0.264 -0.238,0 -0.468,-0.097 -0.635,-0.264 -0.167,-0.166 -0.263,-0.398 -0.263,-0.634 0,-0.236 0.096,-0.468 0.263,-0.635 0.167,-0.167 0.398,-0.263 0.635,-0.263 0.236,0 0.467,0.096 0.634,0.263 0.167,0.167 0.263,0.399 0.263,0.635 C 0.263,-0.398 0.167,-0.166 0,0" /></g></g></g></g></svg>