<?xml version="1.0" encoding="UTF-8" standalone="no"?>
<svg
   xmlns:dc="http://purl.org/dc/elements/1.1/"
   xmlns:cc="http://creativecommons.org/ns#"
   xmlns:rdf="http://www.w3.org/1999/02/22-rdf-syntax-ns#"
   xmlns:svg="http://www.w3.org/2000/svg"
   xmlns="http://www.w3.org/2000/svg"
   viewBox="0 0 82.666664 66.666664"
   height="66.666664"
   width="82.666664"
   xml:space="preserve"
   id="svg2"
   version="1.1"><metadata
     id="metadata8"><rdf:RDF><cc:Work
         rdf:about=""><dc:format>image/svg+xml</dc:format><dc:type
           rdf:resource="http://purl.org/dc/dcmitype/StillImage" /></cc:Work></rdf:RDF></metadata><defs
     id="defs6"><clipPath
       id="clipPath18"
       clipPathUnits="userSpaceOnUse"><path
         id="path16"
         d="M 0,50 H 62 V 0 H 0 Z" /></clipPath></defs><g
     transform="matrix(1.3333333,0,0,-1.3333333,0,66.666667)"
     id="g10"><g
       id="g12"><g
         clip-path="url(#clipPath18)"
         id="g14"><g
           transform="translate(21.728,26.5327)"
           id="g20"><path
             id="path22"
             style="fill:#3e3736;fill-opacity:1;fill-rule:nonzero;stroke:none"
             d="m 0,0 c -2.908,0 -5.273,2.364 -5.273,5.27 0,2.905 2.365,5.27 5.273,5.27 2.908,0 5.273,-2.365 5.273,-5.27 C 5.273,2.364 2.908,0 0,0 m 0,13.058 c -4.296,0 -7.792,-3.495 -7.792,-7.788 0,-4.294 3.496,-7.788 7.792,-7.788 4.296,0 7.792,3.494 7.792,7.788 0,4.293 -3.496,7.788 -7.792,7.788" /></g><g
           transform="translate(23.7959,33.9053)"
           id="g24"><path
             id="path26"
             style="fill:#3e3736;fill-opacity:1;fill-rule:nonzero;stroke:none"
             d="m 0,0 c -0.695,0 -1.259,-0.563 -1.259,-1.259 v -1.688 c 0,-0.695 0.564,-1.259 1.259,-1.259 0.695,0 1.259,0.564 1.259,1.259 v 1.688 C 1.259,-0.563 0.695,0 0,0" /></g><g
           transform="translate(19.6602,33.9053)"
           id="g28"><path
             id="path30"
             style="fill:#3e3736;fill-opacity:1;fill-rule:nonzero;stroke:none"
             d="m 0,0 c -0.695,0 -1.259,-0.563 -1.259,-1.259 v -1.688 c 0,-0.695 0.564,-1.259 1.259,-1.259 0.695,0 1.259,0.564 1.259,1.259 v 1.688 C 1.259,-0.563 0.695,0 0,0" /></g><g
           transform="translate(48.292,30.3306)"
           id="g32"><path
             id="path34"
             style="fill:#3e3736;fill-opacity:1;fill-rule:nonzero;stroke:none"
             d="m 0,0 c 0,-0.756 -0.615,-1.372 -1.372,-1.372 h -3.917 c -0.757,0 -1.372,0.616 -1.372,1.372 V 5.284 H 0 Z m -36.261,-6.158 v 15.26 c 0,1.136 0.924,2.061 2.06,2.061 h 15.274 c 1.135,0 2.06,-0.925 2.06,-2.061 v -15.26 c 0,-1.136 -0.925,-2.061 -2.06,-2.061 h -15.274 c -1.136,0 -2.06,0.925 -2.06,2.061 M 2.937,7.802 h -2.941 v 4.619 c 0,0.696 -0.563,1.26 -1.259,1.26 -0.695,0 -1.258,-0.564 -1.258,-1.26 V 7.802 H -4.14 v 4.619 c 0,0.696 -0.563,1.26 -1.258,1.26 -0.696,0 -1.259,-0.564 -1.259,-1.26 V 7.802 h -2.941 c -0.695,0 -1.258,-0.564 -1.258,-1.259 0,-0.695 0.563,-1.259 1.258,-1.259 H -9.18 V 0 c 0,-2.145 1.745,-3.89 3.891,-3.89 h 0.699 v -15.3 c 0,-1.452 -1.182,-2.634 -2.637,-2.634 -1.453,0 -2.635,1.182 -2.635,2.634 v 1.962 c 0,2.746 -2.236,4.98 -4.984,4.98 -2.747,0 -4.983,-2.234 -4.983,-4.98 v -1.859 c 0,-1.509 -1.228,-2.737 -2.738,-2.737 -0.731,0 -1.419,0.285 -1.936,0.802 -0.517,0.517 -0.802,1.203 -0.802,1.934 v 8.351 h 6.378 c 2.525,0 4.578,2.054 4.578,4.579 v 15.26 c 0,2.524 -2.054,4.579 -4.578,4.579 h -15.274 c -2.524,0 -4.578,-2.055 -4.578,-4.579 v -15.26 c 0,-2.525 2.054,-4.579 4.578,-4.579 h 6.378 v -8.351 c 0,-1.404 0.547,-2.723 1.54,-3.715 0.992,-0.992 2.312,-1.538 3.716,-1.538 v 0 c 2.899,0 5.256,2.357 5.256,5.254 v 1.859 c 0,1.357 1.106,2.463 2.465,2.463 1.36,0 2.465,-1.106 2.465,-2.463 v -1.962 c 0,-2.841 2.313,-5.151 5.154,-5.151 2.843,0 5.156,2.31 5.156,5.151 v 15.3 h 0.699 c 2.144,0 3.89,1.745 3.89,3.89 v 5.284 h 0.419 c 0.695,0 1.258,0.564 1.258,1.259 0,0.695 -0.563,1.259 -1.258,1.259" /></g></g></g></g></svg>