<?xml version="1.0" encoding="UTF-8" standalone="no"?>
<svg
   xmlns:dc="http://purl.org/dc/elements/1.1/"
   xmlns:cc="http://creativecommons.org/ns#"
   xmlns:rdf="http://www.w3.org/1999/02/22-rdf-syntax-ns#"
   xmlns:svg="http://www.w3.org/2000/svg"
   xmlns="http://www.w3.org/2000/svg"
   viewBox="0 0 23.722401 20"
   height="20"
   width="23.722401"
   xml:space="preserve"
   id="svg2"
   version="1.1"><metadata
     id="metadata8"><rdf:RDF><cc:Work
         rdf:about=""><dc:format>image/svg+xml</dc:format><dc:type
           rdf:resource="http://purl.org/dc/dcmitype/StillImage" /></cc:Work></rdf:RDF></metadata><defs
     id="defs6"><clipPath
       id="clipPath18"
       clipPathUnits="userSpaceOnUse"><path
         id="path16"
         d="M 0,15 H 17.792 V 0 H 0 Z" /></clipPath></defs><g
     transform="matrix(1.3333333,0,0,-1.3333333,0,20)"
     id="g10"><g
       id="g12"><g
         clip-path="url(#clipPath18)"
         id="g14"><g
           transform="translate(16.0146,8.6357)"
           id="g20"><path
             id="path22"
             style="fill:#ffffff;fill-opacity:1;fill-rule:nonzero;stroke:none"
             d="m 0,0 c -0.066,0.011 -0.134,0.016 -0.2,0.015 h -11.417 l 0.249,0.116 c 0.243,0.115 0.465,0.272 0.654,0.463 l 3.202,3.201 c 0.421,0.403 0.492,1.05 0.168,1.535 -0.378,0.515 -1.103,0.628 -1.618,0.25 -0.042,-0.031 -0.082,-0.064 -0.119,-0.1 l -5.79,-5.789 c -0.452,-0.452 -0.452,-1.185 -10e-4,-1.637 10e-4,-0.001 10e-4,-0.001 10e-4,-0.001 l 5.79,-5.79 c 0.453,-0.451 1.185,-0.451 1.637,0.003 0.036,0.035 0.069,0.073 0.1,0.113 0.324,0.484 0.253,1.132 -0.168,1.534 l -3.196,3.207 c -0.17,0.17 -0.365,0.313 -0.579,0.423 l -0.347,0.156 h 11.37 C 0.327,-2.322 0.847,-1.909 0.957,-1.328 1.06,-0.697 0.631,-0.102 0,0" /></g></g></g></g></svg>