<?xml version="1.0" encoding="utf-8"?>
<!-- Generator: Adobe Illustrator 25.4.8, SVG Export Plug-In . SVG Version: 6.00 Build 0)  -->
<svg version="1.1" id="Layer_1" xmlns="http://www.w3.org/2000/svg" xmlns:xlink="http://www.w3.org/1999/xlink" x="0px" y="0px"
	 viewBox="0 0 273.6 105.9" style="enable-background:new 0 0 273.6 105.9;" xml:space="preserve">
<style type="text/css">
	.st0{fill:#6D6E70;stroke:#FFFFFF;stroke-width:5;stroke-miterlimit:10;}
	.st1{fill:#6D6E70;}
	.st2{fill:none;stroke:#FFFFFF;stroke-width:3;}
	.st3{fill:#FF4A2C;stroke:#FFFFFF;stroke-width:4;}
	.st4{fill:#CC3A27;}
	.st5{fill:#FFFFFF;}
	.st6{fill:#FFFFFF;stroke:#FFFFFF;stroke-width:4;}
	.st7{fill:#FF4A2C;}
</style>
<rect x="5.4" y="5" class="st0" width="262.8" height="96"/>
<g>
	<path class="st7" d="M40.9,67.4H19V36.9h8.2v24.1h13L40.9,67.4z"/>
	<path class="st7" d="M58.4,68c-3.2,0-6-0.7-8.4-2.1c-2.4-1.4-4.2-3.3-5.5-5.7c-1.3-2.4-1.9-5-1.9-7.9c0-3.1,0.7-5.9,2-8.3
		c1.3-2.4,3.2-4.3,5.6-5.7c2.4-1.4,5.1-2,8.1-2c3.3,0,6.2,0.7,8.5,2.1c2.3,1.4,4.1,3.3,5.4,5.7c1.3,2.4,1.9,5,1.9,7.9
		c0,3.1-0.7,5.9-2,8.3c-1.3,2.4-3.2,4.3-5.6,5.7C64.3,67.3,61.5,68,58.4,68z M58.4,61.2c1.4,0,2.7-0.3,3.8-1c1.1-0.7,2-1.7,2.7-3.1
		c0.7-1.4,1-3.1,1-5.1c0-1.7-0.3-3.2-0.9-4.6c-0.6-1.3-1.4-2.4-2.5-3.2C61.3,43.4,60,43,58.5,43c-1.3,0-2.6,0.4-3.7,1.1
		s-2,1.8-2.7,3.2c-0.7,1.4-1,3-1,4.8c0,1.7,0.3,3.2,0.9,4.6c0.6,1.4,1.4,2.4,2.5,3.2C55.5,60.8,56.8,61.2,58.4,61.2z"/>
	<path class="st7" d="M79.7,59.3c0.5,0.3,1.2,0.6,2,0.9c0.8,0.3,1.7,0.5,2.6,0.7c0.9,0.2,1.7,0.3,2.4,0.3c0.9,0,1.6-0.1,2.2-0.4
		c0.6-0.2,1-0.5,1.3-0.9c0.3-0.4,0.4-0.7,0.4-1.1s-0.2-0.7-0.7-1.1c-0.5-0.4-1.1-0.8-1.8-1.2c-0.7-0.4-1.5-0.8-2.2-1.3
		c-1-0.6-2-1.2-3.1-1.9c-1.1-0.7-2.1-1.4-3-2.2c-0.9-0.8-1.7-1.7-2.2-2.8c-0.6-1-0.9-2.2-0.9-3.5c0-1.7,0.5-3.2,1.4-4.5
		c0.9-1.3,2.2-2.4,3.9-3.1c1.7-0.8,3.7-1.1,6-1.1c1.5,0,3.1,0.2,4.7,0.7c1.6,0.4,3,1.1,4.2,1.9l-2.4,5.5c-1.1-0.4-2-0.7-2.7-0.9
		c-0.7-0.2-1.3-0.3-1.9-0.4C89.6,43,89,43,88.3,43c-0.9,0-1.7,0.2-2.2,0.7c-0.5,0.4-0.8,0.9-0.8,1.5c0,0.4,0.2,0.8,0.7,1.2
		c0.4,0.4,1,0.7,1.7,1.1c0.7,0.3,1.5,0.8,2.3,1.2c1.1,0.6,2.2,1.3,3.3,2c1.1,0.7,2.1,1.5,3,2.3c0.9,0.8,1.6,1.8,2.2,2.8
		c0.6,1,0.8,2.1,0.8,3.4c0,1.7-0.5,3.2-1.5,4.6c-1,1.4-2.4,2.4-4.2,3.2s-4,1.2-6.5,1.2c-0.8,0-1.6-0.1-2.5-0.2
		c-0.9-0.1-1.8-0.3-2.7-0.5c-0.9-0.2-1.8-0.5-2.6-0.8c-0.8-0.3-1.5-0.6-2.1-1L79.7,59.3z"/>
	<path class="st7" d="M133.5,44.3c-1.1-0.4-2-0.7-2.7-0.9c-0.7-0.2-1.3-0.3-1.9-0.4c-0.6-0.1-1.2-0.1-1.9-0.1
		c-1.2,0-2.4,0.4-3.5,1.1c-1.1,0.8-2,1.8-2.8,3.2s-1.1,3-1.1,4.9c0,1.4,0.2,2.7,0.7,3.8c0.4,1.1,1,2.1,1.7,2.8
		c0.7,0.8,1.5,1.4,2.4,1.8c0.9,0.4,1.8,0.6,2.8,0.6c1.1,0,2.2-0.2,3.1-0.5c1-0.3,1.9-0.7,2.6-1.2l3.1,6.1c-0.8,0.5-1.7,0.9-2.7,1.2
		c-1,0.3-2.1,0.6-3.2,0.8c-1.1,0.2-2.2,0.3-3.2,0.3c-2.5,0-4.7-0.4-6.7-1.1c-2-0.8-3.6-1.8-5-3.3c-1.4-1.4-2.4-3.1-3.1-5
		c-0.7-1.9-1.1-4-1.1-6.3c0-2.3,0.4-4.5,1.2-6.4c0.8-2,1.9-3.6,3.3-5.1c1.4-1.4,3.1-2.5,5-3.3c1.9-0.8,4-1.2,6.2-1.2
		c1,0,2.1,0.1,3.1,0.3c1.1,0.2,2.1,0.5,3.1,0.9c1,0.4,1.9,0.8,2.7,1.4L133.5,44.3z"/>
	<path class="st7" d="M156.7,36.9L168.1,67l-8,0.8l-2.2-6.5h-10.5l-2.1,6h-8.1l11.4-30.5H156.7z M152.5,46.6l-2.9,8.3h6L152.5,46.6z
		"/>
	<path class="st7" d="M172.2,67.4V36.9h10.6c2.2,0,4.3,0.3,6.2,0.9c1.9,0.6,3.4,1.5,4.6,2.8c1.2,1.3,1.7,3,1.7,5.1
		c0,1.2-0.3,2.2-0.9,3.1c-0.6,0.9-1.2,1.7-1.9,2.4c1.2,0.8,2.2,1.9,2.9,3.1s1.1,2.6,1.1,4c0,1.7-0.4,3.2-1.1,4.4
		c-0.7,1.2-1.7,2.1-2.9,2.8c-1.2,0.7-2.6,1.2-4.1,1.5c-1.5,0.3-3.1,0.4-4.8,0.4H172.2z M180.3,43.3v5.2h1.8c0.8,0,1.6-0.1,2.3-0.3
		c0.7-0.2,1.3-0.4,1.8-0.8c0.4-0.3,0.7-0.8,0.7-1.3c0-0.6-0.2-1.1-0.5-1.5c-0.4-0.4-0.9-0.7-1.5-0.9c-0.6-0.2-1.4-0.3-2.4-0.3H180.3
		z M180.3,54.8v6.1h3.5c0.8,0,1.6-0.1,2.2-0.3c0.6-0.2,1.2-0.5,1.5-1c0.4-0.4,0.6-1,0.6-1.6c0-1-0.4-1.8-1.2-2.4
		c-0.8-0.6-1.9-0.9-3.2-0.9H180.3z"/>
	<path class="st7" d="M214.6,68c-3.2,0-6-0.7-8.4-2.1c-2.4-1.4-4.2-3.3-5.5-5.7c-1.3-2.4-1.9-5-1.9-7.9c0-3.1,0.7-5.9,2-8.3
		c1.3-2.4,3.2-4.3,5.6-5.7c2.4-1.4,5.1-2,8.1-2c3.3,0,6.2,0.7,8.5,2.1c2.3,1.4,4.1,3.3,5.4,5.7c1.3,2.4,1.9,5,1.9,7.9
		c0,3.1-0.7,5.9-2,8.3c-1.3,2.4-3.2,4.3-5.6,5.7C220.5,67.3,217.7,68,214.6,68z M214.6,61.2c1.4,0,2.7-0.3,3.8-1
		c1.1-0.7,2-1.7,2.7-3.1c0.7-1.4,1-3.1,1-5.1c0-1.7-0.3-3.2-0.9-4.6c-0.6-1.3-1.4-2.4-2.5-3.2c-1.1-0.8-2.4-1.2-3.9-1.2
		c-1.3,0-2.6,0.4-3.7,1.1s-2,1.8-2.7,3.2c-0.7,1.4-1,3-1,4.8c0,1.7,0.3,3.2,0.9,4.6c0.6,1.4,1.4,2.4,2.5,3.2
		C211.7,60.8,213,61.2,214.6,61.2z"/>
	<path class="st7" d="M235.9,59.3c0.5,0.3,1.2,0.6,2,0.9c0.8,0.3,1.7,0.5,2.6,0.7c0.9,0.2,1.7,0.3,2.4,0.3c0.9,0,1.6-0.1,2.2-0.4
		c0.6-0.2,1-0.5,1.3-0.9c0.3-0.4,0.4-0.7,0.4-1.1s-0.2-0.7-0.7-1.1c-0.5-0.4-1.1-0.8-1.8-1.2c-0.7-0.4-1.5-0.8-2.2-1.3
		c-1-0.6-2-1.2-3.1-1.9c-1.1-0.7-2.1-1.4-3-2.2c-0.9-0.8-1.7-1.7-2.2-2.8c-0.6-1-0.9-2.2-0.9-3.5c0-1.7,0.5-3.2,1.4-4.5
		c0.9-1.3,2.2-2.4,3.9-3.1c1.7-0.8,3.7-1.1,6-1.1c1.5,0,3.1,0.2,4.7,0.7c1.6,0.4,3,1.1,4.2,1.9l-2.4,5.5c-1.1-0.4-2-0.7-2.7-0.9
		c-0.7-0.2-1.3-0.3-1.9-0.4c-0.6-0.1-1.2-0.1-1.9-0.1c-0.9,0-1.7,0.2-2.2,0.7c-0.5,0.4-0.8,0.9-0.8,1.5c0,0.4,0.2,0.8,0.7,1.2
		c0.4,0.4,1,0.7,1.7,1.1c0.7,0.3,1.5,0.8,2.3,1.2c1.1,0.6,2.2,1.3,3.3,2c1.1,0.7,2.1,1.5,3,2.3c0.9,0.8,1.6,1.8,2.2,2.8
		c0.6,1,0.8,2.1,0.8,3.4c0,1.7-0.5,3.2-1.5,4.6c-1,1.4-2.4,2.4-4.2,3.2s-4,1.2-6.5,1.2c-0.8,0-1.6-0.1-2.5-0.2
		c-0.9-0.1-1.8-0.3-2.7-0.5c-0.9-0.2-1.8-0.5-2.6-0.8c-0.8-0.3-1.5-0.6-2.1-1L235.9,59.3z"/>
</g>
<g>
	<path class="st5" d="M42.8,69.3H20.9V38.8h8.2v24.1h13L42.8,69.3z"/>
	<path class="st5" d="M60.4,69.9c-3.2,0-6-0.7-8.4-2.1c-2.4-1.4-4.2-3.3-5.5-5.7c-1.3-2.4-1.9-5-1.9-7.9c0-3.1,0.7-5.9,2-8.3
		c1.3-2.4,3.2-4.3,5.6-5.7c2.4-1.4,5.1-2,8.1-2c3.3,0,6.2,0.7,8.5,2.1c2.3,1.4,4.1,3.3,5.4,5.7c1.3,2.4,1.9,5,1.9,7.9
		c0,3.1-0.7,5.9-2,8.3c-1.3,2.4-3.2,4.3-5.6,5.7C66.2,69.3,63.5,69.9,60.4,69.9z M60.3,63.1c1.4,0,2.7-0.3,3.8-1
		c1.1-0.7,2-1.7,2.7-3.1c0.7-1.4,1-3.1,1-5.1c0-1.7-0.3-3.2-0.9-4.6c-0.6-1.3-1.4-2.4-2.5-3.2C63.3,45.4,62,45,60.5,45
		c-1.3,0-2.6,0.4-3.7,1.1s-2,1.8-2.7,3.2c-0.7,1.4-1,3-1,4.8c0,1.7,0.3,3.2,0.9,4.6c0.6,1.4,1.4,2.4,2.5,3.2
		C57.5,62.7,58.8,63.1,60.3,63.1z"/>
	<path class="st5" d="M81.7,61.3c0.5,0.3,1.2,0.6,2,0.9c0.8,0.3,1.7,0.5,2.6,0.7c0.9,0.2,1.7,0.3,2.4,0.3c0.9,0,1.6-0.1,2.2-0.4
		c0.6-0.2,1-0.5,1.3-0.9c0.3-0.4,0.4-0.7,0.4-1.1s-0.2-0.7-0.7-1.1c-0.5-0.4-1.1-0.8-1.8-1.2c-0.7-0.4-1.5-0.8-2.2-1.3
		c-1-0.6-2-1.2-3.1-1.9c-1.1-0.7-2.1-1.4-3-2.2c-0.9-0.8-1.7-1.7-2.2-2.8c-0.6-1-0.9-2.2-0.9-3.5c0-1.7,0.5-3.2,1.4-4.5
		c0.9-1.3,2.2-2.4,3.9-3.1c1.7-0.8,3.7-1.1,6-1.1c1.5,0,3.1,0.2,4.7,0.7c1.6,0.4,3,1.1,4.2,1.9l-2.4,5.5c-1.1-0.4-2-0.7-2.7-0.9
		c-0.7-0.2-1.3-0.3-1.9-0.4c-0.6-0.1-1.2-0.1-1.9-0.1c-0.9,0-1.7,0.2-2.2,0.7c-0.5,0.4-0.8,0.9-0.8,1.5c0,0.4,0.2,0.8,0.7,1.2
		c0.4,0.4,1,0.7,1.7,1.1c0.7,0.3,1.5,0.8,2.3,1.2c1.1,0.6,2.2,1.3,3.3,2c1.1,0.7,2.1,1.5,3,2.3c0.9,0.8,1.6,1.8,2.2,2.8
		c0.6,1,0.8,2.1,0.8,3.4c0,1.7-0.5,3.2-1.5,4.6c-1,1.4-2.4,2.4-4.2,3.2s-4,1.2-6.5,1.2c-0.8,0-1.6-0.1-2.5-0.2
		c-0.9-0.1-1.8-0.3-2.7-0.5c-0.9-0.2-1.8-0.5-2.6-0.8c-0.8-0.3-1.5-0.6-2.1-1L81.7,61.3z"/>
	<path class="st5" d="M135.5,46.3c-1.1-0.4-2-0.7-2.7-0.9c-0.7-0.2-1.3-0.3-1.9-0.4c-0.6-0.1-1.2-0.1-1.9-0.1
		c-1.2,0-2.4,0.4-3.5,1.1c-1.1,0.8-2,1.8-2.8,3.2s-1.1,3-1.1,4.9c0,1.4,0.2,2.7,0.7,3.8c0.4,1.1,1,2.1,1.7,2.8
		c0.7,0.8,1.5,1.4,2.4,1.8c0.9,0.4,1.8,0.6,2.8,0.6c1.1,0,2.2-0.2,3.1-0.5c1-0.3,1.9-0.7,2.6-1.2l3.1,6.1c-0.8,0.5-1.7,0.9-2.7,1.2
		c-1,0.3-2.1,0.6-3.2,0.8c-1.1,0.2-2.2,0.3-3.2,0.3c-2.5,0-4.7-0.4-6.7-1.1c-2-0.8-3.6-1.8-5-3.3c-1.4-1.4-2.4-3.1-3.1-5
		c-0.7-1.9-1.1-4-1.1-6.3c0-2.3,0.4-4.5,1.2-6.4c0.8-2,1.9-3.6,3.3-5.1c1.4-1.4,3.1-2.5,5-3.3c1.9-0.8,4-1.2,6.2-1.2
		c1,0,2.1,0.1,3.1,0.3c1.1,0.2,2.1,0.5,3.1,0.9c1,0.4,1.9,0.8,2.7,1.4L135.5,46.3z"/>
	<path class="st5" d="M158.7,38.8L170.1,69l-8,0.8l-2.2-6.5h-10.5l-2.1,6h-8.1l11.4-30.5H158.7z M154.5,48.6l-2.9,8.3h6L154.5,48.6z
		"/>
	<path class="st5" d="M174.1,69.3V38.8h10.6c2.2,0,4.3,0.3,6.2,0.9c1.9,0.6,3.4,1.5,4.6,2.8c1.2,1.3,1.7,3,1.7,5.1
		c0,1.2-0.3,2.2-0.9,3.1c-0.6,0.9-1.2,1.7-1.9,2.4c1.2,0.8,2.2,1.9,2.9,3.1s1.1,2.6,1.1,4c0,1.7-0.4,3.2-1.1,4.4
		c-0.7,1.2-1.7,2.1-2.9,2.8c-1.2,0.7-2.6,1.2-4.1,1.5c-1.5,0.3-3.1,0.4-4.8,0.4H174.1z M182.3,45.2v5.2h1.8c0.8,0,1.6-0.1,2.3-0.3
		c0.7-0.2,1.3-0.4,1.8-0.8c0.4-0.3,0.7-0.8,0.7-1.3c0-0.6-0.2-1.1-0.5-1.5c-0.4-0.4-0.9-0.7-1.5-0.9c-0.6-0.2-1.4-0.3-2.4-0.3H182.3
		z M182.3,56.8v6.1h3.5c0.8,0,1.6-0.1,2.2-0.3c0.6-0.2,1.2-0.5,1.5-1c0.4-0.4,0.6-1,0.6-1.6c0-1-0.4-1.8-1.2-2.4
		c-0.8-0.6-1.9-0.9-3.2-0.9H182.3z"/>
	<path class="st5" d="M216.6,69.9c-3.2,0-6-0.7-8.4-2.1c-2.4-1.4-4.2-3.3-5.5-5.7c-1.3-2.4-1.9-5-1.9-7.9c0-3.1,0.7-5.9,2-8.3
		c1.3-2.4,3.2-4.3,5.6-5.7c2.4-1.4,5.1-2,8.1-2c3.3,0,6.2,0.7,8.5,2.1c2.3,1.4,4.1,3.3,5.4,5.7c1.3,2.4,1.9,5,1.9,7.9
		c0,3.1-0.7,5.9-2,8.3c-1.3,2.4-3.2,4.3-5.6,5.7C222.4,69.3,219.7,69.9,216.6,69.9z M216.5,63.1c1.4,0,2.7-0.3,3.8-1
		c1.1-0.7,2-1.7,2.7-3.1c0.7-1.4,1-3.1,1-5.1c0-1.7-0.3-3.2-0.9-4.6c-0.6-1.3-1.4-2.4-2.5-3.2c-1.1-0.8-2.4-1.2-3.9-1.2
		c-1.3,0-2.6,0.4-3.7,1.1s-2,1.8-2.7,3.2c-0.7,1.4-1,3-1,4.8c0,1.7,0.3,3.2,0.9,4.6c0.6,1.4,1.4,2.4,2.5,3.2
		C213.7,62.7,215,63.1,216.5,63.1z"/>
	<path class="st5" d="M237.9,61.3c0.5,0.3,1.2,0.6,2,0.9c0.8,0.3,1.7,0.5,2.6,0.7c0.9,0.2,1.7,0.3,2.4,0.3c0.9,0,1.6-0.1,2.2-0.4
		c0.6-0.2,1-0.5,1.3-0.9c0.3-0.4,0.4-0.7,0.4-1.1s-0.2-0.7-0.7-1.1c-0.5-0.4-1.1-0.8-1.8-1.2c-0.7-0.4-1.5-0.8-2.2-1.3
		c-1-0.6-2-1.2-3.1-1.9c-1.1-0.7-2.1-1.4-3-2.2c-0.9-0.8-1.7-1.7-2.2-2.8c-0.6-1-0.9-2.2-0.9-3.5c0-1.7,0.5-3.2,1.4-4.5
		c0.9-1.3,2.2-2.4,3.9-3.1c1.7-0.8,3.7-1.1,6-1.1c1.5,0,3.1,0.2,4.7,0.7c1.6,0.4,3,1.1,4.2,1.9l-2.4,5.5c-1.1-0.4-2-0.7-2.7-0.9
		c-0.7-0.2-1.3-0.3-1.9-0.4c-0.6-0.1-1.2-0.1-1.9-0.1c-0.9,0-1.7,0.2-2.2,0.7c-0.5,0.4-0.8,0.9-0.8,1.5c0,0.4,0.2,0.8,0.7,1.2
		c0.4,0.4,1,0.7,1.7,1.1c0.7,0.3,1.5,0.8,2.3,1.2c1.1,0.6,2.2,1.3,3.3,2c1.1,0.7,2.1,1.5,3,2.3c0.9,0.8,1.6,1.8,2.2,2.8
		c0.6,1,0.8,2.1,0.8,3.4c0,1.7-0.5,3.2-1.5,4.6c-1,1.4-2.4,2.4-4.2,3.2s-4,1.2-6.5,1.2c-0.8,0-1.6-0.1-2.5-0.2
		c-0.9-0.1-1.8-0.3-2.7-0.5c-0.9-0.2-1.8-0.5-2.6-0.8c-0.8-0.3-1.5-0.6-2.1-1L237.9,61.3z"/>
</g>
</svg>
