<?xml version="1.0" encoding="utf-8"?>
<!-- Generator: Adobe Illustrator 25.4.8, SVG Export Plug-In . SVG Version: 6.00 Build 0)  -->
<svg version="1.1" id="Layer_1" xmlns="http://www.w3.org/2000/svg" xmlns:xlink="http://www.w3.org/1999/xlink" x="0px" y="0px"
	 viewBox="0 0 273.6 105.9" style="enable-background:new 0 0 273.6 105.9;" xml:space="preserve">
<style type="text/css">
	.st0{fill:#6D6E70;stroke:#FFFFFF;stroke-width:5;stroke-miterlimit:10;}
	.st1{fill:#6D6E70;}
	.st2{fill:none;stroke:#FFFFFF;stroke-width:3;}
	.st3{fill:#FF4A2C;stroke:#FFFFFF;stroke-width:4;}
	.st4{fill:#CC3A27;}
	.st5{fill:#FFFFFF;}
	.st6{fill:#FFFFFF;stroke:#FFFFFF;stroke-width:4;}
	.st7{fill:#FF4A2C;}
</style>
<rect x="5.4" y="5" class="st0" width="262.8" height="96"/>
<g>
	<path class="st7" d="M47.8,44.1c-1.2-0.4-2.2-0.7-2.9-0.9c-0.8-0.2-1.5-0.3-2.1-0.4c-0.6-0.1-1.3-0.1-2.1-0.1
		c-1.3,0-2.6,0.4-3.8,1.3s-2.2,2-3,3.5c-0.8,1.5-1.2,3.3-1.2,5.3c0,1.6,0.2,3,0.7,4.2c0.5,1.2,1.1,2.3,1.9,3.1
		c0.8,0.9,1.7,1.5,2.7,1.9s2,0.7,3.1,0.7c1.2,0,2.4-0.2,3.4-0.5s2.1-0.8,2.9-1.3l3.4,6.7c-0.9,0.5-1.8,1-3,1.3
		c-1.1,0.4-2.3,0.6-3.5,0.8C43.1,69.9,42,70,40.8,70c-2.7,0-5.2-0.4-7.3-1.3s-4-2-5.5-3.6c-1.5-1.5-2.6-3.4-3.4-5.5
		c-0.8-2.1-1.2-4.4-1.2-6.9c0-2.6,0.4-4.9,1.3-7.1c0.9-2.2,2.1-4,3.6-5.6c1.5-1.6,3.4-2.8,5.5-3.6c2.1-0.9,4.4-1.3,6.8-1.3
		c1.1,0,2.3,0.1,3.4,0.3c1.2,0.2,2.3,0.5,3.4,0.9c1.1,0.4,2.1,0.9,3,1.5L47.8,44.1z"/>
	<path class="st7" d="M77.3,35.9L89.8,69L81,69.9l-2.4-7.1H67l-2.3,6.6h-8.9l12.6-33.5H77.3z M72.6,46.6l-3.2,9.1H76L72.6,46.6z"/>
	<path class="st7" d="M98.1,69.4V35.9h8.3L117,50.7l2.6,3.4l-0.1-18.2h9v33.5H120l-10.3-14.2l-2.5-3.4v17.6H98.1z"/>
	<path class="st7" d="M162.1,44.1c-1.2-0.4-2.2-0.7-2.9-0.9c-0.8-0.2-1.5-0.3-2.1-0.4c-0.6-0.1-1.3-0.1-2.1-0.1
		c-1.3,0-2.6,0.4-3.8,1.3s-2.2,2-3,3.5c-0.8,1.5-1.2,3.3-1.2,5.3c0,1.6,0.2,3,0.7,4.2c0.5,1.2,1.1,2.3,1.9,3.1
		c0.8,0.9,1.7,1.5,2.7,1.9s2,0.7,3.1,0.7c1.2,0,2.4-0.2,3.4-0.5s2.1-0.8,2.9-1.3l3.4,6.7c-0.9,0.5-1.8,1-3,1.3
		c-1.1,0.4-2.3,0.6-3.5,0.8c-1.2,0.2-2.4,0.3-3.5,0.3c-2.7,0-5.2-0.4-7.3-1.3s-4-2-5.5-3.6c-1.5-1.5-2.6-3.4-3.4-5.5
		c-0.8-2.1-1.2-4.4-1.2-6.9c0-2.6,0.4-4.9,1.3-7.1c0.9-2.2,2.1-4,3.6-5.6c1.5-1.6,3.4-2.8,5.5-3.6c2.1-0.9,4.4-1.3,6.8-1.3
		c1.1,0,2.3,0.1,3.4,0.3c1.2,0.2,2.3,0.5,3.4,0.9c1.1,0.4,2.1,0.9,3,1.5L162.1,44.1z"/>
	<path class="st7" d="M181.9,56.2c0,1.4,0.3,2.6,0.8,3.5c0.5,1,1.2,1.7,2.1,2.2c0.9,0.5,2,0.7,3.2,0.7c1.2,0,2.2-0.2,3.1-0.7
		s1.6-1.2,2.1-2.2c0.5-1,0.8-2.1,0.8-3.5V35.9h9v20.7c0,2.9-0.6,5.3-1.9,7.4c-1.3,2-3,3.5-5.3,4.6c-2.2,1-4.9,1.6-7.9,1.6
		c-3,0-5.6-0.5-7.8-1.6c-2.3-1-4-2.6-5.3-4.6c-1.3-2-1.9-4.5-1.9-7.4V35.9h9V56.2z"/>
	<path class="st7" d="M214.3,69.4V35.9h8.3l10.5,14.8l2.6,3.4l-0.1-18.2h9v33.5h-8.4l-10.3-14.2l-2.5-3.4v17.6H214.3z"/>
</g>
<g>
	<path class="st5" d="M50.8,45.1c-1.2-0.4-2.2-0.7-2.9-0.9c-0.8-0.2-1.5-0.3-2.1-0.4c-0.6-0.1-1.3-0.1-2.1-0.1
		c-1.3,0-2.6,0.4-3.8,1.3s-2.2,2-3,3.5c-0.8,1.5-1.2,3.3-1.2,5.3c0,1.6,0.2,3,0.7,4.2c0.5,1.2,1.1,2.3,1.9,3.1
		c0.8,0.9,1.7,1.5,2.7,1.9s2,0.7,3.1,0.7c1.2,0,2.4-0.2,3.4-0.5s2.1-0.8,2.9-1.3l3.4,6.7c-0.9,0.5-1.8,1-3,1.3
		c-1.1,0.4-2.3,0.6-3.5,0.8C46.1,70.9,45,71,43.8,71c-2.7,0-5.2-0.4-7.3-1.3s-4-2-5.5-3.6c-1.5-1.5-2.6-3.4-3.4-5.5
		c-0.8-2.1-1.2-4.4-1.2-6.9c0-2.6,0.4-4.9,1.3-7.1c0.9-2.2,2.1-4,3.6-5.6c1.5-1.6,3.4-2.8,5.5-3.6c2.1-0.9,4.4-1.3,6.8-1.3
		c1.1,0,2.3,0.1,3.4,0.3c1.2,0.2,2.3,0.5,3.4,0.9c1.1,0.4,2.1,0.9,3,1.5L50.8,45.1z"/>
	<path class="st5" d="M80.3,36.9L92.8,70L84,70.9l-2.4-7.1H70l-2.3,6.6h-8.9l12.6-33.5H80.3z M75.6,47.6l-3.2,9.1H79L75.6,47.6z"/>
	<path class="st5" d="M101.1,70.4V36.9h8.3L120,51.7l2.6,3.4l-0.1-18.2h9v33.5H123l-10.3-14.2l-2.5-3.4v17.6H101.1z"/>
	<path class="st5" d="M165.1,45.1c-1.2-0.4-2.2-0.7-2.9-0.9c-0.8-0.2-1.5-0.3-2.1-0.4c-0.6-0.1-1.3-0.1-2.1-0.1
		c-1.3,0-2.6,0.4-3.8,1.3s-2.2,2-3,3.5c-0.8,1.5-1.2,3.3-1.2,5.3c0,1.6,0.2,3,0.7,4.2c0.5,1.2,1.1,2.3,1.9,3.1
		c0.8,0.9,1.7,1.5,2.7,1.9s2,0.7,3.1,0.7c1.2,0,2.4-0.2,3.4-0.5s2.1-0.8,2.9-1.3l3.4,6.7c-0.9,0.5-1.8,1-3,1.3
		c-1.1,0.4-2.3,0.6-3.5,0.8c-1.2,0.2-2.4,0.3-3.5,0.3c-2.7,0-5.2-0.4-7.3-1.3s-4-2-5.5-3.6c-1.5-1.5-2.6-3.4-3.4-5.5
		c-0.8-2.1-1.2-4.4-1.2-6.9c0-2.6,0.4-4.9,1.3-7.1c0.9-2.2,2.1-4,3.6-5.6c1.5-1.6,3.4-2.8,5.5-3.6c2.1-0.9,4.4-1.3,6.8-1.3
		c1.1,0,2.3,0.1,3.4,0.3c1.2,0.2,2.3,0.5,3.4,0.9c1.1,0.4,2.1,0.9,3,1.5L165.1,45.1z"/>
	<path class="st5" d="M184.9,57.2c0,1.4,0.3,2.6,0.8,3.5c0.5,1,1.2,1.7,2.1,2.2c0.9,0.5,2,0.7,3.2,0.7c1.2,0,2.2-0.2,3.1-0.7
		s1.6-1.2,2.1-2.2c0.5-1,0.8-2.1,0.8-3.5V36.9h9v20.7c0,2.9-0.6,5.3-1.9,7.4c-1.3,2-3,3.5-5.3,4.6c-2.2,1-4.9,1.6-7.9,1.6
		c-3,0-5.6-0.5-7.8-1.6c-2.3-1-4-2.6-5.3-4.6c-1.3-2-1.9-4.5-1.9-7.4V36.9h9V57.2z"/>
	<path class="st5" d="M217.3,70.4V36.9h8.3l10.5,14.8l2.6,3.4l-0.1-18.2h9v33.5h-8.4l-10.3-14.2l-2.5-3.4v17.6H217.3z"/>
</g>
</svg>
