<?xml version="1.0" encoding="utf-8"?>
<!-- Generator: Adobe Illustrator 26.5.0, SVG Export Plug-In . SVG Version: 6.00 Build 0)  -->
<svg version="1.1" id="Capa_1" xmlns="http://www.w3.org/2000/svg" xmlns:xlink="http://www.w3.org/1999/xlink" x="0px" y="0px"
	 viewBox="0 0 80 290" style="enable-background:new 0 0 80 290;" xml:space="preserve">
<style type="text/css">
	.st0{clip-path:url(#SVGID_00000034811887958508151620000002413877830942792595_);}
	.st1{fill:#FF4A2C;}
	.st2{enable-background:new    ;}
	.st3{fill:#CF3B22;}
	.st4{fill:#EEEBE4;}
	.st5{fill:#959595;stroke:#F8F6EE;stroke-width:132.94;}
	.st6{fill:#7DB5A5;}
</style>
<g>
	<defs>
		<rect id="SVGID_1_" y="0" width="80" height="290"/>
	</defs>
	<clipPath id="SVGID_00000063607335795710116360000012051948261253210265_">
		<use xlink:href="#SVGID_1_"  style="overflow:visible;"/>
	</clipPath>
	<g id="a" style="clip-path:url(#SVGID_00000063607335795710116360000012051948261253210265_);">
		<rect y="0" width="80" height="290"/>
		<path class="st1" d="M-8-5h88v233H-8V-5z"/>
		<g class="st2">
			<path class="st3" d="M31.7,27.9v-6.8h17.2v6.3c0,1.9-0.4,3.4-1.2,4.6c-0.8,1.2-2,1.8-3.7,1.8c-1,0-2.1-0.6-3.1-1.7
				c-0.5,0.8-1.1,1.4-1.7,1.8c-0.7,0.4-1.5,0.7-2.4,0.7c-1.7,0-3-0.6-3.8-1.9C32.1,31.5,31.7,29.9,31.7,27.9z M39,27.9v-2.9h-4.1
				v2.8c0,0.8,0.2,1.5,0.5,1.9c0.3,0.5,0.8,0.7,1.5,0.7c0.7,0,1.2-0.2,1.6-0.7C38.8,29.3,39,28.7,39,27.9z M45.7,27.1v-2.1h-3.6v1.7
				c0,0.9,0.1,1.6,0.4,2.1c0.3,0.5,0.7,0.8,1.3,0.8C45.1,29.7,45.7,28.8,45.7,27.1z"/>
			<path class="st3" d="M49.2,52.2c0,1.8-0.4,3.3-1.2,4.6c-0.8,1.3-1.9,2.3-3.2,3c-1.3,0.7-2.8,1-4.5,1c-1.8,0-3.3-0.4-4.7-1.1
				c-1.4-0.7-2.4-1.8-3.2-3.1c-0.8-1.3-1.2-2.8-1.2-4.5c0-1.8,0.4-3.3,1.2-4.6c0.8-1.3,1.8-2.3,3.2-3c1.3-0.7,2.8-1,4.5-1
				c1.7,0,3.3,0.4,4.7,1.1s2.4,1.8,3.2,3.1C48.8,49,49.2,50.5,49.2,52.2z M40.2,47.6c-1.7,0-3,0.4-4,1.2c-1,0.8-1.6,1.9-1.6,3.3
				c0,0.9,0.2,1.6,0.6,2.3c0.4,0.7,1.1,1.3,1.9,1.7c0.9,0.4,1.9,0.6,3.2,0.6c1.1,0,2-0.2,2.9-0.6c0.8-0.4,1.5-0.9,2-1.6
				s0.7-1.5,0.7-2.4c0-0.8-0.2-1.6-0.7-2.3c-0.5-0.7-1.1-1.3-2-1.7S41.3,47.6,40.2,47.6z"/>
			<path class="st3" d="M49.2,78.8c0,1.8-0.4,3.3-1.2,4.6c-0.8,1.3-1.9,2.3-3.2,3s-2.8,1-4.5,1c-1.8,0-3.3-0.4-4.7-1.1
				s-2.4-1.8-3.2-3.1c-0.8-1.3-1.2-2.8-1.2-4.5c0-1.8,0.4-3.3,1.2-4.6c0.8-1.3,1.8-2.3,3.2-3s2.8-1,4.5-1c1.7,0,3.3,0.4,4.7,1.1
				s2.4,1.8,3.2,3.1C48.8,75.6,49.2,77.1,49.2,78.8z M40.2,74.2c-1.7,0-3,0.4-4,1.2c-1,0.8-1.6,1.9-1.6,3.3c0,0.9,0.2,1.6,0.6,2.3
				s1.1,1.3,1.9,1.7c0.9,0.4,1.9,0.6,3.2,0.6c1.1,0,2-0.2,2.9-0.6c0.8-0.4,1.5-0.9,2-1.6c0.5-0.7,0.7-1.5,0.7-2.4
				c0-0.8-0.2-1.6-0.7-2.3c-0.5-0.7-1.1-1.3-2-1.7C42.3,74.4,41.3,74.2,40.2,74.2z"/>
			<path class="st3" d="M31.7,108.2l6.8-4.8l-1.5-1.5h-5.3v-4h17.2v4h-6.6l7,7.2l-2.2,3l-5.8-5.9l-9.5,7V108.2z"/>
			<path class="st3" d="M31.7,136.3h17.2v3.8l-10.4,7.3h10.4v3.9H31.7v-3.8l10.3-7.3H31.7V136.3z"/>
			<path class="st3" d="M49.2,170.4c0,1.8-0.4,3.3-1.2,4.6c-0.8,1.3-1.9,2.3-3.2,3s-2.8,1-4.5,1c-1.8,0-3.3-0.4-4.7-1.1
				s-2.4-1.8-3.2-3.1c-0.8-1.3-1.2-2.8-1.2-4.5c0-1.8,0.4-3.3,1.2-4.6c0.8-1.3,1.8-2.3,3.2-3s2.8-1,4.5-1c1.7,0,3.3,0.4,4.7,1.1
				s2.4,1.8,3.2,3.1C48.8,167.3,49.2,168.8,49.2,170.4z M40.2,165.9c-1.7,0-3,0.4-4,1.2c-1,0.8-1.6,1.9-1.6,3.3
				c0,0.9,0.2,1.6,0.6,2.3s1.1,1.3,1.9,1.7c0.9,0.4,1.9,0.6,3.2,0.6c1.1,0,2-0.2,2.9-0.6c0.8-0.4,1.5-0.9,2-1.6
				c0.5-0.7,0.7-1.5,0.7-2.4c0-0.8-0.2-1.6-0.7-2.3c-0.5-0.7-1.1-1.3-2-1.7C42.3,166.1,41.3,165.9,40.2,165.9z"/>
			<path class="st3" d="M48.9,211.6l-17.2-5.1v-3.7l11.7-3.2l-11.7-3.1v-3.7l17-5.2l0.5,3.9l-12.4,3.2l12.2,2.9v3.9l-12.2,3.1
				l12.2,2.9V211.6z"/>
		</g>
		<g class="st2">
			<path class="st4" d="M30.7,30.7V24h17.2v6.3c0,1.9-0.4,3.4-1.2,4.6c-0.8,1.2-2,1.8-3.7,1.8c-1,0-2.1-0.6-3.1-1.7
				c-0.5,0.8-1.1,1.4-1.7,1.8c-0.7,0.4-1.5,0.7-2.4,0.7c-1.7,0-3-0.6-3.8-1.9C31.1,34.3,30.7,32.7,30.7,30.7z M38,30.8v-2.9h-4.1
				v2.8c0,0.8,0.2,1.5,0.5,1.9c0.3,0.5,0.8,0.7,1.5,0.7c0.7,0,1.2-0.2,1.6-0.7C37.8,32.2,38,31.6,38,30.8z M44.7,30v-2.1h-3.6v1.7
				c0,0.9,0.1,1.6,0.4,2.1c0.3,0.5,0.7,0.8,1.3,0.8C44.1,32.6,44.7,31.7,44.7,30z"/>
			<path class="st4" d="M48.3,55.1c0,1.8-0.4,3.3-1.2,4.6c-0.8,1.3-1.9,2.3-3.2,3c-1.3,0.7-2.8,1-4.5,1c-1.8,0-3.3-0.4-4.7-1.1
				c-1.4-0.7-2.4-1.8-3.2-3.1c-0.8-1.3-1.2-2.8-1.2-4.5c0-1.8,0.4-3.3,1.2-4.6c0.8-1.3,1.8-2.3,3.2-3c1.3-0.7,2.8-1,4.5-1
				c1.7,0,3.3,0.4,4.7,1.1s2.4,1.8,3.2,3.1C47.9,51.9,48.3,53.4,48.3,55.1z M39.3,50.5c-1.7,0-3,0.4-4,1.2c-1,0.8-1.6,1.9-1.6,3.3
				c0,0.9,0.2,1.6,0.6,2.3c0.4,0.7,1.1,1.3,1.9,1.7c0.9,0.4,1.9,0.6,3.2,0.6c1.1,0,2-0.2,2.9-0.6c0.8-0.4,1.5-0.9,2-1.6
				S45,56,45,55.1c0-0.8-0.2-1.6-0.7-2.3c-0.5-0.7-1.1-1.3-2-1.7S40.4,50.5,39.3,50.5z"/>
			<path class="st4" d="M48.3,81.6c0,1.8-0.4,3.3-1.2,4.6c-0.8,1.3-1.9,2.3-3.2,3s-2.8,1-4.5,1c-1.8,0-3.3-0.4-4.7-1.1
				s-2.4-1.8-3.2-3.1c-0.8-1.3-1.2-2.8-1.2-4.5c0-1.8,0.4-3.3,1.2-4.6c0.8-1.3,1.8-2.3,3.2-3s2.8-1,4.5-1c1.7,0,3.3,0.4,4.7,1.1
				s2.4,1.8,3.2,3.1C47.9,78.4,48.3,79.9,48.3,81.6z M39.3,77c-1.7,0-3,0.4-4,1.2c-1,0.8-1.6,1.9-1.6,3.3c0,0.9,0.2,1.6,0.6,2.3
				s1.1,1.3,1.9,1.7c0.9,0.4,1.9,0.6,3.2,0.6c1.1,0,2-0.2,2.9-0.6c0.8-0.4,1.5-0.9,2-1.6c0.5-0.7,0.7-1.5,0.7-2.4
				c0-0.8-0.2-1.6-0.7-2.3c-0.5-0.7-1.1-1.3-2-1.7C41.4,77.3,40.4,77,39.3,77z"/>
			<path class="st4" d="M30.7,111l6.8-4.8l-1.5-1.5h-5.3v-4h17.2v4h-6.6l7,7.2l-2.2,3l-5.8-5.9l-9.5,7V111z"/>
			<path class="st4" d="M30.7,139.1h17.2v3.8l-10.4,7.3h10.4v3.9H30.7v-3.8l10.3-7.3H30.7V139.1z"/>
			<path class="st4" d="M48.3,173.3c0,1.8-0.4,3.3-1.2,4.6c-0.8,1.3-1.9,2.3-3.2,3s-2.8,1-4.5,1c-1.8,0-3.3-0.4-4.7-1.1
				s-2.4-1.8-3.2-3.1c-0.8-1.3-1.2-2.8-1.2-4.5c0-1.8,0.4-3.3,1.2-4.6c0.8-1.3,1.8-2.3,3.2-3s2.8-1,4.5-1c1.7,0,3.3,0.4,4.7,1.1
				s2.4,1.8,3.2,3.1C47.9,170.1,48.3,171.6,48.3,173.3z M39.3,168.7c-1.7,0-3,0.4-4,1.2c-1,0.8-1.6,1.9-1.6,3.3
				c0,0.9,0.2,1.6,0.6,2.3s1.1,1.3,1.9,1.7c0.9,0.4,1.9,0.6,3.2,0.6c1.1,0,2-0.2,2.9-0.6c0.8-0.4,1.5-0.9,2-1.6
				c0.5-0.7,0.7-1.5,0.7-2.4c0-0.8-0.2-1.6-0.7-2.3c-0.5-0.7-1.1-1.3-2-1.7C41.4,168.9,40.4,168.7,39.3,168.7z"/>
			<path class="st4" d="M47.9,214.5l-17.2-5.1v-3.7l11.7-3.2l-11.7-3.1v-3.7l17-5.2l0.5,3.9l-12.4,3.2l12.2,2.9v3.9l-12.2,3.1
				l12.2,2.9V214.5z"/>
		</g>
		<path class="st5" d="M4,293.5h74v73.2H4V293.5z"/>
		<g transform="translate(-33.413 184.413)">
			<path class="st6" d="M86.9,60.8l-12.4,7l-12.4-7c-0.6-0.3-1.4-0.1-1.7,0.5c-0.1,0.2-0.2,0.4-0.2,0.6v21.6c0,0.7,0.6,1.2,1.3,1.2
				c0,0,0,0,0,0h7.3c0,0,0-0.1,0-0.1c0-0.7,0.1-1.4,0.4-2.1c-3.1-0.1-5.6-2.7-5.5-5.9s2.7-5.6,5.9-5.5c2.2,0.1,4.1,1.4,5,3.3
				c1.3-2.9,4.7-4.2,7.6-3c2.9,1.3,4.2,4.7,3,7.6c-0.9,2.1-2.9,3.4-5.2,3.4c0.3,0.7,0.4,1.4,0.4,2.1c0,0,0,0.1,0,0.1h7.3
				c0.7,0,1.3-0.6,1.3-1.2c0,0,0,0,0,0V61.9c0-0.7-0.6-1.3-1.3-1.3C87.3,60.7,87,60.7,86.9,60.8z"/>
			<path class="st6" d="M74.4,90.3c3.1,0,5.7-2.5,5.8-5.6H68.6C68.7,87.8,71.3,90.3,74.4,90.3z"/>
			<path class="st6" d="M75.5,82.3c-0.3,0-0.6,0.4-0.6,0.9s0.3,0.9,0.6,0.9s0.6-0.4,0.6-0.9S75.8,82.3,75.5,82.3z"/>
			<path class="st6" d="M73.3,82.3c-0.3,0-0.6,0.4-0.6,0.9s0.3,0.9,0.6,0.9s0.6-0.4,0.6-0.9S73.6,82.3,73.3,82.3z"/>
			<ellipse class="st6" cx="79.6" cy="76.8" rx="3.1" ry="3.1"/>
			<ellipse class="st6" cx="69.1" cy="76.8" rx="3.1" ry="3.1"/>
			<path class="st6" d="M69.2,57.4v5.7l5.2,2.9l5.2-2.9v-5.7c0-0.3-0.2-0.5-0.5-0.5c-0.1,0-0.2,0-0.3,0.1l-4.4,3.7L70,57
				c-0.2-0.2-0.5-0.2-0.7,0.1C69.2,57.1,69.2,57.3,69.2,57.4z"/>
		</g>
		<path class="st1" d="M35.2,269.1h11.5c-0.1,3.2-2.8,5.7-6,5.6C37.8,274.6,35.3,272.2,35.2,269.1z M46.8,269.1c0,0,0-0.1,0-0.1
			c0-0.7-0.1-1.4-0.4-2.1c3.1-0.1,5.6-2.7,5.5-5.9c-0.1-3.1-2.7-5.6-5.9-5.5c-2.2,0.1-4.1,1.4-5,3.3c-1.3-2.9-4.7-4.2-7.6-3
			c-2.9,1.3-4.2,4.7-3,7.6c0.9,2.1,2.9,3.4,5.2,3.4c-0.3,0.7-0.4,1.4-0.4,2.1c0,0,0,0.1,0,0.1h-7.3c-0.7,0-1.3-0.6-1.3-1.2v0v-21.6
			c0-0.7,0.6-1.3,1.3-1.2c0.2,0,0.4,0.1,0.6,0.2l12.5,7l12.4-7c0.6-0.3,1.4-0.1,1.7,0.5c0.1,0.2,0.2,0.4,0.2,0.6v21.6
			c0,0.7-0.6,1.2-1.3,1.2c0,0,0,0,0,0L46.8,269.1z M41.5,267.6c0-0.5,0.3-0.9,0.6-0.9s0.6,0.4,0.6,0.9s-0.3,0.9-0.6,0.9
			S41.5,268.1,41.5,267.6L41.5,267.6z M39.3,267.6c0-0.5,0.3-0.9,0.6-0.9s0.6,0.4,0.6,0.9s-0.3,0.9-0.6,0.9S39.3,268.1,39.3,267.6
			L39.3,267.6z M43.1,261.2c0-1.7,1.4-3.1,3.1-3.2c1.7,0,3.1,1.4,3.2,3.1c0,1.7-1.4,3.1-3.1,3.2c0,0,0,0,0,0
			C44.5,264.3,43.1,262.9,43.1,261.2C43.1,261.2,43.1,261.2,43.1,261.2L43.1,261.2z M32.6,261.2c0-1.7,1.4-3.1,3.1-3.2
			c1.7,0,3.1,1.4,3.2,3.1c0,1.7-1.4,3.1-3.1,3.2c0,0,0,0,0,0C34,264.3,32.6,262.9,32.6,261.2C32.6,261.2,32.6,261.2,32.6,261.2
			L32.6,261.2z M35.8,247.5v-5.7c0-0.3,0.2-0.5,0.5-0.5c0.1,0,0.2,0,0.3,0.1l4.4,3.7l4.4-3.7c0.2-0.2,0.5-0.2,0.7,0.1
			c0.1,0.1,0.1,0.2,0.1,0.3v5.7l-5.3,2.9L35.8,247.5z"/>
	</g>
</g>
</svg>
