<?xml version="1.0" encoding="utf-8"?>
<!-- Generator: Adobe Illustrator 25.4.8, SVG Export Plug-In . SVG Version: 6.00 Build 0)  -->
<svg version="1.1" id="Layer_1" xmlns="http://www.w3.org/2000/svg" xmlns:xlink="http://www.w3.org/1999/xlink" x="0px" y="0px"
	 viewBox="0 0 109 297.4" style="enable-background:new 0 0 109 297.4;" xml:space="preserve">
<style type="text/css">
	.st0{fill:#6D6E70;stroke:#FFFFFF;stroke-width:5;stroke-miterlimit:10;}
	.st1{fill:#6D6E70;}
	.st2{fill:none;stroke:#FFFFFF;stroke-width:3;}
	.st3{fill:#FF4A2C;stroke:#FFFFFF;stroke-width:4;}
	.st4{fill:#CC3A27;}
	.st5{fill:#FFFFFF;}
	.st6{fill:#FFFFFF;stroke:#FFFFFF;stroke-width:4;}
	.st7{fill:#FF4A2C;}
</style>
<g>
	
		<rect id="Rectángulo_1_00000173142272177687742050000002861144500500172177_" x="11" y="4.1" class="st3" width="87" height="224.5"/>
</g>
<g>
	<path class="st4" d="M44.4,21h21.3v7.4c0,1.6-0.2,3-0.6,4.3c-0.4,1.3-1.1,2.4-2,3.2c-0.9,0.8-2.1,1.2-3.5,1.2
		c-0.8,0-1.6-0.2-2.2-0.6c-0.6-0.4-1.2-0.9-1.7-1.3c-0.6,0.8-1.3,1.5-2.1,2.1S51.8,38,50.8,38c-1.2,0-2.2-0.2-3.1-0.8
		c-0.8-0.5-1.5-1.2-2-2c-0.5-0.9-0.8-1.8-1-2.9c-0.2-1.1-0.3-2.2-0.3-3.3V21z M53.2,26.6h-4.3v2.5c0,0.6,0.1,1.1,0.2,1.5
		c0.1,0.4,0.4,0.8,0.7,1.1s0.7,0.4,1.1,0.4c0.7,0,1.3-0.3,1.7-0.8c0.4-0.5,0.6-1.3,0.6-2.3V26.6z M61.2,26.6h-3.6v1.3
		c0,0.6,0.1,1.1,0.2,1.6c0.1,0.5,0.3,0.9,0.5,1.2c0.2,0.3,0.5,0.5,0.9,0.5c0.4,0,0.8-0.1,1.1-0.4c0.3-0.2,0.5-0.6,0.6-1
		c0.1-0.4,0.2-1,0.2-1.6V26.6z"/>
	<path class="st4" d="M44,53.1c0-2.3,0.5-4.2,1.5-5.9c1-1.6,2.3-2.9,4-3.8c1.7-0.9,3.5-1.3,5.5-1.3c2.2,0,4.1,0.5,5.8,1.4
		c1.7,0.9,3,2.2,3.9,3.9c1,1.7,1.4,3.6,1.4,5.7c0,2.3-0.5,4.3-1.5,5.9c-1,1.6-2.3,2.9-3.9,3.8c-1.6,0.9-3.5,1.3-5.5,1.3
		c-2.2,0-4.1-0.5-5.8-1.4s-3-2.2-4-3.9C44.5,57.2,44,55.2,44,53.1z M48.8,53c0,1,0.2,1.9,0.7,2.6c0.5,0.8,1.2,1.4,2.2,1.9
		c1,0.5,2.1,0.7,3.6,0.7c1.2,0,2.2-0.2,3.2-0.6c0.9-0.4,1.7-1,2.2-1.8s0.8-1.7,0.8-2.7c0-0.9-0.3-1.8-0.8-2.6s-1.3-1.4-2.2-1.9
		s-2.1-0.7-3.4-0.7c-1.2,0-2.3,0.2-3.2,0.6c-1,0.4-1.7,1-2.2,1.8C49,51.1,48.8,52,48.8,53z"/>
	<path class="st4" d="M44,79.5c0-2.3,0.5-4.2,1.5-5.9c1-1.6,2.3-2.9,4-3.8c1.7-0.9,3.5-1.3,5.5-1.3c2.2,0,4.1,0.5,5.8,1.4
		c1.7,0.9,3,2.2,3.9,3.9c1,1.7,1.4,3.6,1.4,5.7c0,2.3-0.5,4.3-1.5,5.9c-1,1.6-2.3,2.9-3.9,3.8s-3.5,1.3-5.5,1.3
		c-2.2,0-4.1-0.5-5.8-1.4c-1.7-0.9-3-2.2-4-3.9C44.5,83.5,44,81.6,44,79.5z M48.8,79.4c0,1,0.2,1.9,0.7,2.6c0.5,0.8,1.2,1.4,2.2,1.9
		c1,0.5,2.1,0.7,3.6,0.7c1.2,0,2.2-0.2,3.2-0.6s1.7-1,2.2-1.8s0.8-1.7,0.8-2.7c0-0.9-0.3-1.8-0.8-2.6c-0.5-0.8-1.3-1.4-2.2-1.9
		c-0.9-0.5-2.1-0.7-3.4-0.7c-1.2,0-2.3,0.2-3.2,0.6c-1,0.4-1.7,1-2.2,1.8C49,77.4,48.8,78.4,48.8,79.4z"/>
	<path class="st4" d="M44.4,109.2l8-5.4l-1.6-1.7h-6.4v-5.7h21.3v5.7h-7.4l7.9,8.5l-3.2,4.4l-6.8-7.2l-11.8,8.6V109.2z"/>
	<path class="st4" d="M44.4,131.2h21.3v5.3l-9.4,6.7l-2.2,1.6l11.6-0.1v5.7H44.4V145l9-6.6l2.2-1.6H44.4V131.2z"/>
	<path class="st4" d="M44,167.3c0-2.3,0.5-4.2,1.5-5.9c1-1.6,2.3-2.9,4-3.8c1.7-0.9,3.5-1.3,5.5-1.3c2.2,0,4.1,0.5,5.8,1.4
		c1.7,0.9,3,2.2,3.9,3.9c1,1.7,1.4,3.6,1.4,5.7c0,2.3-0.5,4.3-1.5,5.9c-1,1.6-2.3,2.9-3.9,3.8c-1.6,0.9-3.5,1.3-5.5,1.3
		c-2.2,0-4.1-0.5-5.8-1.4c-1.7-0.9-3-2.2-4-3.9C44.5,171.4,44,169.5,44,167.3z M48.8,167.3c0,1,0.2,1.9,0.7,2.6
		c0.5,0.8,1.2,1.4,2.2,1.9c1,0.5,2.1,0.7,3.6,0.7c1.2,0,2.2-0.2,3.2-0.6c0.9-0.4,1.7-1,2.2-1.8c0.5-0.8,0.8-1.7,0.8-2.7
		c0-0.9-0.3-1.8-0.8-2.6s-1.3-1.4-2.2-1.9s-2.1-0.7-3.4-0.7c-1.2,0-2.3,0.2-3.2,0.6c-1,0.4-1.7,1-2.2,1.8
		C49,165.3,48.8,166.2,48.8,167.3z"/>
	<path class="st4" d="M65.7,212.7l-21.3-6.1v-5.7l13.4-3.5l-13.4-3.3v-5.7l21-6.4l0.6,5.6l-14.8,3.7l14.5,3.2v5.7l-14.5,3.6
		l14.5,3.2V212.7z"/>
</g>
<g>
	<path class="st5" d="M44.4,24h21.3v7.4c0,1.6-0.2,3-0.6,4.3c-0.4,1.3-1.1,2.4-2,3.2c-0.9,0.8-2.1,1.2-3.5,1.2
		c-0.8,0-1.6-0.2-2.2-0.6c-0.6-0.4-1.2-0.9-1.7-1.3c-0.6,0.8-1.3,1.5-2.1,2.1S51.8,41,50.8,41c-1.2,0-2.2-0.2-3.1-0.8
		c-0.8-0.5-1.5-1.2-2-2c-0.5-0.9-0.8-1.8-1-2.9c-0.2-1.1-0.3-2.2-0.3-3.3V24z M53.2,29.6h-4.3v2.5c0,0.6,0.1,1.1,0.2,1.5
		c0.1,0.4,0.4,0.8,0.7,1.1s0.7,0.4,1.1,0.4c0.7,0,1.3-0.3,1.7-0.8c0.4-0.5,0.6-1.3,0.6-2.3V29.6z M61.2,29.6h-3.6v1.3
		c0,0.6,0.1,1.1,0.2,1.6c0.1,0.5,0.3,0.9,0.5,1.2c0.2,0.3,0.5,0.5,0.9,0.5c0.4,0,0.8-0.1,1.1-0.4c0.3-0.2,0.5-0.6,0.6-1
		c0.1-0.4,0.2-1,0.2-1.6V29.6z"/>
	<path class="st5" d="M44,56.1c0-2.3,0.5-4.2,1.5-5.9c1-1.6,2.3-2.9,4-3.8c1.7-0.9,3.5-1.3,5.5-1.3c2.2,0,4.1,0.5,5.8,1.4
		c1.7,0.9,3,2.2,3.9,3.9c1,1.7,1.4,3.6,1.4,5.7c0,2.3-0.5,4.3-1.5,5.9c-1,1.6-2.3,2.9-3.9,3.8c-1.6,0.9-3.5,1.3-5.5,1.3
		c-2.2,0-4.1-0.5-5.8-1.4s-3-2.2-4-3.9C44.5,60.2,44,58.2,44,56.1z M48.8,56c0,1,0.2,1.9,0.7,2.6c0.5,0.8,1.2,1.4,2.2,1.9
		c1,0.5,2.1,0.7,3.6,0.7c1.2,0,2.2-0.2,3.2-0.6c0.9-0.4,1.7-1,2.2-1.8s0.8-1.7,0.8-2.7c0-0.9-0.3-1.8-0.8-2.6s-1.3-1.4-2.2-1.9
		s-2.1-0.7-3.4-0.7c-1.2,0-2.3,0.2-3.2,0.6c-1,0.4-1.7,1-2.2,1.8C49,54.1,48.8,55,48.8,56z"/>
	<path class="st5" d="M44,82.5c0-2.3,0.5-4.2,1.5-5.9c1-1.6,2.3-2.9,4-3.8c1.7-0.9,3.5-1.3,5.5-1.3c2.2,0,4.1,0.5,5.8,1.4
		c1.7,0.9,3,2.2,3.9,3.9c1,1.7,1.4,3.6,1.4,5.7c0,2.3-0.5,4.3-1.5,5.9c-1,1.6-2.3,2.9-3.9,3.8s-3.5,1.3-5.5,1.3
		c-2.2,0-4.1-0.5-5.8-1.4c-1.7-0.9-3-2.2-4-3.9C44.5,86.5,44,84.6,44,82.5z M48.8,82.4c0,1,0.2,1.9,0.7,2.6c0.5,0.8,1.2,1.4,2.2,1.9
		c1,0.5,2.1,0.7,3.6,0.7c1.2,0,2.2-0.2,3.2-0.6s1.7-1,2.2-1.8s0.8-1.7,0.8-2.7c0-0.9-0.3-1.8-0.8-2.6c-0.5-0.8-1.3-1.4-2.2-1.9
		c-0.9-0.5-2.1-0.7-3.4-0.7c-1.2,0-2.3,0.2-3.2,0.6c-1,0.4-1.7,1-2.2,1.8C49,80.4,48.8,81.4,48.8,82.4z"/>
	<path class="st5" d="M44.4,112.2l8-5.4l-1.6-1.7h-6.4v-5.7h21.3v5.7h-7.4l7.9,8.5l-3.2,4.4l-6.8-7.2l-11.8,8.6V112.2z"/>
	<path class="st5" d="M44.4,134.2h21.3v5.3l-9.4,6.7l-2.2,1.6l11.6-0.1v5.7H44.4V148l9-6.6l2.2-1.6H44.4V134.2z"/>
	<path class="st5" d="M44,170.3c0-2.3,0.5-4.2,1.5-5.9c1-1.6,2.3-2.9,4-3.8c1.7-0.9,3.5-1.3,5.5-1.3c2.2,0,4.1,0.5,5.8,1.4
		c1.7,0.9,3,2.2,3.9,3.9c1,1.7,1.4,3.6,1.4,5.7c0,2.3-0.5,4.3-1.5,5.9c-1,1.6-2.3,2.9-3.9,3.8c-1.6,0.9-3.5,1.3-5.5,1.3
		c-2.2,0-4.1-0.5-5.8-1.4c-1.7-0.9-3-2.2-4-3.9C44.5,174.4,44,172.5,44,170.3z M48.8,170.3c0,1,0.2,1.9,0.7,2.6
		c0.5,0.8,1.2,1.4,2.2,1.9c1,0.5,2.1,0.7,3.6,0.7c1.2,0,2.2-0.2,3.2-0.6c0.9-0.4,1.7-1,2.2-1.8c0.5-0.8,0.8-1.7,0.8-2.7
		c0-0.9-0.3-1.8-0.8-2.6s-1.3-1.4-2.2-1.9s-2.1-0.7-3.4-0.7c-1.2,0-2.3,0.2-3.2,0.6c-1,0.4-1.7,1-2.2,1.8
		C49,168.3,48.8,169.2,48.8,170.3z"/>
	<path class="st5" d="M65.7,215.7l-21.3-6.1v-5.7l13.4-3.5l-13.4-3.3v-5.7l21-6.4l0.6,5.6l-14.8,3.7l14.5,3.2v5.7l-14.5,3.6
		l14.5,3.2V215.7z"/>
</g>
<g>
	<path class="st7" d="M72.6,244.2l-18.1,10.2l-18.1-10.2c-1.2-0.7-2.7,0.2-2.7,1.6v31.7c0,1,0.8,1.8,1.8,1.8h10.6c0-0.1,0-0.1,0-0.2
		c0-1.1,0.2-2.1,0.6-3.1c-4.7-0.1-8.5-4.1-8.2-8.9c0.3-4.1,3.7-7.5,7.8-7.8c3.6-0.2,6.8,1.8,8.2,4.9c1.4-3,4.6-5.1,8.2-4.9
		c4.1,0.3,7.5,3.6,7.8,7.8c0.3,4.8-3.5,8.9-8.2,8.9c0.4,1,0.6,2,0.6,3.1c0,0.1,0,0.1,0,0.2h10.6c1,0,1.8-0.8,1.8-1.8v-31.7
		C75.3,244.4,73.8,243.5,72.6,244.2z"/>
	<path class="st7" d="M54.5,287.5c4.6,0,8.3-3.6,8.4-8.2H46.2C46.3,283.8,50,287.5,54.5,287.5z"/>
	<g>
		<path class="st7" d="M56.1,275.7c-0.5,0-0.8,0.6-0.8,1.3c0,0.7,0.4,1.3,0.8,1.3c0.5,0,0.8-0.6,0.8-1.3
			C57,276.3,56.6,275.7,56.1,275.7z"/>
		<path class="st7" d="M52.9,275.7c-0.5,0-0.8,0.6-0.8,1.3c0,0.7,0.4,1.3,0.8,1.3c0.5,0,0.8-0.6,0.8-1.3
			C53.7,276.3,53.4,275.7,52.9,275.7z"/>
	</g>
	<circle class="st7" cx="62.1" cy="267.7" r="4.5"/>
	<circle class="st7" cx="46.9" cy="267.7" r="4.5"/>
	<path class="st7" d="M46.9,239.2v8.4l7.6,4.3l7.6-4.3v-8.4c0-0.6-0.7-1-1.2-0.6l-6.4,5.4l-6.4-5.4
		C47.6,238.2,46.9,238.5,46.9,239.2z"/>
</g>
</svg>
