<?xml version="1.0" encoding="utf-8"?>
<!-- Generator: Adobe Illustrator 25.4.8, SVG Export Plug-In . SVG Version: 6.00 Build 0)  -->
<svg version="1.1" id="Layer_1" xmlns="http://www.w3.org/2000/svg" xmlns:xlink="http://www.w3.org/1999/xlink" x="0px" y="0px"
	 viewBox="0 0 273.6 105.9" style="enable-background:new 0 0 273.6 105.9;" xml:space="preserve">
<style type="text/css">
	.st0{fill:#6D6E70;stroke:#FFFFFF;stroke-width:5;stroke-miterlimit:10;}
	.st1{fill:#6D6E70;}
	.st2{fill:none;stroke:#FFFFFF;stroke-width:3;}
	.st3{fill:#FF4A2C;stroke:#FFFFFF;stroke-width:4;}
	.st4{fill:#CC3A27;}
	.st5{fill:#FFFFFF;}
	.st6{fill:#FFFFFF;stroke:#FFFFFF;stroke-width:4;}
	.st7{fill:#FF4A2C;}
</style>
<rect x="5.4" y="5" class="st0" width="262.8" height="96"/>
<g>
	<g>
		<path class="st7" d="M72.3,42.6H61.6v26.5h-9V42.6h-9.9v-7h28.7L72.3,42.6z"/>
		<path class="st7" d="M89.2,55.8c0,1.4,0.3,2.6,0.8,3.5c0.5,1,1.2,1.7,2.1,2.2c0.9,0.5,2,0.7,3.2,0.7c1.2,0,2.2-0.2,3.1-0.7
			s1.6-1.2,2.1-2.2c0.5-1,0.8-2.1,0.8-3.5V35.6h9v20.7c0,2.9-0.6,5.3-1.9,7.4c-1.3,2-3,3.5-5.3,4.6c-2.2,1-4.9,1.6-7.9,1.6
			c-3,0-5.6-0.5-7.8-1.6c-2.3-1-4-2.6-5.3-4.6c-1.3-2-1.9-4.5-1.9-7.4V35.6h9V55.8z"/>
		<path class="st7" d="M145.6,69.1h-24V35.6h9V62h14.2L145.6,69.1z"/>
		<path class="st7" d="M162.5,55.8c0,1.4,0.3,2.6,0.8,3.5c0.5,1,1.2,1.7,2.1,2.2c0.9,0.5,2,0.7,3.2,0.7c1.2,0,2.2-0.2,3.1-0.7
			s1.6-1.2,2.1-2.2c0.5-1,0.8-2.1,0.8-3.5V35.6h9v20.7c0,2.9-0.6,5.3-1.9,7.4c-1.3,2-3,3.5-5.3,4.6c-2.2,1-4.9,1.6-7.9,1.6
			c-3,0-5.6-0.5-7.8-1.6c-2.3-1-4-2.6-5.3-4.6c-1.3-2-1.9-4.5-1.9-7.4V35.6h9V55.8z"/>
		<path class="st7" d="M209.3,59.5l-5.4-6.6v16.2h-9V35.6h6.2l10.1,12.8l9.3-12.8h6v33.5h-9V52.9l-4.5,6.1L209.3,59.5z"/>
	</g>
</g>
<g>
	<path class="st7" d="M72.3,42.6H61.6v26.5h-9V42.6h-9.9v-7h28.7L72.3,42.6z"/>
	<path class="st7" d="M89.2,55.8c0,1.4,0.3,2.6,0.8,3.5c0.5,1,1.2,1.7,2.1,2.2c0.9,0.5,2,0.7,3.2,0.7c1.2,0,2.2-0.2,3.1-0.7
		s1.6-1.2,2.1-2.2c0.5-1,0.8-2.1,0.8-3.5V35.6h9v20.7c0,2.9-0.6,5.3-1.9,7.4c-1.3,2-3,3.5-5.3,4.6c-2.2,1-4.9,1.6-7.9,1.6
		c-3,0-5.6-0.5-7.8-1.6c-2.3-1-4-2.6-5.3-4.6c-1.3-2-1.9-4.5-1.9-7.4V35.6h9V55.8z"/>
	<path class="st7" d="M145.6,69.1h-24V35.6h9V62h14.2L145.6,69.1z"/>
	<path class="st7" d="M162.5,55.8c0,1.4,0.3,2.6,0.8,3.5c0.5,1,1.2,1.7,2.1,2.2c0.9,0.5,2,0.7,3.2,0.7c1.2,0,2.2-0.2,3.1-0.7
		s1.6-1.2,2.1-2.2c0.5-1,0.8-2.1,0.8-3.5V35.6h9v20.7c0,2.9-0.6,5.3-1.9,7.4c-1.3,2-3,3.5-5.3,4.6c-2.2,1-4.9,1.6-7.9,1.6
		c-3,0-5.6-0.5-7.8-1.6c-2.3-1-4-2.6-5.3-4.6c-1.3-2-1.9-4.5-1.9-7.4V35.6h9V55.8z"/>
	<path class="st7" d="M209.3,59.5l-5.4-6.6v16.2h-9V35.6h6.2l10.1,12.8l9.3-12.8h6v33.5h-9V52.9l-4.5,6.1L209.3,59.5z"/>
</g>
<g>
	<path class="st5" d="M75.3,43.6H64.6v26.5h-9V43.6h-9.9v-7h28.7L75.3,43.6z"/>
	<path class="st5" d="M92.2,56.8c0,1.4,0.3,2.6,0.8,3.5c0.5,1,1.2,1.7,2.1,2.2c0.9,0.5,2,0.7,3.2,0.7c1.2,0,2.2-0.2,3.1-0.7
		s1.6-1.2,2.1-2.2c0.5-1,0.8-2.1,0.8-3.5V36.6h9v20.7c0,2.9-0.6,5.3-1.9,7.4c-1.3,2-3,3.5-5.3,4.6c-2.2,1-4.9,1.6-7.9,1.6
		c-3,0-5.6-0.5-7.8-1.6c-2.3-1-4-2.6-5.3-4.6c-1.3-2-1.9-4.5-1.9-7.4V36.6h9V56.8z"/>
	<path class="st5" d="M148.6,70.1h-24V36.6h9V63h14.2L148.6,70.1z"/>
	<path class="st5" d="M165.5,56.8c0,1.4,0.3,2.6,0.8,3.5c0.5,1,1.2,1.7,2.1,2.2c0.9,0.5,2,0.7,3.2,0.7c1.2,0,2.2-0.2,3.1-0.7
		s1.6-1.2,2.1-2.2c0.5-1,0.8-2.1,0.8-3.5V36.6h9v20.7c0,2.9-0.6,5.3-1.9,7.4c-1.3,2-3,3.5-5.3,4.6c-2.2,1-4.9,1.6-7.9,1.6
		c-3,0-5.6-0.5-7.8-1.6c-2.3-1-4-2.6-5.3-4.6c-1.3-2-1.9-4.5-1.9-7.4V36.6h9V56.8z"/>
	<path class="st5" d="M212.3,60.5l-5.4-6.6v16.2h-9V36.6h6.2l10.1,12.8l9.3-12.8h6v33.5h-9V53.9l-4.5,6.1L212.3,60.5z"/>
</g>
</svg>
