<?xml version="1.0" encoding="UTF-8" standalone="no"?>
<svg
   xmlns:dc="http://purl.org/dc/elements/1.1/"
   xmlns:cc="http://creativecommons.org/ns#"
   xmlns:rdf="http://www.w3.org/1999/02/22-rdf-syntax-ns#"
   xmlns:svg="http://www.w3.org/2000/svg"
   xmlns="http://www.w3.org/2000/svg"
   viewBox="0 0 37.333332 37.333332"
   height="37.333332"
   width="37.333332"
   xml:space="preserve"
   id="svg2"
   version="1.1"><metadata
     id="metadata8"><rdf:RDF><cc:Work
         rdf:about=""><dc:format>image/svg+xml</dc:format><dc:type
           rdf:resource="http://purl.org/dc/dcmitype/StillImage" /></cc:Work></rdf:RDF></metadata><defs
     id="defs6"><clipPath
       id="clipPath18"
       clipPathUnits="userSpaceOnUse"><path
         id="path16"
         d="M 0,28 H 28 V 0 H 0 Z" /></clipPath></defs><g
     transform="matrix(1.3333333,0,0,-1.3333333,0,37.333333)"
     id="g10"><g
       id="g12"><g
         clip-path="url(#clipPath18)"
         id="g14"><g
           transform="translate(23.29,23.3442)"
           id="g20"><path
             id="path22"
             style="fill:#3e3332;fill-opacity:1;fill-rule:nonzero;stroke:none"
             d="m 0,0 c -2.436,2.438 -5.674,3.781 -9.124,3.782 -7.109,0 -12.895,-5.785 -12.898,-12.896 -0.001,-2.273 0.593,-4.493 1.722,-6.449 l -1.83,-6.683 6.838,1.793 c 1.883,-1.027 4.004,-1.569 6.163,-1.569 h 0.005 c 7.108,0 12.895,5.786 12.897,12.897 C 3.775,-5.678 2.435,-2.438 0,0" /></g><g
           transform="translate(14.166,3.5)"
           id="g24"><path
             id="path26"
             style="fill:#3e3332;fill-opacity:1;fill-rule:nonzero;stroke:none"
             d="m 0,0 h -0.004 c -1.924,0.001 -3.81,0.518 -5.456,1.494 l -0.392,0.233 -4.057,-1.065 1.083,3.956 -0.255,0.406 c -1.073,1.706 -1.64,3.679 -1.639,5.705 0.002,5.911 4.811,10.719 10.724,10.719 2.864,-0.001 5.556,-1.117 7.579,-3.143 2.024,-2.027 3.139,-4.72 3.138,-7.585 C 10.718,4.81 5.909,0 0,0" /></g><g
           transform="translate(20.0459,11.5293)"
           id="g28"><path
             id="path30"
             style="fill:#ffffff;fill-opacity:1;fill-rule:nonzero;stroke:none"
             d="m 0,0 c -0.322,0.161 -1.906,0.94 -2.202,1.048 -0.295,0.108 -0.51,0.161 -0.725,-0.161 -0.215,-0.323 -0.832,-1.049 -1.02,-1.264 -0.189,-0.215 -0.376,-0.242 -0.699,-0.08 -0.322,0.161 -1.36,0.501 -2.591,1.6 -0.958,0.854 -1.605,1.909 -1.793,2.232 -0.188,0.322 -0.001,0.48 0.141,0.657 0.349,0.434 0.699,0.888 0.806,1.103 0.107,0.215 0.054,0.403 -0.027,0.564 -0.08,0.161 -0.725,1.748 -0.994,2.393 -0.261,0.629 -0.526,0.544 -0.725,0.554 -0.187,0.009 -0.402,0.011 -0.617,0.011 -0.215,0 -0.564,-0.081 -0.86,-0.404 -0.295,-0.322 -1.128,-1.102 -1.128,-2.688 0,-1.586 1.155,-3.119 1.316,-3.334 0.161,-0.215 2.273,-3.47 5.506,-4.866 0.768,-0.333 1.369,-0.53 1.837,-0.678 0.772,-0.247 1.474,-0.211 2.03,-0.128 0.619,0.092 1.906,0.779 2.176,1.532 0.267,0.753 0.267,1.397 0.187,1.532 C 0.537,-0.242 0.322,-0.162 0,0" /></g></g></g></g></svg>