<?xml version="1.0" encoding="UTF-8" standalone="no"?>
<svg
   xmlns:dc="http://purl.org/dc/elements/1.1/"
   xmlns:cc="http://creativecommons.org/ns#"
   xmlns:rdf="http://www.w3.org/1999/02/22-rdf-syntax-ns#"
   xmlns:svg="http://www.w3.org/2000/svg"
   xmlns="http://www.w3.org/2000/svg"
   viewBox="0 0 82.666664 66.666664"
   height="66.666664"
   width="82.666664"
   xml:space="preserve"
   id="svg2"
   version="1.1"><metadata
     id="metadata8"><rdf:RDF><cc:Work
         rdf:about=""><dc:format>image/svg+xml</dc:format><dc:type
           rdf:resource="http://purl.org/dc/dcmitype/StillImage" /></cc:Work></rdf:RDF></metadata><defs
     id="defs6"><clipPath
       id="clipPath18"
       clipPathUnits="userSpaceOnUse"><path
         id="path16"
         d="M 0,50 H 62 V 0 H 0 Z" /></clipPath></defs><g
     transform="matrix(1.3333333,0,0,-1.3333333,0,66.666667)"
     id="g10"><g
       id="g12"><g
         clip-path="url(#clipPath18)"
         id="g14"><g
           transform="translate(45.1533,15.5918)"
           id="g20"><path
             id="path22"
             style="fill:#3e3736;fill-opacity:1;fill-rule:nonzero;stroke:none"
             d="m 0,0 c -0.347,0 -0.627,-0.281 -0.627,-0.628 v -5.519 c 0,-2.421 -1.971,-4.391 -4.392,-4.391 h -4.515 c -1.034,0 -2.005,0.351 -2.787,0.998 0.714,0.945 1.136,2.12 1.136,3.393 v 6.356 c 0,0.346 -0.28,0.627 -0.627,0.627 -0.346,0 -0.626,-0.281 -0.626,-0.627 v -6.356 c 0,-2.421 -1.97,-4.391 -4.392,-4.391 h -8.028 c -2.421,0 -4.391,1.97 -4.391,4.391 v 6.356 c 0,0.346 -0.281,0.627 -0.627,0.627 -0.347,0 -0.627,-0.281 -0.627,-0.627 v -6.356 c 0,-3.113 2.532,-5.645 5.645,-5.645 h 8.028 c 1.389,0 2.662,0.505 3.646,1.34 1.013,-0.858 2.312,-1.34 3.65,-1.34 h 4.516 c 3.113,0 5.645,2.532 5.645,5.645 v 5.519 C 0.627,-0.281 0.347,0 0,0" /></g><g
           transform="translate(39.7588,30.4775)"
           id="g24"><path
             id="path26"
             style="fill:#3e3736;fill-opacity:1;fill-rule:nonzero;stroke:none"
             d="m 0,0 h -3.764 v 2.719 c 0,0.576 0.469,1.045 1.046,1.045 h 1.673 C -0.469,3.764 0,3.295 0,2.719 Z m -18.669,7.569 c 0,0.115 0.094,0.209 0.209,0.209 h 6.022 c 0.115,0 0.209,-0.094 0.209,-0.209 V 4.391 c 0,-0.023 -0.019,-0.042 -0.042,-0.042 h -6.356 c -0.023,0 -0.042,0.019 -0.042,0.042 z m 2.174,3.555 h 2.091 V 9.033 h -2.091 z m -2.508,2.299 c 0,0.577 0.468,1.046 1.045,1.046 h 9.274 l 1.882,-1.882 -0.953,-0.953 -0.56,0.56 c -0.118,0.118 -0.277,0.184 -0.444,0.184 h -9.199 c -0.577,0 -1.045,0.469 -1.045,1.045 M 1.255,-0.209 v 2.928 c 0,1.268 -1.032,2.3 -2.3,2.3 h -1.673 c -1.268,0 -2.3,-1.032 -2.3,-2.3 v -2.928 c -0.582,-0.273 -1.653,-0.893 -2.635,-2.089 -0.076,0.133 -0.153,0.266 -0.234,0.395 -0.852,1.372 -1.952,2.475 -3.268,3.279 -0.302,0.184 -0.489,0.523 -0.489,0.885 v 0.996 c 0.399,0.222 0.669,0.646 0.669,1.134 v 3.178 c 0,0.807 -0.657,1.464 -1.463,1.464 h -0.711 v 2.091 h 4.13 l 0.82,-0.82 c 0.123,-0.123 0.283,-0.184 0.444,-0.184 0.16,0 0.321,0.061 0.443,0.184 l 1.84,1.84 c 0.245,0.245 0.245,0.642 0,0.886 l -2.508,2.51 c -0.118,0.117 -0.278,0.183 -0.444,0.183 h -9.534 c -1.269,0 -2.3,-1.032 -2.3,-2.3 0,-1.268 1.031,-2.299 2.3,-2.299 h 0.209 V 9.033 h -0.711 c -0.807,0 -1.463,-0.657 -1.463,-1.464 V 4.391 c 0,-0.488 0.27,-0.912 0.669,-1.134 V 2.261 c 0,-0.362 -0.188,-0.701 -0.49,-0.885 -1.316,-0.804 -2.416,-1.907 -3.268,-3.279 -1.391,-2.24 -2.097,-5.13 -2.097,-8.593 v -1.254 c 0,-0.347 0.281,-0.627 0.628,-0.627 0.346,0 0.627,0.28 0.627,0.627 v 1.254 c 0,6.524 2.591,9.475 4.764,10.801 0.673,0.41 1.09,1.16 1.09,1.956 v 0.834 h 5.102 V 2.261 c 0,-0.796 0.417,-1.546 1.089,-1.956 1.187,-0.724 2.498,-1.932 3.444,-3.942 0.018,-0.09 0.057,-0.174 0.113,-0.248 0.724,-1.642 1.208,-3.793 1.208,-6.611 v -1.254 c 0,-0.347 0.28,-0.627 0.627,-0.627 0.347,0 0.627,0.28 0.627,0.627 v 1.254 c 0,2.662 -0.419,4.985 -1.244,6.936 1.077,1.552 2.419,2.169 2.757,2.306 h 4.791 c 0.275,-0.111 1.19,-0.527 2.09,-1.481 1.435,-1.521 2.164,-3.625 2.164,-6.255 v -3.596 c 0,-0.347 0.28,-0.628 0.627,-0.628 0.346,0 0.626,0.281 0.626,0.628 v 3.596 c 0,3.73 -1.391,5.959 -2.558,7.172 -0.852,0.885 -1.71,1.374 -2.208,1.609" /></g><g
           transform="translate(35.6611,20.6514)"
           id="g28"><path
             id="path30"
             style="fill:#3e3736;fill-opacity:1;fill-rule:nonzero;stroke:none"
             d="M 0,0 C 0,1.222 0.994,2.216 2.216,2.216 3.438,2.216 4.433,1.222 4.433,0 4.433,-1.223 3.438,-2.217 2.216,-2.217 0.994,-2.217 0,-1.223 0,0 m 5.687,0 c 0,1.914 -1.557,3.47 -3.471,3.47 -1.913,0 -3.471,-1.556 -3.471,-3.47 0,-1.914 1.558,-3.471 3.471,-3.471 1.914,0 3.471,1.557 3.471,3.471" /></g><g
           transform="translate(24.2681,26.7563)"
           id="g32"><path
             id="path34"
             style="fill:#3e3736;fill-opacity:1;fill-rule:nonzero;stroke:none"
             d="m 0,0 c 2.38,0 4.39,-3.925 4.39,-8.573 0,-4.646 -2.01,-8.572 -4.39,-8.572 -2.38,0 -4.391,3.926 -4.391,8.572 C -4.391,-3.925 -2.38,0 0,0 m 0,-18.399 c 3.165,0 5.645,4.316 5.645,9.826 0,5.511 -2.48,9.827 -5.645,9.827 -3.166,0 -5.646,-4.316 -5.646,-9.827 0,-5.51 2.48,-9.826 5.646,-9.826" /></g><g
           transform="translate(43.9629,36.165)"
           id="g36"><path
             id="path38"
             style="fill:#3e3736;fill-opacity:1;fill-rule:nonzero;stroke:none"
             d="m 0,0 c -1.176,0 -2.133,0.957 -2.133,2.132 0,1.176 0.957,2.133 2.133,2.133 1.176,0 2.133,-0.957 2.133,-2.133 C 2.133,0.957 1.176,0 0,0 m 0,5.52 c -1.867,0 -3.387,-1.52 -3.387,-3.388 0,-1.867 1.52,-3.387 3.387,-3.387 1.868,0 3.387,1.52 3.387,3.387 C 3.387,4 1.867,5.52 0,5.52" /></g><g
           transform="translate(38.6943,44.9463)"
           id="g40"><path
             id="path42"
             style="fill:#3e3736;fill-opacity:1;fill-rule:nonzero;stroke:none"
             d="m 0,0 c 0.576,0 1.046,-0.469 1.046,-1.045 0,-0.577 -0.47,-1.046 -1.046,-1.046 -0.576,0 -1.045,0.469 -1.045,1.046 C -1.045,-0.469 -0.576,0 0,0 m 0,-3.345 c 1.268,0 2.3,1.031 2.3,2.3 0,1.268 -1.032,2.299 -2.3,2.299 -1.269,0 -2.3,-1.031 -2.3,-2.299 0,-1.269 1.031,-2.3 2.3,-2.3" /></g></g></g></g></svg>