<?xml version="1.0" encoding="UTF-8" standalone="no"?>
<svg
   xmlns:dc="http://purl.org/dc/elements/1.1/"
   xmlns:cc="http://creativecommons.org/ns#"
   xmlns:rdf="http://www.w3.org/1999/02/22-rdf-syntax-ns#"
   xmlns:svg="http://www.w3.org/2000/svg"
   xmlns="http://www.w3.org/2000/svg"
   viewBox="0 0 82.666664 66.666664"
   height="66.666664"
   width="82.666664"
   xml:space="preserve"
   id="svg2"
   version="1.1"><metadata
     id="metadata8"><rdf:RDF><cc:Work
         rdf:about=""><dc:format>image/svg+xml</dc:format><dc:type
           rdf:resource="http://purl.org/dc/dcmitype/StillImage" /></cc:Work></rdf:RDF></metadata><defs
     id="defs6"><clipPath
       id="clipPath18"
       clipPathUnits="userSpaceOnUse"><path
         id="path16"
         d="M 0,50 H 62 V 0 H 0 Z" /></clipPath></defs><g
     transform="matrix(1.3333333,0,0,-1.3333333,0,66.666667)"
     id="g10"><g
       id="g12"><g
         clip-path="url(#clipPath18)"
         id="g14"><g
           transform="translate(58.8076,14.3125)"
           id="g20"><path
             id="path22"
             style="fill:#3e3736;fill-opacity:1;fill-rule:nonzero;stroke:none"
             d="m 0,0 c 0,-0.733 -0.597,-1.329 -1.329,-1.329 h -52.957 c -0.733,0 -1.329,0.596 -1.329,1.329 v 21.375 c 0,0.733 0.596,1.33 1.329,1.33 h 2.291 v -5.968 c 0,-1.845 1.501,-3.346 3.346,-3.346 h 41.683 c 1.845,0 3.346,1.501 3.346,3.346 v 5.968 h 2.291 C -0.597,22.705 0,22.108 0,21.375 Z m -5.977,22.705 v -5.968 c 0,-0.546 -0.444,-0.989 -0.989,-0.989 h -41.683 c -0.546,0 -0.989,0.443 -0.989,0.989 v 5.968 z m 4.648,2.356 h -52.957 c -2.032,0 -3.686,-1.653 -3.686,-3.686 V 0 c 0,-2.032 1.654,-3.687 3.686,-3.687 h 52.957 c 2.032,0 3.685,1.655 3.685,3.687 v 21.375 c 0,2.033 -1.653,3.686 -3.685,3.686" /></g><g
           transform="translate(54.0088,22.4795)"
           id="g24"><path
             id="path26"
             style="fill:#3e3736;fill-opacity:1;fill-rule:nonzero;stroke:none"
             d="m 0,0 h -46.018 c -0.65,0 -1.178,-0.528 -1.178,-1.179 0,-0.65 0.528,-1.178 1.178,-1.178 H 0 c 0.65,0 1.179,0.528 1.179,1.178 C 1.179,-0.528 0.65,0 0,0" /></g><g
           transform="translate(21.8848,17.7305)"
           id="g28"><path
             id="path30"
             style="fill:#3e3736;fill-opacity:1;fill-rule:nonzero;stroke:none"
             d="m 0,0 h -13.894 c -0.65,0 -1.178,-0.527 -1.178,-1.178 0,-0.651 0.528,-1.178 1.178,-1.178 H 0 c 0.65,0 1.178,0.527 1.178,1.178 C 1.178,-0.527 0.65,0 0,0" /></g><g
           transform="translate(54.0088,17.7305)"
           id="g32"><path
             id="path34"
             style="fill:#3e3736;fill-opacity:1;fill-rule:nonzero;stroke:none"
             d="m 0,0 h -13.894 c -0.65,0 -1.178,-0.527 -1.178,-1.178 0,-0.651 0.528,-1.178 1.178,-1.178 H 0 c 0.65,0 1.179,0.527 1.179,1.178 C 1.179,-0.527 0.65,0 0,0" /></g><g
           transform="translate(46.6758,32.3604)"
           id="g36"><path
             id="path38"
             style="fill:#3e3736;fill-opacity:1;fill-rule:nonzero;stroke:none"
             d="m 0,0 h 2.046 c 0.65,0 1.179,0.527 1.179,1.178 0,0.651 -0.529,1.178 -1.179,1.178 H 0 C -0.65,2.356 -1.178,1.829 -1.178,1.178 -1.178,0.527 -0.65,0 0,0" /></g><g
           transform="translate(40.2578,32.3604)"
           id="g40"><path
             id="path42"
             style="fill:#3e3736;fill-opacity:1;fill-rule:nonzero;stroke:none"
             d="m 0,0 h 2.046 c 0.65,0 1.178,0.527 1.178,1.178 0,0.651 -0.528,1.178 -1.178,1.178 H 0 C -0.65,2.356 -1.179,1.829 -1.179,1.178 -1.179,0.527 -0.65,0 0,0" /></g></g></g></g></svg>