<?xml version="1.0" encoding="UTF-8" standalone="no"?>
<svg
   xmlns:dc="http://purl.org/dc/elements/1.1/"
   xmlns:cc="http://creativecommons.org/ns#"
   xmlns:rdf="http://www.w3.org/1999/02/22-rdf-syntax-ns#"
   xmlns:svg="http://www.w3.org/2000/svg"
   xmlns="http://www.w3.org/2000/svg"
   viewBox="0 0 33.333332 33.333332"
   height="33.333332"
   width="33.333332"
   xml:space="preserve"
   id="svg2"
   version="1.1"><metadata
     id="metadata8"><rdf:RDF><cc:Work
         rdf:about=""><dc:format>image/svg+xml</dc:format><dc:type
           rdf:resource="http://purl.org/dc/dcmitype/StillImage" /></cc:Work></rdf:RDF></metadata><defs
     id="defs6"><clipPath
       id="clipPath18"
       clipPathUnits="userSpaceOnUse"><path
         id="path16"
         d="M 0,25 H 25 V 0 H 0 Z" /></clipPath></defs><g
     transform="matrix(1.3333333,0,0,-1.3333333,0,33.333333)"
     id="g10"><g
       id="g12"><g
         clip-path="url(#clipPath18)"
         id="g14"><g
           transform="translate(16.2686,11.749)"
           id="g20"><path
             id="path22"
             style="fill:white;fill-opacity:1;fill-rule:nonzero;stroke:none"
             d="m 0,0 -5.134,-5.134 c -0.2,-0.2 -0.463,-0.301 -0.726,-0.301 -0.263,0 -0.525,0.101 -0.725,0.301 -0.402,0.402 -0.402,1.051 0,1.452 l 4.407,4.408 -4.407,4.407 c -0.402,0.402 -0.402,1.051 0,1.452 0.401,0.401 1.05,0.401 1.451,0 L 0,1.452 C 0.401,1.05 0.401,0.401 0,0 m -3.806,13.046 c -6.794,0 -12.321,-5.526 -12.321,-12.32 0,-6.794 5.527,-12.321 12.321,-12.321 6.793,0 12.321,5.527 12.321,12.321 0,6.794 -5.528,12.32 -12.321,12.32" /></g></g></g></g></svg>