<?xml version="1.0" encoding="UTF-8" standalone="no"?>
<svg
   xmlns:dc="http://purl.org/dc/elements/1.1/"
   xmlns:cc="http://creativecommons.org/ns#"
   xmlns:rdf="http://www.w3.org/1999/02/22-rdf-syntax-ns#"
   xmlns:svg="http://www.w3.org/2000/svg"
   xmlns="http://www.w3.org/2000/svg"
   viewBox="0 0 33.333332 33.333332"
   height="33.333332"
   width="33.333332"
   xml:space="preserve"
   id="svg2"
   version="1.1"><metadata
     id="metadata8"><rdf:RDF><cc:Work
         rdf:about=""><dc:format>image/svg+xml</dc:format><dc:type
           rdf:resource="http://purl.org/dc/dcmitype/StillImage" /></cc:Work></rdf:RDF></metadata><defs
     id="defs6"><clipPath
       id="clipPath18"
       clipPathUnits="userSpaceOnUse"><path
         id="path16"
         d="M 0,25 H 25 V 0 H 0 Z" /></clipPath></defs><g
     transform="matrix(1.3333333,0,0,-1.3333333,0,33.333333)"
     id="g10"><g
       id="g12"><g
         clip-path="url(#clipPath18)"
         id="g14"><g
           transform="translate(8.4082,13.2007)"
           id="g20"><path
             id="path22"
             style="fill:white;fill-opacity:1;fill-rule:nonzero;stroke:none"
             d="m 0,0 5.134,5.133 c 0.401,0.402 1.051,0.402 1.452,0 0.401,-0.401 0.401,-1.05 0,-1.451 L 2.178,-0.726 6.586,-5.133 c 0.401,-0.402 0.401,-1.051 0,-1.452 -0.2,-0.201 -0.464,-0.301 -0.727,-0.301 -0.262,0 -0.525,0.1 -0.725,0.301 L 0,-1.452 C -0.401,-1.05 -0.401,-0.401 0,0 m -8.514,-0.726 c 0,-6.794 5.527,-12.32 12.32,-12.32 6.794,0 12.321,5.526 12.321,12.32 0,6.794 -5.527,12.321 -12.321,12.321 -6.793,0 -12.32,-5.527 -12.32,-12.321" /></g></g></g></g></svg>