<?xml version="1.0" encoding="UTF-8" standalone="no"?>
<svg
   xmlns:dc="http://purl.org/dc/elements/1.1/"
   xmlns:cc="http://creativecommons.org/ns#"
   xmlns:rdf="http://www.w3.org/1999/02/22-rdf-syntax-ns#"
   xmlns:svg="http://www.w3.org/2000/svg"
   xmlns="http://www.w3.org/2000/svg"
   viewBox="0 0 82.666664 66.666664"
   height="66.666664"
   width="82.666664"
   xml:space="preserve"
   id="svg2"
   version="1.1"><metadata
     id="metadata8"><rdf:RDF><cc:Work
         rdf:about=""><dc:format>image/svg+xml</dc:format><dc:type
           rdf:resource="http://purl.org/dc/dcmitype/StillImage" /></cc:Work></rdf:RDF></metadata><defs
     id="defs6"><clipPath
       id="clipPath18"
       clipPathUnits="userSpaceOnUse"><path
         id="path16"
         d="M 0,50 H 62 V 0 H 0 Z" /></clipPath></defs><g
     transform="matrix(1.3333333,0,0,-1.3333333,0,66.666667)"
     id="g10"><g
       id="g12"><g
         clip-path="url(#clipPath18)"
         id="g14"><g
           transform="translate(16.1636,13.6201)"
           id="g20"><path
             id="path22"
             style="fill:#3e3736;fill-opacity:1;fill-rule:nonzero;stroke:none"
             d="m 0,0 c -0.484,0 -0.876,-0.393 -0.876,-0.876 v -2.511 c 0,-0.484 0.392,-0.876 0.876,-0.876 0.484,0 0.876,0.392 0.876,0.876 v 2.511 C 0.876,-0.393 0.484,0 0,0" /></g><path
           id="path24"
           style="fill:#3e3736;fill-opacity:1;fill-rule:nonzero;stroke:none"
           d="m 47.656,8.771 h 4.019 V 6.295 h -4.019 z m -12.16,1.752 H 23.754 v 4.61 c 0,1.608 -1.156,2.95 -2.681,3.241 v 2.637 22.693 h 14.423 z m 0,-4.227 H 31.48 v 2.476 h 4.016 z M 22.002,7.844 c 0,-0.854 -0.695,-1.548 -1.55,-1.548 h -8.577 c -0.854,0 -1.55,0.694 -1.55,1.548 v 7.289 c 0,0.853 0.696,1.548 1.55,1.548 h 8.577 c 0.855,0 1.55,-0.695 1.55,-1.548 z m -8.995,13.167 c 0,1.421 1.157,2.577 2.578,2.577 h 1.155 c 1.423,0 2.58,-1.156 2.58,-2.577 V 18.434 H 13.007 Z M 52.551,45.456 H 20.196 c -0.484,0 -0.876,-0.392 -0.876,-0.876 V 24.486 c -0.721,0.536 -1.614,0.854 -2.58,0.854 h -1.155 c -2.388,0 -4.33,-1.943 -4.33,-4.329 V 18.374 C 9.729,18.083 8.573,16.741 8.573,15.133 V 7.844 c 0,-1.82 1.481,-3.3 3.302,-3.3 h 8.577 c 1.821,0 3.302,1.48 3.302,3.3 v 0.927 h 5.974 V 5.42 c 0,-0.483 0.392,-0.876 0.876,-0.876 h 5.768 c 0.484,0 0.877,0.393 0.877,0.876 v 3.351 h 8.655 V 5.42 c 0,-0.483 0.392,-0.876 0.876,-0.876 h 5.771 c 0.484,0 0.876,0.393 0.876,0.876 v 4.227 12.931 c 0,0.484 -0.392,0.877 -0.876,0.877 -0.484,0 -0.876,-0.393 -0.876,-0.877 V 10.523 H 37.249 V 43.704 H 51.675 V 30.441 c 0,-0.484 0.392,-0.876 0.876,-0.876 0.484,0 0.876,0.392 0.876,0.876 V 44.58 c 0,0.484 -0.392,0.876 -0.876,0.876" /><g
           transform="translate(48.3867,39.7896)"
           id="g26"><path
             id="path28"
             style="fill:#3e3736;fill-opacity:1;fill-rule:nonzero;stroke:none"
             d="m 0,0 h -7.853 c -0.483,0 -0.876,-0.392 -0.876,-0.876 0,-0.484 0.393,-0.876 0.876,-0.876 H 0 c 0.483,0 0.876,0.392 0.876,0.876 C 0.876,-0.392 0.483,0 0,0" /></g><g
           transform="translate(49.2627,34.959)"
           id="g30"><path
             id="path32"
             style="fill:#3e3736;fill-opacity:1;fill-rule:nonzero;stroke:none"
             d="m 0,0 c 0,0.483 -0.393,0.876 -0.876,0.876 h -7.853 c -0.483,0 -0.875,-0.393 -0.875,-0.876 0,-0.484 0.392,-0.876 0.875,-0.876 h 7.853 C -0.393,-0.876 0,-0.484 0,0" /></g><g
           transform="translate(24.3584,38.0371)"
           id="g34"><path
             id="path36"
             style="fill:#3e3736;fill-opacity:1;fill-rule:nonzero;stroke:none"
             d="m 0,0 h 7.853 c 0.483,0 0.876,0.393 0.876,0.876 0,0.484 -0.393,0.876 -0.876,0.876 H 0 C -0.484,1.752 -0.876,1.36 -0.876,0.876 -0.876,0.393 -0.484,0 0,0" /></g><g
           transform="translate(24.3584,34.0825)"
           id="g38"><path
             id="path40"
             style="fill:#3e3736;fill-opacity:1;fill-rule:nonzero;stroke:none"
             d="m 0,0 h 7.853 c 0.483,0 0.876,0.393 0.876,0.876 0,0.484 -0.393,0.876 -0.876,0.876 H 0 C -0.484,1.752 -0.876,1.36 -0.876,0.876 -0.876,0.393 -0.484,0 0,0" /></g><g
           transform="translate(39.6582,27.5259)"
           id="g42"><path
             id="path44"
             style="fill:#3e3736;fill-opacity:1;fill-rule:nonzero;stroke:none"
             d="m 0,0 v -1.916 c 0,-0.483 0.393,-0.876 0.876,-0.876 0.484,0 0.876,0.393 0.876,0.876 V 0 C 1.752,0.484 1.36,0.876 0.876,0.876 0.393,0.876 0,0.484 0,0" /></g><g
           transform="translate(24.3584,24.7344)"
           id="g46"><path
             id="path48"
             style="fill:#3e3736;fill-opacity:1;fill-rule:nonzero;stroke:none"
             d="M 0,0 C 0.484,0 0.876,0.392 0.876,0.876 V 2.792 C 0.876,3.275 0.484,3.667 0,3.667 -0.484,3.667 -0.876,3.275 -0.876,2.792 V 0.876 C -0.876,0.392 -0.484,0 0,0" /></g><g
           transform="translate(52.5508,27.3896)"
           id="g50"><path
             id="path52"
             style="fill:#3e3736;fill-opacity:1;fill-rule:nonzero;stroke:none"
             d="m 0,0 c -0.483,0 -0.876,-0.393 -0.876,-0.876 v -0.005 c 0,-0.484 0.393,-0.874 0.876,-0.874 0.484,0 0.876,0.395 0.876,0.879 C 0.876,-0.393 0.484,0 0,0" /></g></g></g></g></svg>