<?xml version="1.0" encoding="UTF-8" standalone="no"?>
<svg
   xmlns:dc="http://purl.org/dc/elements/1.1/"
   xmlns:cc="http://creativecommons.org/ns#"
   xmlns:rdf="http://www.w3.org/1999/02/22-rdf-syntax-ns#"
   xmlns:svg="http://www.w3.org/2000/svg"
   xmlns="http://www.w3.org/2000/svg"
   viewBox="0 0 86.666664 99.803467"
   height="99.803467"
   width="86.666664"
   xml:space="preserve"
   id="svg2"
   version="1.1"><metadata
     id="metadata8"><rdf:RDF><cc:Work
         rdf:about=""><dc:format>image/svg+xml</dc:format><dc:type
           rdf:resource="http://purl.org/dc/dcmitype/StillImage" /></cc:Work></rdf:RDF></metadata><defs
     id="defs6"><clipPath
       id="clipPath18"
       clipPathUnits="userSpaceOnUse"><path
         id="path16"
         d="M 0,74.853 H 65 V 0 H 0 Z" /></clipPath></defs><g
     transform="matrix(1.3333333,0,0,-1.3333333,0,99.803467)"
     id="g10"><g
       id="g12"><g
         clip-path="url(#clipPath18)"
         id="g14"><g
           transform="translate(11.9648,7.0898)"
           id="g20"><path
             id="path22"
             style="fill:#5d5553;fill-opacity:1;fill-rule:nonzero;stroke:none"
             d="m 0,0 v -4.059 c 0,-0.155 -0.074,-0.195 -0.196,-0.195 h -0.67 c -0.121,0 -0.196,0.04 -0.196,0.195 v 1.53 H -2.57 v -1.53 c 0,-0.155 -0.068,-0.195 -0.197,-0.195 h -0.669 c -0.122,0 -0.196,0.04 -0.196,0.195 V 0 c 0,0.156 0.074,0.196 0.196,0.196 h 0.669 c 0.129,0 0.197,-0.04 0.197,-0.196 v -1.528 h 1.508 V 0 c 0,0.156 0.075,0.196 0.196,0.196 h 0.67 C -0.074,0.196 0,0.156 0,0" /></g><g
           transform="translate(15.665,5.7646)"
           id="g24"><path
             id="path26"
             style="fill:#5d5553;fill-opacity:1;fill-rule:nonzero;stroke:none"
             d="M 0,0 C 0,0.433 -0.312,0.683 -0.758,0.683 -1.197,0.683 -1.509,0.433 -1.509,0 v -1.407 c 0,-0.433 0.312,-0.684 0.751,-0.684 0.446,0 0.758,0.251 0.758,0.684 z m 1.062,-1.502 c 0,-1.068 -1.015,-1.528 -1.82,-1.528 -0.804,0 -1.806,0.46 -1.806,1.528 v 1.597 c 0,1.068 1.002,1.528 1.806,1.528 0.805,0 1.82,-0.46 1.82,-1.528 z" /></g><g
           transform="translate(21.1572,4.1543)"
           id="g28"><path
             id="path30"
             style="fill:#5d5553;fill-opacity:1;fill-rule:nonzero;stroke:none"
             d="m 0,0 c 0,-0.96 -0.758,-1.42 -1.799,-1.42 -0.846,0 -1.82,0.486 -1.82,1.434 0,0.155 0.04,0.189 0.196,0.189 h 0.656 c 0.156,0 0.23,-0.02 0.244,-0.189 0.006,-0.088 0.041,-0.176 0.128,-0.278 0.136,-0.162 0.413,-0.222 0.663,-0.222 0.365,0 0.663,0.081 0.663,0.46 0,0.378 -0.602,0.384 -1.177,0.567 -0.683,0.217 -1.312,0.487 -1.312,1.347 0,0.879 0.798,1.312 1.643,1.345 0.86,0 1.8,-0.392 1.8,-1.285 0,-0.162 -0.041,-0.189 -0.196,-0.189 h -0.663 c -0.129,0 -0.149,0.095 -0.183,0.182 -0.027,0.068 -0.061,0.122 -0.142,0.204 -0.128,0.122 -0.372,0.182 -0.575,0.182 -0.223,0 -0.595,-0.088 -0.595,-0.392 0,-0.413 0.994,-0.562 1.265,-0.67 C -0.717,1.116 0,0.92 0,0" /></g><g
           transform="translate(25.418,7.0898)"
           id="g32"><path
             id="path34"
             style="fill:#5d5553;fill-opacity:1;fill-rule:nonzero;stroke:none"
             d="M 0,0 V -0.562 C 0,-0.683 -0.04,-0.757 -0.195,-0.757 H -1.23 v -3.302 c 0,-0.155 -0.075,-0.195 -0.197,-0.195 h -0.67 c -0.121,0 -0.196,0.04 -0.196,0.195 v 3.302 h -1.041 c -0.156,0 -0.197,0.074 -0.197,0.195 V 0 c 0,0.122 0.041,0.196 0.197,0.196 h 3.139 C -0.04,0.196 0,0.122 0,0" /></g><g
           transform="translate(29.7813,3.5859)"
           id="g36"><path
             id="path38"
             style="fill:#5d5553;fill-opacity:1;fill-rule:nonzero;stroke:none"
             d="M 0,0 V -0.555 C 0,-0.676 -0.041,-0.75 -0.196,-0.75 h -3.031 c -0.156,0 -0.196,0.074 -0.196,0.195 v 4.059 c 0,0.122 0.04,0.196 0.196,0.196 h 2.915 c 0.156,0 0.197,-0.074 0.197,-0.196 V 2.942 c 0,-0.121 -0.041,-0.195 -0.197,-0.195 H -2.354 V 2.01 h 1.813 c 0.155,0 0.195,-0.075 0.195,-0.197 V 1.285 c 0,-0.121 -0.04,-0.195 -0.195,-0.195 H -2.354 V 0.196 h 2.158 C -0.041,0.196 0,0.122 0,0" /></g><g
           transform="translate(34.0693,3.5859)"
           id="g40"><path
             id="path42"
             style="fill:#5d5553;fill-opacity:1;fill-rule:nonzero;stroke:none"
             d="M 0,0 V -0.555 C 0,-0.676 -0.041,-0.75 -0.196,-0.75 H -3.01 c -0.156,0 -0.196,0.074 -0.196,0.195 v 4.059 c 0,0.156 0.074,0.196 0.196,0.196 h 0.669 c 0.122,0 0.196,-0.04 0.196,-0.196 V 0.196 h 1.949 C -0.041,0.196 0,0.122 0,0" /></g><g
           transform="translate(39.3584,3.999)"
           id="g44"><path
             id="path46"
             style="fill:#5d5553;fill-opacity:1;fill-rule:nonzero;stroke:none"
             d="m 0,0 -0.683,0.737 c -0.44,-0.013 -0.676,-0.196 -0.676,-0.541 0,-0.365 0.351,-0.527 0.642,-0.527 0.196,0 0.528,0.094 0.717,0.331 M 2.029,-1.163 H 1.278 c -0.134,0 -0.196,0.047 -0.291,0.135 l -0.344,0.331 c -0.352,-0.372 -0.819,-0.561 -1.339,-0.568 -0.975,0 -1.671,0.555 -1.671,1.468 0,0.69 0.555,1.129 1.028,1.237 l -0.873,0.934 c -0.04,0.055 -0.047,0.095 -0.047,0.136 v 0.581 c 0,0.122 0.04,0.196 0.196,0.196 h 0.209 2.375 c 0.156,0 0.196,-0.074 0.196,-0.196 V 2.543 c 0,-0.121 -0.04,-0.196 -0.196,-0.196 h -1.4 l 1.38,-1.501 c 0.128,0.216 0.229,0.351 0.264,0.405 0.04,0.061 0.088,0.115 0.196,0.115 h 0.751 c 0.135,0 0.135,-0.101 0.095,-0.189 L 1.184,0.108 2.138,-0.94 C 2.219,-1.028 2.151,-1.163 2.029,-1.163" /></g><g
           transform="translate(47.1162,4.2354)"
           id="g48"><path
             id="path50"
             style="fill:#5d5553;fill-opacity:1;fill-rule:nonzero;stroke:none"
             d="m 0,0 c 0,0.318 -0.236,0.413 -0.561,0.413 h -0.156 c -0.155,0 -0.196,0.074 -0.196,0.196 v 0.514 c 0,0.122 0.041,0.196 0.196,0.196 h 0.088 c 0.393,0 0.562,0.143 0.562,0.407 0,0.303 -0.209,0.378 -0.562,0.378 h -1.028 v -2.543 h 1.136 C -0.188,-0.439 0,-0.304 0,0 m 1.076,-0.102 c 0,-0.858 -0.67,-1.297 -1.61,-1.297 h -1.988 c -0.157,0 -0.197,0.074 -0.197,0.195 v 4.065 c 0,0.122 0.04,0.197 0.197,0.197 h 1.893 C 0.474,3.058 0.947,2.47 0.947,1.833 0.947,1.15 0.515,0.934 0.454,0.907 0.508,0.887 1.076,0.63 1.076,-0.102" /></g><g
           transform="translate(51.5469,4.5195)"
           id="g52"><path
             id="path54"
             style="fill:#5d5553;fill-opacity:1;fill-rule:nonzero;stroke:none"
             d="M 0,0 -0.507,1.495 -1.015,0 Z m 1.475,-1.684 h -0.71 c -0.15,0 -0.203,0.04 -0.257,0.203 l -0.19,0.535 h -1.657 l -0.189,-0.535 c -0.055,-0.163 -0.109,-0.203 -0.257,-0.203 h -0.711 c -0.149,0 -0.149,0.108 -0.115,0.189 l 1.502,4.053 c 0.054,0.141 0.129,0.209 0.277,0.209 h 0.649 c 0.15,0 0.217,-0.068 0.278,-0.209 L 1.59,-1.495 C 1.624,-1.576 1.624,-1.684 1.475,-1.684" /></g><g
           transform="translate(57.5469,2.8359)"
           id="g56"><path
             id="path58"
             style="fill:#5d5553;fill-opacity:1;fill-rule:nonzero;stroke:none"
             d="m 0,0 h -0.799 c -0.162,0 -0.243,0.061 -0.338,0.202 l -0.73,1.09 c -0.061,0.081 -0.074,0.155 -0.074,0.345 v 0.541 c 0,0.122 0.04,0.196 0.196,0.196 h 0.135 c 0.332,0 0.642,0.23 0.642,0.548 0,0.351 -0.27,0.575 -0.622,0.575 H -2.489 V 0.195 C -2.489,0.04 -2.563,0 -2.686,0 h -0.669 c -0.123,0 -0.19,0.04 -0.19,0.195 v 4.052 c 0,0.122 0.034,0.196 0.19,0.196 h 1.705 c 0.737,0 1.061,-0.148 1.345,-0.432 0.25,-0.243 0.393,-0.629 0.393,-1.062 0,-0.711 -0.521,-1.204 -0.941,-1.346 L 0.102,0.216 C 0.162,0.121 0.128,0 0,0" /></g><g
           transform="translate(63.0742,5.1729)"
           id="g60"><path
             id="path62"
             style="fill:#5d5553;fill-opacity:1;fill-rule:nonzero;stroke:none"
             d="m 0,0 c 0,0.64 -0.519,1.158 -1.158,1.158 -0.64,0 -1.158,-0.518 -1.158,-1.158 0,-0.64 0.518,-1.158 1.158,-1.158 C -0.519,-1.158 0,-0.64 0,0" /></g><g
           transform="translate(5.2085,5.1729)"
           id="g64"><path
             id="path66"
             style="fill:#5d5553;fill-opacity:1;fill-rule:nonzero;stroke:none"
             d="M 0,0 C 0,0.64 -0.518,1.158 -1.158,1.158 -1.797,1.158 -2.316,0.64 -2.316,0 c 0,-0.64 0.519,-1.158 1.158,-1.158 C -0.518,-1.158 0,-0.64 0,0" /></g><g
           transform="translate(13.3589,65.5059)"
           id="g68"><path
             id="path70"
             style="fill:#5d5553;fill-opacity:1;fill-rule:nonzero;stroke:none"
             d="M 0,0 5.128,-4.482 C 5.324,-4.654 5.293,-4.793 5.159,-4.946 L 4.443,-5.766 C 4.309,-5.919 4.176,-5.968 3.979,-5.796 L 1.087,-3.268 1.834,-5.427 C 1.865,-5.528 1.909,-5.702 1.797,-5.83 L 1.424,-6.257 C 1.312,-6.385 1.142,-6.356 1.037,-6.34 l -2.247,0.444 2.893,-2.528 c 0.196,-0.172 0.165,-0.31 0.03,-0.464 L 0.975,-9.732 C 0.841,-9.887 0.708,-9.936 0.511,-9.764 l -5.128,4.483 c -0.153,0.134 -0.202,0.266 -0.03,0.464 l 0.738,0.843 c 0.253,0.29 0.471,0.161 0.633,0.14 l 3.121,-0.666 -1.07,3.012 c -0.05,0.149 -0.201,0.356 0.045,0.638 l 0.716,0.819 C -0.292,0.165 -0.153,0.134 0,0" /></g><g
           transform="translate(24.4688,67.0259)"
           id="g72"><path
             id="path74"
             style="fill:#5d5553;fill-opacity:1;fill-rule:nonzero;stroke:none"
             d="m 0,0 -1.73,2 0.155,-2.64 z M 3.351,-1.685 2.248,-2.133 C 2.017,-2.227 1.907,-2.198 1.721,-1.98 l -0.631,0.71 -2.572,-1.044 0.043,-0.949 c 0.018,-0.286 -0.04,-0.383 -0.271,-0.477 l -1.103,-0.447 c -0.231,-0.094 -0.299,0.074 -0.298,0.221 L -3.333,3.27 c -0.006,0.254 0.067,0.406 0.298,0.5 l 1.008,0.409 c 0.231,0.094 0.378,0.031 0.563,-0.151 L 3.409,-1.318 C 3.513,-1.423 3.581,-1.591 3.351,-1.685" /></g><g
           transform="translate(36.4668,72.7729)"
           id="g76"><path
             id="path78"
             style="fill:#5d5553;fill-opacity:1;fill-rule:nonzero;stroke:none"
             d="m 0,0 -2.404,-4.302 -0.04,-2.469 c -0.004,-0.261 -0.13,-0.327 -0.334,-0.324 l -1.133,0.019 c -0.216,0.003 -0.328,0.073 -0.323,0.334 l 0.04,2.47 -2.355,4.378 C -6.604,0.232 -6.577,0.424 -6.362,0.42 L -5.06,0.399 c 0.261,-0.004 0.374,-0.04 0.528,-0.348 l 1.286,-2.458 1.32,2.415 c 0.152,0.304 0.266,0.336 0.527,0.332 L -0.176,0.32 C 0.039,0.316 0.059,0.124 0,0" /></g><g
           transform="translate(43.3535,66.2607)"
           id="g80"><path
             id="path82"
             style="fill:#5d5553;fill-opacity:1;fill-rule:nonzero;stroke:none"
             d="m 0,0 0.182,2.638 -1.75,-1.982 z m 1.19,-3.556 -1.097,0.459 c -0.23,0.096 -0.287,0.194 -0.266,0.48 l 0.052,0.948 -2.561,1.071 -0.638,-0.703 c -0.189,-0.217 -0.298,-0.244 -0.529,-0.148 l -1.097,0.459 c -0.23,0.096 -0.16,0.263 -0.055,0.367 l 4.939,5.291 C 0.113,4.853 0.271,4.91 0.502,4.813 L 1.506,4.394 C 1.735,4.298 1.796,4.149 1.799,3.891 L 1.49,-3.337 c 0,-0.148 -0.069,-0.315 -0.3,-0.219" /></g><g
           transform="translate(56.7451,60.7939)"
           id="g84"><path
             id="path86"
             style="fill:#5d5553;fill-opacity:1;fill-rule:nonzero;stroke:none"
             d="m 0,0 -5.078,-4.521 c -0.152,-0.135 -0.29,-0.167 -0.464,0.028 l -0.686,0.77 c -0.188,0.211 -0.123,0.376 -0.051,0.637 l 1.305,4.378 -2.945,-2.621 c -0.194,-0.174 -0.328,-0.126 -0.464,0.026 l -0.746,0.838 C -9.264,-0.312 -9.297,-0.174 -9.102,0 l 5.08,4.52 c 0.151,0.136 0.29,0.168 0.462,-0.027 L -2.851,3.698 C -2.662,3.486 -2.729,3.321 -2.8,3.061 l -1.297,-4.372 2.937,2.615 c 0.194,0.173 0.329,0.125 0.464,-0.027 L 0.027,0.464 C 0.163,0.312 0.195,0.174 0,0" /></g><g
           transform="translate(15.2407,29.2031)"
           id="g88"><path
             id="path90"
             style="fill:#5d5553;fill-opacity:1;fill-rule:nonzero;stroke:none"
             d="m 0,0 -5.867,-3.46 c -0.225,-0.132 -0.347,-0.06 -0.45,0.116 l -0.553,0.938 c -0.104,0.176 -0.108,0.317 0.116,0.45 l 3.31,1.951 -2.285,-0.031 c -0.106,0.003 -0.285,0.015 -0.372,0.162 l -0.288,0.488 c -0.086,0.147 -0.005,0.3 0.044,0.395 L -5.218,3.002 -8.527,1.05 C -8.751,0.918 -8.874,0.991 -8.977,1.167 l -0.57,0.966 c -0.104,0.176 -0.108,0.318 0.116,0.45 l 5.868,3.46 c 0.175,0.103 0.317,0.108 0.449,-0.116 l 0.57,-0.966 C -2.348,4.629 -2.54,4.463 -2.611,4.315 l -1.613,-2.753 3.197,0.069 c 0.157,10e-4 0.401,0.079 0.59,-0.243 L 0.116,0.45 C 0.249,0.226 0.176,0.104 0,0" /></g><g
           transform="translate(19.9756,22.4561)"
           id="g92"><path
             id="path94"
             style="fill:#5d5553;fill-opacity:1;fill-rule:nonzero;stroke:none"
             d="M 0,0 C 0.41,0.598 0.217,1.238 -0.399,1.662 -1.007,2.078 -1.674,2.027 -2.084,1.43 l -1.333,-1.945 c -0.41,-0.598 -0.217,-1.239 0.39,-1.655 0.617,-0.423 1.284,-0.372 1.694,0.226 z m 0.044,-3.081 c -1.012,-1.477 -2.85,-1.15 -3.962,-0.388 -1.112,0.762 -2.059,2.347 -1.046,3.823 L -3.452,2.56 C -2.439,4.036 -0.621,3.724 0.492,2.961 1.604,2.198 2.57,0.602 1.557,-0.875 Z" /></g><g
           transform="translate(31.8984,20.8721)"
           id="g96"><path
             id="path98"
             style="fill:#5d5553;fill-opacity:1;fill-rule:nonzero;stroke:none"
             d="m 0,0 -1.209,-6.691 c -0.037,-0.201 -0.126,-0.312 -0.383,-0.265 l -1.013,0.184 c -0.28,0.05 -0.33,0.22 -0.434,0.469 l -1.673,4.252 -0.701,-3.881 c -0.047,-0.255 -0.182,-0.3 -0.382,-0.264 l -1.104,0.199 c -0.201,0.036 -0.312,0.126 -0.265,0.382 l 1.209,6.691 c 0.036,0.2 0.125,0.311 0.382,0.265 l 1.049,-0.19 c 0.278,-0.05 0.328,-0.22 0.432,-0.469 l 1.675,-4.242 0.699,3.871 c 0.047,0.255 0.182,0.3 0.382,0.264 L -0.265,0.382 C -0.064,0.346 0.046,0.256 0,0" /></g><g
           transform="translate(41.7148,22.5156)"
           id="g100"><path
             id="path102"
             style="fill:#5d5553;fill-opacity:1;fill-rule:nonzero;stroke:none"
             d="M 0,0 -1.825,-3.289 1.489,-6.612 C 1.612,-6.734 1.619,-6.954 1.41,-7.005 L 0.066,-7.331 c -0.263,-0.065 -0.436,0.021 -0.636,0.219 0,0 -1.381,1.413 -2.217,2.259 l -0.509,-0.881 0.477,-1.96 c 0.061,-0.253 -0.044,-0.349 -0.231,-0.394 l -1.091,-0.266 c -0.209,-0.05 -0.335,-0.011 -0.396,0.243 l -1.606,6.607 c -0.061,0.253 0.033,0.346 0.242,0.397 l 1.09,0.265 c 0.187,0.046 0.325,0.009 0.386,-0.244 l 0.597,-2.456 1.67,3.064 c 0.161,0.296 0.232,0.337 0.486,0.399 l 1.486,0.36 C 0.023,0.333 0.074,0.123 0,0" /></g><g
           transform="translate(52.7598,22.9258)"
           id="g104"><path
             id="path106"
             style="fill:#5d5553;fill-opacity:1;fill-rule:nonzero;stroke:none"
             d="M 0,0 0.566,-0.736 C 0.691,-0.897 0.714,-1.038 0.507,-1.197 l -4.024,-3.096 c -0.206,-0.159 -0.336,-0.102 -0.461,0.061 l -4.146,5.387 c -0.124,0.162 -0.147,0.302 0.061,0.461 l 3.87,2.979 c 0.207,0.159 0.336,0.101 0.461,-0.06 l 0.573,-0.746 c 0.125,-0.161 0.147,-0.302 -0.06,-0.461 l -2.712,-2.087 0.753,-0.978 2.407,1.851 c 0.207,0.159 0.336,0.103 0.461,-0.059 l 0.539,-0.701 c 0.125,-0.162 0.146,-0.301 -0.06,-0.46 l -2.406,-1.853 0.912,-1.185 2.864,2.205 C -0.254,0.22 -0.124,0.162 0,0" /></g><g
           transform="translate(54.374,35.5537)"
           id="g108"><path
             id="path110"
             style="fill:#5d5553;fill-opacity:1;fill-rule:nonzero;stroke:none"
             d="M 0,0 2.653,-4.151 4.81,-5.354 c 0.228,-0.127 0.226,-0.27 0.127,-0.448 L 4.385,-6.792 C 4.28,-6.979 4.166,-7.045 3.938,-6.919 L 1.781,-5.715 -3.19,-5.72 c -0.137,0.012 -0.294,0.125 -0.189,0.314 l 0.635,1.137 c 0.127,0.228 0.212,0.31 0.556,0.3 l 2.773,-0.029 -1.504,2.305 c -0.195,0.278 -0.17,0.393 -0.043,0.621 l 0.597,1.069 C -0.261,0.185 -0.081,0.11 0,0" /></g><g
           transform="translate(63.3623,46.3408)"
           id="g112"><path
             id="path114"
             style="fill:#5d5553;fill-opacity:1;fill-rule:nonzero;stroke:none"
             d="M 0,0 C -0.991,0 -1.518,0.366 -1.941,0.659 -2.283,0.896 -2.51,1.054 -3.036,1.054 -3.563,1.054 -3.789,0.896 -4.131,0.659 -4.555,0.366 -5.081,0 -6.072,0 -7.063,0 -7.591,0.366 -8.014,0.659 -8.356,0.896 -8.582,1.054 -9.108,1.054 v 1.485 c 0.991,0 1.518,-0.365 1.941,-0.658 0.342,-0.237 0.567,-0.395 1.095,-0.395 0.526,0 0.752,0.158 1.093,0.395 0.424,0.293 0.952,0.658 1.943,0.658 0.991,0 1.518,-0.365 1.941,-0.658 C -0.752,1.644 -0.526,1.486 0,1.486 Z" /></g><g
           transform="translate(63.3623,43.0615)"
           id="g116"><path
             id="path118"
             style="fill:#5d5553;fill-opacity:1;fill-rule:nonzero;stroke:none"
             d="M 0,0 C -0.991,0 -1.518,0.366 -1.941,0.659 -2.283,0.896 -2.51,1.054 -3.036,1.054 -3.563,1.054 -3.789,0.896 -4.131,0.659 -4.555,0.366 -5.081,0 -6.072,0 -7.063,0 -7.591,0.366 -8.014,0.659 -8.356,0.896 -8.582,1.054 -9.108,1.054 V 2.54 c 0.991,0 1.518,-0.366 1.941,-0.659 0.342,-0.237 0.567,-0.395 1.095,-0.395 0.526,0 0.752,0.158 1.093,0.395 0.424,0.293 0.952,0.659 1.943,0.659 0.991,0 1.518,-0.366 1.941,-0.659 C -0.752,1.644 -0.526,1.486 0,1.486 Z" /></g><g
           transform="translate(2.604,46.3408)"
           id="g120"><path
             id="path122"
             style="fill:#5d5553;fill-opacity:1;fill-rule:nonzero;stroke:none"
             d="M 0,0 C 0.992,0 1.519,0.366 1.942,0.659 2.284,0.896 2.51,1.054 3.037,1.054 3.563,1.054 3.789,0.896 4.131,0.659 4.554,0.366 5.082,0 6.073,0 7.064,0 7.591,0.366 8.014,0.659 8.356,0.896 8.583,1.054 9.109,1.054 V 2.539 C 8.117,2.539 7.591,2.174 7.167,1.881 6.825,1.644 6.6,1.486 6.073,1.486 5.546,1.486 5.32,1.644 4.978,1.881 4.555,2.174 4.028,2.539 3.037,2.539 2.045,2.539 1.518,2.174 1.095,1.881 0.752,1.644 0.526,1.486 0,1.486 Z" /></g><g
           transform="translate(2.604,43.0615)"
           id="g124"><path
             id="path126"
             style="fill:#5d5553;fill-opacity:1;fill-rule:nonzero;stroke:none"
             d="M 0,0 C 0.992,0 1.519,0.366 1.942,0.659 2.284,0.896 2.51,1.054 3.037,1.054 3.563,1.054 3.789,0.896 4.131,0.659 4.554,0.366 5.082,0 6.073,0 7.064,0 7.591,0.366 8.014,0.659 8.356,0.896 8.583,1.054 9.109,1.054 V 2.54 C 8.117,2.54 7.591,2.174 7.167,1.881 6.825,1.644 6.6,1.486 6.073,1.486 5.546,1.486 5.32,1.644 4.978,1.881 4.555,2.174 4.028,2.54 3.037,2.54 2.045,2.54 1.518,2.174 1.095,1.881 0.752,1.644 0.526,1.486 0,1.486 Z" /></g><g
           transform="translate(43.0078,52.834)"
           id="g128"><path
             id="path130"
             style="fill:#5d5553;fill-opacity:1;fill-rule:nonzero;stroke:none"
             d="M 0,0 -10.024,-5.672 -20.049,0 c -0.675,0.382 -1.511,-0.105 -1.511,-0.881 v -17.572 c 0,-0.56 0.453,-1.013 1.012,-1.013 h 5.878 c -10e-4,0.034 -0.003,0.069 -0.003,0.103 0,0.607 0.118,1.186 0.33,1.718 -2.632,0.049 -4.728,2.284 -4.549,4.966 0.155,2.3 2.028,4.168 4.329,4.318 2.009,0.13 3.766,-1.02 4.539,-2.712 0.771,1.692 2.528,2.842 4.539,2.712 2.3,-0.15 4.173,-2.017 4.327,-4.318 0.18,-2.681 -1.917,-4.917 -4.548,-4.966 0.212,-0.532 0.329,-1.111 0.329,-1.718 0,-0.034 -0.002,-0.069 -0.003,-0.103 h 5.878 c 0.56,0 1.013,0.453 1.013,1.013 V -0.881 C 1.511,-0.105 0.675,0.382 0,0" /></g><g
           transform="translate(32.9834,28.8232)"
           id="g132"><path
             id="path134"
             style="fill:#5d5553;fill-opacity:1;fill-rule:nonzero;stroke:none"
             d="M 0,0 C 2.532,0 4.59,2.025 4.645,4.545 H -4.646 C -4.591,2.025 -2.532,0 0,0" /></g><g
           transform="translate(33.876,35.3779)"
           id="g136"><path
             id="path138"
             style="fill:#5d5553;fill-opacity:1;fill-rule:nonzero;stroke:none"
             d="m 0,0 c -0.251,0 -0.455,-0.329 -0.455,-0.734 0,-0.407 0.204,-0.736 0.455,-0.736 0.251,0 0.454,0.329 0.454,0.736 C 0.454,-0.329 0.251,0 0,0" /></g><g
           transform="translate(32.0908,35.3779)"
           id="g140"><path
             id="path142"
             style="fill:#5d5553;fill-opacity:1;fill-rule:nonzero;stroke:none"
             d="m 0,0 c -0.251,0 -0.455,-0.329 -0.455,-0.734 0,-0.407 0.204,-0.736 0.455,-0.736 0.251,0 0.455,0.329 0.455,0.736 C 0.455,-0.329 0.251,0 0,0" /></g><g
           transform="translate(39.7109,39.835)"
           id="g144"><path
             id="path146"
             style="fill:#5d5553;fill-opacity:1;fill-rule:nonzero;stroke:none"
             d="m 0,0 c 0,-1.39 -1.126,-2.516 -2.515,-2.516 -1.389,0 -2.515,1.126 -2.515,2.516 0,1.389 1.126,2.515 2.515,2.515 C -1.126,2.515 0,1.389 0,0" /></g><g
           transform="translate(31.251,39.835)"
           id="g148"><path
             id="path150"
             style="fill:#5d5553;fill-opacity:1;fill-rule:nonzero;stroke:none"
             d="m 0,0 c 0,-1.39 -1.126,-2.516 -2.515,-2.516 -1.388,0 -2.514,1.126 -2.514,2.516 0,1.389 1.126,2.515 2.514,2.515 C -1.126,2.515 0,1.389 0,0" /></g><g
           transform="translate(28.7529,55.6553)"
           id="g152"><path
             id="path154"
             style="fill:#5d5553;fill-opacity:1;fill-rule:nonzero;stroke:none"
             d="m 0,0 v -4.645 l 4.23,-2.393 4.23,2.393 V 0 c 0,0.345 -0.403,0.532 -0.666,0.31 L 4.23,-2.707 0.667,0.31 C 0.403,0.532 0,0.345 0,0" /></g><g
           transform="translate(60.3164,63.3389)"
           id="g156"><path
             id="path158"
             style="fill:#5d5553;fill-opacity:1;fill-rule:nonzero;stroke:none"
             d="m 0,0 c 0.196,0 0.32,0.102 0.32,0.26 v 0.004 c 0,0.167 -0.12,0.258 -0.322,0.258 H -0.399 V 0 Z M -0.673,0.771 H 0.021 C 0.216,0.771 0.369,0.713 0.469,0.615 0.551,0.531 0.598,0.416 0.598,0.28 V 0.275 c 0,-0.255 -0.154,-0.408 -0.371,-0.47 L 0.646,-0.784 H 0.324 l -0.382,0.542 h -0.341 v -0.542 h -0.274 z" /></g><g
           transform="translate(60.3037,64.6997)"
           id="g160"><path
             id="path162"
             style="fill:#5d5553;fill-opacity:1;fill-rule:nonzero;stroke:none"
             d="m 0,0 c -0.754,0 -1.367,-0.614 -1.367,-1.368 0,-0.754 0.613,-1.367 1.367,-1.367 0.754,0 1.367,0.613 1.367,1.367 C 1.367,-0.614 0.754,0 0,0 m 0,-2.971 c -0.884,0 -1.604,0.72 -1.604,1.603 0,0.885 0.72,1.604 1.604,1.604 0.884,0 1.603,-0.719 1.603,-1.604 0,-0.883 -0.719,-1.603 -1.603,-1.603" /></g></g></g></g></svg>