<?xml version="1.0" encoding="UTF-8" standalone="no"?>
<svg
   xmlns:dc="http://purl.org/dc/elements/1.1/"
   xmlns:cc="http://creativecommons.org/ns#"
   xmlns:rdf="http://www.w3.org/1999/02/22-rdf-syntax-ns#"
   xmlns:svg="http://www.w3.org/2000/svg"
   xmlns="http://www.w3.org/2000/svg"
   viewBox="0 0 86.666664 86.666664"
   height="86.666664"
   width="86.666664"
   xml:space="preserve"
   id="svg2"
   version="1.1"><metadata
     id="metadata8"><rdf:RDF><cc:Work
         rdf:about=""><dc:format>image/svg+xml</dc:format><dc:type
           rdf:resource="http://purl.org/dc/dcmitype/StillImage" /></cc:Work></rdf:RDF></metadata><defs
     id="defs6"><clipPath
       id="clipPath18"
       clipPathUnits="userSpaceOnUse"><path
         id="path16"
         d="M 0,65 H 65 V 0 H 0 Z" /></clipPath></defs><g
     transform="matrix(1.3333333,0,0,-1.3333333,0,86.666667)"
     id="g10"><g
       id="g12"><g
         clip-path="url(#clipPath18)"
         id="g14"><g
           transform="translate(32.5791,62.688)"
           id="g20"><path
             id="path22"
             style="fill:#5d5553;fill-opacity:1;fill-rule:nonzero;stroke:none"
             d="m 0,0 c -16.751,0 -30.379,-13.628 -30.379,-30.38 0,-16.752 13.628,-30.38 30.379,-30.38 16.752,0 30.381,13.628 30.381,30.38 C 30.381,-13.628 16.752,0 0,0 m 0,-62.377 c -17.643,0 -31.997,14.353 -31.997,31.997 0,17.644 14.354,31.998 31.997,31.998 17.645,0 31.998,-14.354 31.998,-31.998 0,-17.644 -14.353,-31.997 -31.998,-31.997" /></g><g
           transform="translate(24.5122,30.7324)"
           id="g24"><path
             id="path26"
             style="fill:#5d5553;fill-opacity:1;fill-rule:nonzero;stroke:none"
             d="m 0,0 h -5.852 v -6.679 l -5.554,0.265 V 0 h -5.522 l -0.364,4.728 h 5.886 v 6.117 h 5.554 V 4.728 h 5.521 z" /></g><g
           transform="translate(32.0176,24.0537)"
           id="g28"><path
             id="path30"
             style="fill:#5d5553;fill-opacity:1;fill-rule:nonzero;stroke:none"
             d="m 0,0 v 12.002 l -3.835,-1.653 -2.348,4.827 8.2,3.537 h 4 L 6.017,0 Z" /></g><g
           transform="translate(49.4404,40.3867)"
           id="g32"><path
             id="path34"
             style="fill:#5d5553;fill-opacity:1;fill-rule:nonzero;stroke:none"
             d="m 0,0 c -0.551,0 -0.986,-0.171 -1.306,-0.512 -0.319,-0.342 -0.479,-0.7 -0.479,-1.075 0,-0.441 0.166,-0.843 0.496,-1.207 0.33,-0.364 0.782,-0.59 1.355,-0.678 0.551,0.088 0.987,0.32 1.307,0.695 0.318,0.374 0.48,0.782 0.48,1.223 0,0.375 -0.162,0.727 -0.48,1.058 C 1.053,-0.165 0.596,0 0,0 m 0.066,-6.976 c -0.815,-0.132 -1.455,-0.463 -1.917,-0.992 -0.462,-0.529 -0.694,-1.058 -0.694,-1.587 0,-0.594 0.265,-1.13 0.793,-1.603 0.528,-0.475 1.124,-0.711 1.785,-0.711 0.661,0 1.262,0.236 1.803,0.711 0.539,0.473 0.81,1.009 0.81,1.603 0,0.529 -0.238,1.058 -0.711,1.587 -0.475,0.529 -1.097,0.86 -1.869,0.992 m 0,11.902 C 1.521,4.926 2.86,4.673 4.083,4.166 5.307,3.658 6.282,2.937 7.01,2 7.736,1.063 8.101,-0.011 8.101,-1.223 c 0,-0.706 -0.188,-1.405 -0.563,-2.1 -0.375,-0.694 -0.849,-1.284 -1.421,-1.769 0.793,-0.551 1.444,-1.251 1.95,-2.099 0.507,-0.85 0.761,-1.725 0.761,-2.628 0,-1.368 -0.348,-2.575 -1.042,-3.62 -0.694,-1.048 -1.702,-1.864 -3.024,-2.448 -1.324,-0.584 -2.889,-0.876 -4.696,-0.876 -2.689,0 -4.832,0.617 -6.43,1.852 -1.598,1.234 -2.398,2.932 -2.398,5.092 0,0.903 0.26,1.785 0.778,2.645 0.518,0.859 1.173,1.564 1.967,2.115 -0.574,0.507 -1.052,1.097 -1.438,1.769 -0.387,0.672 -0.579,1.361 -0.579,2.067 0,1.212 0.358,2.286 1.075,3.223 0.716,0.937 1.69,1.658 2.926,2.166 1.234,0.507 2.6,0.76 4.099,0.76" /></g><g
           transform="translate(19.562,16.5117)"
           id="g36"><path
             id="path38"
             style="fill:#5d5553;fill-opacity:1;fill-rule:nonzero;stroke:none"
             d="m 0,0 c 0,-0.764 0.189,-1.385 0.567,-1.864 0.378,-0.479 0.89,-0.719 1.537,-0.719 0.397,0 0.757,0.1 1.081,0.298 0.322,0.199 0.578,0.497 0.765,0.894 0.187,0.398 0.28,0.885 0.28,1.461 0,0.491 -0.085,0.931 -0.257,1.321 C 3.802,1.78 3.558,2.086 3.243,2.308 2.927,2.529 2.559,2.641 2.138,2.641 1.749,2.641 1.393,2.532 1.069,2.314 0.746,2.096 0.487,1.785 0.292,1.385 0.097,0.983 0,0.522 0,0 M 2.115,4.172 C 2.941,4.172 3.655,3.99 4.259,3.628 4.863,3.267 5.325,2.773 5.644,2.15 5.963,1.526 6.123,0.833 6.123,0.07 6.123,-0.74 5.954,-1.46 5.615,-2.091 5.276,-2.723 4.803,-3.215 4.195,-3.569 3.587,-3.925 2.894,-4.105 2.115,-4.113 c -0.818,0 -1.529,0.18 -2.132,0.544 -0.605,0.362 -1.068,0.854 -1.391,1.478 -0.323,0.623 -0.485,1.316 -0.485,2.079 0,0.803 0.169,1.52 0.508,2.151 0.339,0.631 0.812,1.125 1.42,1.484 0.608,0.358 1.301,0.541 2.08,0.549" /></g><g
           transform="translate(26.7251,12.5625)"
           id="g40"><path
             id="path42"
             style="fill:#5d5553;fill-opacity:1;fill-rule:nonzero;stroke:none"
             d="M 0,0 V 7.945 H 1.752 L 5.118,3.143 V 7.945 H 6.941 L 6.941,0 H 5.188 L 1.823,4.744 V 0 Z" /></g><g
           transform="translate(40.7822,12.5625)"
           id="g44"><path
             id="path46"
             style="fill:#5d5553;fill-opacity:1;fill-rule:nonzero;stroke:none"
             d="m 0,0 h -5.48 v 7.945 h 1.822 v -6.52 h 3.447 z" /></g><g
           transform="translate(43.2822,12.5625)"
           id="g48"><path
             id="path50"
             style="fill:#5d5553;fill-opacity:1;fill-rule:nonzero;stroke:none"
             d="M 0,0 V 3.12 L -2.559,7.606 -0.795,8.109 0.9,4.86 2.688,7.945 H 4.58 L 1.823,3.072 V 0 Z" /></g><g
           transform="translate(20.1426,52.0322)"
           id="g52"><path
             id="path54"
             style="fill:#5d5553;fill-opacity:1;fill-rule:nonzero;stroke:none"
             d="M 0,0 -0.637,-1.746 H 0.662 Z M 0.637,1.639 2.772,-3.922 1.498,-4.071 1.042,-2.772 H -1.001 L -1.44,-3.988 h -1.29 l 2.151,5.627 z" /></g><g
           transform="translate(25.8022,52.6201)"
           id="g56"><path
             id="path58"
             style="fill:#5d5553;fill-opacity:1;fill-rule:nonzero;stroke:none"
             d="m 0,0 h -1.043 v -3.534 h 0.985 c 0.419,0 0.75,0.15 0.993,0.448 0.243,0.297 0.364,0.75 0.364,1.357 0,0.534 -0.111,0.957 -0.331,1.266 C 0.748,-0.155 0.425,0 0,0 m 0,-4.576 h -2.333 v 5.627 h 2.35 C 0.58,1.051 1.058,0.932 1.452,0.695 1.847,0.458 2.143,0.131 2.342,-0.286 2.541,-0.702 2.64,-1.183 2.64,-1.729 2.64,-2.309 2.532,-2.812 2.317,-3.24 2.102,-3.667 1.795,-3.997 1.398,-4.229 1.001,-4.46 0.535,-4.576 0,-4.576" /></g><g
           transform="translate(30.395,53.6709)"
           id="g60"><path
             id="path62"
             style="fill:#5d5553;fill-opacity:1;fill-rule:nonzero;stroke:none"
             d="m 0,0 v -3.451 c 0,-0.397 0.102,-0.697 0.306,-0.902 0.204,-0.204 0.477,-0.306 0.819,-0.306 0.342,0 0.615,0.104 0.819,0.311 0.205,0.206 0.306,0.506 0.306,0.897 V 0 H 3.549 V -3.525 C 3.549,-3.972 3.45,-4.361 3.248,-4.692 3.047,-5.023 2.762,-5.279 2.396,-5.461 2.028,-5.644 1.605,-5.734 1.125,-5.734 c -0.48,0 -0.903,0.09 -1.27,0.273 -0.367,0.182 -0.65,0.438 -0.848,0.769 -0.199,0.331 -0.298,0.72 -0.298,1.167 L -1.299,0 Z" /></g><g
           transform="translate(38.8936,48.0439)"
           id="g64"><path
             id="path66"
             style="fill:#5d5553;fill-opacity:1;fill-rule:nonzero;stroke:none"
             d="M 0,0 H -3.881 V 5.627 H -2.59 V 1.01 h 2.442 z" /></g><g
           transform="translate(43.6924,52.6528)"
           id="g68"><path
             id="path70"
             style="fill:#5d5553;fill-opacity:1;fill-rule:nonzero;stroke:none"
             d="M 0,0 H -1.861 V -4.609 H -3.16 V 0 h -1.68 v 1.018 h 4.683 z" /></g><g
           transform="translate(43.8994,48.3999)"
           id="g72"><path
             id="path74"
             style="fill:#5d5553;fill-opacity:1;fill-rule:nonzero;stroke:none"
             d="M 0,0 0.373,1.01 C 0.549,0.916 0.769,0.829 1.031,0.749 c 0.261,-0.08 0.494,-0.12 0.698,-0.12 0.277,0 0.489,0.048 0.638,0.144 0.149,0.097 0.224,0.225 0.224,0.386 0,0.104 -0.057,0.201 -0.17,0.289 C 2.308,1.537 2.124,1.655 1.87,1.804 1.815,1.832 1.732,1.878 1.622,1.945 1.247,2.17 0.953,2.358 0.741,2.507 0.528,2.656 0.341,2.843 0.178,3.07 0.016,3.296 -0.066,3.55 -0.066,3.831 c 0.005,0.298 0.09,0.565 0.253,0.798 0.163,0.235 0.395,0.42 0.699,0.555 0.302,0.135 0.659,0.203 1.067,0.203 0.276,0 0.561,-0.04 0.853,-0.12 C 3.098,5.187 3.354,5.081 3.574,4.948 L 3.178,4.005 C 2.913,4.115 2.695,4.192 2.524,4.236 2.353,4.281 2.168,4.303 1.97,4.303 1.766,4.303 1.599,4.26 1.469,4.175 1.34,4.089 1.275,3.972 1.275,3.823 1.275,3.702 1.329,3.595 1.436,3.504 1.543,3.413 1.716,3.304 1.953,3.178 2.041,3.139 2.133,3.089 2.227,3.029 2.623,2.797 2.927,2.608 3.137,2.461 3.346,2.315 3.53,2.131 3.69,1.907 3.852,1.684 3.931,1.429 3.931,1.142 3.931,0.833 3.844,0.557 3.67,0.314 3.496,0.071 3.245,-0.119 2.917,-0.257 2.589,-0.395 2.201,-0.463 1.754,-0.463 c -0.259,0 -0.566,0.046 -0.922,0.14 C 0.477,-0.229 0.199,-0.121 0,0" /></g></g></g></g></svg>