<?xml version="1.0" encoding="UTF-8" standalone="no"?>
<svg
   xmlns:dc="http://purl.org/dc/elements/1.1/"
   xmlns:cc="http://creativecommons.org/ns#"
   xmlns:rdf="http://www.w3.org/1999/02/22-rdf-syntax-ns#"
   xmlns:svg="http://www.w3.org/2000/svg"
   xmlns="http://www.w3.org/2000/svg"
   viewBox="0 0 48.3456 42.666668"
   height="42.666668"
   width="48.3456"
   xml:space="preserve"
   id="svg2"
   version="1.1"><metadata
     id="metadata8"><rdf:RDF><cc:Work
         rdf:about=""><dc:format>image/svg+xml</dc:format><dc:type
           rdf:resource="http://purl.org/dc/dcmitype/StillImage" /></cc:Work></rdf:RDF></metadata><defs
     id="defs6"><clipPath
       id="clipPath18"
       clipPathUnits="userSpaceOnUse"><path
         id="path16"
         d="M 0,32 H 36.259 V 0 H 0 Z" /></clipPath></defs><g
     transform="matrix(1.3333333,0,0,-1.3333333,0,42.666667)"
     id="g10"><g
       id="g12"><g
         clip-path="url(#clipPath18)"
         id="g14"><g
           transform="translate(33.9902,14.8672)"
           id="g20"><path
             id="path22"
             style="fill:#3e3736;fill-opacity:1;fill-rule:nonzero;stroke:none"
             d="m 0,0 c 0,-0.34 -0.227,-0.566 -0.566,-0.566 h -30.588 c -0.34,0 -0.567,0.226 -0.567,0.566 v 11.329 c 0,0.339 0.284,0.566 0.567,0.566 H -0.566 C -0.227,11.895 0,11.668 0,11.329 Z m -0.566,13.028 h -30.588 c -0.963,0 -1.7,-0.736 -1.7,-1.699 V 0 c 0,-0.963 0.737,-1.699 1.7,-1.699 h 30.588 c 0.962,0 1.699,0.736 1.699,1.699 v 11.329 c 0,0.963 -0.737,1.699 -1.699,1.699" /></g><g
           transform="translate(15.8638,22.7974)"
           id="g24"><path
             id="path26"
             style="fill:#3e3736;fill-opacity:1;fill-rule:nonzero;stroke:none"
             d="m 0,0 h 4.532 c 0.34,0 0.566,0.227 0.566,0.566 0,0.34 -0.226,0.567 -0.566,0.567 H 0 C -0.34,1.133 -0.566,0.906 -0.566,0.566 -0.566,0.227 -0.34,0 0,0" /></g><g
           transform="translate(32.29,16.5664)"
           id="g28"><path
             id="path30"
             style="fill:#3e3736;fill-opacity:1;fill-rule:nonzero;stroke:none"
             d="m 0,0 h -28.321 c -0.34,0 -0.567,-0.227 -0.567,-0.566 0,-0.34 0.227,-0.567 0.567,-0.567 H 0 c 0.34,0 0.566,0.227 0.566,0.567 C 0.566,-0.227 0.34,0 0,0" /></g><g
           transform="translate(32.29,18.832)"
           id="g32"><path
             id="path34"
             style="fill:#3e3736;fill-opacity:1;fill-rule:nonzero;stroke:none"
             d="m 0,0 h -28.321 c -0.34,0 -0.567,-0.227 -0.567,-0.566 0,-0.34 0.227,-0.567 0.567,-0.567 H 0 c 0.34,0 0.566,0.227 0.566,0.567 C 0.566,-0.227 0.34,0 0,0" /></g><g
           transform="translate(18.4131,9.1465)"
           id="g36"><path
             id="path38"
             style="fill:#3e3736;fill-opacity:1;fill-rule:nonzero;stroke:none"
             d="m 0,0 c -0.566,0.283 -0.85,0.623 -0.85,0.906 0,0.283 0.34,0.623 0.793,0.963 0.284,0.113 0.34,0.453 0.227,0.736 -0.114,0.284 -0.454,0.397 -0.736,0.227 -0.907,-0.51 -1.417,-1.189 -1.417,-1.926 0,-0.736 0.51,-1.416 1.417,-1.982 0.566,-0.283 0.849,-0.623 0.849,-0.906 0,-0.284 -0.34,-0.624 -0.849,-0.907 -0.284,-0.114 -0.397,-0.454 -0.227,-0.736 0.113,-0.17 0.283,-0.284 0.51,-0.284 0.113,0 0.17,0 0.283,0.056 0.906,0.51 1.416,1.191 1.416,1.927 C 1.416,-1.189 0.906,-0.453 0,0" /></g><g
           transform="translate(12.1821,8.0137)"
           id="g40"><path
             id="path42"
             style="fill:#3e3736;fill-opacity:1;fill-rule:nonzero;stroke:none"
             d="m 0,0 c -0.566,0.283 -0.85,0.623 -0.85,0.906 0,0.283 0.34,0.623 0.793,0.963 C 0.227,1.982 0.34,2.322 0.17,2.605 0.057,2.889 -0.283,3.002 -0.566,2.832 -1.473,2.322 -1.982,1.643 -1.982,0.906 c 0,-0.736 0.509,-1.416 1.416,-1.982 0.566,-0.283 0.849,-0.623 0.849,-0.907 0,-0.284 -0.34,-0.623 -0.849,-0.907 -0.284,-0.113 -0.397,-0.453 -0.227,-0.736 0.113,-0.17 0.283,-0.283 0.51,-0.283 0.113,0 0.17,0 0.283,0.056 0.906,0.51 1.416,1.19 1.416,1.926 C 1.416,-1.189 0.906,-0.453 0,0" /></g><g
           transform="translate(24.6436,8.0137)"
           id="g44"><path
             id="path46"
             style="fill:#3e3736;fill-opacity:1;fill-rule:nonzero;stroke:none"
             d="m 0,0 c -0.566,0.283 -0.85,0.623 -0.85,0.906 0,0.283 0.34,0.623 0.793,0.963 0.284,0.113 0.34,0.453 0.227,0.736 -0.113,0.284 -0.453,0.397 -0.736,0.227 -0.907,-0.51 -1.416,-1.189 -1.416,-1.926 0,-0.736 0.509,-1.416 1.416,-1.982 0.566,-0.283 0.849,-0.623 0.849,-0.907 0,-0.284 -0.34,-0.623 -0.849,-0.907 -0.284,-0.113 -0.397,-0.453 -0.227,-0.736 0.113,-0.17 0.283,-0.283 0.51,-0.283 0.113,0 0.17,0 0.283,0.056 0.906,0.51 1.416,1.19 1.416,1.926 C 1.416,-1.189 0.906,-0.453 0,0" /></g></g></g></g></svg>