<?xml version="1.0" encoding="UTF-8" standalone="no"?>
<svg
   xmlns:dc="http://purl.org/dc/elements/1.1/"
   xmlns:cc="http://creativecommons.org/ns#"
   xmlns:rdf="http://www.w3.org/1999/02/22-rdf-syntax-ns#"
   xmlns:svg="http://www.w3.org/2000/svg"
   xmlns="http://www.w3.org/2000/svg"
   viewBox="0 0 48.3456 42.666668"
   height="42.666668"
   width="48.3456"
   xml:space="preserve"
   id="svg2"
   version="1.1"><metadata
     id="metadata8"><rdf:RDF><cc:Work
         rdf:about=""><dc:format>image/svg+xml</dc:format><dc:type
           rdf:resource="http://purl.org/dc/dcmitype/StillImage" /></cc:Work></rdf:RDF></metadata><defs
     id="defs6"><clipPath
       id="clipPath18"
       clipPathUnits="userSpaceOnUse"><path
         id="path16"
         d="M 0,32 H 36.259 V 0 H 0 Z" /></clipPath></defs><g
     transform="matrix(1.3333333,0,0,-1.3333333,0,42.666667)"
     id="g10"><g
       id="g12"><g
         clip-path="url(#clipPath18)"
         id="g14"><g
           transform="translate(32.6006,12.7842)"
           id="g20"><path
             id="path22"
             style="fill:#3e3736;fill-opacity:1;fill-rule:nonzero;stroke:none"
             d="m 0,0 h -1.072 -26.798 -1.072 c -0.321,0 -0.536,0.215 -0.536,0.536 0,0.321 0.215,0.536 0.536,0.536 h 0.536 10.183 H 0 C 0.321,1.072 0.536,0.857 0.536,0.536 0.536,0.215 0.321,0 0,0 m -3.055,-6.538 c -0.322,-1.18 -1.393,-2.037 -2.627,-2.037 h -17.471 c -1.233,0 -2.305,0.857 -2.627,2.037 l -1.393,5.466 h 25.404 z m -23.207,9.754 c 0.482,0 0.911,-0.215 1.286,-0.59 0.108,-0.161 0.322,-0.214 0.537,-0.161 0.214,0.054 0.321,0.215 0.375,0.429 0.16,0.804 0.803,1.394 1.607,1.394 0.59,0 1.126,-0.268 1.394,-0.804 0.107,-0.214 0.375,-0.322 0.589,-0.268 h 0.161 c 0.697,0 1.287,-0.429 1.501,-1.072 h -8.951 c 0.215,0.643 0.805,1.072 1.501,1.072 m 18.704,8.575 h -3.054 c 0.215,0.643 0.857,1.072 1.554,1.072 0.697,0 1.287,-0.429 1.5,-1.072 M 0,2.144 h -0.536 v 11.255 c 0,2.68 -2.144,4.824 -4.823,4.824 -2.373,0 -4.079,-1.76 -4.27,-4.337 -1.245,-0.235 -2.162,-1.308 -2.162,-2.631 0,-0.321 0.214,-0.536 0.536,-0.536 h 4.287 c 0.322,0 0.536,0.215 0.536,0.536 0,1.308 -0.896,2.372 -2.121,2.623 0.16,1.704 1.184,3.272 3.194,3.272 2.089,0 3.751,-1.661 3.751,-3.751 V 2.144 h -16.13 c -0.243,1.236 -1.312,2.144 -2.628,2.144 -0.536,0.643 -1.287,1.072 -2.144,1.072 -1.018,0 -1.929,-0.59 -2.358,-1.447 -0.429,0.214 -0.912,0.375 -1.394,0.375 -1.317,0 -2.385,-0.908 -2.628,-2.144 h -0.052 c -0.911,0 -1.607,-0.697 -1.607,-1.608 0,-0.911 0.696,-1.607 1.607,-1.607 h 0.645 l 1.445,-5.736 c 0.429,-1.661 1.93,-2.84 3.645,-2.84 h 0.429 l -0.697,-1.394 c -0.161,-0.268 -0.053,-0.589 0.214,-0.696 0.054,-0.054 0.161,-0.054 0.215,-0.054 0.214,0 0.375,0.107 0.482,0.269 l 0.938,1.875 h 14.873 l 0.911,-1.823 c 0.107,-0.214 0.268,-0.321 0.483,-0.321 0.106,0 0.16,0 0.213,0.107 0.215,0.108 0.322,0.429 0.215,0.697 l -0.672,1.342 c 1.66,0.06 3.095,1.218 3.512,2.785 l 1.46,5.789 H 0 c 0.911,0 1.607,0.696 1.607,1.607 0,0.911 -0.696,1.608 -1.607,1.608" /></g><g
           transform="translate(21.3457,21.0918)"
           id="g24"><path
             id="path26"
             style="fill:#3e3736;fill-opacity:1;fill-rule:nonzero;stroke:none"
             d="M 0,0 C 0.321,0 0.535,0.214 0.535,0.536 V 0.804 C 0.535,1.125 0.321,1.34 0,1.34 -0.322,1.34 -0.536,1.125 -0.536,0.804 V 0.536 C -0.536,0.214 -0.322,0 0,0" /></g><g
           transform="translate(21.3457,18.626)"
           id="g28"><path
             id="path30"
             style="fill:#3e3736;fill-opacity:1;fill-rule:nonzero;stroke:none"
             d="M 0,0 C 0.321,0 0.535,0.268 0.535,0.536 V 1.125 C 0.535,1.447 0.321,1.662 0,1.662 -0.322,1.662 -0.536,1.447 -0.536,1.125 V 0.536 C -0.536,0.214 -0.322,0 0,0" /></g><g
           transform="translate(21.3457,16.5361)"
           id="g32"><path
             id="path34"
             style="fill:#3e3736;fill-opacity:1;fill-rule:nonzero;stroke:none"
             d="M 0,0 C 0.321,0 0.535,0.214 0.535,0.536 V 0.804 C 0.535,1.125 0.321,1.34 0,1.34 -0.322,1.34 -0.536,1.125 -0.536,0.804 V 0.536 C -0.536,0.214 -0.322,0 0,0" /></g><g
           transform="translate(23.4893,21.0918)"
           id="g36"><path
             id="path38"
             style="fill:#3e3736;fill-opacity:1;fill-rule:nonzero;stroke:none"
             d="M 0,0 C 0.321,0 0.536,0.214 0.536,0.536 V 0.804 C 0.536,1.125 0.321,1.34 0,1.34 -0.321,1.34 -0.536,1.125 -0.536,0.804 V 0.536 C -0.536,0.214 -0.321,0 0,0" /></g><g
           transform="translate(22.9531,19.1621)"
           id="g40"><path
             id="path42"
             style="fill:#3e3736;fill-opacity:1;fill-rule:nonzero;stroke:none"
             d="m 0,0 c 0,-0.322 0.215,-0.536 0.536,-0.536 0.321,0 0.536,0.268 0.536,0.536 V 0.59 C 1.072,0.911 0.857,1.125 0.536,1.125 0.215,1.125 0,0.911 0,0.59 Z" /></g><g
           transform="translate(22.9531,17.0718)"
           id="g44"><path
             id="path46"
             style="fill:#3e3736;fill-opacity:1;fill-rule:nonzero;stroke:none"
             d="m 0,0 c 0,-0.321 0.215,-0.536 0.536,-0.536 0.321,0 0.536,0.215 0.536,0.536 V 0.268 C 1.072,0.59 0.857,0.804 0.536,0.804 0.215,0.804 0,0.59 0,0.268 Z" /></g><g
           transform="translate(25.6328,21.0918)"
           id="g48"><path
             id="path50"
             style="fill:#3e3736;fill-opacity:1;fill-rule:nonzero;stroke:none"
             d="M 0,0 C 0.321,0 0.536,0.214 0.536,0.536 V 0.804 C 0.536,1.125 0.321,1.34 0,1.34 -0.321,1.34 -0.536,1.125 -0.536,0.804 V 0.536 C -0.536,0.214 -0.321,0 0,0" /></g><g
           transform="translate(25.0967,19.1621)"
           id="g52"><path
             id="path54"
             style="fill:#3e3736;fill-opacity:1;fill-rule:nonzero;stroke:none"
             d="m 0,0 c 0,-0.322 0.215,-0.536 0.536,-0.536 0.321,0 0.536,0.268 0.536,0.536 V 0.59 C 1.072,0.911 0.857,1.125 0.536,1.125 0.215,1.125 0,0.911 0,0.59 Z" /></g><g
           transform="translate(25.0967,17.0718)"
           id="g56"><path
             id="path58"
             style="fill:#3e3736;fill-opacity:1;fill-rule:nonzero;stroke:none"
             d="m 0,0 c 0,-0.321 0.215,-0.536 0.536,-0.536 0.321,0 0.536,0.215 0.536,0.536 V 0.268 C 1.072,0.59 0.857,0.804 0.536,0.804 0.215,0.804 0,0.59 0,0.268 Z" /></g></g></g></g></svg>