<?xml version="1.0" encoding="UTF-8" standalone="no"?>
<svg
   xmlns:dc="http://purl.org/dc/elements/1.1/"
   xmlns:cc="http://creativecommons.org/ns#"
   xmlns:rdf="http://www.w3.org/1999/02/22-rdf-syntax-ns#"
   xmlns:svg="http://www.w3.org/2000/svg"
   xmlns="http://www.w3.org/2000/svg"
   viewBox="0 0 48.3456 42.666668"
   height="42.666668"
   width="48.3456"
   xml:space="preserve"
   id="svg2"
   version="1.1"><metadata
     id="metadata8"><rdf:RDF><cc:Work
         rdf:about=""><dc:format>image/svg+xml</dc:format><dc:type
           rdf:resource="http://purl.org/dc/dcmitype/StillImage" /></cc:Work></rdf:RDF></metadata><defs
     id="defs6"><clipPath
       id="clipPath18"
       clipPathUnits="userSpaceOnUse"><path
         id="path16"
         d="M 0,32 H 36.259 V 0 H 0 Z" /></clipPath></defs><g
     transform="matrix(1.3333333,0,0,-1.3333333,0,42.666667)"
     id="g10"><g
       id="g12"><g
         clip-path="url(#clipPath18)"
         id="g14"><g
           transform="translate(18.062,6.1924)"
           id="g20"><path
             id="path22"
             style="fill:#3e3736;fill-opacity:1;fill-rule:nonzero;stroke:none"
             d="m 0,0 c 1.237,0 2.24,-1.003 2.24,-2.24 0,-1.238 -1.003,-2.24 -2.24,-2.24 -1.237,0 -2.24,1.002 -2.24,2.24 C -2.24,-1.003 -1.237,0 0,0" /></g><g
           transform="translate(35.1416,22.8647)"
           id="g24"><path
             id="path26"
             style="fill:#3e3736;fill-opacity:1;fill-rule:nonzero;stroke:none"
             d="m 0,0 c -4.462,4.787 -10.503,7.423 -17.012,7.423 -6.509,0 -12.55,-2.636 -17.012,-7.423 -0.511,-0.548 -0.48,-1.408 0.068,-1.919 0.548,-0.511 1.407,-0.481 1.918,0.068 3.943,4.229 9.279,6.559 15.026,6.559 5.747,0 11.083,-2.33 15.026,-6.559 0.267,-0.287 0.63,-0.432 0.993,-0.432 0.331,0 0.664,0.12 0.926,0.364 C 0.48,-1.408 0.511,-0.548 0,0" /></g><g
           transform="translate(30.1563,17.2588)"
           id="g28"><path
             id="path30"
             style="fill:#3e3736;fill-opacity:1;fill-rule:nonzero;stroke:none"
             d="m 0,0 c -3.298,3.323 -7.568,5.152 -12.027,5.152 -4.459,0 -8.73,-1.83 -12.027,-5.152 -0.528,-0.533 -0.525,-1.392 0.007,-1.92 0.532,-0.528 1.392,-0.525 1.92,0.007 2.783,2.805 6.37,4.35 10.1,4.35 3.729,0.001 7.316,-1.544 10.1,-4.35 0.266,-0.267 0.615,-0.401 0.964,-0.401 0.346,0 0.692,0.131 0.956,0.394 C 0.525,-1.392 0.528,-0.532 0,0" /></g><g
           transform="translate(24.7236,11.6357)"
           id="g32"><path
             id="path34"
             style="fill:#3e3736;fill-opacity:1;fill-rule:nonzero;stroke:none"
             d="m 0,0 c -1.766,1.75 -4.297,2.837 -6.607,2.837 h -10e-4 -0.098 -10e-4 c -2.309,0 -4.841,-1.087 -6.607,-2.837 -0.532,-0.527 -0.537,-1.387 -0.009,-1.919 0.266,-0.269 0.615,-0.402 0.965,-0.402 0.345,0 0.691,0.131 0.955,0.392 1.257,1.246 3.101,2.051 4.696,2.051 h 10e-4 0.099 v 0 c 1.596,0 3.439,-0.805 4.696,-2.051 0.533,-0.527 1.392,-0.523 1.92,0.01 C 0.537,-1.387 0.533,-0.527 0,0" /></g></g></g></g></svg>