<?xml version="1.0" encoding="UTF-8" standalone="no"?>
<svg
   xmlns:dc="http://purl.org/dc/elements/1.1/"
   xmlns:cc="http://creativecommons.org/ns#"
   xmlns:rdf="http://www.w3.org/1999/02/22-rdf-syntax-ns#"
   xmlns:svg="http://www.w3.org/2000/svg"
   xmlns="http://www.w3.org/2000/svg"
   viewBox="0 0 74.417198 61.333332"
   height="61.333332"
   width="74.417198"
   xml:space="preserve"
   id="svg2"
   version="1.1"><metadata
     id="metadata8"><rdf:RDF><cc:Work
         rdf:about=""><dc:format>image/svg+xml</dc:format><dc:type
           rdf:resource="http://purl.org/dc/dcmitype/StillImage" /></cc:Work></rdf:RDF></metadata><defs
     id="defs6"><clipPath
       id="clipPath18"
       clipPathUnits="userSpaceOnUse"><path
         id="path16"
         d="M 0,46 H 55.813 V 0 H 0 Z" /></clipPath></defs><g
     transform="matrix(1.3333333,0,0,-1.3333333,0,61.333333)"
     id="g10"><g
       id="g12"><g
         clip-path="url(#clipPath18)"
         id="g14"><g
           transform="translate(46.4611,17.6729)"
           id="g20"><path
             id="path22"
             style="fill:#3e3736;fill-opacity:1;fill-rule:nonzero;stroke:none"
             d="m 0,0 c 0,-2.023 -1.101,-3.888 -2.872,-4.865 -0.821,-0.454 -1.75,-0.694 -2.685,-0.694 -1.032,0 -2.02,0.281 -2.891,0.813 0.259,0.38 0.497,0.774 0.715,1.181 0.664,-0.407 1.418,-0.614 2.176,-0.614 0.692,0 1.387,0.172 2.019,0.521 1.332,0.735 2.158,2.137 2.158,3.658 v 1.999 c 0,0.906 -0.424,1.729 -1.163,2.254 -0.74,0.526 -1.655,0.657 -2.511,0.358 l -1.122,-0.39 v 1.461 l 0.668,0.233 c 1.266,0.44 2.673,0.239 3.765,-0.538 C -0.651,4.602 0,3.339 0,1.999 Z m -6.176,2.648 v 0.35 l 1.502,0.523 c 0.498,0.173 1.031,0.097 1.462,-0.209 0.431,-0.306 0.678,-0.785 0.678,-1.313 V 0 c 0,-1.101 -0.599,-2.114 -1.562,-2.646 -0.993,-0.548 -2.2,-0.493 -3.133,0.128 0.677,1.587 1.053,3.333 1.053,5.166 m 5.102,3.671 C -2.47,7.312 -4.269,7.568 -5.887,7.005 L -6.194,6.898 c -0.121,0.838 -0.844,1.484 -1.714,1.484 h -5.571 c -0.32,0 -0.578,-0.258 -0.578,-0.578 0,-0.319 0.258,-0.577 0.578,-0.577 h 5.571 c 0.318,0 0.577,-0.259 0.577,-0.578 V 2.648 c 0,-6.638 -5.4,-12.04 -12.04,-12.04 h -2.457 c -3.152,0 -6.132,1.21 -8.392,3.407 -0.229,0.222 -0.594,0.217 -0.817,-0.011 -0.222,-0.23 -0.216,-0.595 0.012,-0.817 1.12,-1.088 2.401,-1.955 3.788,-2.579 h -10.45 c -0.319,0 -0.578,-0.258 -0.578,-0.577 0,-2.016 1.641,-3.657 3.658,-3.657 h 22.632 c 0.32,0 0.579,0.259 0.579,0.577 0,0.32 -0.259,0.577 -0.579,0.577 h -22.632 c -1.182,0 -2.174,0.824 -2.435,1.925 h 32.887 c -0.106,-0.447 -0.333,-0.858 -0.667,-1.192 -0.472,-0.472 -1.1,-0.733 -1.769,-0.733 h -2.866 c -0.319,0 -0.578,-0.257 -0.578,-0.577 0,-0.318 0.259,-0.577 0.578,-0.577 h 2.866 c 0.978,0 1.897,0.38 2.585,1.07 0.692,0.692 1.072,1.61 1.072,2.587 0,0.319 -0.258,0.577 -0.578,0.577 h -10.463 c 1.889,0.85 3.541,2.131 4.834,3.717 1.069,-0.673 2.321,-1.039 3.584,-1.039 1.13,0 2.251,0.289 3.244,0.837 2.139,1.182 3.468,3.433 3.468,5.877 v 1.999 c 0,1.713 -0.834,3.328 -2.229,4.319 z" /></g><g
           transform="translate(12.2521,15.748)"
           id="g24"><path
             id="path26"
             style="fill:#3e3736;fill-opacity:1;fill-rule:nonzero;stroke:none"
             d="m 0,0 c 0.289,-0.781 0.654,-1.54 1.088,-2.256 0.108,-0.18 0.299,-0.279 0.495,-0.279 0.101,0 0.204,0.027 0.297,0.084 0.273,0.165 0.361,0.519 0.196,0.793 C 1.681,-1.005 1.347,-0.312 1.083,0.4 0.903,0.888 0.753,1.394 0.638,1.903 0.441,2.774 0.341,3.673 0.341,4.573 v 4.001 c 0,0.319 0.259,0.578 0.577,0.578 h 17.296 c 0.318,0 0.577,0.258 0.577,0.577 0,0.319 -0.259,0.578 -0.577,0.578 H 0.918 c -0.955,0 -1.732,-0.778 -1.732,-1.733 V 4.573 c 0,-0.986 0.109,-1.97 0.326,-2.925 C -0.362,1.09 -0.198,0.534 0,0" /></g><g
           transform="translate(25.1188,29.0854)"
           id="g28"><path
             id="path30"
             style="fill:#3e3736;fill-opacity:1;fill-rule:nonzero;stroke:none"
             d="m 0,0 c -0.179,-0.264 -0.11,-0.623 0.153,-0.802 0.1,-0.068 0.213,-0.1 0.325,-0.1 0.184,0 0.366,0.089 0.478,0.253 2.579,3.799 1.12,5.679 -0.052,7.191 -1.122,1.445 -2.008,2.586 0.041,5.409 0.187,0.258 0.13,0.619 -0.128,0.806 C 0.559,12.945 0.198,12.888 0.011,12.629 -2.547,9.105 -1.199,7.367 -0.009,5.833 1.127,4.369 2.108,3.105 0,0" /></g><g
           transform="translate(19.0226,31.6025)"
           id="g32"><path
             id="path34"
             style="fill:#3e3736;fill-opacity:1;fill-rule:nonzero;stroke:none"
             d="m 0,0 c -0.202,-0.247 -0.165,-0.611 0.082,-0.812 0.107,-0.088 0.236,-0.131 0.365,-0.131 0.167,0 0.333,0.072 0.448,0.212 C 2.927,1.757 1.725,3.044 0.847,3.984 0.033,4.856 -0.458,5.382 0.882,6.917 1.092,7.158 1.067,7.522 0.827,7.732 0.587,7.942 0.222,7.917 0.012,7.677 -2.015,5.357 -0.849,4.108 0.003,3.196 0.84,2.299 1.394,1.706 0,0" /></g><g
           transform="translate(31.2766,31.6025)"
           id="g36"><path
             id="path38"
             style="fill:#3e3736;fill-opacity:1;fill-rule:nonzero;stroke:none"
             d="m 0,0 c -0.202,-0.247 -0.165,-0.611 0.082,-0.812 0.107,-0.088 0.236,-0.131 0.364,-0.131 0.168,0 0.334,0.072 0.449,0.212 C 2.927,1.757 1.725,3.044 0.847,3.984 0.033,4.856 -0.459,5.382 0.882,6.917 1.092,7.158 1.067,7.522 0.827,7.732 0.587,7.942 0.222,7.917 0.012,7.677 -2.015,5.357 -0.849,4.108 0.003,3.196 0.841,2.299 1.395,1.706 0,0" /></g></g></g></g></svg>