<?xml version="1.0" encoding="UTF-8" standalone="no"?>
<svg
   xmlns:dc="http://purl.org/dc/elements/1.1/"
   xmlns:cc="http://creativecommons.org/ns#"
   xmlns:rdf="http://www.w3.org/1999/02/22-rdf-syntax-ns#"
   xmlns:svg="http://www.w3.org/2000/svg"
   xmlns="http://www.w3.org/2000/svg"
   viewBox="0 0 74.417198 61.333332"
   height="61.333332"
   width="74.417198"
   xml:space="preserve"
   id="svg2"
   version="1.1"><metadata
     id="metadata8"><rdf:RDF><cc:Work
         rdf:about=""><dc:format>image/svg+xml</dc:format><dc:type
           rdf:resource="http://purl.org/dc/dcmitype/StillImage" /></cc:Work></rdf:RDF></metadata><defs
     id="defs6"><clipPath
       id="clipPath18"
       clipPathUnits="userSpaceOnUse"><path
         id="path16"
         d="M 0,46 H 55.813 V 0 H 0 Z" /></clipPath></defs><g
     transform="matrix(1.3333333,0,0,-1.3333333,0,61.333333)"
     id="g10"><g
       id="g12"><g
         clip-path="url(#clipPath18)"
         id="g14"><g
           transform="translate(27.8312,12.1533)"
           id="g20"><path
             id="path22"
             style="fill:#3e3736;fill-opacity:1;fill-rule:nonzero;stroke:none"
             d="m 0,0 c 1.368,0 2.478,-1.109 2.478,-2.478 0,-1.368 -1.11,-2.477 -2.478,-2.477 -1.368,0 -2.477,1.109 -2.477,2.477 C -2.477,-1.109 -1.368,0 0,0" /></g><g
           transform="translate(46.7199,30.5918)"
           id="g24"><path
             id="path26"
             style="fill:#3e3736;fill-opacity:1;fill-rule:nonzero;stroke:none"
             d="m 0,0 c -4.934,5.294 -11.615,8.209 -18.814,8.209 -7.198,0 -13.879,-2.915 -18.813,-8.209 -0.565,-0.606 -0.532,-1.557 0.074,-2.122 0.607,-0.565 1.557,-0.532 2.122,0.075 4.36,4.677 10.262,7.254 16.618,7.254 6.356,0 12.257,-2.577 16.617,-7.254 0.296,-0.317 0.696,-0.478 1.098,-0.478 0.367,0 0.735,0.133 1.024,0.403 C 0.532,-1.557 0.565,-0.606 0,0" /></g><g
           transform="translate(41.2072,24.3921)"
           id="g28"><path
             id="path30"
             style="fill:#3e3736;fill-opacity:1;fill-rule:nonzero;stroke:none"
             d="m 0,0 c -3.646,3.674 -8.371,5.698 -13.301,5.698 -4.931,0 -9.655,-2.024 -13.302,-5.698 -0.584,-0.589 -0.58,-1.54 0.009,-2.124 0.589,-0.584 1.539,-0.58 2.123,0.008 3.078,3.103 7.045,4.811 11.17,4.811 4.124,0.001 8.091,-1.708 11.17,-4.811 0.293,-0.295 0.68,-0.443 1.066,-0.443 0.382,0 0.764,0.145 1.057,0.435 C 0.581,-1.539 0.584,-0.589 0,0" /></g><g
           transform="translate(35.1994,18.1738)"
           id="g32"><path
             id="path34"
             style="fill:#3e3736;fill-opacity:1;fill-rule:nonzero;stroke:none"
             d="m 0,0 c -1.953,1.936 -4.753,3.137 -7.307,3.137 h -10e-4 -0.109 v 0 c -2.555,0 -5.354,-1.201 -7.308,-3.137 -0.588,-0.583 -0.593,-1.534 -0.009,-2.123 0.293,-0.296 0.68,-0.444 1.066,-0.444 0.382,0 0.764,0.144 1.057,0.434 1.39,1.377 3.429,2.268 5.194,2.268 v 0 h 0.109 10e-4 c 1.764,0 3.803,-0.891 5.194,-2.268 0.589,-0.584 1.539,-0.579 2.123,0.01 C 0.593,-1.534 0.589,-0.583 0,0" /></g></g></g></g></svg>