<?xml version="1.0" encoding="UTF-8" standalone="no"?>
<svg
   xmlns:dc="http://purl.org/dc/elements/1.1/"
   xmlns:cc="http://creativecommons.org/ns#"
   xmlns:rdf="http://www.w3.org/1999/02/22-rdf-syntax-ns#"
   xmlns:svg="http://www.w3.org/2000/svg"
   xmlns="http://www.w3.org/2000/svg"
   viewBox="0 0 74.417198 61.333332"
   height="61.333332"
   width="74.417198"
   xml:space="preserve"
   id="svg2"
   version="1.1"><metadata
     id="metadata8"><rdf:RDF><cc:Work
         rdf:about=""><dc:format>image/svg+xml</dc:format><dc:type
           rdf:resource="http://purl.org/dc/dcmitype/StillImage" /></cc:Work></rdf:RDF></metadata><defs
     id="defs6"><clipPath
       id="clipPath18"
       clipPathUnits="userSpaceOnUse"><path
         id="path16"
         d="M 0,46 H 55.813 V 0 H 0 Z" /></clipPath></defs><g
     transform="matrix(1.3333333,0,0,-1.3333333,0,61.333333)"
     id="g10"><g
       id="g12"><g
         clip-path="url(#clipPath18)"
         id="g14"><g
           transform="translate(10.5583,12.0332)"
           id="g20"><path
             id="path22"
             style="fill:#3e3736;fill-opacity:1;fill-rule:nonzero;stroke:none"
             d="M 0,0 3.655,7.831 6.385,6.921 5.428,-1.698 C 5.322,-2.647 4.59,-3.421 3.648,-3.578 2.753,-3.726 1.826,-3.5 1.102,-2.957 L 0.659,-2.623 C 0.308,-2.36 0.049,-2.001 -0.09,-1.586 -0.266,-1.063 -0.233,-0.5 0,0 m 6.708,15.644 c 0.064,-0.101 0.12,-0.205 0.189,-0.303 0.918,-1.284 2.343,-2.129 3.895,-2.337 v -2.541 c 0,-0.165 0.065,-0.324 0.182,-0.441 l 1.244,-1.244 c 0.121,-0.121 0.281,-0.182 0.44,-0.182 0.159,0 0.319,0.061 0.44,0.182 l 1.244,1.244 c 0.117,0.118 0.182,0.276 0.182,0.441 v 2.488 h 4.978 v -2.488 c 0,-0.165 0.066,-0.324 0.182,-0.441 l 1.245,-1.244 c 0.121,-0.121 0.28,-0.182 0.44,-0.182 0.159,0 0.318,0.061 0.439,0.182 l 1.245,1.244 c 0.116,0.118 0.182,0.276 0.182,0.441 v 2.541 c 1.552,0.208 2.976,1.052 3.893,2.336 0.071,0.099 0.126,0.203 0.19,0.304 l 0.89,-7.292 -1.23,-0.411 C 26.701,7.849 26.525,7.574 26.557,7.282 l 1.014,-9.118 c 0.114,-1.028 0.699,-1.917 1.532,-2.46 -0.631,-1.237 -1.905,-2.041 -3.319,-2.041 H 8.244 c -1.368,0 -2.619,0.762 -3.268,1.941 0.917,0.528 1.566,1.467 1.688,2.56 L 7.677,7.282 C 7.709,7.574 7.534,7.849 7.255,7.941 L 5.828,8.417 Z m 0.669,4.616 1.515,3.939 c 0.275,0.716 0.976,1.197 1.742,1.197 h 0.158 V 19.001 C 10.421,18.785 10.169,18.388 10.169,17.93 v -1.245 c 0,-0.458 0.252,-0.855 0.623,-1.071 v -1.348 c -1.15,0.198 -2.197,0.84 -2.881,1.799 -0.874,1.222 -1.074,2.791 -0.534,4.195 m 9.636,8.246 c 1.156,0 2.122,-0.797 2.401,-1.866 h -4.801 c 0.278,1.069 1.244,1.866 2.4,1.866 M 20.747,15.44 h 1.244 v -4.72 l -0.622,-0.622 -0.622,0.622 z m 1.244,3.733 h -1.244 v 6.222 h 1.244 z m -1.866,-2.489 v 1.245 h 2.488 V 16.685 Z M 12.036,15.44 h 1.244 v -4.72 l -0.622,-0.622 -0.622,0.622 z m 1.244,3.733 h -1.245 v 6.222 h 1.245 z m -1.866,-2.489 v 1.245 h 2.488 v -1.244 z m 8.088,-2.488 h -4.978 v 1.417 c 0.371,0.216 0.622,0.613 0.622,1.072 v 1.244 c 0,0.458 -0.251,0.855 -0.622,1.071 v 6.395 h 4.978 V 19 c -0.371,-0.216 -0.623,-0.612 -0.623,-1.071 v -1.244 c 0,-0.459 0.252,-0.856 0.623,-1.072 z m 5.632,10.003 1.516,-3.94 c 0.54,-1.404 0.34,-2.972 -0.534,-4.196 -0.685,-0.959 -1.732,-1.6 -2.881,-1.798 v 1.347 c 0.37,0.216 0.622,0.613 0.622,1.072 v 1.244 c 0,0.459 -0.252,0.856 -0.622,1.072 v 6.395 h 0.158 c 0.766,0 1.466,-0.481 1.741,-1.196 M 34.233,0 c 0.233,-0.5 0.266,-1.062 0.091,-1.586 -0.139,-0.416 -0.398,-0.775 -0.748,-1.038 l -0.445,-0.333 c -0.724,-0.544 -1.652,-0.77 -2.545,-0.621 -0.942,0.156 -1.674,0.93 -1.78,1.88 L 27.848,6.921 30.579,7.83 Z M -0.089,-3.62 0.354,-3.953 c 0.795,-0.597 1.768,-0.914 2.752,-0.914 0.232,0 0.464,0.02 0.695,0.056 0.834,-1.673 2.55,-2.77 4.443,-2.77 h 17.539 c 1.919,0 3.639,1.11 4.466,2.809 0.044,-0.01 0.087,-0.027 0.133,-0.035 0.247,-0.041 0.496,-0.061 0.744,-0.061 0.985,0 1.958,0.317 2.752,0.914 l 0.445,0.333 c 0.553,0.416 0.962,0.983 1.181,1.641 0.276,0.826 0.225,1.715 -0.144,2.505 L 31.471,8.858 C 31.337,9.145 31.01,9.285 30.71,9.186 l -1.298,-0.433 -1.204,9.872 -0.015,-0.001 c 0.004,0.7 -0.122,1.406 -0.382,2.081 l -1.516,3.94 c -0.458,1.192 -1.626,1.994 -2.903,1.994 H 20.69 c -0.298,1.762 -1.831,3.111 -3.677,3.111 -1.847,0 -3.38,-1.349 -3.678,-3.111 h -2.702 c -1.278,0 -2.445,-0.802 -2.904,-1.994 L 6.214,20.705 C 5.955,20.029 5.829,19.324 5.833,18.624 L 5.817,18.626 4.621,8.818 3.521,9.186 C 3.219,9.285 2.894,9.145 2.76,8.858 L -1.129,0.525 c -0.369,-0.79 -0.419,-1.679 -0.144,-2.505 0.22,-0.658 0.629,-1.224 1.184,-1.64" /></g><g
           transform="translate(22.5939,16.8965)"
           id="g24"><path
             id="path26"
             style="fill:#3e3736;fill-opacity:1;fill-rule:nonzero;stroke:none"
             d="M 0,0 C 0,0.686 0.558,1.244 1.245,1.244 H 8.711 C 9.397,1.244 9.955,0.686 9.955,0 v -7.467 c 0,-0.686 -0.558,-1.244 -1.244,-1.244 H 1.245 C 0.558,-8.711 0,-8.153 0,-7.467 Z m 1.245,-9.955 h 7.466 c 1.372,0 2.488,1.116 2.488,2.488 v 4.978 l 0.747,-0.995 0.995,0.746 -1.742,2.323 V 0 c 0,1.372 -1.116,2.488 -2.488,2.488 H 1.245 c -1.373,0 -2.49,-1.116 -2.49,-2.488 v -7.467 c 0.001,-1.372 1.117,-2.488 2.49,-2.488" /></g><path
           id="path28"
           style="fill:#3e3736;fill-opacity:1;fill-rule:nonzero;stroke:none"
           d="m 23.839,16.273 h 7.466 v -1.244 h -7.466 z" /></g></g></g></svg>