<?xml version="1.0" encoding="UTF-8" standalone="no"?>
<svg
   xmlns:dc="http://purl.org/dc/elements/1.1/"
   xmlns:cc="http://creativecommons.org/ns#"
   xmlns:rdf="http://www.w3.org/1999/02/22-rdf-syntax-ns#"
   xmlns:svg="http://www.w3.org/2000/svg"
   xmlns="http://www.w3.org/2000/svg"
   viewBox="0 0 48.3456 42.666668"
   height="42.666668"
   width="48.3456"
   xml:space="preserve"
   id="svg2"
   version="1.1"><metadata
     id="metadata8"><rdf:RDF><cc:Work
         rdf:about=""><dc:format>image/svg+xml</dc:format><dc:type
           rdf:resource="http://purl.org/dc/dcmitype/StillImage" /></cc:Work></rdf:RDF></metadata><defs
     id="defs6"><clipPath
       id="clipPath18"
       clipPathUnits="userSpaceOnUse"><path
         id="path16"
         d="M 0,32 H 36.259 V 0 H 0 Z" /></clipPath></defs><g
     transform="matrix(1.3333333,0,0,-1.3333333,0,42.666667)"
     id="g10"><g
       id="g12"><g
         clip-path="url(#clipPath18)"
         id="g14"><g
           transform="translate(10.3394,15.0156)"
           id="g20"><path
             id="path22"
             style="fill:#3e3736;fill-opacity:1;fill-rule:nonzero;stroke:none"
             d="M 0,0 C 0.209,0.589 0.767,0.983 1.392,0.984 H 14.188 C 14.814,0.983 15.372,0.589 15.581,0 Z M 10.556,-7.827 C 9.231,-8.361 7.781,-8.502 6.378,-8.23 5.914,-8.141 5.459,-8.006 5.021,-7.826 2.227,-6.706 0.398,-3.995 0.408,-0.984 h 14.764 c 0.01,-3.012 -1.82,-5.724 -4.616,-6.843 M 5.33,-12.796 v 3.814 l 0.045,-0.013 c 0.049,-0.015 0.099,-0.026 0.148,-0.04 0.18,-0.051 0.362,-0.096 0.546,-0.135 0.088,-0.018 0.177,-0.034 0.265,-0.049 0.152,-0.026 0.305,-0.05 0.459,-0.066 0.094,-0.012 0.186,-0.024 0.281,-0.031 0.2,-0.017 0.401,-0.027 0.603,-0.029 0.037,0 0.073,-0.006 0.111,-0.006 0.037,0 0.074,0.005 0.111,0.006 0.202,0.002 0.403,0.012 0.603,0.029 0.094,0.007 0.188,0.02 0.282,0.031 0.153,0.017 0.304,0.04 0.455,0.065 0.09,0.016 0.18,0.032 0.27,0.05 0.179,0.036 0.356,0.081 0.531,0.131 0.055,0.015 0.11,0.027 0.165,0.044 0.014,0.004 0.029,0.007 0.044,0.012 l 0.002,-3.813 z M 12.711,1.969 H 2.868 v 0.984 h 9.843 z M 1.392,3.938 C 1.121,3.938 0.9,4.158 0.9,4.43 v 8.366 H 14.68 V 4.43 c 0,-0.272 -0.22,-0.492 -0.492,-0.492 z m -1.476,10.334 c 0,0.272 0.22,0.493 0.492,0.493 h 14.764 c 0.273,0 0.493,-0.221 0.493,-0.493 0,-0.272 -0.22,-0.492 -0.493,-0.492 H 0.408 c -0.272,0 -0.492,0.22 -0.492,0.492 M 14.188,1.969 h -0.492 v 0.984 h 0.492 c 0.815,0 1.477,0.661 1.477,1.477 v 8.457 c 0.767,0.27 1.17,1.111 0.9,1.878 -0.208,0.59 -0.767,0.985 -1.393,0.984 H 0.408 c -0.814,10e-4 -1.474,-0.657 -1.476,-1.47 -10e-4,-0.626 0.394,-1.184 0.984,-1.392 V 4.43 c 0,-0.816 0.661,-1.477 1.476,-1.477 H 1.884 V 1.969 H 1.392 c -1.358,-0.002 -2.459,-1.103 -2.46,-2.461 0,-0.272 0.22,-0.492 0.492,-0.492 -0.01,-3.289 1.919,-6.275 4.921,-7.618 v -4.686 c 0,-0.272 0.22,-0.492 0.492,-0.492 h 5.907 c 0.271,0 0.491,0.22 0.491,0.492 v 4.686 c 3.002,1.344 4.931,4.33 4.922,7.618 0.271,0 0.492,0.22 0.492,0.492 -0.002,1.358 -1.103,2.459 -2.461,2.461" /></g><g
           transform="translate(13.208,25.3511)"
           id="g24"><path
             id="path26"
             style="fill:#3e3736;fill-opacity:1;fill-rule:nonzero;stroke:none"
             d="m 0,0 c -0.271,0 -0.492,0.22 -0.492,0.492 0,0.272 0.221,0.492 0.492,0.492 0.272,0 0.492,-0.22 0.492,-0.492 C 0.492,0.22 0.272,0 0,0 M 2.953,0.984 H 1.386 C 1.114,1.753 0.271,2.156 -0.498,1.884 -1.267,1.612 -1.67,0.769 -1.398,0 c 0.272,-0.769 1.115,-1.172 1.884,-0.9 0.421,0.149 0.751,0.48 0.9,0.9 h 1.567 c 0.272,0 0.492,0.22 0.492,0.492 0,0.272 -0.22,0.492 -0.492,0.492" /></g></g></g></g></svg>