<?xml version="1.0" encoding="UTF-8" standalone="no"?>
<svg
   xmlns:dc="http://purl.org/dc/elements/1.1/"
   xmlns:cc="http://creativecommons.org/ns#"
   xmlns:rdf="http://www.w3.org/1999/02/22-rdf-syntax-ns#"
   xmlns:svg="http://www.w3.org/2000/svg"
   xmlns="http://www.w3.org/2000/svg"
   viewBox="0 0 74.417198 61.333332"
   height="61.333332"
   width="74.417198"
   xml:space="preserve"
   id="svg2"
   version="1.1"><metadata
     id="metadata8"><rdf:RDF><cc:Work
         rdf:about=""><dc:format>image/svg+xml</dc:format><dc:type
           rdf:resource="http://purl.org/dc/dcmitype/StillImage" /></cc:Work></rdf:RDF></metadata><defs
     id="defs6"><clipPath
       id="clipPath18"
       clipPathUnits="userSpaceOnUse"><path
         id="path16"
         d="M 0,46 H 55.813 V 0 H 0 Z" /></clipPath></defs><g
     transform="matrix(1.3333333,0,0,-1.3333333,0,61.333333)"
     id="g10"><g
       id="g12"><g
         clip-path="url(#clipPath18)"
         id="g14"><path
           id="path20"
           style="fill:#3e3736;fill-opacity:1;fill-rule:nonzero;stroke:none"
           d="M 9.503,7.241 H 23.985 V 38.758 H 9.503 Z M 24.789,5.633 H 8.698 c -0.444,0 -0.804,0.358 -0.804,0.804 v 33.126 c 0,0.445 0.36,0.804 0.804,0.804 h 16.091 c 0.445,0 0.804,-0.359 0.804,-0.804 V 6.437 C 25.594,5.991 25.234,5.633 24.789,5.633" /><g
           transform="translate(50.3713,26.2886)"
           id="g22"><path
             id="path24"
             style="fill:#3e3736;fill-opacity:1;fill-rule:nonzero;stroke:none"
             d="m 0,0 h -44.93 c -0.445,0 -0.804,0.359 -0.804,0.804 0,0.446 0.359,0.805 0.804,0.805 H 0 C 0.445,1.609 0.805,1.25 0.805,0.804 0.805,0.359 0.444,0 0,0" /></g><g
           transform="translate(20.9675,30.0703)"
           id="g26"><path
             id="path28"
             style="fill:#3e3736;fill-opacity:1;fill-rule:nonzero;stroke:none"
             d="m 0,0 c -0.445,0 -0.804,0.36 -0.804,0.804 v 3.258 c 0,0.444 0.36,0.804 0.804,0.804 0.445,0 0.804,-0.36 0.804,-0.804 V 0.804 C 0.805,0.36 0.445,0 0,0" /></g><g
           transform="translate(20.9675,18.8457)"
           id="g30"><path
             id="path32"
             style="fill:#3e3736;fill-opacity:1;fill-rule:nonzero;stroke:none"
             d="m 0,0 c -0.445,0 -0.804,0.36 -0.804,0.806 v 3.022 c 0,0.445 0.36,0.805 0.804,0.805 0.445,0 0.804,-0.36 0.804,-0.805 V 0.806 C 0.805,0.36 0.445,0 0,0" /></g><g
           transform="translate(32.8996,31.9858)"
           id="g34"><path
             id="path36"
             style="fill:#3e3736;fill-opacity:1;fill-rule:nonzero;stroke:none"
             d="m 0,0 c 0.377,-1.928 2.078,-3.388 4.117,-3.388 2.038,0 3.739,1.46 4.117,3.388 z m 4.117,-4.996 c -3.2,0 -5.804,2.601 -5.804,5.801 0,0.445 0.361,0.804 0.805,0.804 h 9.997 c 0.446,0 0.805,-0.36 0.805,-0.804 0,-3.2 -2.605,-5.801 -5.803,-5.801" /></g><g
           transform="translate(48.0441,6.6094)"
           id="g38"><path
             id="path40"
             style="fill:#3e3736;fill-opacity:1;fill-rule:nonzero;stroke:none"
             d="m 0,0 h -23.255 c -0.445,0 -0.805,0.359 -0.805,0.805 0,0.445 0.36,0.804 0.805,0.804 h 22.45 v 18.874 c 0,0.445 0.361,0.805 0.805,0.805 0.445,0 0.805,-0.36 0.805,-0.805 V 0.805 C 0.805,0.36 0.445,0 0,0" /></g><path
           id="path42"
           style="fill:#3e3736;fill-opacity:1;fill-rule:nonzero;stroke:none"
           d="M 30.525,12.332 H 42.44 v 7.721 H 30.525 Z M 43.243,10.724 H 29.72 c -0.444,0 -0.804,0.36 -0.804,0.804 v 9.329 c 0,0.446 0.36,0.805 0.804,0.805 h 13.523 c 0.446,0 0.805,-0.359 0.805,-0.805 v -9.329 c 0,-0.444 -0.359,-0.804 -0.805,-0.804" /><g
           transform="translate(42.3478,22.7681)"
           id="g44"><path
             id="path46"
             style="fill:#3e3736;fill-opacity:1;fill-rule:nonzero;stroke:none"
             d="m 0,0 h -11.731 c -0.446,0 -0.805,0.36 -0.805,0.805 0,0.445 0.359,0.805 0.805,0.805 H 0 C 0.445,1.61 0.805,1.25 0.805,0.805 0.805,0.36 0.444,0 0,0" /></g><g
           transform="translate(36.7443,15.2187)"
           id="g48"><path
             id="path50"
             style="fill:#3e3736;fill-opacity:1;fill-rule:nonzero;stroke:none"
             d="m 0,0 c -0.104,0 -0.211,0.041 -0.289,0.123 -0.153,0.159 -0.15,0.414 0.01,0.568 l 2.28,2.214 C 2.16,3.059 2.418,3.055 2.57,2.895 2.724,2.737 2.721,2.482 2.561,2.326 L 0.28,0.113 C 0.203,0.038 0.101,0 0,0" /></g><g
           transform="translate(38.9777,13.0068)"
           id="g52"><path
             id="path54"
             style="fill:#3e3736;fill-opacity:1;fill-rule:nonzero;stroke:none"
             d="M 0,0 C -0.105,0 -0.211,0.041 -0.289,0.123 -0.443,0.281 -0.44,0.536 -0.28,0.691 L 2,2.904 C 2.159,3.058 2.415,3.056 2.569,2.895 2.723,2.736 2.72,2.481 2.56,2.326 L 0.279,0.114 C 0.203,0.038 0.101,0 0,0" /></g><g
           transform="translate(36.7443,13.0068)"
           id="g56"><path
             id="path58"
             style="fill:#3e3736;fill-opacity:1;fill-rule:nonzero;stroke:none"
             d="m 0,0 c -0.104,0 -0.207,0.039 -0.286,0.12 -0.155,0.157 -0.155,0.411 0.003,0.569 L 4.183,5.113 C 4.34,5.27 4.595,5.27 4.752,5.11 4.907,4.953 4.907,4.698 4.748,4.542 L 0.282,0.117 C 0.204,0.039 0.102,0 0,0" /></g></g></g></g></svg>