<?xml version="1.0" encoding="UTF-8" standalone="no"?>
<svg
   xmlns:dc="http://purl.org/dc/elements/1.1/"
   xmlns:cc="http://creativecommons.org/ns#"
   xmlns:rdf="http://www.w3.org/1999/02/22-rdf-syntax-ns#"
   xmlns:svg="http://www.w3.org/2000/svg"
   xmlns="http://www.w3.org/2000/svg"
   viewBox="0 0 74.417198 61.333332"
   height="61.333332"
   width="74.417198"
   xml:space="preserve"
   id="svg2"
   version="1.1"><metadata
     id="metadata8"><rdf:RDF><cc:Work
         rdf:about=""><dc:format>image/svg+xml</dc:format><dc:type
           rdf:resource="http://purl.org/dc/dcmitype/StillImage" /></cc:Work></rdf:RDF></metadata><defs
     id="defs6"><clipPath
       id="clipPath18"
       clipPathUnits="userSpaceOnUse"><path
         id="path16"
         d="M 0,46 H 55.813 V 0 H 0 Z" /></clipPath></defs><g
     transform="matrix(1.3333333,0,0,-1.3333333,0,61.333333)"
     id="g10"><g
       id="g12"><g
         clip-path="url(#clipPath18)"
         id="g14"><g
           transform="translate(40.8224,7.8682)"
           id="g20"><path
             id="path22"
             style="fill:#3e3736;fill-opacity:1;fill-rule:nonzero;stroke:none"
             d="m 0,0 c -1.222,0 -2.211,0.989 -2.211,2.211 0,1.221 0.989,2.211 2.211,2.211 1.221,0 2.211,-0.99 2.211,-2.211 C 2.211,1.624 1.978,1.062 1.563,0.647 1.148,0.232 0.586,0 0,0 m 0,5.685 c -1.919,0 -3.475,-1.556 -3.475,-3.474 0,-1.919 1.556,-3.475 3.475,-3.475 1.919,0 3.474,1.556 3.474,3.475 C 3.472,4.129 1.918,5.683 0,5.685" /></g><g
           transform="translate(40.8224,5.3408)"
           id="g24"><path
             id="path26"
             style="fill:#3e3736;fill-opacity:1;fill-rule:nonzero;stroke:none"
             d="m 0,0 c -2.388,-0.002 -4.404,1.773 -4.705,4.143 -0.3,2.368 1.21,4.59 3.522,5.184 C 1.131,9.92 3.523,8.699 4.401,6.479 4.975,5.021 4.791,3.374 3.91,2.078 3.03,0.782 1.566,0.005 0,0 m -28.741,0 c -1.047,0 -1.895,0.849 -1.895,1.896 v 1.155 l 3.158,8.951 c 0.596,-0.796 1.533,-1.264 2.527,-1.264 H -8.086 C -5.6,2.488 -5.816,3.032 -5.446,2.23 -5.04,1.356 -4.431,0.592 -3.67,0 Z m 25.583,17.056 c 1.65,0 3.14,-0.988 3.782,-2.508 0.028,-0.064 2.132,-4.537 2.102,-4.471 -1.519,0.777 -3.297,0.87 -4.889,0.256 -1.591,-0.615 -2.845,-1.88 -3.445,-3.478 -1.46,4.883 -1.372,4.563 -1.603,5.456 -0.187,1.185 0.154,2.392 0.934,3.305 0.779,0.912 1.919,1.439 3.119,1.44 M 5.627,6.817 C 5.494,7.102 1.86,14.913 1.76,15.096 0.672,17.59 -2.111,18.875 -4.716,18.085 -7.319,17.295 -8.92,14.681 -8.438,12.002 h -16.513 c -1.047,0 -1.895,0.849 -1.895,1.895 0,0.308 -0.221,0.571 -0.525,0.623 -0.303,0.051 -0.6,-0.123 -0.702,-0.413 C -32.117,2.65 -31.899,3.327 -31.899,3.159 V 1.896 c 0.002,-1.744 1.415,-3.157 3.158,-3.159 30.526,0 28.294,-0.008 28.488,0.013 1.633,-0.071 3.225,0.528 4.405,1.659 1.181,1.13 1.849,2.695 1.849,4.329 C 5.997,5.447 5.87,6.151 5.627,6.817" /></g><g
           transform="translate(20.8288,30.4248)"
           id="g28"><path
             id="path30"
             style="fill:#3e3736;fill-opacity:1;fill-rule:nonzero;stroke:none"
             d="M 0,0 C 1.551,0.332 3.163,0.241 4.667,-0.264 4.364,-1.598 4.507,-2.994 5.074,-4.239 4.025,-4.702 2.884,-4.918 1.738,-4.87 c -2.587,0.146 -5.08,1.022 -7.19,2.526 C -3.827,-1.174 -1.966,-0.375 0,0 M 3.396,4.518 C 3.219,3.471 3.206,2.402 3.357,1.351 2.301,1.495 1.23,1.481 0.178,1.312 -0.829,2.888 -1.501,4.653 -1.799,6.5 0.05,6.202 1.818,5.527 3.396,4.518 M 7.044,10.15 C 8.205,8.522 9.004,6.664 9.388,4.702 9.626,3.499 9.633,2.261 9.407,1.056 9.303,1.024 9.195,0.997 9.096,0.962 8.583,2.536 7.744,3.973 7.044,3.973 6.345,3.973 5.507,2.539 4.994,0.966 4.895,1.001 4.786,1.029 4.678,1.059 4.565,1.687 4.512,2.324 4.518,2.962 4.653,5.551 5.53,8.046 7.044,10.15 m 6.867,-8.839 c -1.052,0.171 -2.124,0.185 -3.18,0.04 0.151,1.051 0.139,2.12 -0.038,3.167 1.578,1.009 3.346,1.684 5.194,1.982 C 15.59,4.653 14.917,2.887 13.911,1.311 M 12.35,-4.87 c -1.145,-0.048 -2.287,0.168 -3.336,0.631 0.569,1.243 0.712,2.638 0.408,3.971 1.506,0.508 3.121,0.6 4.675,0.266 1.963,-0.374 3.821,-1.174 5.444,-2.342 C 17.43,-3.848 14.938,-4.724 12.35,-4.87 M 7.044,2.438 c 1.857,-2.908 1.48,-6.677 0,-6.677 -1.479,0 -1.868,3.751 0,6.677 M -6.853,-2.344 c 0,-1.338 5.054,-3.79 8.591,-3.79 1.466,-0.073 2.924,0.25 4.22,0.936 0.667,-0.406 1.505,-0.406 2.172,0 1.297,-0.686 2.755,-1.009 4.22,-0.936 3.537,0 8.591,2.452 8.591,3.79 0,1.057 -3.062,2.674 -5.728,3.379 1.295,2.257 2.459,5.66 1.664,6.454 C 16.083,8.284 12.679,7.121 10.422,5.825 9.715,8.495 8.1,11.553 7.044,11.553 5.988,11.553 4.371,8.491 3.666,5.825 1.409,7.121 -1.996,8.284 -2.789,7.489 -3.582,6.695 -2.42,3.292 -1.124,1.035 -3.794,0.328 -6.853,-1.288 -6.853,-2.344" /></g><g
           transform="translate(14.6081,7.8682)"
           id="g32"><path
             id="path34"
             style="fill:#3e3736;fill-opacity:1;fill-rule:nonzero;stroke:none"
             d="m 0,0 h -1.263 c -0.349,0 -0.632,-0.283 -0.632,-0.632 0,-0.348 0.283,-0.632 0.632,-0.632 H 0 c 0.349,0 0.632,0.284 0.632,0.632 C 0.632,-0.283 0.349,0 0,0" /></g><g
           transform="translate(33.5578,7.8682)"
           id="g36"><path
             id="path38"
             style="fill:#3e3736;fill-opacity:1;fill-rule:nonzero;stroke:none"
             d="m 0,0 h -16.423 c -0.349,0 -0.632,-0.283 -0.632,-0.632 0,-0.348 0.283,-0.632 0.632,-0.632 H 0 c 0.349,0 0.632,0.284 0.632,0.632 C 0.632,-0.283 0.349,0 0,0" /></g></g></g></g></svg>