<?xml version="1.0" encoding="UTF-8" standalone="no"?>
<svg
   xmlns:dc="http://purl.org/dc/elements/1.1/"
   xmlns:cc="http://creativecommons.org/ns#"
   xmlns:rdf="http://www.w3.org/1999/02/22-rdf-syntax-ns#"
   xmlns:svg="http://www.w3.org/2000/svg"
   xmlns="http://www.w3.org/2000/svg"
   viewBox="0 0 74.417198 61.333332"
   height="61.333332"
   width="74.417198"
   xml:space="preserve"
   id="svg2"
   version="1.1"><metadata
     id="metadata8"><rdf:RDF><cc:Work
         rdf:about=""><dc:format>image/svg+xml</dc:format><dc:type
           rdf:resource="http://purl.org/dc/dcmitype/StillImage" /></cc:Work></rdf:RDF></metadata><defs
     id="defs6"><clipPath
       id="clipPath18"
       clipPathUnits="userSpaceOnUse"><path
         id="path16"
         d="M 0,46 H 55.813 V 0 H 0 Z" /></clipPath></defs><g
     transform="matrix(1.3333333,0,0,-1.3333333,0,61.333333)"
     id="g10"><g
       id="g12"><g
         clip-path="url(#clipPath18)"
         id="g14"><g
           transform="translate(41.84,10.6445)"
           id="g20"><path
             id="path22"
             style="fill:#3e3736;fill-opacity:1;fill-rule:nonzero;stroke:none"
             d="m 0,0 c -4.393,0 -7.965,3.579 -7.965,7.979 0,2.596 1.25,4.9 3.174,6.358 L -0.844,7.49 c 0.181,-0.313 0.509,-0.489 0.845,-0.489 0.166,0 0.333,0.042 0.487,0.132 0.467,0.269 0.626,0.866 0.358,1.334 l -3.952,6.857 c 0.955,0.407 2.005,0.633 3.107,0.633 4.393,0 7.966,-3.579 7.966,-7.978 C 7.967,3.579 4.393,0 0,0 m -13.612,10.013 -5.415,9.394 H -8.753 Z M -18,8.955 c -0.285,2.916 -1.838,5.458 -4.094,7.083 l 1.379,2.392 5.461,-9.475 z m -8.177,0 3.102,5.382 c 1.678,-1.272 2.839,-3.188 3.108,-5.382 z M -27.866,0 c -4.392,0 -7.965,3.579 -7.965,7.979 0,4.399 3.573,7.978 7.965,7.978 1.102,0 2.152,-0.226 3.108,-0.633 L -28.71,8.467 c -0.175,-0.302 -0.175,-0.675 0,-0.977 0.174,-0.303 0.496,-0.489 0.844,-0.489 h 7.899 C -20.45,3.063 -23.805,0 -27.866,0 M 0,17.911 c -1.457,0 -2.837,-0.325 -4.085,-0.892 l -2.208,3.83 c -10e-4,0.003 -0.002,0.005 -0.004,0.007 l -2.213,3.839 h 4.061 c 0.502,0 0.911,-0.409 0.911,-0.913 0,-0.503 -0.409,-0.913 -0.911,-0.913 -0.539,0 -0.976,-0.438 -0.976,-0.977 0,-0.54 0.437,-0.977 0.976,-0.977 1.578,0 2.862,1.287 2.862,2.867 0,1.514 -1.181,2.744 -2.665,2.848 -0.064,0.013 -0.13,0.02 -0.197,0.02 h -5.672 c -0.539,0 -0.976,-0.438 -0.976,-0.977 0,-0.017 0.004,-0.033 0.005,-0.049 -0.016,-0.193 0.023,-0.393 0.126,-0.573 l 2.127,-3.69 h -11.314 l -1.93,3.35 h 1.14 c 0.539,0 0.975,0.437 0.975,0.977 0,0.539 -0.436,0.977 -0.975,0.977 h -5.66 c -0.539,0 -0.975,-0.438 -0.975,-0.977 0,-0.54 0.436,-0.977 0.975,-0.977 h 2.267 l 2.494,-4.327 -1.94,-3.365 c -1.247,0.568 -2.628,0.893 -4.085,0.893 -5.467,0 -9.916,-4.456 -9.916,-9.933 0,-5.477 4.449,-9.932 9.916,-9.932 5.138,0 9.375,3.935 9.867,8.955 h 4.434 0.001 v 0 c 0.002,0 0.002,0.001 0.003,0.001 0.077,0 0.151,0.012 0.223,0.028 0.009,0.002 0.019,0.003 0.027,0.006 0.014,0.004 0.026,0.011 0.04,0.016 0.055,0.017 0.108,0.039 0.159,0.066 0.011,0.006 0.023,0.008 0.035,0.014 0.002,0.002 0.004,0.004 0.006,0.004 0.008,0.005 0.014,0.011 0.022,0.015 0.029,0.019 0.056,0.039 0.083,0.061 0.024,0.018 0.047,0.037 0.069,0.057 0.009,0.009 0.02,0.017 0.03,0.027 0.01,0.011 0.018,0.023 0.028,0.035 0.002,0.002 0.004,0.005 0.006,0.007 0.021,0.024 0.042,0.047 0.06,0.073 0.018,0.025 0.033,0.053 0.048,0.08 0.002,0.004 0.005,0.007 0.007,0.011 0.005,0.009 0.013,0.016 0.018,0.025 l 5.597,10.821 1.332,-2.311 c -2.504,-1.805 -4.145,-4.74 -4.145,-8.059 0,-5.477 4.448,-9.933 9.916,-9.933 5.468,0 9.916,4.456 9.916,9.933 0,5.476 -4.447,9.932 -9.915,9.932" /></g></g></g></g></svg>