<?xml version="1.0" encoding="UTF-8" standalone="no"?>
<svg
   xmlns:dc="http://purl.org/dc/elements/1.1/"
   xmlns:cc="http://creativecommons.org/ns#"
   xmlns:rdf="http://www.w3.org/1999/02/22-rdf-syntax-ns#"
   xmlns:svg="http://www.w3.org/2000/svg"
   xmlns="http://www.w3.org/2000/svg"
   viewBox="0 0 74.417198 61.333332"
   height="61.333332"
   width="74.417198"
   xml:space="preserve"
   id="svg2"
   version="1.1"><metadata
     id="metadata8"><rdf:RDF><cc:Work
         rdf:about=""><dc:format>image/svg+xml</dc:format><dc:type
           rdf:resource="http://purl.org/dc/dcmitype/StillImage" /></cc:Work></rdf:RDF></metadata><defs
     id="defs6"><clipPath
       id="clipPath18"
       clipPathUnits="userSpaceOnUse"><path
         id="path16"
         d="M 0,46 H 55.813 V 0 H 0 Z" /></clipPath></defs><g
     transform="matrix(1.3333333,0,0,-1.3333333,0,61.333333)"
     id="g10"><g
       id="g12"><g
         clip-path="url(#clipPath18)"
         id="g14"><g
           transform="translate(37.3937,19.5176)"
           id="g20"><path
             id="path22"
             style="fill:#3e3736;fill-opacity:1;fill-rule:nonzero;stroke:none"
             d="m 0,0 c 1.472,-1.279 2.526,-2.91 3.134,-4.6 -2.662,-4.153 -7.311,-6.904 -12.621,-6.904 -0.793,0 -1.57,0.062 -2.329,0.18 C -6.201,-9.608 -1.84,-5.722 0,0 m -6.941,2.558 c 1.653,0 3.368,-0.365 4.947,-1.189 -1.811,-6.658 -7.119,-10.477 -14.277,-11.252 -1.907,0.973 -3.573,2.342 -4.899,3.999 2.294,-0.062 4.698,0.462 6.892,1.729 2.716,1.568 4.562,3.993 5.584,6.581 0.572,0.088 1.158,0.133 1.753,0.132 m -0.672,9.006 C -2.483,11.636 2.059,8.979 5.487,4.287 5.501,4.02 5.499,3.753 5.499,3.482 5.499,1.558 5.137,-0.28 4.479,-1.97 3.385,0.053 1.73,1.889 -0.469,3.158 -2.69,4.441 -5.137,4.965 -7.457,4.887 -7.988,4.87 -8.508,4.811 -9.019,4.731 c -1.345,1.699 -2.277,3.894 -2.377,6.293 1.291,0.34 2.553,0.523 3.783,0.54 m -4.143,6.737 c -1.205,-1.961 -1.957,-4.305 -1.957,-6.845 0,-3.156 1.159,-6.019 2.905,-8.202 -0.798,-2.01 -2.229,-3.915 -4.251,-5.199 -4.858,4.899 -5.517,11.412 -2.605,18 1.751,1.14 3.752,1.92 5.908,2.246 m 2.966,0.156 c 6.097,-0.279 11.231,-4.188 13.305,-9.619 -3.242,3.039 -7.188,4.845 -11.468,4.995 -1.388,0.049 -2.819,-0.074 -4.263,-0.384 0.374,1.913 1.266,3.639 2.426,5.008 m -0.697,2.317 c -9.26,0 -16.86,-7.302 -17.291,-16.463 -0.03,-0.637 0.462,-1.177 1.099,-1.207 0.636,-0.03 1.177,0.462 1.206,1.099 0.156,3.297 1.378,6.304 3.327,8.706 -1.321,-5.721 -0.136,-11.445 3.902,-15.899 -1.839,-0.635 -3.771,-0.726 -5.535,-0.408 -0.594,1.146 -1.05,2.38 -1.333,3.674 -0.164,0.618 -0.797,0.986 -1.414,0.822 -0.579,-0.154 -0.945,-0.724 -0.844,-1.314 1.702,-7.764 8.621,-13.594 16.883,-13.594 9.537,0 17.292,7.756 17.292,17.292 0,9.537 -7.755,17.292 -17.292,17.292" /></g></g></g></g></svg>