<?xml version="1.0" encoding="UTF-8" standalone="no"?>
<svg
   xmlns:dc="http://purl.org/dc/elements/1.1/"
   xmlns:cc="http://creativecommons.org/ns#"
   xmlns:rdf="http://www.w3.org/1999/02/22-rdf-syntax-ns#"
   xmlns:svg="http://www.w3.org/2000/svg"
   xmlns="http://www.w3.org/2000/svg"
   viewBox="0 0 33.752934 61.333332"
   height="61.333332"
   width="33.752934"
   xml:space="preserve"
   id="svg2"
   version="1.1"><metadata
     id="metadata8"><rdf:RDF><cc:Work
         rdf:about=""><dc:format>image/svg+xml</dc:format><dc:type
           rdf:resource="http://purl.org/dc/dcmitype/StillImage" /></cc:Work></rdf:RDF></metadata><defs
     id="defs6"><clipPath
       id="clipPath20"
       clipPathUnits="userSpaceOnUse"><path
         id="path18"
         d="M 0,46 H 25.315 V 0 H 0 Z" /></clipPath></defs><g
     transform="matrix(1.3333333,0,0,-1.3333333,0,61.333333)"
     id="g10"><path
       id="path12"
       style="fill:#f1fafb;fill-opacity:1;fill-rule:nonzero;stroke:none"
       d="M 0,0 H 25.314 V 46 H 0 Z" /><g
       id="g14"><g
         clip-path="url(#clipPath20)"
         id="g16"><g
           transform="translate(16.5157,22.2642)"
           id="g22"><path
             id="path24"
             style="fill:#3f4c49;fill-opacity:1;fill-rule:nonzero;stroke:none"
             d="m 0,0 -5.204,-5.205 c -0.203,-0.203 -0.47,-0.304 -0.736,-0.304 -0.267,0 -0.533,0.101 -0.736,0.304 -0.407,0.408 -0.407,1.066 0,1.472 l 4.468,4.469 -4.468,4.468 c -0.407,0.407 -0.407,1.065 0,1.472 0.407,0.407 1.065,0.407 1.472,0 L 0,1.472 C 0.407,1.065 0.407,0.407 0,0 m -3.858,13.226 c -6.888,0 -12.491,-5.603 -12.491,-12.49 0,-6.888 5.603,-12.49 12.491,-12.49 6.887,0 12.49,5.602 12.49,12.49 0,6.887 -5.603,12.49 -12.49,12.49" /></g></g></g></g></svg>