<?xml version="1.0" encoding="UTF-8" standalone="no"?>
<svg
   xmlns:dc="http://purl.org/dc/elements/1.1/"
   xmlns:cc="http://creativecommons.org/ns#"
   xmlns:rdf="http://www.w3.org/1999/02/22-rdf-syntax-ns#"
   xmlns:svg="http://www.w3.org/2000/svg"
   xmlns="http://www.w3.org/2000/svg"
   viewBox="0 0 73.333336 73.333336"
   height="73.333336"
   width="73.333336"
   xml:space="preserve"
   id="svg2"
   version="1.1"><metadata
     id="metadata8"><rdf:RDF><cc:Work
         rdf:about=""><dc:format>image/svg+xml</dc:format><dc:type
           rdf:resource="http://purl.org/dc/dcmitype/StillImage" /></cc:Work></rdf:RDF></metadata><defs
     id="defs6"><clipPath
       id="clipPath18"
       clipPathUnits="userSpaceOnUse"><path
         id="path16"
         d="M 0,55 H 55 V 0 H 0 Z" /></clipPath><clipPath
       id="clipPath26"
       clipPathUnits="userSpaceOnUse"><path
         id="path24"
         d="M 0.435913,54.5341 H 54.5937 V 0.376373 H 0.435913 Z" /></clipPath></defs><g
     transform="matrix(1.3333333,0,0,-1.3333333,0,73.333333)"
     id="g10"><g
       id="g12"><g
         clip-path="url(#clipPath18)"
         id="g14"><g
           id="g20"><g
             id="g22" /><g
             id="g34"><g
               style="opacity:0.89999402"
               id="g32"
               clip-path="url(#clipPath26)"><g
                 id="g30"
                 transform="translate(36.874,26.0195)"><path
                   id="path28"
                   style="fill:#ffffff;fill-opacity:1;fill-rule:nonzero;stroke:none"
                   d="m 0,0 -13.54,-8.462 c -0.273,-0.171 -0.585,-0.257 -0.897,-0.257 -0.282,0 -0.564,0.071 -0.82,0.212 -0.538,0.299 -0.872,0.865 -0.872,1.481 V 9.898 c 0,0.616 0.334,1.182 0.872,1.48 0.538,0.3 1.195,0.282 1.717,-0.045 L 0,2.871 C 0.494,2.561 0.795,2.019 0.795,1.436 0.795,0.853 0.494,0.311 0,0 m -9.359,28.515 c -14.955,0 -27.079,-12.124 -27.079,-27.079 0,-14.956 12.124,-27.08 27.079,-27.08 14.955,0 27.079,12.124 27.079,27.08 0,14.955 -12.124,27.079 -27.079,27.079" /></g></g></g></g></g></g></g></svg>