<?xml version="1.0" encoding="UTF-8" standalone="no"?>
<svg
   xmlns:dc="http://purl.org/dc/elements/1.1/"
   xmlns:cc="http://creativecommons.org/ns#"
   xmlns:rdf="http://www.w3.org/1999/02/22-rdf-syntax-ns#"
   xmlns:svg="http://www.w3.org/2000/svg"
   xmlns="http://www.w3.org/2000/svg"
   viewBox="0 0 82.666664 66.666664"
   height="66.666664"
   width="82.666664"
   xml:space="preserve"
   id="svg2"
   version="1.1"><metadata
     id="metadata8"><rdf:RDF><cc:Work
         rdf:about=""><dc:format>image/svg+xml</dc:format><dc:type
           rdf:resource="http://purl.org/dc/dcmitype/StillImage" /></cc:Work></rdf:RDF></metadata><defs
     id="defs6"><clipPath
       id="clipPath18"
       clipPathUnits="userSpaceOnUse"><path
         id="path16"
         d="M 0,50 H 62 V 0 H 0 Z" /></clipPath></defs><g
     transform="matrix(1.3333333,0,0,-1.3333333,0,66.666667)"
     id="g10"><g
       id="g12"><g
         clip-path="url(#clipPath18)"
         id="g14"><g
           transform="translate(30.9155,12.7939)"
           id="g20"><path
             id="path22"
             style="fill:#3e3736;fill-opacity:1;fill-rule:nonzero;stroke:none"
             d="M 0,0 C 1.54,0 2.788,-1.248 2.788,-2.788 2.788,-4.327 1.54,-5.575 0,-5.575 c -1.54,0 -2.788,1.248 -2.788,2.787 C -2.788,-1.248 -1.54,0 0,0" /></g><g
           transform="translate(52.1709,33.543)"
           id="g24"><path
             id="path26"
             style="fill:#3e3736;fill-opacity:1;fill-rule:nonzero;stroke:none"
             d="m 0,0 c -5.552,5.958 -13.07,9.238 -21.171,9.238 -8.1,0 -15.619,-3.28 -21.171,-9.238 -0.636,-0.683 -0.598,-1.751 0.084,-2.388 0.682,-0.635 1.752,-0.598 2.387,0.084 4.907,5.264 11.548,8.163 18.701,8.163 7.151,0 13.792,-2.899 18.698,-8.163 0.333,-0.357 0.785,-0.537 1.237,-0.537 0.413,0 0.826,0.15 1.151,0.453 C 0.599,-1.751 0.637,-0.683 0,0" /></g><g
           transform="translate(45.9678,26.5664)"
           id="g28"><path
             id="path30"
             style="fill:#3e3736;fill-opacity:1;fill-rule:nonzero;stroke:none"
             d="m 0,0 c -4.104,4.135 -9.42,6.413 -14.968,6.412 -5.55,0 -10.865,-2.277 -14.968,-6.412 -0.657,-0.663 -0.653,-1.732 0.009,-2.39 0.662,-0.657 1.732,-0.653 2.389,0.01 3.464,3.491 7.928,5.413 12.57,5.413 4.641,10e-4 9.105,-1.922 12.57,-5.413 0.33,-0.333 0.764,-0.5 1.199,-0.5 0.43,0 0.86,0.163 1.19,0.491 C 0.653,-1.732 0.657,-0.663 0,0" /></g><g
           transform="translate(39.2061,19.5693)"
           id="g32"><path
             id="path34"
             style="fill:#3e3736;fill-opacity:1;fill-rule:nonzero;stroke:none"
             d="m 0,0 c -2.197,2.178 -5.348,3.53 -8.222,3.53 h -0.001 -0.122 -10e-4 c -2.874,0 -6.025,-1.352 -8.223,-3.53 -0.662,-0.657 -0.668,-1.727 -0.011,-2.39 0.33,-0.333 0.765,-0.5 1.2,-0.5 0.43,0 0.86,0.163 1.189,0.49 1.565,1.549 3.859,2.551 5.845,2.551 h 10e-4 0.122 0.001 c 1.986,0 4.28,-1.002 5.844,-2.551 0.663,-0.658 1.732,-0.653 2.39,0.01 C 0.668,-1.727 0.663,-0.657 0,0" /></g></g></g></g></svg>