<?xml version="1.0" encoding="UTF-8" standalone="no"?>
<svg
   xmlns:dc="http://purl.org/dc/elements/1.1/"
   xmlns:cc="http://creativecommons.org/ns#"
   xmlns:rdf="http://www.w3.org/1999/02/22-rdf-syntax-ns#"
   xmlns:svg="http://www.w3.org/2000/svg"
   xmlns="http://www.w3.org/2000/svg"
   viewBox="0 0 26.666668 26.666668"
   height="26.666668"
   width="26.666668"
   xml:space="preserve"
   id="svg2"
   version="1.1"><metadata
     id="metadata8"><rdf:RDF><cc:Work
         rdf:about=""><dc:format>image/svg+xml</dc:format><dc:type
           rdf:resource="http://purl.org/dc/dcmitype/StillImage" /></cc:Work></rdf:RDF></metadata><defs
     id="defs6"><clipPath
       id="clipPath18"
       clipPathUnits="userSpaceOnUse"><path
         id="path16"
         d="M 0,20 H 20 V 0 H 0 Z" /></clipPath></defs><g
     transform="matrix(1.3333333,0,0,-1.3333333,0,26.666667)"
     id="g10"><g
       id="g12"><g
         clip-path="url(#clipPath18)"
         id="g14"><g
           transform="translate(13.9369,11.9985)"
           id="g20"><path
             id="path22"
             style="fill:#3e3736;fill-opacity:1;fill-rule:nonzero;stroke:none"
             d="M 0,0 C 0.334,0 0.605,-0.271 0.605,-0.605 0.605,-0.94 0.334,-1.211 0,-1.211 c -0.335,0 -0.606,0.271 -0.606,0.606 C -0.606,-0.271 -0.335,0 0,0" /></g><g
           transform="translate(15.3295,16.5405)"
           id="g24"><path
             id="path26"
             style="fill:#3e3736;fill-opacity:1;fill-rule:nonzero;stroke:none"
             d="m 0,0 h -0.787 v 0.605 c 0,0.335 -0.272,0.606 -0.606,0.606 -0.335,0 -0.606,-0.271 -0.606,-0.606 V 0 h -2.755 v 0.605 c 0,0.335 -0.271,0.606 -0.606,0.606 -0.334,0 -0.605,-0.271 -0.605,-0.606 V 0 H -8.69 v 0.605 c 0,0.335 -0.272,0.606 -0.606,0.606 -0.335,0 -0.606,-0.271 -0.606,-0.606 V 0 h -0.757 c -1.336,0 -2.423,-1.086 -2.423,-2.422 v -9.448 c 0,-1.336 1.087,-2.422 2.423,-2.422 h 4.633 c 0.335,0 0.606,0.271 0.606,0.605 0,0.335 -0.271,0.605 -0.606,0.605 h -4.633 c -0.668,0 -1.211,0.544 -1.211,1.212 v 9.448 c 0,0.668 0.543,1.211 1.211,1.211 h 0.757 v -0.606 c 0,-0.334 0.271,-0.605 0.606,-0.605 0.334,0 0.606,0.271 0.606,0.605 v 0.606 h 2.725 v -0.606 c 0,-0.334 0.271,-0.605 0.605,-0.605 0.335,0 0.606,0.271 0.606,0.605 v 0.606 h 2.755 v -0.606 c 0,-0.334 0.271,-0.605 0.606,-0.605 0.334,0 0.606,0.271 0.606,0.605 v 0.606 H 0 c 0.668,0 1.211,-0.543 1.211,-1.211 v -3.453 c 0,-0.334 0.271,-0.605 0.605,-0.605 0.335,0 0.607,0.271 0.607,0.605 v 3.453 C 2.423,-1.086 1.336,0 0,0" /></g><g
           transform="translate(14.0882,3.459)"
           id="g28"><path
             id="path30"
             style="fill:#3e3736;fill-opacity:1;fill-rule:nonzero;stroke:none"
             d="m 0,0 c -1.353,0 -2.453,1.101 -2.453,2.453 0,1.353 1.1,2.453 2.453,2.453 1.353,0 2.452,-1.1 2.452,-2.453 C 2.452,1.101 1.353,0 0,0 m 0,6.117 c -2.021,0 -3.665,-1.643 -3.665,-3.664 0,-2.02 1.644,-3.664 3.665,-3.664 2.02,0 3.664,1.644 3.664,3.664 C 3.664,4.474 2.02,6.117 0,6.117" /></g><g
           transform="translate(14.9662,6.5176)"
           id="g32"><path
             id="path34"
             style="fill:#3e3736;fill-opacity:1;fill-rule:nonzero;stroke:none"
             d="m 0,0 h -0.272 v 0.636 c 0,0.335 -0.272,0.605 -0.606,0.605 -0.335,0 -0.606,-0.27 -0.606,-0.605 v -1.241 c 0,-0.335 0.271,-0.606 0.606,-0.606 H 0 c 0.334,0 0.605,0.271 0.605,0.606 C 0.605,-0.271 0.334,0 0,0" /></g><g
           transform="translate(11.3021,11.9985)"
           id="g36"><path
             id="path38"
             style="fill:#3e3736;fill-opacity:1;fill-rule:nonzero;stroke:none"
             d="M 0,0 C 0.334,0 0.605,-0.271 0.605,-0.605 0.605,-0.94 0.334,-1.211 0,-1.211 c -0.334,0 -0.605,0.271 -0.605,0.606 C -0.605,-0.271 -0.334,0 0,0" /></g><g
           transform="translate(8.6678,9.3643)"
           id="g40"><path
             id="path42"
             style="fill:#3e3736;fill-opacity:1;fill-rule:nonzero;stroke:none"
             d="M 0,0 C 0.334,0 0.605,-0.271 0.605,-0.605 0.605,-0.94 0.334,-1.211 0,-1.211 c -0.334,0 -0.606,0.271 -0.606,0.606 C -0.606,-0.271 -0.334,0 0,0" /></g><g
           transform="translate(6.0331,11.9985)"
           id="g44"><path
             id="path46"
             style="fill:#3e3736;fill-opacity:1;fill-rule:nonzero;stroke:none"
             d="M 0,0 C 0.334,0 0.606,-0.271 0.606,-0.605 0.606,-0.94 0.334,-1.211 0,-1.211 c -0.334,0 -0.605,0.271 -0.605,0.606 C -0.605,-0.271 -0.334,0 0,0" /></g><g
           transform="translate(6.0331,9.3643)"
           id="g48"><path
             id="path50"
             style="fill:#3e3736;fill-opacity:1;fill-rule:nonzero;stroke:none"
             d="M 0,0 C 0.334,0 0.606,-0.271 0.606,-0.605 0.606,-0.94 0.334,-1.211 0,-1.211 c -0.334,0 -0.605,0.271 -0.605,0.606 C -0.605,-0.271 -0.334,0 0,0" /></g><g
           transform="translate(6.0331,6.7295)"
           id="g52"><path
             id="path54"
             style="fill:#3e3736;fill-opacity:1;fill-rule:nonzero;stroke:none"
             d="m 0,0 c 0.334,0 0.606,-0.271 0.606,-0.605 0,-0.334 -0.272,-0.606 -0.606,-0.606 -0.334,0 -0.605,0.272 -0.605,0.606 C -0.605,-0.271 -0.334,0 0,0" /></g><g
           transform="translate(8.6678,6.7295)"
           id="g56"><path
             id="path58"
             style="fill:#3e3736;fill-opacity:1;fill-rule:nonzero;stroke:none"
             d="m 0,0 c 0.334,0 0.605,-0.271 0.605,-0.605 0,-0.334 -0.271,-0.606 -0.605,-0.606 -0.334,0 -0.606,0.272 -0.606,0.606 C -0.606,-0.271 -0.334,0 0,0" /></g><g
           transform="translate(8.6678,11.9985)"
           id="g60"><path
             id="path62"
             style="fill:#3e3736;fill-opacity:1;fill-rule:nonzero;stroke:none"
             d="M 0,0 C 0.334,0 0.605,-0.271 0.605,-0.605 0.605,-0.94 0.334,-1.211 0,-1.211 c -0.334,0 -0.606,0.271 -0.606,0.606 C -0.606,-0.271 -0.334,0 0,0" /></g></g></g></g></svg>