<?xml version="1.0" encoding="UTF-8" standalone="no"?>
<svg
   xmlns:dc="http://purl.org/dc/elements/1.1/"
   xmlns:cc="http://creativecommons.org/ns#"
   xmlns:rdf="http://www.w3.org/1999/02/22-rdf-syntax-ns#"
   xmlns:svg="http://www.w3.org/2000/svg"
   xmlns="http://www.w3.org/2000/svg"
   viewBox="0 0 29.333332 21.441334"
   height="21.441334"
   width="29.333332"
   xml:space="preserve"
   id="svg2"
   version="1.1"><metadata
     id="metadata8"><rdf:RDF><cc:Work
         rdf:about=""><dc:format>image/svg+xml</dc:format><dc:type
           rdf:resource="http://purl.org/dc/dcmitype/StillImage" /></cc:Work></rdf:RDF></metadata><defs
     id="defs6"><clipPath
       id="clipPath18"
       clipPathUnits="userSpaceOnUse"><path
         id="path16"
         d="M 0,16.081 H 22 V 0 H 0 Z" /></clipPath></defs><g
     transform="matrix(1.3333333,0,0,-1.3333333,0,21.441333)"
     id="g10"><g
       id="g12"><g
         clip-path="url(#clipPath18)"
         id="g14"><g
           transform="translate(21.0105,14.1382)"
           id="g20"><path
             id="path22"
             style="fill:#3e3736;fill-opacity:1;fill-rule:nonzero;stroke:none"
             d="m 0,0 h -20.067 c -0.37,0 -0.669,0.299 -0.669,0.668 0,0.37 0.299,0.669 0.669,0.669 L 0,1.337 C 0.369,1.337 0.669,1.038 0.669,0.668 0.669,0.299 0.369,0 0,0" /></g><g
           transform="translate(0.7668,8.7866)"
           id="g24"><path
             id="path26"
             style="fill:#3e3736;fill-opacity:1;fill-rule:nonzero;stroke:none"
             d="m 0,0 h 14.773 c 0.272,0 0.492,-0.3 0.492,-0.669 0,-0.369 -0.22,-0.668 -0.492,-0.668 L 0,-1.337 c -0.272,0 -0.492,0.299 -0.492,0.668 C -0.492,-0.3 -0.272,0 0,0" /></g><g
           transform="translate(0.7668,2.0977)"
           id="g28"><path
             id="path30"
             style="fill:#3e3736;fill-opacity:1;fill-rule:nonzero;stroke:none"
             d="m 0,0 h 14.773 c 0.272,0 0.492,-0.3 0.492,-0.669 0,-0.369 -0.22,-0.669 -0.492,-0.669 H 0 c -0.272,0 -0.492,0.3 -0.492,0.669 C -0.493,-0.3 -0.272,0 0,0" /></g></g></g></g></svg>