<?xml version="1.0" encoding="UTF-8" standalone="no"?>
<svg
   xmlns:dc="http://purl.org/dc/elements/1.1/"
   xmlns:cc="http://creativecommons.org/ns#"
   xmlns:rdf="http://www.w3.org/1999/02/22-rdf-syntax-ns#"
   xmlns:svg="http://www.w3.org/2000/svg"
   xmlns="http://www.w3.org/2000/svg"
   viewBox="0 0 48.3456 42.666668"
   height="42.666668"
   width="48.3456"
   xml:space="preserve"
   id="svg2"
   version="1.1"><metadata
     id="metadata8"><rdf:RDF><cc:Work
         rdf:about=""><dc:format>image/svg+xml</dc:format><dc:type
           rdf:resource="http://purl.org/dc/dcmitype/StillImage" /></cc:Work></rdf:RDF></metadata><defs
     id="defs6"><clipPath
       id="clipPath18"
       clipPathUnits="userSpaceOnUse"><path
         id="path16"
         d="M 0,32 H 36.259 V 0 H 0 Z" /></clipPath></defs><g
     transform="matrix(1.3333333,0,0,-1.3333333,0,42.666667)"
     id="g10"><g
       id="g12"><g
         clip-path="url(#clipPath18)"
         id="g14"><g
           transform="translate(34.5547,19.7305)"
           id="g20"><path
             id="path22"
             style="fill:#3e3736;fill-opacity:1;fill-rule:nonzero;stroke:none"
             d="M 0,0 C -1.988,0 -2.979,1.187 -3.854,2.235 -4.647,3.187 -5.275,3.939 -6.572,3.939 -7.869,3.939 -8.497,3.188 -9.291,2.235 -10.165,1.187 -11.155,0 -13.145,0 c -1.987,0 -2.978,1.187 -3.851,2.235 -0.794,0.953 -1.421,1.704 -2.716,1.704 -1.297,0 -1.924,-0.751 -2.718,-1.704 C -23.304,1.187 -24.294,0 -26.282,0 c -1.989,0 -2.978,1.187 -3.852,2.235 -0.793,0.953 -1.42,1.704 -2.716,1.704 -0.408,0 -0.739,0.331 -0.739,0.739 0,0.408 0.331,0.739 0.739,0.739 1.988,0 2.977,-1.188 3.851,-2.236 0.794,-0.952 1.42,-1.704 2.717,-1.704 1.296,0 1.923,0.752 2.717,1.704 0.874,1.048 1.864,2.236 3.853,2.236 1.987,0 2.978,-1.188 3.851,-2.236 0.794,-0.952 1.421,-1.704 2.716,-1.704 1.297,0 1.925,0.752 2.719,1.704 0.874,1.048 1.865,2.236 3.854,2.236 1.989,0 2.979,-1.188 3.853,-2.236 C -1.925,2.229 -1.297,1.477 0,1.477 0.408,1.477 0.738,1.146 0.738,0.738 0.738,0.331 0.408,0 0,0" /></g><g
           transform="translate(34.5547,13.291)"
           id="g24"><path
             id="path26"
             style="fill:#3e3736;fill-opacity:1;fill-rule:nonzero;stroke:none"
             d="M 0,0 C -1.988,0 -2.979,1.188 -3.854,2.236 -4.647,3.188 -5.275,3.94 -6.572,3.94 -7.869,3.94 -8.497,3.188 -9.291,2.236 -10.165,1.188 -11.155,0 -13.145,0 c -1.987,0 -2.978,1.188 -3.851,2.236 -0.794,0.952 -1.421,1.704 -2.716,1.704 -0.409,0 -0.739,0.331 -0.739,0.739 0,0.407 0.33,0.738 0.739,0.738 1.987,0 2.978,-1.188 3.851,-2.235 0.794,-0.952 1.421,-1.704 2.716,-1.704 1.297,0 1.925,0.752 2.719,1.704 0.874,1.048 1.865,2.235 3.854,2.235 1.989,0 2.979,-1.187 3.853,-2.235 C -1.925,2.23 -1.297,1.478 0,1.478 0.408,1.478 0.738,1.147 0.738,0.739 0.738,0.331 0.408,0 0,0" /></g><g
           transform="translate(8.2725,13.291)"
           id="g28"><path
             id="path30"
             style="fill:#3e3736;fill-opacity:1;fill-rule:nonzero;stroke:none"
             d="m 0,0 c -1.988,0 -2.978,1.188 -3.852,2.236 -0.793,0.952 -1.42,1.704 -2.716,1.704 -0.408,0 -0.739,0.331 -0.739,0.739 0,0.407 0.331,0.738 0.739,0.738 1.988,0 2.978,-1.188 3.851,-2.235 C -1.923,2.23 -1.296,1.478 0,1.478 0.408,1.478 0.738,1.147 0.738,0.739 0.738,0.331 0.408,0 0,0" /></g><g
           transform="translate(34.5547,6.8525)"
           id="g32"><path
             id="path34"
             style="fill:#3e3736;fill-opacity:1;fill-rule:nonzero;stroke:none"
             d="m 0,0 c -1.988,0 -2.979,1.187 -3.854,2.235 -0.793,0.953 -1.421,1.704 -2.718,1.704 -0.408,0 -0.739,0.332 -0.739,0.74 0,0.408 0.331,0.738 0.739,0.738 1.989,0 2.979,-1.188 3.853,-2.235 C -1.925,2.229 -1.297,1.478 0,1.478 0.408,1.478 0.739,1.146 0.739,0.739 0.739,0.331 0.408,0 0,0" /></g><g
           transform="translate(21.4102,6.8525)"
           id="g36"><path
             id="path38"
             style="fill:#3e3736;fill-opacity:1;fill-rule:nonzero;stroke:none"
             d="m 0,0 c -1.988,0 -2.978,1.187 -3.852,2.235 -0.793,0.953 -1.42,1.704 -2.716,1.704 -1.297,0 -1.924,-0.751 -2.718,-1.704 C -10.159,1.187 -11.15,0 -13.138,0 c -1.988,0 -2.978,1.187 -3.851,2.235 -0.794,0.953 -1.421,1.704 -2.717,1.704 -0.408,0 -0.738,0.332 -0.738,0.74 0,0.408 0.33,0.738 0.738,0.738 1.988,0 2.978,-1.188 3.852,-2.235 0.793,-0.953 1.42,-1.704 2.716,-1.704 1.297,0 1.924,0.751 2.718,1.704 0.873,1.047 1.863,2.235 3.852,2.235 1.988,0 2.978,-1.188 3.851,-2.235 C -1.923,2.229 -1.296,1.478 0,1.478 0.408,1.478 0.738,1.146 0.738,0.739 0.738,0.331 0.408,0 0,0" /></g></g></g></g></svg>