<?xml version="1.0" encoding="UTF-8" standalone="no"?>
<svg
   xmlns:dc="http://purl.org/dc/elements/1.1/"
   xmlns:cc="http://creativecommons.org/ns#"
   xmlns:rdf="http://www.w3.org/1999/02/22-rdf-syntax-ns#"
   xmlns:svg="http://www.w3.org/2000/svg"
   xmlns="http://www.w3.org/2000/svg"
   viewBox="0 0 48.3456 42.666668"
   height="42.666668"
   width="48.3456"
   xml:space="preserve"
   id="svg2"
   version="1.1"><metadata
     id="metadata8"><rdf:RDF><cc:Work
         rdf:about=""><dc:format>image/svg+xml</dc:format><dc:type
           rdf:resource="http://purl.org/dc/dcmitype/StillImage" /></cc:Work></rdf:RDF></metadata><defs
     id="defs6"><clipPath
       id="clipPath18"
       clipPathUnits="userSpaceOnUse"><path
         id="path16"
         d="M 0,32 H 36.259 V 0 H 0 Z" /></clipPath></defs><g
     transform="matrix(1.3333333,0,0,-1.3333333,0,42.666667)"
     id="g10"><g
       id="g12"><g
         clip-path="url(#clipPath18)"
         id="g14"><g
           transform="translate(33.8955,2.3369)"
           id="g20"><path
             id="path22"
             style="fill:#3e3736;fill-opacity:1;fill-rule:nonzero;stroke:none"
             d="m 0,0 h -0.526 c -0.29,0 -0.526,-0.235 -0.526,-0.525 0,-0.291 0.236,-0.527 0.526,-0.527 H 0 c 0.29,0 0.525,0.236 0.525,0.527 C 0.525,-0.235 0.29,0 0,0" /></g><g
           transform="translate(29.9814,2.3369)"
           id="g24"><path
             id="path26"
             style="fill:#3e3736;fill-opacity:1;fill-rule:nonzero;stroke:none"
             d="m 0,0 -1.682,4.204 h 0.445 L 0.444,0 Z M -3.718,0 -2.426,3.232 -1.133,0 Z m -1.133,0 h -0.444 l 1.682,4.204 h 0.444 z m -0.145,5.255 c 0.257,2.775 2.455,4.974 5.231,5.231 V 6.306 C 0.234,5.726 -0.236,5.256 -0.816,5.255 Z M -13.864,0 c 0.223,0.629 0.819,1.05 1.487,1.051 h 1.051 C -10.658,1.05 -10.063,0.629 -9.84,0 Z m -2.192,7.883 h 8.409 V 7.357 h -8.409 z m -3.123,12.612 c 0.324,2.806 3.21,5.04 6.802,5.24 v -5.24 z m -1.056,0 h -4.696 c 0.283,1.267 1.574,2.503 3.638,3.456 1.198,0.553 2.587,0.987 4.1,1.291 -1.716,-1.149 -2.863,-2.84 -3.042,-4.747 m 7.858,6.832 h 1.051 v -0.526 h -1.051 z m 7.853,-6.832 h -6.802 v 5.24 c 3.591,-0.2 6.478,-2.434 6.802,-5.24 m 2.114,3.456 c 2.063,-0.953 3.354,-2.189 3.638,-3.456 h -4.697 c -0.178,1.907 -1.326,3.598 -3.042,4.747 1.513,-0.304 2.903,-0.738 4.101,-1.291 M -18.918,0 -20.6,4.204 h 0.444 L -18.475,0 Z m -3.719,0 1.293,3.232 L -20.051,0 Z m -1.132,0 h -0.444 l 1.681,4.204 h 0.445 z m -0.169,6.306 v 4.18 c 2.775,-0.257 4.974,-2.456 5.231,-5.231 h -4.181 c -0.58,0.001 -1.05,0.471 -1.05,1.051 M 1.812,0 H 1.576 l -1.725,4.312 c 0.856,0.289 1.433,1.09 1.435,1.994 v 4.729 c 0,0.291 -0.235,0.526 -0.525,0.526 -3.772,-0.004 -6.828,-3.06 -6.832,-6.832 0,-0.29 0.235,-0.525 0.525,-0.525 h 0.801 L -6.427,0 h -2.324 c -0.251,1.223 -1.327,2.101 -2.575,2.102 v 4.204 h 4.204 c 0.29,0 0.525,0.235 0.525,0.525 v 1.577 c 0,0.29 -0.235,0.526 -0.525,0.526 h -4.204 v 10.51 H 1.812 c 0.29,-10e-4 0.525,0.234 0.525,0.524 v 0.001 c 0,1.901 -1.529,3.655 -4.307,4.937 -2.271,1.048 -5.176,1.691 -8.305,1.854 v 1.092 c 0,0.29 -0.236,0.525 -0.526,0.525 h -2.102 c -0.29,0 -0.525,-0.235 -0.525,-0.525 V 26.76 c -3.131,-0.163 -6.034,-0.806 -8.305,-1.854 -2.778,-1.282 -4.308,-3.036 -4.308,-4.937 0,-0.29 0.234,-0.525 0.524,-0.525 h 0.002 13.138 V 8.934 h -4.205 c -0.29,0 -0.525,-0.236 -0.525,-0.526 V 6.831 c 0,-0.29 0.235,-0.525 0.525,-0.525 h 4.205 V 2.102 C -13.625,2.101 -14.701,1.223 -14.952,0 h -2.39 l -1.682,4.204 h 0.866 c 0.29,0 0.526,0.235 0.526,0.525 -0.005,3.772 -3.061,6.828 -6.832,6.832 -0.29,0 -0.526,-0.235 -0.526,-0.526 V 6.306 c 10e-4,-0.881 0.551,-1.669 1.378,-1.973 L -25.346,0 h -2.271 c -0.29,0 -0.526,-0.235 -0.526,-0.525 0,-0.291 0.236,-0.527 0.526,-0.527 H 1.812 c 0.29,0 0.525,0.236 0.525,0.527 C 2.337,-0.235 2.102,0 1.812,0" /></g></g></g></g></svg>