<?xml version="1.0" encoding="UTF-8" standalone="no"?>
<svg
   xmlns:dc="http://purl.org/dc/elements/1.1/"
   xmlns:cc="http://creativecommons.org/ns#"
   xmlns:rdf="http://www.w3.org/1999/02/22-rdf-syntax-ns#"
   xmlns:svg="http://www.w3.org/2000/svg"
   xmlns="http://www.w3.org/2000/svg"
   viewBox="0 0 83.728935 73.333336"
   height="73.333336"
   width="83.728935"
   xml:space="preserve"
   id="svg2"
   version="1.1"><metadata
     id="metadata8"><rdf:RDF><cc:Work
         rdf:about=""><dc:format>image/svg+xml</dc:format><dc:type
           rdf:resource="http://purl.org/dc/dcmitype/StillImage" /></cc:Work></rdf:RDF></metadata><defs
     id="defs6"><clipPath
       id="clipPath18"
       clipPathUnits="userSpaceOnUse"><path
         id="path16"
         d="M 0,55 H 62.797 V 0 H 0 Z" /></clipPath></defs><g
     transform="matrix(1.3333333,0,0,-1.3333333,0,73.333333)"
     id="g10"><g
       id="g12"><g
         clip-path="url(#clipPath18)"
         id="g14"><g
           transform="translate(35.0449,14.165)"
           id="g20"><path
             id="path22"
             style="fill:#3e3736;fill-opacity:1;fill-rule:nonzero;stroke:none"
             d="m 0,0 h -7.421 c -0.422,0 -0.765,0.343 -0.765,0.765 0,0.422 0.343,0.764 0.765,0.764 H 0 C 0.422,1.529 0.765,1.187 0.765,0.765 0.765,0.343 0.422,0 0,0 m 0,-3.245 h -7.421 c -0.422,0 -0.765,0.343 -0.765,0.765 0,0.422 0.343,0.764 0.765,0.764 H 0 c 0.422,0 0.765,-0.342 0.765,-0.764 0,-0.422 -0.343,-0.765 -0.765,-0.765" /></g><g
           transform="translate(30.1772,19.4042)"
           id="g24"><path
             id="path26"
             style="fill:#3e3736;fill-opacity:1;fill-rule:nonzero;stroke:none"
             d="m 0,0 h 2.314 v 1.359 c 0,0.423 0.343,0.765 0.765,0.765 H 4.438 V 4.438 H 3.079 c -0.422,0 -0.765,0.343 -0.765,0.765 V 6.565 H 0 V 5.203 C 0,4.781 -0.342,4.438 -0.765,4.438 H -2.126 V 2.124 h 1.361 C -0.342,2.124 0,1.782 0,1.359 Z m 2.579,-1.528 h -2.844 c -0.697,0 -1.264,0.566 -1.264,1.263 v 0.861 h -0.862 c -0.697,0 -1.265,0.566 -1.265,1.263 v 2.844 c 0,0.697 0.568,1.265 1.265,1.265 h 0.862 V 6.83 c 0,0.697 0.567,1.265 1.264,1.265 h 2.844 c 0.697,0 1.264,-0.568 1.264,-1.265 V 5.968 h 0.86 C 5.4,5.968 5.967,5.4 5.967,4.703 V 1.859 C 5.967,1.163 5.4,0.596 4.703,0.596 h -0.86 v -0.861 c 0,-0.696 -0.567,-1.263 -1.264,-1.263" /></g><g
           transform="translate(40.084,3.2489)"
           id="g28"><path
             id="path30"
             style="fill:#3e3736;fill-opacity:1;fill-rule:nonzero;stroke:none"
             d="m 0,0 h -17.396 c -1.106,0 -2.006,0.899 -2.006,2.006 v 2.111 h 8.901 c 0.422,0 0.765,0.342 0.765,0.765 0,0.422 -0.343,0.764 -0.765,0.764 h -8.901 v 21.265 h 8.901 c 0.422,0 0.765,0.342 0.765,0.764 0,0.423 -0.343,0.765 -0.765,0.765 h -8.856 c 0.38,3.375 3.252,6.007 6.727,6.007 h 7.862 c 3.477,0 6.349,-2.632 6.73,-6.007 h -8.935 c -0.422,0 -0.764,-0.342 -0.764,-0.765 0,-0.422 0.342,-0.764 0.764,-0.764 h 8.98 V 5.646 h -8.98 c -0.422,0 -0.764,-0.342 -0.764,-0.764 0,-0.423 0.342,-0.765 0.764,-0.765 h 8.98 V 2.006 C 2.007,0.899 1.106,0 0,0 m -5.772,35.976 h -6.093 v 1.494 h 6.093 z m -7.53,10.125 h 1.502 v -0.66 c 0,-1.209 0.982,-2.192 2.189,-2.192 h 1.584 c 1.209,0 2.192,0.983 2.192,2.192 v 0.66 h 1.499 V 39.67 c 0,-0.37 -0.301,-0.671 -0.672,-0.671 h -7.622 c -0.364,0 -0.672,0.307 -0.672,0.671 z m 5.938,0 v -0.66 c 0,-0.359 -0.304,-0.663 -0.663,-0.663 h -1.584 c -0.364,0 -0.66,0.298 -0.66,0.663 v 0.66 z m -5.938,2.363 c 0,0.37 0.302,0.671 0.672,0.671 h 7.622 c 0.37,0 0.672,-0.301 0.672,-0.671 V 47.63 h -2.264 -4.435 -2.267 z m 9.059,-12.506 v 1.651 c 0.837,0.312 1.436,1.117 1.436,2.061 v 8.794 c 0,1.213 -0.987,2.201 -2.201,2.201 h -7.622 c -1.214,0 -2.201,-0.988 -2.201,-2.201 V 39.67 c 0,-0.944 0.599,-1.749 1.436,-2.061 v -1.67 c -4.22,-0.387 -7.536,-3.944 -7.536,-8.264 V 2.007 c 0,-1.95 1.586,-3.536 3.536,-3.536 H 0 c 1.95,0 3.536,1.586 3.536,3.536 v 25.668 c 0,4.401 -3.444,8.011 -7.779,8.283" /></g></g></g></g></svg>