<?xml version="1.0" encoding="UTF-8" standalone="no"?>
<svg
   xmlns:dc="http://purl.org/dc/elements/1.1/"
   xmlns:cc="http://creativecommons.org/ns#"
   xmlns:rdf="http://www.w3.org/1999/02/22-rdf-syntax-ns#"
   xmlns:svg="http://www.w3.org/2000/svg"
   xmlns="http://www.w3.org/2000/svg"
   viewBox="0 0 83.728935 73.333336"
   height="73.333336"
   width="83.728935"
   xml:space="preserve"
   id="svg2"
   version="1.1"><metadata
     id="metadata8"><rdf:RDF><cc:Work
         rdf:about=""><dc:format>image/svg+xml</dc:format><dc:type
           rdf:resource="http://purl.org/dc/dcmitype/StillImage" /></cc:Work></rdf:RDF></metadata><defs
     id="defs6"><clipPath
       id="clipPath18"
       clipPathUnits="userSpaceOnUse"><path
         id="path16"
         d="M 0,55 H 62.797 V 0 H 0 Z" /></clipPath></defs><g
     transform="matrix(1.3333333,0,0,-1.3333333,0,73.333333)"
     id="g10"><g
       id="g12"><g
         clip-path="url(#clipPath18)"
         id="g14"><g
           transform="translate(38.8906,17.9697)"
           id="g20"><path
             id="path22"
             style="fill:#3e3736;fill-opacity:1;fill-rule:nonzero;stroke:none"
             d="m 0,0 c -0.351,-0.129 -0.626,-0.404 -0.756,-0.755 l -0.462,-1.256 -0.463,1.256 C -1.811,-0.404 -2.085,-0.129 -2.436,0 l -1.256,0.463 1.255,0.463 c 0.352,0.129 0.626,0.404 0.756,0.755 l 0.463,1.256 0.462,-1.256 C -0.626,1.33 -0.351,1.055 0,0.926 L 1.256,0.463 Z M 2.434,1.658 0.639,2.319 -0.022,4.114 c -0.187,0.506 -0.657,0.834 -1.196,0.834 -0.54,0 -1.01,-0.328 -1.196,-0.834 L -3.075,2.319 -4.87,1.658 C -5.376,1.472 -5.703,1.002 -5.703,0.463 c 0,-0.54 0.327,-1.01 0.834,-1.196 l 1.794,-0.662 0.661,-1.793 c 0.186,-0.507 0.656,-0.834 1.196,-0.834 0.539,0 1.009,0.327 1.196,0.834 l 0.661,1.793 1.795,0.662 c 0.506,0.186 0.834,0.656 0.834,1.196 0,0.539 -0.328,1.009 -0.834,1.195 m -3.652,-7.773 c -3.627,0 -6.577,2.951 -6.577,6.578 0,3.627 2.95,6.577 6.577,6.577 3.627,0 6.577,-2.95 6.577,-6.577 0,-3.627 -2.95,-6.578 -6.577,-6.578 m 0,14.684 c -4.47,0 -8.107,-3.636 -8.107,-8.106 0,-4.47 3.637,-8.107 8.107,-8.107 4.47,0 8.107,3.637 8.107,8.107 0,4.47 -3.637,8.106 -8.107,8.106 M 8.414,29.422 C 6.869,29.201 5.531,28.236 4.834,26.841 L 4.451,26.075 H -7.812 c -0.445,0 -0.808,0.362 -0.808,0.808 0,1.288 -1.048,2.337 -2.337,2.337 h -3.952 v 3.145 H 8.226 c 0.732,0 1.328,-0.596 1.328,-1.328 0,-0.742 -0.342,-1.501 -1.14,-1.615 M 5.204,17.43 c 0,-0.14 -0.114,-0.255 -0.255,-0.255 H -7.385 c -0.141,0 -0.255,0.115 -0.255,0.255 v 2.549 c 0,0.14 0.114,0.255 0.255,0.255 h 2.62 c 0.423,0 0.765,0.342 0.765,0.764 0,0.422 -0.342,0.765 -0.765,0.765 h -1.83 v 2.783 H 4.159 v -2.783 h -5.865 c -0.423,0 -0.765,-0.343 -0.765,-0.765 0,-0.422 0.342,-0.764 0.765,-0.764 h 6.655 c 0.141,0 0.255,-0.115 0.255,-0.255 z m -17.862,2.806 c -0.433,-0.593 -0.91,-1.161 -1.418,-1.688 -0.438,-0.454 -1.179,0.133 -0.877,0.664 0.482,0.847 0.913,1.727 1.283,2.618 0.773,1.869 1.298,3.837 1.567,5.86 h 1.146 c 0.446,0 0.809,-0.362 0.809,-0.807 0,-0.316 0.063,-0.616 0.176,-0.891 -0.535,-2.111 -1.437,-4.047 -2.686,-5.756 m -3.78,7.709 c 0,-0.14 -0.114,-0.254 -0.255,-0.254 h -1.019 c -0.141,0 -0.255,0.114 -0.255,0.254 v 5.694 c 0,0.14 0.114,0.255 0.255,0.255 h 1.019 c 0.141,0 0.255,-0.115 0.255,-0.255 z m 24.664,5.949 h -23.155 c -0.124,0.863 -0.867,1.529 -1.763,1.529 h -1.02 c -0.984,0 -1.784,-0.8 -1.784,-1.784 v -5.694 c 0,-0.983 0.8,-1.783 1.784,-1.783 h 1.02 c 0.896,0 1.639,0.666 1.763,1.529 h 1.283 c -0.258,-1.821 -0.741,-3.592 -1.437,-5.275 -0.345,-0.833 -0.748,-1.655 -1.199,-2.447 -0.279,-0.49 -0.348,-1.057 -0.195,-1.598 0.251,-0.888 1.093,-1.516 2.01,-1.516 0.55,0 1.093,0.218 1.492,0.632 0.556,0.576 1.078,1.198 1.552,1.847 1.189,1.628 2.09,3.441 2.688,5.402 0.192,-0.082 0.397,-0.14 0.611,-0.169 V 21.601 C -8.74,21.319 -9.169,20.699 -9.169,19.979 V 17.43 c 0,-0.584 0.283,-1.101 0.718,-1.427 -2.674,-2.707 -4.184,-6.349 -4.184,-10.201 v -17.21 c 0,-2.67 2.172,-4.842 4.842,-4.842 h 13.15 c 2.67,0 4.842,2.172 4.842,4.842 v 6.147 c 0,0.422 -0.342,0.765 -0.764,0.765 -0.422,0 -0.765,-0.343 -0.765,-0.765 v -6.147 c 0,-1.826 -1.485,-3.313 -3.313,-3.313 h -13.15 c -1.827,0 -3.313,1.487 -3.313,3.313 v 17.21 c 0,3.799 1.641,7.371 4.511,9.844 H 4.159 C 7.029,13.173 8.67,9.601 8.67,5.802 v -8.005 c 0,-0.422 0.343,-0.765 0.765,-0.765 0.422,0 0.764,0.343 0.764,0.765 v 8.005 c 0,3.852 -1.51,7.494 -4.184,10.201 0.435,0.326 0.718,0.843 0.718,1.427 v 2.549 c 0,0.72 -0.429,1.34 -1.045,1.622 v 3.529 l 0.514,1.027 c 0.473,0.947 1.381,1.601 2.429,1.751 1.476,0.212 2.452,1.611 2.452,3.129 0,1.575 -1.282,2.857 -2.857,2.857 M -23.983,27.702 -25.72,26.66 c -0.362,-0.217 -0.479,-0.687 -0.262,-1.049 0.219,-0.366 0.692,-0.477 1.049,-0.262 l 1.737,1.041 c 0.362,0.217 0.479,0.687 0.262,1.049 -0.217,0.362 -0.687,0.48 -1.049,0.263 m 0.393,3.654 h -1.736 c -0.423,0 -0.765,-0.342 -0.765,-0.764 0,-0.423 0.342,-0.765 0.765,-0.765 h 1.736 c 0.423,0 0.765,0.342 0.765,0.765 0,0.422 -0.342,0.764 -0.765,0.764 m -2.13,3.167 1.737,-1.041 c 0.356,-0.214 0.83,-0.104 1.049,0.263 0.217,0.361 0.1,0.831 -0.263,1.048 l -1.736,1.042 c -0.362,0.217 -0.832,0.1 -1.049,-0.263 -0.217,-0.362 -0.1,-0.831 0.262,-1.049" /></g></g></g></g></svg>