<?xml version="1.0" encoding="UTF-8" standalone="no"?>
<svg
   xmlns:dc="http://purl.org/dc/elements/1.1/"
   xmlns:cc="http://creativecommons.org/ns#"
   xmlns:rdf="http://www.w3.org/1999/02/22-rdf-syntax-ns#"
   xmlns:svg="http://www.w3.org/2000/svg"
   xmlns="http://www.w3.org/2000/svg"
   viewBox="0 0 83.728935 73.333336"
   height="73.333336"
   width="83.728935"
   xml:space="preserve"
   id="svg2"
   version="1.1"><metadata
     id="metadata8"><rdf:RDF><cc:Work
         rdf:about=""><dc:format>image/svg+xml</dc:format><dc:type
           rdf:resource="http://purl.org/dc/dcmitype/StillImage" /></cc:Work></rdf:RDF></metadata><defs
     id="defs6"><clipPath
       id="clipPath18"
       clipPathUnits="userSpaceOnUse"><path
         id="path16"
         d="M 0,55 H 62.797 V 0 H 0 Z" /></clipPath></defs><g
     transform="matrix(1.3333333,0,0,-1.3333333,0,73.333333)"
     id="g10"><g
       id="g12"><g
         clip-path="url(#clipPath18)"
         id="g14"><g
           transform="translate(24.3403,6.8739)"
           id="g20"><path
             id="path22"
             style="fill:#3e3736;fill-opacity:1;fill-rule:nonzero;stroke:none"
             d="m 0,0 c -4.751,2.743 -6.379,8.819 -3.636,13.57 0.872,1.511 2.126,2.765 3.636,3.637 0.279,0.161 0.45,0.459 0.449,0.78 v 20.704 c 0,2.496 2.023,4.518 4.518,4.518 2.496,0 4.519,-2.022 4.519,-4.518 V 17.987 C 9.485,17.666 9.656,17.368 9.935,17.207 14.686,14.464 16.314,8.388 13.571,3.637 10.828,-1.115 4.751,-2.743 0,0 m 11.245,18.481 v 20.21 c 0,3.487 -2.827,6.313 -6.313,6.313 -3.487,0 -6.314,-2.826 -6.314,-6.313 V 18.49 C -6.839,15.009 -8.44,7.763 -4.958,2.306 -2.81,-1.062 0.906,-3.104 4.9,-3.11 l 0.063,-0.009 c 6.473,0.012 11.71,5.268 11.699,11.742 -0.008,3.994 -2.05,7.71 -5.417,9.858" /></g><g
           transform="translate(29.3032,11.3915)"
           id="g24"><path
             id="path26"
             style="fill:#3e3736;fill-opacity:1;fill-rule:nonzero;stroke:none"
             d="M 0,0 C -2.434,0 -4.406,1.973 -4.406,4.406 -4.401,6.838 -2.432,8.808 0,8.813 2.434,8.813 4.407,6.84 4.407,4.406 4.407,1.973 2.434,0 0,0 m 0.897,10.535 v 13.614 c 0,0.496 -0.401,0.898 -0.897,0.898 -0.496,0 -0.897,-0.402 -0.897,-0.898 V 10.535 C -4.288,10.05 -6.642,6.907 -6.155,3.517 -5.717,0.457 -3.091,-1.812 0,-1.804 3.425,-1.813 6.208,0.955 6.218,4.38 6.227,7.472 3.958,10.097 0.897,10.535" /></g><g
           transform="translate(43.1416,41.2216)"
           id="g28"><path
             id="path30"
             style="fill:#3e3736;fill-opacity:1;fill-rule:nonzero;stroke:none"
             d="m 0,0 h -3.294 c -0.495,0 -0.897,-0.402 -0.897,-0.897 0,-0.496 0.402,-0.898 0.897,-0.898 H 0 c 0.495,0 0.897,0.402 0.897,0.898 C 0.897,-0.402 0.495,0 0,0" /></g><g
           transform="translate(44.335,36.7343)"
           id="g32"><path
             id="path34"
             style="fill:#3e3736;fill-opacity:1;fill-rule:nonzero;stroke:none"
             d="m 0,0 h -5.608 c -0.496,0 -0.898,-0.401 -0.898,-0.897 0,-0.496 0.402,-0.897 0.898,-0.897 H 0 c 0.496,0 0.897,0.401 0.897,0.897 C 0.897,-0.401 0.496,0 0,0" /></g><g
           transform="translate(43.1416,32.2475)"
           id="g36"><path
             id="path38"
             style="fill:#3e3736;fill-opacity:1;fill-rule:nonzero;stroke:none"
             d="m 0,0 h -3.294 c -0.495,0 -0.897,-0.402 -0.897,-0.897 0,-0.496 0.402,-0.898 0.897,-0.898 H 0 c 0.495,0 0.897,0.402 0.897,0.898 C 0.897,-0.402 0.495,0 0,0" /></g><g
           transform="translate(44.335,27.7602)"
           id="g40"><path
             id="path42"
             style="fill:#3e3736;fill-opacity:1;fill-rule:nonzero;stroke:none"
             d="m 0,0 h -5.608 c -0.496,0 -0.898,-0.402 -0.898,-0.897 0,-0.496 0.402,-0.897 0.898,-0.897 H 0 c 0.496,0 0.897,0.401 0.897,0.897 C 0.897,-0.402 0.496,0 0,0" /></g></g></g></g></svg>