<?xml version="1.0" encoding="UTF-8" standalone="no"?>
<svg
   xmlns:dc="http://purl.org/dc/elements/1.1/"
   xmlns:cc="http://creativecommons.org/ns#"
   xmlns:rdf="http://www.w3.org/1999/02/22-rdf-syntax-ns#"
   xmlns:svg="http://www.w3.org/2000/svg"
   xmlns="http://www.w3.org/2000/svg"
   viewBox="0 0 83.728935 73.333336"
   height="73.333336"
   width="83.728935"
   xml:space="preserve"
   id="svg2"
   version="1.1"><metadata
     id="metadata8"><rdf:RDF><cc:Work
         rdf:about=""><dc:format>image/svg+xml</dc:format><dc:type
           rdf:resource="http://purl.org/dc/dcmitype/StillImage" /></cc:Work></rdf:RDF></metadata><defs
     id="defs6"><clipPath
       id="clipPath18"
       clipPathUnits="userSpaceOnUse"><path
         id="path16"
         d="M 0,55 H 62.797 V 0 H 0 Z" /></clipPath></defs><g
     transform="matrix(1.3333333,0,0,-1.3333333,0,73.333333)"
     id="g10"><g
       id="g12"><g
         clip-path="url(#clipPath18)"
         id="g14"><g
           transform="translate(19.7358,20.5986)"
           id="g20"><path
             id="path22"
             style="fill:#3e3736;fill-opacity:1;fill-rule:nonzero;stroke:none"
             d="m 0,0 c -0.319,-0.369 -0.278,-0.927 0.091,-1.245 1.676,-1.446 5.96,-4.446 11.956,-4.339 5.802,0.105 9.848,3.069 11.319,4.339 0.369,0.319 0.409,0.876 0.091,1.245 -0.319,0.368 -0.876,0.409 -1.246,0.091 -1.324,-1.145 -4.97,-3.817 -10.196,-3.91 C 6.496,-3.922 2.645,-1.117 1.245,0.091 0.875,0.409 0.318,0.368 0,0 m 25.19,15.436 c 0.179,0.454 -0.045,0.966 -0.498,1.144 l -9.25,3.638 c -2.153,0.847 -4.533,0.867 -6.701,0.056 l -9.963,-3.726 c -0.456,-0.17 -0.688,-0.679 -0.517,-1.135 0.133,-0.355 0.469,-0.574 0.826,-0.574 0.103,0 0.208,0.018 0.309,0.057 l 9.963,3.725 c 1.759,0.658 3.69,0.642 5.437,-0.045 l 9.25,-3.638 c 0.454,-0.179 0.966,0.044 1.144,0.498 M 18.323,4.66 C 17.49,3.939 15.196,2.259 11.909,2.2 8.441,2.136 6.014,3.899 5.133,4.66 4.764,4.979 4.207,4.937 3.889,4.568 3.57,4.2 3.611,3.643 3.98,3.324 5.087,2.368 7.954,0.364 11.94,0.436 c 3.864,0.069 6.558,2.043 7.537,2.888 0.368,0.319 0.409,0.876 0.091,1.245 -0.318,0.368 -0.876,0.41 -1.245,0.091 M -8.917,3.842 c -0.505,0.22 -1.001,0.476 -1.448,0.751 -4.311,2.655 -6.409,8.92 -6.255,13.737 0.078,2.428 0.732,3.843 1.345,4.168 1.049,0.556 3.689,-1.065 6.366,-3.88 -0.011,-0.084 -0.018,-0.169 -0.018,-0.255 0,-0.315 -0.002,-14.226 0.01,-14.521 m 50.602,14.546 c -0.127,3.947 -1.484,5.246 -2.282,5.67 -2.466,1.307 -6.157,-1.873 -8.118,-3.86 -0.067,0.034 -0.135,0.068 -0.207,0.095 l -16.23,6.383 c -1.686,0.663 -3.55,0.679 -5.247,0.044 L 4.898,24.961 C 4.441,24.791 4.209,24.282 4.38,23.826 4.551,23.369 5.06,23.137 5.516,23.308 l 4.703,1.759 c 1.289,0.482 2.703,0.47 3.984,-0.033 l 16.229,-6.383 c 0.113,-0.045 0.187,-0.152 0.187,-0.274 v -4.663 c 0,-0.487 0.394,-0.882 0.881,-0.882 0.488,0 0.883,0.395 0.883,0.882 v 4.663 c 0,0.13 -0.013,0.258 -0.036,0.382 2.629,2.72 5.208,4.281 6.229,3.739 0.613,-0.325 1.267,-1.74 1.345,-4.167 C 40.077,13.514 37.978,7.249 33.667,4.594 33.268,4.349 32.827,4.116 32.375,3.911 c 0.011,0.261 0.008,5.401 0.008,5.685 0,0.487 -0.395,0.882 -0.883,0.882 -0.487,0 -0.881,-0.395 -0.881,-0.882 V 4.205 c 0,-1.934 -0.845,-3.797 -2.324,-5.072 l -8.066,-6.958 c -2.362,-2.037 -5.381,-3.159 -8.501,-3.159 -3.12,0 -6.139,1.122 -8.501,3.159 l -8.066,6.958 c -1.483,1.278 -2.323,3.134 -2.323,5.072 v 14.158 c 0,0.044 0.01,0.086 0.028,0.124 0.002,0.004 0.004,0.008 0.006,0.012 0.033,0.063 0.088,0.113 0.157,0.139 l 8.624,3.225 C 2.109,22.034 2.341,22.542 2.17,22.999 2,23.456 1.492,23.687 1.035,23.517 l -8.624,-3.226 c -0.117,-0.043 -0.226,-0.098 -0.331,-0.16 -0.783,0.795 -2,1.939 -3.316,2.836 -2.01,1.369 -3.647,1.736 -4.866,1.09 -0.798,-0.423 -2.155,-1.723 -2.282,-5.671 -0.18,-5.592 2.357,-12.381 7.093,-15.296 0.821,-0.505 1.786,-0.955 2.709,-1.271 0.455,-1.546 1.343,-2.947 2.59,-4.022 l 8.066,-6.958 c 2.683,-2.315 6.111,-3.589 9.654,-3.589 3.543,0 6.972,1.274 9.654,3.589 l 8.066,6.958 c 1.262,1.089 2.16,2.513 2.608,4.082 0.868,0.311 1.77,0.74 2.535,1.212 4.701,2.889 7.274,9.717 7.094,15.297 M 22.888,10.523 c 0.179,0.454 -0.045,0.966 -0.498,1.144 l -7.565,2.976 c -1.799,0.707 -3.786,0.723 -5.596,0.046 L 1.08,11.642 C 0.624,11.471 0.392,10.963 0.563,10.506 0.695,10.152 1.032,9.933 1.39,9.933 c 0.102,0 0.207,0.018 0.309,0.056 l 8.148,3.048 c 1.401,0.524 2.939,0.51 4.331,-0.037 l 7.566,-2.976 c 0.454,-0.178 0.965,0.045 1.144,0.499" /></g></g></g></g></svg>