<?xml version="1.0" encoding="UTF-8" standalone="no"?>
<svg
   xmlns:dc="http://purl.org/dc/elements/1.1/"
   xmlns:cc="http://creativecommons.org/ns#"
   xmlns:rdf="http://www.w3.org/1999/02/22-rdf-syntax-ns#"
   xmlns:svg="http://www.w3.org/2000/svg"
   xmlns="http://www.w3.org/2000/svg"
   viewBox="0 0 48.3456 42.666668"
   height="42.666668"
   width="48.3456"
   xml:space="preserve"
   id="svg2"
   version="1.1"><metadata
     id="metadata8"><rdf:RDF><cc:Work
         rdf:about=""><dc:format>image/svg+xml</dc:format><dc:type
           rdf:resource="http://purl.org/dc/dcmitype/StillImage" /></cc:Work></rdf:RDF></metadata><defs
     id="defs6"><clipPath
       id="clipPath18"
       clipPathUnits="userSpaceOnUse"><path
         id="path16"
         d="M 0,32 H 36.259 V 0 H 0 Z" /></clipPath></defs><g
     transform="matrix(1.3333333,0,0,-1.3333333,0,42.666667)"
     id="g10"><g
       id="g12"><g
         clip-path="url(#clipPath18)"
         id="g14"><g
           transform="translate(33.2803,8.9707)"
           id="g20"><path
             id="path22"
             style="fill:#3e3736;fill-opacity:1;fill-rule:nonzero;stroke:none"
             d="m 0,0 h -25.685 c -0.354,0 -0.642,-0.288 -0.642,-0.643 0,-0.354 0.288,-0.641 0.642,-0.641 H 0 v -1.798 h -1.268 c -0.005,0 -0.01,10e-4 -0.015,10e-4 h -3.468 c -0.006,0 -0.011,-10e-4 -0.016,-10e-4 h -20.768 c -0.005,0 -0.01,10e-4 -0.015,10e-4 h -3.468 c -0.005,0 -0.01,-10e-4 -0.015,-10e-4 h -1.269 v 7.576 c 0,1.911 1.555,3.466 3.467,3.466 h 0.771 10.913 10.915 0.769 C -1.555,7.96 0,6.405 0,4.494 Z M -1.926,-6.549 H -4.11 v 2.183 h 2.184 z m -24.266,0 h -2.184 v 2.183 h 2.184 z m 0.77,19.474 c 0,0.661 0.537,1.199 1.198,1.199 h 7.233 c 0.661,0 1.199,-0.538 1.199,-1.199 v -3.68 h -9.63 z m 10.913,0 c 0,0.661 0.538,1.199 1.199,1.199 h 7.233 c 0.661,0 1.198,-0.538 1.198,-1.199 v -3.68 h -9.63 z M -0.642,8.311 v 7.481 c 0,3.186 -2.591,5.778 -5.778,5.778 h -6.066 c -0.355,0 -0.642,-0.287 -0.642,-0.642 0,-0.354 0.287,-0.642 0.642,-0.642 h 6.066 c 2.479,0 4.494,-2.016 4.494,-4.494 V 8.987 c -0.483,0.166 -1.001,0.258 -1.541,0.258 h -0.128 v 3.68 c 0,1.369 -1.113,2.483 -2.482,2.483 h -7.233 c -0.73,0 -1.386,-0.316 -1.841,-0.819 -0.454,0.503 -1.111,0.819 -1.84,0.819 h -7.233 c -1.369,0 -2.483,-1.114 -2.483,-2.483 v -3.68 h -0.128 c -0.539,0 -1.057,-0.092 -1.541,-0.258 v 6.805 c 0,2.478 2.016,4.494 4.494,4.494 h 6.195 c 0.355,0 0.643,0.288 0.643,0.642 0,0.355 -0.288,0.642 -0.643,0.642 h -6.195 c -3.186,0 -5.778,-2.592 -5.778,-5.778 V 8.311 c -1.168,-0.867 -1.926,-2.255 -1.926,-3.817 v -8.218 c 0,-0.354 0.288,-0.642 0.642,-0.642 h 1.284 V -7.19 c 0,-0.355 0.287,-0.643 0.642,-0.643 h 3.468 c 0.354,0 0.642,0.288 0.642,0.643 v 2.824 H -5.394 V -7.19 c 0,-0.355 0.289,-0.643 0.643,-0.643 h 3.468 c 0.354,0 0.641,0.288 0.641,0.643 v 2.824 h 1.285 c 0.354,0 0.641,0.288 0.641,0.642 v 8.218 c 0,1.562 -0.758,2.95 -1.926,3.817" /></g><g
           transform="translate(18.2627,30.6738)"
           id="g24"><path
             id="path26"
             style="fill:#3e3736;fill-opacity:1;fill-rule:nonzero;stroke:none"
             d="m 0,0 c -0.12,0.119 -0.285,0.188 -0.454,0.188 -0.169,0 -0.335,-0.069 -0.454,-0.188 -0.119,-0.12 -0.188,-0.285 -0.188,-0.454 0,-0.169 0.069,-0.335 0.188,-0.454 0.119,-0.119 0.285,-0.188 0.454,-0.188 0.169,0 0.334,0.069 0.454,0.188 0.119,0.119 0.188,0.284 0.188,0.454 C 0.188,-0.285 0.119,-0.119 0,0" /></g><g
           transform="translate(5.1709,9.1035)"
           id="g28"><path
             id="path30"
             style="fill:#3e3736;fill-opacity:1;fill-rule:nonzero;stroke:none"
             d="m 0,0 c -0.119,0.119 -0.285,0.188 -0.454,0.188 -0.17,0 -0.334,-0.069 -0.454,-0.188 -0.119,-0.119 -0.188,-0.285 -0.188,-0.454 0,-0.169 0.069,-0.334 0.188,-0.454 0.12,-0.119 0.285,-0.188 0.454,-0.188 0.169,0 0.335,0.069 0.454,0.188 0.12,0.12 0.188,0.285 0.188,0.454 C 0.188,-0.285 0.12,-0.119 0,0" /></g></g></g></g></svg>