<?xml version="1.0" encoding="UTF-8" standalone="no"?>
<svg
   xmlns:dc="http://purl.org/dc/elements/1.1/"
   xmlns:cc="http://creativecommons.org/ns#"
   xmlns:rdf="http://www.w3.org/1999/02/22-rdf-syntax-ns#"
   xmlns:svg="http://www.w3.org/2000/svg"
   xmlns="http://www.w3.org/2000/svg"
   viewBox="0 0 29.333332 29.333332"
   height="29.333332"
   width="29.333332"
   xml:space="preserve"
   id="svg2"
   version="1.1"><metadata
     id="metadata8"><rdf:RDF><cc:Work
         rdf:about=""><dc:format>image/svg+xml</dc:format><dc:type
           rdf:resource="http://purl.org/dc/dcmitype/StillImage" /></cc:Work></rdf:RDF></metadata><defs
     id="defs6"><clipPath
       id="clipPath18"
       clipPathUnits="userSpaceOnUse"><path
         id="path16"
         d="M 0,22 H 22 V 0 H 0 Z" /></clipPath></defs><g
     transform="matrix(1.3333333,0,0,-1.3333333,0,29.333333)"
     id="g10"><g
       id="g12"><g
         clip-path="url(#clipPath18)"
         id="g14"><g
           transform="translate(17.3291,5.543)"
           id="g20"><path
             id="path22"
             style="fill:#ffffff;fill-opacity:1;fill-rule:nonzero;stroke:none"
             d="m 0,0 h -2.614 v 4.207 c 0,1.058 -0.378,1.779 -1.324,1.779 C -4.66,5.986 -5.091,5.5 -5.279,5.03 -5.349,4.862 -5.365,4.627 -5.365,4.392 V 0 h -2.614 c 0,0 0.034,7.127 0,7.865 h 2.614 V 6.751 C -5.018,7.287 -4.396,8.049 -3.01,8.049 -1.29,8.049 0,6.925 0,4.51 Z m -10.733,8.938 h -0.017 c -0.877,0 -1.444,0.604 -1.444,1.359 0,0.772 0.584,1.359 1.478,1.359 0.895,0 1.445,-0.587 1.462,-1.359 0,-0.755 -0.567,-1.359 -1.479,-1.359 M -9.426,0 h -2.614 v 7.865 h 2.614 z m 3.119,16.226 c -5.927,0 -10.734,-4.807 -10.734,-10.733 0,-5.928 4.807,-10.734 10.734,-10.734 5.927,0 10.734,4.806 10.734,10.734 0,5.926 -4.807,10.733 -10.734,10.733" /></g></g></g></g></svg>