<?xml version="1.0" encoding="UTF-8" standalone="no"?>
<svg
   xmlns:dc="http://purl.org/dc/elements/1.1/"
   xmlns:cc="http://creativecommons.org/ns#"
   xmlns:rdf="http://www.w3.org/1999/02/22-rdf-syntax-ns#"
   xmlns:svg="http://www.w3.org/2000/svg"
   xmlns="http://www.w3.org/2000/svg"
   xmlns:sodipodi="http://sodipodi.sourceforge.net/DTD/sodipodi-0.dtd"
   xmlns:inkscape="http://www.inkscape.org/namespaces/inkscape"
   version="1.1"
   id="svg2"
   xml:space="preserve"
   width="29.333332"
   height="29.333332"
   viewBox="0 0 29.333332 29.333332"
   sodipodi:docname="footer-redes-fb.ai"><metadata
     id="metadata8"><rdf:RDF><cc:Work
         rdf:about=""><dc:format>image/svg+xml</dc:format><dc:type
           rdf:resource="http://purl.org/dc/dcmitype/StillImage" /></cc:Work></rdf:RDF></metadata><defs
     id="defs6"><clipPath
       clipPathUnits="userSpaceOnUse"
       id="clipPath18"><path
         d="M 0,22 H 22 V 0 H 0 Z"
         id="path16" /></clipPath></defs><sodipodi:namedview
     pagecolor="#ffffff"
     bordercolor="#666666"
     borderopacity="1"
     objecttolerance="10"
     gridtolerance="10"
     guidetolerance="10"
     inkscape:pageopacity="0"
     inkscape:pageshadow="2"
     inkscape:window-width="640"
     inkscape:window-height="480"
     id="namedview4" /><g
     id="g10"
     inkscape:groupmode="layer"
     inkscape:label="footer-redes-fb"
     transform="matrix(1.3333333,0,0,-1.3333333,0,29.333333)"><g
       id="g12"><g
         id="g14"
         clip-path="url(#clipPath18)"><g
           id="g20"
           transform="translate(21.7354,11.0361)"><path
             d="m 0,0 c 0,5.916 -4.797,10.712 -10.712,10.712 -5.916,0 -10.713,-4.796 -10.713,-10.712 0,-5.915 4.797,-10.713 10.713,-10.713 0.063,0 0.125,0.002 0.188,0.003 v 8.339 h -2.302 v 2.683 h 2.302 v 1.973 c 0,2.289 1.397,3.535 3.439,3.535 0.978,0 1.818,-0.073 2.064,-0.105 V 3.322 H -6.43 c -1.11,0 -1.326,-0.528 -1.326,-1.302 V 0.312 H -5.1 l -0.345,-2.683 h -2.311 v -7.928 C -3.278,-9.015 0,-4.89 0,0"
             style="fill:#ffffff;fill-opacity:1;fill-rule:nonzero;stroke:none"
             id="path22" /></g></g></g></g></svg>
