<?xml version="1.0" encoding="UTF-8" standalone="no"?>
<svg
   xmlns:dc="http://purl.org/dc/elements/1.1/"
   xmlns:cc="http://creativecommons.org/ns#"
   xmlns:rdf="http://www.w3.org/1999/02/22-rdf-syntax-ns#"
   xmlns:svg="http://www.w3.org/2000/svg"
   xmlns="http://www.w3.org/2000/svg"
   xmlns:sodipodi="http://sodipodi.sourceforge.net/DTD/sodipodi-0.dtd"
   xmlns:inkscape="http://www.inkscape.org/namespaces/inkscape"
   version="1.1"
   id="svg2"
   xml:space="preserve"
   width="29.333332"
   height="29.333332"
   viewBox="0 0 29.333332 29.333332"
   sodipodi:docname="footer-redes-youtube.ai"><metadata
     id="metadata8"><rdf:RDF><cc:Work
         rdf:about=""><dc:format>image/svg+xml</dc:format><dc:type
           rdf:resource="http://purl.org/dc/dcmitype/StillImage" /></cc:Work></rdf:RDF></metadata><defs
     id="defs6"><clipPath
       clipPathUnits="userSpaceOnUse"
       id="clipPath22"><path
         d="M 0,22 H 22 V 0 H 0 Z"
         id="path20" /></clipPath></defs><sodipodi:namedview
     pagecolor="#ffffff"
     bordercolor="#666666"
     borderopacity="1"
     objecttolerance="10"
     gridtolerance="10"
     guidetolerance="10"
     inkscape:pageopacity="0"
     inkscape:pageshadow="2"
     inkscape:window-width="640"
     inkscape:window-height="480"
     id="namedview4" /><g
     id="g10"
     inkscape:groupmode="layer"
     inkscape:label="footer-redes-youtube"
     transform="matrix(1.3333333,0,0,-1.3333333,0,29.333333)"><g
       id="g12"
       transform="translate(9.6885,9.0293)"><path
         d="M 0,0 3.484,2.007 0,4.014 Z"
         style="fill:#ffffff;fill-opacity:1;fill-rule:nonzero;stroke:none"
         id="path14" /></g><g
       id="g16"><g
         id="g18"
         clip-path="url(#clipPath22)"><g
           id="g24"
           transform="translate(17.7168,11.0249)"><path
             d="m 0,0 c 0,0 0,-2.172 -0.276,-3.22 -0.155,-0.573 -0.607,-1.026 -1.18,-1.18 -1.048,-0.275 -5.238,-0.275 -5.238,-0.275 0,0 -4.18,0 -5.238,0.286 -0.573,0.154 -1.026,0.607 -1.18,1.181 -0.276,1.036 -0.276,3.219 -0.276,3.219 0,0 0,2.173 0.276,3.22 0.154,0.574 0.617,1.037 1.18,1.191 1.048,0.276 5.238,0.276 5.238,0.276 0,0 4.19,0 5.238,-0.287 0.573,-0.154 1.025,-0.606 1.18,-1.18 C 0.011,2.184 0,0 0,0 m -6.694,10.724 c -5.915,0 -10.712,-4.797 -10.712,-10.713 0,-5.915 4.797,-10.713 10.712,-10.713 5.916,0 10.713,4.798 10.713,10.713 0,5.916 -4.797,10.713 -10.713,10.713"
             style="fill:#ffffff;fill-opacity:1;fill-rule:nonzero;stroke:none"
             id="path26" /></g></g></g></g></svg>
