<?xml version="1.0" encoding="UTF-8" standalone="no"?>
<svg
   xmlns:dc="http://purl.org/dc/elements/1.1/"
   xmlns:cc="http://creativecommons.org/ns#"
   xmlns:rdf="http://www.w3.org/1999/02/22-rdf-syntax-ns#"
   xmlns:svg="http://www.w3.org/2000/svg"
   xmlns="http://www.w3.org/2000/svg"
   xmlns:sodipodi="http://sodipodi.sourceforge.net/DTD/sodipodi-0.dtd"
   xmlns:inkscape="http://www.inkscape.org/namespaces/inkscape"
   version="1.1"
   id="svg2"
   xml:space="preserve"
   width="29.333332"
   height="29.333332"
   viewBox="0 0 29.333332 29.333332"
   sodipodi:docname="footer-redes-ig.ai"><metadata
     id="metadata8"><rdf:RDF><cc:Work
         rdf:about=""><dc:format>image/svg+xml</dc:format><dc:type
           rdf:resource="http://purl.org/dc/dcmitype/StillImage" /></cc:Work></rdf:RDF></metadata><defs
     id="defs6"><clipPath
       clipPathUnits="userSpaceOnUse"
       id="clipPath18"><path
         d="M 0,22 H 22 V 0 H 0 Z"
         id="path16" /></clipPath></defs><sodipodi:namedview
     pagecolor="#ffffff"
     bordercolor="#666666"
     borderopacity="1"
     objecttolerance="10"
     gridtolerance="10"
     guidetolerance="10"
     inkscape:pageopacity="0"
     inkscape:pageshadow="2"
     inkscape:window-width="640"
     inkscape:window-height="480"
     id="namedview4" /><g
     id="g10"
     inkscape:groupmode="layer"
     inkscape:label="footer-redes-ig"
     transform="matrix(1.3333333,0,0,-1.3333333,0,29.333333)"><g
       id="g12"><g
         id="g14"
         clip-path="url(#clipPath18)"><g
           id="g20"
           transform="translate(13.0732,11.0361)"><path
             d="m 0,0 c 0,-1.133 -0.918,-2.051 -2.05,-2.051 -1.133,0 -2.051,0.918 -2.051,2.051 0,1.132 0.918,2.05 2.051,2.05 C -0.918,2.05 0,1.132 0,0"
             style="fill:#ffffff;fill-opacity:1;fill-rule:nonzero;stroke:none"
             id="path22" /></g><g
           id="g24"
           transform="translate(14.3066,13.5815)"><path
             d="m 0,0 c -0.408,0 -0.738,0.331 -0.738,0.738 0,0.408 0.33,0.738 0.738,0.738 0.407,0 0.738,-0.33 0.738,-0.738 C 0.737,0.331 0.407,0 0,0 m -3.284,-5.705 c -1.744,0 -3.159,1.414 -3.159,3.16 0,1.744 1.415,3.158 3.159,3.158 1.745,0 3.159,-1.414 3.159,-3.158 0,-1.746 -1.414,-3.16 -3.159,-3.16 M 1.512,1.083 C 1.413,1.35 1.256,1.591 1.051,1.79 0.853,1.994 0.611,2.151 0.344,2.25 0.127,2.334 -0.198,2.434 -0.798,2.461 -1.447,2.491 -1.642,2.498 -3.284,2.498 -4.926,2.498 -5.121,2.491 -5.77,2.461 -6.369,2.434 -6.695,2.334 -6.912,2.25 -7.179,2.151 -7.421,1.994 -7.619,1.79 -7.823,1.591 -7.98,1.35 -8.079,1.083 -8.164,0.866 -8.264,0.54 -8.291,-0.06 -8.32,-0.708 -8.327,-0.903 -8.327,-2.545 c 0,-1.643 0.007,-1.837 0.036,-2.487 0.027,-0.599 0.127,-0.925 0.212,-1.141 0.099,-0.268 0.256,-0.509 0.46,-0.707 0.198,-0.205 0.44,-0.363 0.707,-0.461 0.217,-0.084 0.543,-0.185 1.142,-0.211 0.649,-0.031 0.843,-0.036 2.486,-0.036 1.642,0 1.838,0.005 2.486,0.036 0.6,0.026 0.925,0.127 1.142,0.211 0.537,0.207 0.961,0.632 1.168,1.168 0.084,0.216 0.183,0.542 0.212,1.141 0.029,0.65 0.035,0.844 0.035,2.487 0,1.642 -0.006,1.837 -0.035,2.485 -0.028,0.6 -0.128,0.926 -0.212,1.143"
             style="fill:#ffffff;fill-opacity:1;fill-rule:nonzero;stroke:none"
             id="path26" /></g><g
           id="g28"
           transform="translate(17.1367,8.5)"><path
             d="m 0,0 c -0.029,-0.655 -0.134,-1.102 -0.286,-1.493 -0.319,-0.826 -0.973,-1.48 -1.799,-1.799 -0.391,-0.152 -0.838,-0.256 -1.493,-0.286 -0.655,-0.03 -0.865,-0.037 -2.536,-0.037 -1.671,0 -1.88,0.007 -2.536,0.037 -0.655,0.03 -1.102,0.134 -1.493,0.286 -0.411,0.154 -0.782,0.396 -1.089,0.709 -0.313,0.308 -0.556,0.68 -0.71,1.09 -0.152,0.391 -0.256,0.838 -0.286,1.493 -0.03,0.656 -0.037,0.865 -0.037,2.536 0,1.671 0.007,1.88 0.037,2.536 0.03,0.655 0.134,1.102 0.286,1.493 0.154,0.411 0.396,0.783 0.71,1.09 0.307,0.313 0.678,0.555 1.089,0.709 0.391,0.153 0.838,0.256 1.493,0.286 0.656,0.03 0.865,0.038 2.536,0.038 1.671,0 1.881,-0.008 2.536,-0.038 0.655,-0.03 1.102,-0.133 1.493,-0.285 0.411,-0.155 0.782,-0.397 1.09,-0.71 C -0.683,7.348 -0.44,6.976 -0.286,6.565 -0.134,6.174 -0.029,5.727 0,5.072 0.03,4.416 0.037,4.207 0.037,2.536 0.037,0.865 0.03,0.656 0,0 m -6.114,13.249 c -5.915,0 -10.712,-4.797 -10.712,-10.713 0,-5.915 4.797,-10.713 10.712,-10.713 5.916,0 10.713,4.798 10.713,10.713 0,5.916 -4.797,10.713 -10.713,10.713"
             style="fill:#ffffff;fill-opacity:1;fill-rule:nonzero;stroke:none"
             id="path30" /></g></g></g></g></svg>
