<?xml version="1.0" encoding="UTF-8" standalone="no"?>
<svg
   xmlns:dc="http://purl.org/dc/elements/1.1/"
   xmlns:cc="http://creativecommons.org/ns#"
   xmlns:rdf="http://www.w3.org/1999/02/22-rdf-syntax-ns#"
   xmlns:svg="http://www.w3.org/2000/svg"
   xmlns="http://www.w3.org/2000/svg"
   xmlns:sodipodi="http://sodipodi.sourceforge.net/DTD/sodipodi-0.dtd"
   xmlns:inkscape="http://www.inkscape.org/namespaces/inkscape"
   version="1.1"
   id="svg2"
   xml:space="preserve"
   width="29.333332"
   height="29.333332"
   viewBox="0 0 29.333332 29.333332"
   sodipodi:docname="footer-redes-twitter.ai"><metadata
     id="metadata8"><rdf:RDF><cc:Work
         rdf:about=""><dc:format>image/svg+xml</dc:format><dc:type
           rdf:resource="http://purl.org/dc/dcmitype/StillImage" /></cc:Work></rdf:RDF></metadata><defs
     id="defs6"><clipPath
       clipPathUnits="userSpaceOnUse"
       id="clipPath18"><path
         d="M 0,22 H 22 V 0 H 0 Z"
         id="path16" /></clipPath></defs><sodipodi:namedview
     pagecolor="#ffffff"
     bordercolor="#666666"
     borderopacity="1"
     objecttolerance="10"
     gridtolerance="10"
     guidetolerance="10"
     inkscape:pageopacity="0"
     inkscape:pageshadow="2"
     inkscape:window-width="640"
     inkscape:window-height="480"
     id="namedview4" /><g
     id="g10"
     inkscape:groupmode="layer"
     inkscape:label="footer-redes-twitter"
     transform="matrix(1.3333333,0,0,-1.3333333,0,29.333333)"><g
       id="g12"><g
         id="g14"
         clip-path="url(#clipPath18)"><g
           id="g20"
           transform="translate(15.9141,13.396)"><path
             d="m 0,0 c 0.005,-0.105 0.007,-0.211 0.007,-0.318 0,-3.249 -2.473,-6.995 -6.996,-6.996 -1.388,0 -2.681,0.407 -3.769,1.105 0.193,-0.023 0.388,-0.034 0.587,-0.034 1.152,0 2.212,0.393 3.053,1.052 -1.076,0.021 -1.984,0.732 -2.297,1.708 0.15,-0.028 0.305,-0.044 0.462,-0.044 0.225,0 0.442,0.03 0.649,0.086 -1.125,0.226 -1.972,1.22 -1.972,2.411 v 0.031 c 0.331,-0.184 0.71,-0.295 1.113,-0.308 -0.66,0.441 -1.094,1.194 -1.094,2.047 0,0.451 0.122,0.873 0.333,1.236 1.213,-1.488 3.025,-2.466 5.069,-2.569 -0.043,0.18 -0.064,0.368 -0.064,0.561 0,1.357 1.101,2.458 2.458,2.458 0.708,0 1.347,-0.299 1.795,-0.777 C -0.105,1.76 0.421,1.964 0.896,2.246 0.712,1.672 0.322,1.191 -0.186,0.886 0.312,0.946 0.786,1.078 1.227,1.273 0.897,0.78 0.479,0.347 0,0 m -4.891,8.353 c -5.916,0 -10.713,-4.797 -10.713,-10.713 0,-5.915 4.797,-10.713 10.713,-10.713 5.915,0 10.712,4.798 10.712,10.713 0,5.916 -4.797,10.713 -10.712,10.713"
             style="fill:#ffffff;fill-opacity:1;fill-rule:nonzero;stroke:none"
             id="path22" /></g></g></g></g></svg>
