<?xml version="1.0" encoding="utf-8"?>
<!-- Generator: Adobe Illustrator 23.1.0, SVG Export Plug-In . SVG Version: 6.00 Build 0)  -->
<svg version="1.1"
	 id="svg2" xmlns:cc="http://creativecommons.org/ns#" xmlns:dc="http://purl.org/dc/elements/1.1/" xmlns:rdf="http://www.w3.org/1999/02/22-rdf-syntax-ns#" xmlns:svg="http://www.w3.org/2000/svg"
	 xmlns="http://www.w3.org/2000/svg" xmlns:xlink="http://www.w3.org/1999/xlink" x="0px" y="0px" viewBox="0 0 48.3 42.7"
	 style="enable-background:new 0 0 48.3 42.7;" xml:space="preserve">
<style type="text/css">
	.st0{fill:#3E3736;}
</style>
<g>
	<path class="st0" d="M5.7,41c-0.1,0-0.3,0-0.4,0c-0.4-0.1-0.7-0.5-0.7-0.9c0-0.4,0.3-0.8,0.7-0.9c0.1,0,0.1,0,0.2,0l0.1,0
		C5.8,39,6,38.8,6,38.6v-10c0-0.2-0.2-0.4-0.4-0.5L5.3,28c-0.5-0.1-0.8-0.6-0.7-1c0.1-0.5,0.4-0.8,0.9-0.8c0.5,0,1.1,0,1.6,0l2.7,0
		c0.3,0,0.5-0.2,0.5-0.5l0-3.9c0-2.5,0-5,0-7.5c0-5.5,3.4-10.2,8.6-11.9c1.2-0.4,2.3-0.6,3.4-0.6c0,0,0.9,0,1.3,0c1.3,0,2.7,0,4,0.2
		c5.1,0.7,9.5,5.1,10.2,10.2c0.1,0.8,0.2,1.5,0.2,2.3c0,2.6,0,5.2,0,7.8l0,3.4c0,0.3,0.2,0.5,0.5,0.5h4c0.5,0,1.1,0.1,1.2,0.8
		c0.1,0.6-0.3,0.9-1,1.1c-0.2,0.1-0.4,0.3-0.4,0.5v10c0,0.2,0.2,0.4,0.4,0.5c0,0,0.3,0.1,0.4,0.1c0.4,0.1,0.7,0.5,0.7,1
		c0,0.4-0.4,0.8-0.9,0.8c-0.1,0-0.1,0-0.2,0L5.7,41z M37.1,28.1c-0.3,0-0.5,0.2-0.5,0.5v10c0,0.3,0.2,0.5,0.5,0.5H40
		c0.3,0,0.5-0.2,0.5-0.5v-10c0-0.3-0.2-0.5-0.5-0.5H37.1z M25.6,28c-0.3,0-0.5,0.2-0.5,0.5v10c0,0.3,0.2,0.5,0.5,0.5h2.8
		c0.3,0,0.5-0.2,0.5-0.5v-10c0-0.3-0.2-0.5-0.5-0.5H25.6z M14.1,28c-0.3,0-0.5,0.2-0.5,0.5v10c0,0.3,0.2,0.5,0.5,0.5H17
		c0.3,0,0.5-0.2,0.5-0.5v-10c0-0.3-0.2-0.5-0.5-0.5H14.1z M19.9,28c-0.3,0-0.5,0.2-0.5,0.5v10c0,0.3,0.2,0.5,0.5,0.5h2.8
		c0.3,0,0.5-0.2,0.5-0.5v-10c0-0.3-0.2-0.5-0.5-0.5H19.9z M8.4,28c-0.3,0-0.5,0.2-0.5,0.5v10c0,0.3,0.2,0.5,0.5,0.5h2.8
		c0.3,0,0.5-0.2,0.5-0.5v-10c0-0.3-0.2-0.5-0.5-0.5H8.4z M31.4,28c-0.3,0-0.5,0.2-0.5,0.5v10c0,0.3,0.2,0.5,0.5,0.5h2.8
		c0.3,0,0.5-0.2,0.5-0.5v-10c0-0.3-0.2-0.5-0.5-0.5H31.4z M12.7,16.5c-0.3,0-0.5,0.2-0.5,0.5v8.6c0,0.3,0.2,0.5,0.5,0.5h10
		c0.3,0,0.5-0.2,0.5-0.5V17c0-0.3-0.2-0.5-0.5-0.5H12.7z M25.6,16.5c-0.3,0-0.5,0.2-0.5,0.5v8.6c0,0.3,0.2,0.5,0.5,0.5h10
		c0.3,0,0.5-0.2,0.5-0.5V17c0-0.3-0.2-0.5-0.5-0.5H25.6z M26.1,3.6c-0.2,0-0.3,0-0.5,0c-0.3,0-0.5,0.2-0.5,0.5v10
		c0,0.3,0.2,0.5,0.5,0.5h10c0.1,0,0.3-0.1,0.4-0.1c0.1-0.1,0.1-0.2,0.1-0.4C36.1,7.9,30.9,3.6,26.1,3.6z M22.7,3.6
		c-2.9,0-5.6,1.2-7.6,3.3c-1.9,2-3,4.7-2.8,7.2c0,0.3,0.2,0.5,0.5,0.5h10c0.3,0,0.5-0.2,0.5-0.5v-10C23.2,3.8,23,3.6,22.7,3.6
		C22.7,3.6,22.7,3.6,22.7,3.6z"/>
	<path class="st0" d="M29.9,22.3c-0.2,0-0.5-0.1-0.6-0.3c-0.4-0.4-0.4-0.9,0-1.4c0.5-0.5,0.9-1,1.4-1.4c0.2-0.2,0.4-0.3,0.6-0.3
		c0.1,0,0.3,0,0.4,0.1c0.3,0.1,0.5,0.3,0.6,1c0,0,0,0,0,0.1c-0.1,0.2-0.2,0.4-0.3,0.5c-0.4,0.4-0.8,0.9-1.2,1.3L30.6,22
		C30.4,22.2,30.2,22.3,29.9,22.3z"/>
	<path class="st0" d="M18.4,10.8c-0.2,0-0.5-0.1-0.6-0.3c-0.4-0.4-0.4-0.9,0-1.3c0.5-0.5,1-1,1.5-1.5c0.2-0.2,0.4-0.3,0.6-0.3
		c0.1,0,0.3,0,0.4,0.1c0.3,0.1,0.5,0.3,0.6,0.9c0,0,0,0,0,0.1c-0.1,0.2-0.2,0.4-0.3,0.5c-0.4,0.5-0.9,0.9-1.4,1.4
		C18.9,10.7,18.7,10.8,18.4,10.8z"/>
</g>
</svg>
