<?xml version="1.0" encoding="UTF-8" standalone="no"?>
<svg
   xmlns:dc="http://purl.org/dc/elements/1.1/"
   xmlns:cc="http://creativecommons.org/ns#"
   xmlns:rdf="http://www.w3.org/1999/02/22-rdf-syntax-ns#"
   xmlns:svg="http://www.w3.org/2000/svg"
   xmlns="http://www.w3.org/2000/svg"
   viewBox="0 0 82.666664 66.666664"
   height="66.666664"
   width="82.666664"
   xml:space="preserve"
   id="svg2"
   version="1.1"><metadata
     id="metadata8"><rdf:RDF><cc:Work
         rdf:about=""><dc:format>image/svg+xml</dc:format><dc:type
           rdf:resource="http://purl.org/dc/dcmitype/StillImage" /></cc:Work></rdf:RDF></metadata><defs
     id="defs6"><clipPath
       id="clipPath18"
       clipPathUnits="userSpaceOnUse"><path
         id="path16"
         d="M 0,50 H 62 V 0 H 0 Z" /></clipPath></defs><g
     transform="matrix(1.3333333,0,0,-1.3333333,0,66.666667)"
     id="g10"><g
       id="g12"><g
         clip-path="url(#clipPath18)"
         id="g14"><g
           transform="translate(46.8223,9.9277)"
           id="g20"><path
             id="path22"
             style="fill:#3e3736;fill-opacity:1;fill-rule:nonzero;stroke:none"
             d="m 0,0 h -31.644 c -0.621,0 -1.125,0.505 -1.125,1.125 v 12.822 h 1.35 c 0.621,0 1.125,0.504 1.125,1.125 0,0.621 -0.504,1.125 -1.125,1.125 h -1.35 V 29.02 c 0,0.62 0.504,1.125 1.125,1.125 H 0 c 0.62,0 1.125,-0.505 1.125,-1.125 v -7.424 h -5.024 v 2.625 c 0,1.86 -1.514,3.374 -3.374,3.374 h -17.098 c -1.86,0 -3.374,-1.514 -3.374,-3.374 V 5.924 c 0,-1.861 1.514,-3.374 3.374,-3.374 h 17.098 c 1.86,0 3.374,1.513 3.374,3.374 V 8.549 H 1.125 V 1.125 C 1.125,0.505 0.62,0 0,0 M -3.899,19.347 H 1.125 V 10.798 H -3.899 Z M -6.149,5.924 c 0,-0.62 -0.504,-1.125 -1.124,-1.125 h -17.098 c -0.62,0 -1.125,0.505 -1.125,1.125 v 18.297 c 0,0.62 0.505,1.124 1.125,1.124 h 17.098 c 0.62,0 1.124,-0.504 1.124,-1.124 z M 0,32.394 h -31.644 c -1.861,0 -3.375,-1.514 -3.375,-3.374 V 1.125 c 0,-1.86 1.514,-3.374 3.375,-3.374 H 0 c 1.86,0 3.374,1.514 3.374,3.374 V 29.02 c 0,1.86 -1.514,3.374 -3.374,3.374" /></g><g
           transform="translate(32.5361,23.8184)"
           id="g24"><path
             id="path26"
             style="fill:#3e3736;fill-opacity:1;fill-rule:nonzero;stroke:none"
             d="M 0,0 1.186,-4.292 H -4.258 L -3.072,0 c 0.12,0.434 -0.031,0.897 -0.382,1.179 -0.735,0.587 -1.156,1.463 -1.156,2.402 0,1.695 1.379,3.075 3.074,3.075 1.695,0 3.074,-1.38 3.074,-3.075 C 1.538,2.642 1.117,1.766 0.382,1.179 0.03,0.897 -0.12,0.434 0,0 m -1.536,8.905 c -2.936,0 -5.324,-2.388 -5.324,-5.324 0,-1.369 0.516,-2.66 1.438,-3.64 l -1.397,-5.058 c -0.198,-0.716 0.34,-1.425 1.084,-1.425 h 8.398 c 0.742,0 1.282,0.708 1.084,1.425 L 2.35,-0.059 c 0.921,0.98 1.438,2.271 1.438,3.64 0,2.936 -2.389,5.324 -5.324,5.324" /></g></g></g></g></svg>