<?xml version="1.0" encoding="UTF-8" standalone="no"?>
<svg
   xmlns:dc="http://purl.org/dc/elements/1.1/"
   xmlns:cc="http://creativecommons.org/ns#"
   xmlns:rdf="http://www.w3.org/1999/02/22-rdf-syntax-ns#"
   xmlns:svg="http://www.w3.org/2000/svg"
   xmlns="http://www.w3.org/2000/svg"
   viewBox="0 0 23.214323 21.554743"
   height="21.554743"
   width="23.214323"
   xml:space="preserve"
   id="svg2"
   version="1.1"><metadata
     id="metadata8"><rdf:RDF><cc:Work
         rdf:about=""><dc:format>image/svg+xml</dc:format><dc:type
           rdf:resource="http://purl.org/dc/dcmitype/StillImage" /></cc:Work></rdf:RDF></metadata><defs
     id="defs6"><clipPath
       id="clipPath18"
       clipPathUnits="userSpaceOnUse"><path
         id="path16"
         d="M 0,18 H 18 V 0 H 0 Z" /></clipPath></defs><g
     transform="matrix(1.3333333,0,0,-1.3333333,-0.37380964,22.748743)"
     id="g10"><g
       id="g12"><g
         clip-path="url(#clipPath18)"
         id="g14"><g
           transform="translate(17.3311,9.5435)"
           id="g20"><path
             id="path22"
             style="fill:#6b6d6f;fill-opacity:1;fill-rule:nonzero;stroke:none"
             d="m 0,0 -16.167,7.462 c -0.258,0.117 -0.565,0.047 -0.744,-0.174 -0.18,-0.222 -0.187,-0.536 -0.015,-0.764 l 5.317,-7.088 -5.317,-7.089 c -0.172,-0.227 -0.165,-0.544 0.014,-0.764 0.12,-0.15 0.301,-0.231 0.484,-0.231 0.088,0 0.176,0.019 0.26,0.058 l 16.166,7.461 C 0.22,-1.027 0.36,-0.807 0.36,-0.564 0.36,-0.322 0.22,-0.102 0,0" /></g></g></g></g></svg>