<?xml version="1.0" encoding="UTF-8" standalone="no"?>
<svg
   xmlns:dc="http://purl.org/dc/elements/1.1/"
   xmlns:cc="http://creativecommons.org/ns#"
   xmlns:rdf="http://www.w3.org/1999/02/22-rdf-syntax-ns#"
   xmlns:svg="http://www.w3.org/2000/svg"
   xmlns="http://www.w3.org/2000/svg"
   viewBox="0 0 74.417198 61.333332"
   height="61.333332"
   width="74.417198"
   xml:space="preserve"
   id="svg2"
   version="1.1"><metadata
     id="metadata8"><rdf:RDF><cc:Work
         rdf:about=""><dc:format>image/svg+xml</dc:format><dc:type
           rdf:resource="http://purl.org/dc/dcmitype/StillImage" /></cc:Work></rdf:RDF></metadata><defs
     id="defs6"><clipPath
       id="clipPath18"
       clipPathUnits="userSpaceOnUse"><path
         id="path16"
         d="M 0,46 H 55.813 V 0 H 0 Z" /></clipPath></defs><g
     transform="matrix(1.3333333,0,0,-1.3333333,0,61.333333)"
     id="g10"><g
       id="g12"><g
         clip-path="url(#clipPath18)"
         id="g14"><g
           transform="translate(41.7062,8.5732)"
           id="g20"><path
             id="path22"
             style="fill:#3e3736;fill-opacity:1;fill-rule:nonzero;stroke:none"
             d="m 0,0 c 0,-1.038 -0.845,-1.882 -1.882,-1.882 h -23.836 c -1.037,0 -1.882,0.844 -1.882,1.882 V 23.208 H 0 Z m -27.6,28.854 c 0,1.037 0.845,1.881 1.882,1.881 H -1.882 C -0.845,30.735 0,29.891 0,28.854 v -4.391 h -27.6 z m 25.718,3.136 h -23.836 c -1.728,0 -3.136,-1.407 -3.136,-3.136 V 0 c 0,-1.73 1.408,-3.137 3.136,-3.137 h 23.836 c 1.73,0 3.136,1.407 3.136,3.137 v 28.854 c 0,1.729 -1.406,3.136 -3.136,3.136" /></g><g
           transform="translate(27.9064,24.8818)"
           id="g24"><path
             id="path26"
             style="fill:#3e3736;fill-opacity:1;fill-rule:nonzero;stroke:none"
             d="M 0,0 C 2.227,0 4.139,-1.307 5.057,-3.184 4.548,-3.575 4.279,-4.184 4.071,-4.672 3.761,-5.396 3.584,-5.72 3.194,-5.781 2.799,-5.844 2.537,-5.588 2.02,-4.993 c -0.505,0.582 -1.204,1.375 -2.315,1.206 -1.118,-0.176 -1.532,-1.147 -1.834,-1.856 -0.309,-0.722 -0.484,-1.046 -0.874,-1.108 -0.391,-0.061 -0.655,0.192 -1.171,0.788 -0.347,0.401 -0.786,0.896 -1.39,1.114 C -5.174,-2.115 -2.84,0 0,0 m 0,-11.291 c -2.889,0 -5.25,2.188 -5.579,4.991 0.134,-0.126 0.277,-0.276 0.455,-0.483 0.457,-0.529 1.065,-1.231 2.004,-1.231 1.161,0 1.738,0.931 2.144,1.88 0.309,0.723 0.484,1.047 0.874,1.109 0.398,0.066 0.659,-0.193 1.174,-0.788 0.507,-0.583 1.199,-1.374 2.315,-1.207 1.119,0.176 1.535,1.148 1.837,1.856 0.115,0.271 0.213,0.47 0.309,0.635 0.073,-0.362 0.113,-0.734 0.113,-1.116 0,-3.113 -2.534,-5.646 -5.646,-5.646 m 0,-1.254 c 3.804,0 6.899,3.096 6.899,6.899 0,3.804 -3.095,6.9 -6.899,6.9 -3.805,0 -6.9,-3.096 -6.9,-6.9 0,-3.803 3.095,-6.899 6.9,-6.899" /></g><g
           transform="translate(17.8703,21.7451)"
           id="g28"><path
             id="path30"
             style="fill:#3e3736;fill-opacity:1;fill-rule:nonzero;stroke:none"
             d="M 0,0 C 0,0.346 0.281,0.628 0.627,0.628 0.974,0.628 1.254,0.346 1.254,0 v -5.018 c 0,-0.344 -0.28,-0.627 -0.627,-0.627 C 0.281,-5.645 0,-5.362 0,-5.018 Z m 10.036,6.273 c 4.841,0 8.781,-3.94 8.781,-8.782 0,-4.841 -3.94,-8.781 -8.781,-8.781 -3.435,0 -6.516,1.996 -7.953,5.095 0.262,0.323 0.426,0.729 0.426,1.177 V 0 c 0,0.448 -0.164,0.854 -0.426,1.178 1.437,3.1 4.517,5.095 7.953,5.095 M 0.627,-6.899 c 0.133,0 0.264,0.014 0.389,0.041 1.671,-3.462 5.145,-5.687 9.02,-5.687 5.533,0 10.036,4.503 10.036,10.036 0,5.534 -4.503,10.036 -10.036,10.036 C 6.161,7.527 2.687,5.303 1.016,1.841 0.891,1.867 0.76,1.882 0.627,1.882 -0.41,1.882 -1.254,1.038 -1.254,0 v -5.018 c 0,-1.038 0.844,-1.881 1.881,-1.881" /></g><g
           transform="translate(24.7702,35.5449)"
           id="g32"><path
             id="path34"
             style="fill:#3e3736;fill-opacity:1;fill-rule:nonzero;stroke:none"
             d="m 0,0 h -7.527 c -0.347,0 -0.627,0.283 -0.627,0.627 0,0.346 0.28,0.628 0.627,0.628 H 0 C 0.346,1.255 0.627,0.973 0.627,0.627 0.627,0.283 0.346,0 0,0 m 0,2.509 h -7.527 c -1.037,0 -1.882,-0.844 -1.882,-1.882 0,-1.037 0.845,-1.881 1.882,-1.881 H 0 c 1.038,0 1.882,0.844 1.882,1.881 0,1.038 -0.844,1.882 -1.882,1.882" /></g><g
           transform="translate(33.5519,35.5449)"
           id="g36"><path
             id="path38"
             style="fill:#3e3736;fill-opacity:1;fill-rule:nonzero;stroke:none"
             d="m 0,0 c -0.345,0 -0.628,0.283 -0.628,0.627 0,0.346 0.283,0.628 0.628,0.628 0.345,0 0.627,-0.282 0.627,-0.628 C 0.627,0.283 0.345,0 0,0 m 0,2.509 c -1.038,0 -1.882,-0.844 -1.882,-1.882 0,-1.037 0.844,-1.881 1.882,-1.881 1.037,0 1.882,0.844 1.882,1.881 0,1.038 -0.845,1.882 -1.882,1.882" /></g><g
           transform="translate(38.5695,35.5449)"
           id="g40"><path
             id="path42"
             style="fill:#3e3736;fill-opacity:1;fill-rule:nonzero;stroke:none"
             d="m 0,0 c -0.345,0 -0.627,0.283 -0.627,0.627 0,0.346 0.282,0.628 0.627,0.628 0.346,0 0.628,-0.282 0.628,-0.628 C 0.628,0.283 0.346,0 0,0 m 0,2.509 c -1.037,0 -1.882,-0.844 -1.882,-1.882 0,-1.037 0.845,-1.881 1.882,-1.881 1.038,0 1.882,0.844 1.882,1.881 0,1.038 -0.844,1.882 -1.882,1.882" /></g><g
           transform="translate(29.7883,38.0542)"
           id="g44"><path
             id="path46"
             style="fill:#3e3736;fill-opacity:1;fill-rule:nonzero;stroke:none"
             d="m 0,0 c 0.347,0 0.627,-0.281 0.627,-0.627 0,-0.347 -0.28,-0.627 -0.627,-0.627 -0.347,0 -0.627,0.28 -0.627,0.627 C -0.627,-0.281 -0.347,0 0,0" /></g><g
           transform="translate(29.7883,35.5449)"
           id="g48"><path
             id="path50"
             style="fill:#3e3736;fill-opacity:1;fill-rule:nonzero;stroke:none"
             d="m 0,0 c 0.347,0 0.627,-0.281 0.627,-0.627 0,-0.347 -0.28,-0.627 -0.627,-0.627 -0.347,0 -0.627,0.28 -0.627,0.627 C -0.627,-0.281 -0.347,0 0,0" /></g></g></g></g></svg>