<?xml version="1.0" encoding="UTF-8" standalone="no"?>
<svg
   xmlns:dc="http://purl.org/dc/elements/1.1/"
   xmlns:cc="http://creativecommons.org/ns#"
   xmlns:rdf="http://www.w3.org/1999/02/22-rdf-syntax-ns#"
   xmlns:svg="http://www.w3.org/2000/svg"
   xmlns="http://www.w3.org/2000/svg"
   viewBox="0 0 74.417198 61.333332"
   height="61.333332"
   width="74.417198"
   xml:space="preserve"
   id="svg2"
   version="1.1"><metadata
     id="metadata8"><rdf:RDF><cc:Work
         rdf:about=""><dc:format>image/svg+xml</dc:format><dc:type
           rdf:resource="http://purl.org/dc/dcmitype/StillImage" /></cc:Work></rdf:RDF></metadata><defs
     id="defs6"><clipPath
       id="clipPath18"
       clipPathUnits="userSpaceOnUse"><path
         id="path16"
         d="M 0,46 H 55.813 V 0 H 0 Z" /></clipPath></defs><g
     transform="matrix(1.3333333,0,0,-1.3333333,0,61.333333)"
     id="g10"><g
       id="g12"><g
         clip-path="url(#clipPath18)"
         id="g14"><g
           transform="translate(46.5646,11.9746)"
           id="g20"><path
             id="path22"
             style="fill:#3e3736;fill-opacity:1;fill-rule:nonzero;stroke:none"
             d="m 0,0 c 0,-2.339 -1.902,-4.24 -4.241,-4.24 h -28.835 c -2.339,0 -4.24,1.901 -4.24,4.24 v 16.962 c 0,2.339 1.901,4.241 4.24,4.241 H -4.241 C -1.901,21.203 0,19.301 0,16.962 Z m -4.241,22.898 h -28.835 c -3.273,0 -5.936,-2.663 -5.936,-5.936 V 0 c 0,-3.273 2.663,-5.937 5.936,-5.937 h 28.835 c 3.274,0 5.936,2.664 5.936,5.937 v 16.962 c 0,3.273 -2.662,5.936 -5.936,5.936" /></g><g
           transform="translate(32.9953,34.873)"
           id="g24"><path
             id="path26"
             style="fill:#3e3736;fill-opacity:1;fill-rule:nonzero;stroke:none"
             d="m 0,0 h -10.177 v 2.544 c 0,0.467 0.381,0.849 0.848,0.849 h 8.48 C -0.382,3.393 0,3.011 0,2.544 Z m -0.849,5.088 h -8.48 c -1.403,0 -2.545,-1.141 -2.545,-2.544 v -3.392 c 0,-0.468 0.38,-0.848 0.849,-0.848 H 0.848 c 0.467,0 0.847,0.38 0.847,0.848 v 3.392 c 0,1.403 -1.14,2.544 -2.544,2.544" /></g><path
           id="path28"
           style="fill:#3e3736;fill-opacity:1;fill-rule:nonzero;stroke:none"
           d="m 17.729,7.734 h -1.696 v 25.443 h 1.696 z m 0.848,27.139 h -3.392 c -0.468,0 -0.848,-0.38 -0.848,-0.848 V 6.887 c 0,-0.469 0.38,-0.849 0.848,-0.849 h 3.392 c 0.469,0 0.848,0.38 0.848,0.849 v 27.138 c 0,0.468 -0.379,0.848 -0.848,0.848" /><path
           id="path30"
           style="fill:#3e3736;fill-opacity:1;fill-rule:nonzero;stroke:none"
           d="m 39.779,7.734 h -1.696 v 25.443 h 1.696 z m 0.848,27.139 h -3.391 c -0.469,0 -0.849,-0.38 -0.849,-0.848 V 6.887 c 0,-0.469 0.38,-0.849 0.849,-0.849 h 3.391 c 0.469,0 0.849,0.38 0.849,0.849 v 27.138 c 0,0.468 -0.38,0.848 -0.849,0.848" /></g></g></g></svg>