<?xml version="1.0" encoding="UTF-8" standalone="no"?>
<svg
   xmlns:dc="http://purl.org/dc/elements/1.1/"
   xmlns:cc="http://creativecommons.org/ns#"
   xmlns:rdf="http://www.w3.org/1999/02/22-rdf-syntax-ns#"
   xmlns:svg="http://www.w3.org/2000/svg"
   xmlns="http://www.w3.org/2000/svg"
   viewBox="0 0 74.417198 61.333332"
   height="61.333332"
   width="74.417198"
   xml:space="preserve"
   id="svg2"
   version="1.1"><metadata
     id="metadata8"><rdf:RDF><cc:Work
         rdf:about=""><dc:format>image/svg+xml</dc:format><dc:type
           rdf:resource="http://purl.org/dc/dcmitype/StillImage" /></cc:Work></rdf:RDF></metadata><defs
     id="defs6"><clipPath
       id="clipPath18"
       clipPathUnits="userSpaceOnUse"><path
         id="path16"
         d="M 0,46 H 55.813 V 0 H 0 Z" /></clipPath></defs><g
     transform="matrix(1.3333333,0,0,-1.3333333,0,61.333333)"
     id="g10"><g
       id="g12"><g
         clip-path="url(#clipPath18)"
         id="g14"><g
           transform="translate(27.9064,7.6084)"
           id="g20"><path
             id="path22"
             style="fill:#3e3736;fill-opacity:1;fill-rule:nonzero;stroke:none"
             d="M 0,0 C 1.776,0 3.135,-0.597 4.104,-1.186 H -4.108 C -3.139,-0.597 -1.777,0 0,0 M -0.594,4.766 C -0.187,4.723 0.21,4.741 0.59,4.757 V 1.159 c -0.407,0.039 -0.804,0.019 -1.184,0 z M 7.45,11.681 C 7.401,11.493 7.347,11.309 7.285,11.128 7.014,10.373 8.158,9.982 8.405,10.745 c 0.072,0.209 0.135,0.422 0.191,0.638 0.176,0.754 -0.927,1.062 -1.146,0.298 m -9.228,0.506 1.533,-1.533 -1.53,-1.529 -1.532,1.532 z m -2.787,-1.113 c -0.23,-0.231 -0.228,-0.606 0.004,-0.837 L -2.194,7.87 c 0.231,-0.231 0.606,-0.233 0.838,-0.004 l 2.367,2.366 c 0.233,0.233 0.233,0.61 0,0.841 l -2.367,2.367 c -0.23,0.23 -0.607,0.235 -0.841,0 z m 6.931,5.85 1.533,-1.532 -1.533,-1.534 -1.532,1.534 z M -0.421,15.812 C -0.651,15.58 -0.65,15.205 -0.418,14.975 L 1.949,12.607 C 2.18,12.376 2.555,12.374 2.786,12.604 l 2.367,2.366 c 0.234,0.232 0.234,0.609 0,0.841 l -2.367,2.367 c -0.223,0.223 -0.606,0.234 -0.84,0 z m -7.055,9.62 c 0.279,-1.4 0.379,-2.527 0.33,-3.527 -1.081,0.01 -2.071,0.379 -2.863,0.994 z m 12.377,0.616 h 1.45 c -0.29,-1.357 -0.404,-2.527 -0.41,-3.571 -0.221,0.013 -0.4,0.02 -0.614,0.02 -0.427,0 -0.875,-0.029 -1.334,-0.084 z m -2.368,0 H 3.681 L 2.713,22.178 C 2.3,22.076 1.884,21.945 1.468,21.782 Z m -8.89,0 h 7.669 l -1.23,-4.921 c -1.421,-0.734 -2.923,-0.999 -4.225,-0.999 -0.625,0 -1.292,0.06 -1.983,0.205 0.268,1.579 0.274,3.343 -0.231,5.716 z m -5.447,0.003 h 3.269 l -2.314,-2.313 c -0.507,0.656 -0.847,1.447 -0.955,2.313 m 0.955,3.492 2.308,-2.308 h -3.263 c 0.108,0.865 0.448,1.654 0.955,2.308 m 7.485,0.001 c 0.509,-0.655 0.847,-1.445 0.954,-2.312 h -3.265 z m -3.148,1.793 c 0.866,-0.108 1.657,-0.447 2.311,-0.956 l -2.311,-2.31 z m -1.184,0 V 28.07 l -2.313,2.312 c 0.655,0.509 1.446,0.848 2.313,0.955 m 13.023,0.632 h 6.512 V 30.785 H 5.327 C 5.056,30.785 4.818,30.6 4.752,30.336 L 3.977,27.232 H 2.829 l 0.704,2.817 c 0.272,1.085 0.847,1.92 1.794,1.92 m 0,1.184 c -1.682,0 -2.585,-1.384 -2.942,-2.817 L 1.608,27.232 h -2.822 c -0.299,2.987 -2.83,5.33 -5.892,5.33 -3.263,0 -5.917,-2.659 -5.917,-5.921 0,-3.21 2.57,-5.831 5.76,-5.915 -0.086,-0.55 -0.202,-1.061 -0.339,-1.548 -0.5,-1.788 -1.279,-3.349 -1.279,-5.562 0,-4.289 3.054,-7.876 7.101,-8.701 V 0.993 C -4.579,0.406 -6.341,-1.36 -6.341,-1.36 -6.712,-1.733 -6.449,-2.368 -5.922,-2.37 H 5.917 c 0.526,10e-4 0.791,0.637 0.42,1.01 0,0 -1.762,1.768 -4.564,2.354 V 4.917 C 3.903,5.35 5.76,6.541 7.038,8.201 7.522,8.827 6.581,9.552 6.1,8.924 4.691,7.097 2.487,5.92 -0.001,5.92 c -4.258,0 -7.696,3.438 -7.696,7.696 0,1.931 0.7,3.331 1.236,5.243 0.029,0.104 0.054,0.215 0.082,0.322 0.775,-0.163 1.533,-0.237 2.236,-0.237 1.532,0 3.323,0.317 5.021,1.26 1.484,0.824 3.08,1.109 4.449,1.109 0.224,0 0.456,-0.011 0.693,-0.028 0.069,-0.842 0.212,-1.592 0.396,-2.272 0.51,-1.887 1.204,-3.271 1.273,-5.094 0.009,-0.811 1.236,-0.764 1.183,0.045 -0.079,2.094 -0.838,3.602 -1.312,5.357 -0.474,1.756 -0.726,3.803 0.118,7.177 0.093,0.373 -0.19,0.735 -0.574,0.735 H 5.197 l 0.593,2.368 h 6.642 c 0.327,0 0.591,0.265 0.591,0.592 v 2.368 c 0,0.327 -0.264,0.592 -0.591,0.592 z" /></g></g></g></g></svg>