<?xml version="1.0" encoding="UTF-8" standalone="no"?>
<svg
   xmlns:dc="http://purl.org/dc/elements/1.1/"
   xmlns:cc="http://creativecommons.org/ns#"
   xmlns:rdf="http://www.w3.org/1999/02/22-rdf-syntax-ns#"
   xmlns:svg="http://www.w3.org/2000/svg"
   xmlns="http://www.w3.org/2000/svg"
   viewBox="0 0 74.417198 61.333332"
   height="61.333332"
   width="74.417198"
   xml:space="preserve"
   id="svg2"
   version="1.1"><metadata
     id="metadata8"><rdf:RDF><cc:Work
         rdf:about=""><dc:format>image/svg+xml</dc:format><dc:type
           rdf:resource="http://purl.org/dc/dcmitype/StillImage" /></cc:Work></rdf:RDF></metadata><defs
     id="defs6"><clipPath
       id="clipPath18"
       clipPathUnits="userSpaceOnUse"><path
         id="path16"
         d="M 0,46 H 55.813 V 0 H 0 Z" /></clipPath></defs><g
     transform="matrix(1.3333333,0,0,-1.3333333,0,61.333333)"
     id="g10"><g
       id="g12"><g
         clip-path="url(#clipPath18)"
         id="g14"><g
           transform="translate(27.9064,39.4434)"
           id="g20"><path
             id="path22"
             style="fill:#3e3736;fill-opacity:1;fill-rule:nonzero;stroke:none"
             d="m 0,0 c -9.067,0 -16.443,-7.376 -16.443,-16.443 0,-9.067 7.376,-16.444 16.443,-16.444 9.066,0 16.443,7.377 16.443,16.444 C 16.443,-7.376 9.066,0 0,0 m 0,-33.688 c -9.509,0 -17.245,7.736 -17.245,17.245 0,9.508 7.736,17.244 17.245,17.244 9.509,0 17.245,-7.736 17.245,-17.244 0,-9.509 -7.736,-17.245 -17.245,-17.245" /></g><g
           transform="translate(27.9059,22.5991)"
           id="g24"><path
             id="path26"
             style="fill:#3e3736;fill-opacity:1;fill-rule:nonzero;stroke:none"
             d="m 0,0 c -0.084,0 -0.169,0.027 -0.242,0.082 -2.431,1.848 -4.096,4.397 -4.949,7.579 -1.228,4.562 -0.524,8.366 -0.493,8.526 0.041,0.217 0.251,0.36 0.469,0.318 0.217,-0.042 0.36,-0.252 0.318,-0.469 -0.009,-0.051 -0.696,-3.799 0.48,-8.167 C -3.611,4.863 -2.043,2.458 0.243,0.72 0.419,0.586 0.454,0.334 0.32,0.159 0.241,0.055 0.121,0 0,0" /></g><g
           transform="translate(44.256,19.0742)"
           id="g28"><path
             id="path30"
             style="fill:#3e3736;fill-opacity:1;fill-rule:nonzero;stroke:none"
             d="m 0,0 c -0.097,0 -0.193,0.034 -0.27,0.104 -0.019,0.017 -1.955,1.761 -4.886,3.047 -3.895,1.709 -7.609,1.846 -11.038,0.406 -0.205,-0.086 -0.439,0.01 -0.525,0.214 -0.086,0.204 0.01,0.439 0.214,0.524 3.596,1.511 7.64,1.365 11.694,-0.42 C -1.766,2.534 0.187,0.771 0.27,0.697 0.434,0.548 0.445,0.294 0.296,0.131 0.217,0.044 0.108,0 0,0" /></g><g
           transform="translate(17.0046,10.2578)"
           id="g32"><path
             id="path34"
             style="fill:#3e3736;fill-opacity:1;fill-rule:nonzero;stroke:none"
             d="m 0,0 c -0.169,0 -0.326,0.107 -0.381,0.276 -0.068,0.211 0.047,0.437 0.257,0.505 0.024,0.008 2.418,0.8 4.916,2.681 3.32,2.501 5.242,5.641 5.712,9.331 0.028,0.22 0.229,0.375 0.449,0.347 0.219,-0.028 0.374,-0.229 0.346,-0.449 C 10.807,8.825 8.716,5.406 5.253,2.806 2.65,0.851 0.226,0.052 0.124,0.019 0.083,0.006 0.041,0 0,0" /></g><g
           transform="translate(43.2805,29.4868)"
           id="g36"><path
             id="path38"
             style="fill:#3e3736;fill-opacity:1;fill-rule:nonzero;stroke:none"
             d="m 0,0 c -0.057,0 -0.114,0.012 -0.169,0.038 -5.229,2.436 -10.341,2.437 -13.709,2.008 -3.662,-0.465 -6.116,-1.525 -6.14,-1.536 -0.203,-0.089 -0.439,0.004 -0.528,0.206 -0.089,0.203 0.004,0.439 0.206,0.528 0.103,0.045 2.563,1.11 6.333,1.594 3.48,0.446 8.763,0.448 14.176,-2.074 C 0.37,0.67 0.457,0.432 0.363,0.231 0.295,0.085 0.15,0 0,0" /></g><g
           transform="translate(26.1784,5.8437)"
           id="g40"><path
             id="path42"
             style="fill:#3e3736;fill-opacity:1;fill-rule:nonzero;stroke:none"
             d="m 0,0 c -0.126,0 -0.251,0.06 -0.329,0.171 -0.127,0.182 -0.083,0.431 0.099,0.558 4.725,3.31 7.281,7.737 8.594,10.868 1.428,3.405 1.735,6.06 1.738,6.087 0.024,0.22 0.223,0.378 0.442,0.354 0.22,-0.025 0.379,-0.223 0.355,-0.443 C 10.886,17.484 10.58,14.819 9.114,11.313 7.76,8.076 5.121,3.499 0.229,0.072 0.159,0.023 0.079,0 0,0" /></g><g
           transform="translate(23.9313,14.7588)"
           id="g44"><path
             id="path46"
             style="fill:#3e3736;fill-opacity:1;fill-rule:nonzero;stroke:none"
             d="m 0,0 c -0.082,0 -0.166,0.025 -0.237,0.078 -0.091,0.067 -2.244,1.665 -4.548,4.689 -2.126,2.79 -4.77,7.365 -5.291,13.315 -0.02,0.22 0.143,0.414 0.364,0.434 0.22,0.019 0.415,-0.144 0.434,-0.365 C -8.774,12.405 -6.219,7.977 -4.164,5.274 -1.929,2.335 0.217,0.739 0.238,0.724 0.417,0.593 0.455,0.342 0.323,0.164 0.245,0.057 0.123,0 0,0" /></g></g></g></g></svg>