<?xml version="1.0" encoding="UTF-8" standalone="no"?>
<svg
   xmlns:dc="http://purl.org/dc/elements/1.1/"
   xmlns:cc="http://creativecommons.org/ns#"
   xmlns:rdf="http://www.w3.org/1999/02/22-rdf-syntax-ns#"
   xmlns:svg="http://www.w3.org/2000/svg"
   xmlns="http://www.w3.org/2000/svg"
   viewBox="0 0 48.3456 42.666668"
   height="42.666668"
   width="48.3456"
   xml:space="preserve"
   id="svg2"
   version="1.1"><metadata
     id="metadata8"><rdf:RDF><cc:Work
         rdf:about=""><dc:format>image/svg+xml</dc:format><dc:type
           rdf:resource="http://purl.org/dc/dcmitype/StillImage" /></cc:Work></rdf:RDF></metadata><defs
     id="defs6"><clipPath
       id="clipPath18"
       clipPathUnits="userSpaceOnUse"><path
         id="path16"
         d="M 0,32 H 36.259 V 0 H 0 Z" /></clipPath></defs><g
     transform="matrix(1.3333333,0,0,-1.3333333,0,42.666667)"
     id="g10"><g
       id="g12"><g
         clip-path="url(#clipPath18)"
         id="g14"><g
           transform="translate(31.1709,27.3101)"
           id="g20"><path
             id="path22"
             style="fill:#3e3736;fill-opacity:1;fill-rule:nonzero;stroke:none"
             d="m 0,0 c -0.318,0 -0.577,0.259 -0.577,0.577 0,0.319 0.259,0.577 0.577,0.577 0.318,0 0.577,-0.258 0.577,-0.577 C 0.577,0.259 0.318,0 0,0 m -11.656,-1.154 c -0.637,0 -1.155,0.517 -1.155,1.155 h 2.309 c 0,-0.637 -0.518,-1.155 -1.154,-1.155 m -6.925,0 c -0.637,0 -1.154,0.517 -1.154,1.155 h 2.308 c 0,-0.637 -0.518,-1.155 -1.154,-1.155 M 0,2.308 c -0.752,0 -1.394,-0.482 -1.632,-1.154 h -4.254 c 0,1.273 -1.036,2.308 -2.308,2.308 -1.275,0 -2.308,-1.032 -2.308,-2.308 h -2.309 c 0,1.273 -1.035,2.308 -2.308,2.308 -1.275,0 -2.308,-1.032 -2.308,-2.308 h -2.308 c 0,1.273 -1.036,2.308 -2.308,2.308 -1.275,0 -2.309,-1.032 -2.309,-2.308 h -2.885 c -0.318,0 -0.576,-0.258 -0.576,-0.577 0,-0.319 0.258,-0.576 0.576,-0.576 h 2.885 c 0,-0.637 -0.517,-1.155 -1.153,-1.155 h -1.732 c -0.318,0 -0.576,-0.258 -0.576,-0.577 v -8.425 c 0,-0.319 0.258,-0.577 0.576,-0.577 0.319,0 0.577,0.258 0.577,0.577 v 7.848 h 1.155 c 1.272,0 2.308,1.036 2.308,2.308 v 1.154 c 0,0.638 0.516,1.154 1.154,1.154 0.636,0 1.154,-0.517 1.154,-1.154 V 0 c 0,-1.275 1.033,-2.308 2.308,-2.308 1.273,0 2.308,1.036 2.308,2.308 v 1.154 c 0,0.638 0.517,1.154 1.154,1.154 0.637,0 1.155,-0.517 1.155,-1.154 V 0 c 0,-1.275 1.032,-2.308 2.308,-2.308 1.272,0 2.307,1.036 2.307,2.308 v 1.154 c 0,0.638 0.518,1.154 1.155,1.154 0.636,0 1.154,-0.517 1.154,-1.154 v -24.928 c 0,-0.638 -0.517,-1.154 -1.154,-1.154 -0.636,0 -1.155,0.517 -1.155,1.154 v 15.118 c 0,0.319 -0.257,0.577 -0.576,0.577 -0.319,0 -0.577,-0.258 -0.577,-0.577 v -11.965 c -0.348,0.202 -0.743,0.309 -1.154,0.309 -0.421,0 -0.815,-0.113 -1.155,-0.311 v 16.584 c 0,0.318 -0.258,0.577 -0.577,0.577 -0.318,0 -0.576,-0.259 -0.576,-0.577 v -19.735 c 0,-0.638 -0.517,-1.154 -1.155,-1.154 -0.636,0 -1.154,0.517 -1.154,1.154 v 15.118 c 0,0.319 -0.258,0.577 -0.577,0.577 -0.318,0 -0.577,-0.258 -0.577,-0.577 v -11.965 c -0.347,0.202 -0.742,0.309 -1.154,0.309 -0.42,0 -0.815,-0.113 -1.154,-0.311 v 16.584 c 0,0.318 -0.258,0.577 -0.577,0.577 -0.319,0 -0.577,-0.259 -0.577,-0.577 v -19.735 c 0,-0.638 -0.517,-1.154 -1.154,-1.154 -0.637,0 -1.154,0.517 -1.154,1.154 v 15.118 c 0,0.319 -0.259,0.577 -0.577,0.577 -0.319,0 -0.578,-0.258 -0.578,-0.577 v -11.967 c -0.339,0.198 -0.733,0.311 -1.153,0.311 h -1.155 v 5.54 c 0,0.318 -0.258,0.577 -0.577,0.577 -0.318,0 -0.576,-0.259 -0.576,-0.577 v -6.117 c 0,-0.319 0.258,-0.577 0.576,-0.577 h 1.732 c 0.636,0 1.153,-0.518 1.153,-1.155 v -1.153 c 0,-1.273 1.036,-2.309 2.309,-2.309 1.275,0 2.308,1.034 2.308,2.309 v 1.153 c 0,0.637 0.518,1.155 1.154,1.155 0.637,0 1.154,-0.517 1.154,-1.155 v -1.153 c 0,-1.273 1.036,-2.309 2.308,-2.309 1.276,0 2.308,1.034 2.308,2.309 v 1.153 c 0,0.637 0.519,1.155 1.155,1.155 0.637,0 1.154,-0.517 1.154,-1.155 v -1.153 c 0,-1.273 1.035,-2.309 2.308,-2.309 1.275,0 2.308,1.034 2.308,2.309 V 0 h 4.254 c 0.238,-0.672 0.88,-1.154 1.632,-1.154 0.955,0 1.731,0.777 1.731,1.731 0,0.955 -0.776,1.731 -1.731,1.731" /></g><g
           transform="translate(4.5112,14.8457)"
           id="g24"><path
             id="path26"
             style="fill:#3e3736;fill-opacity:1;fill-rule:nonzero;stroke:none"
             d="m 0,0 c 0,-0.318 -0.258,-0.577 -0.577,-0.577 -0.319,0 -0.577,0.259 -0.577,0.577 0,0.319 0.258,0.577 0.577,0.577 C -0.258,0.577 0,0.319 0,0" /></g></g></g></g></svg>