<?xml version="1.0" encoding="utf-8"?>
<!-- Generator: Adobe Illustrator 26.2.1, SVG Export Plug-In . SVG Version: 6.00 Build 0)  -->
<svg version="1.1" id="Capa_1" xmlns="http://www.w3.org/2000/svg" xmlns:xlink="http://www.w3.org/1999/xlink" x="0px" y="0px"
	 viewBox="0 0 141.73 141.73" style="enable-background:new 0 0 141.73 141.73;" xml:space="preserve" fill="#3e3736">
<path d="M102.97,91.56c-1.08-11.01-6.21-21.95-7.59-24.75c0.19-0.4,0.39-0.79,0.54-1.22l2.02-7.13c0.69-2.43,0.19-5.01-1.38-7.08
	c-1.83-2.42-4.88-3.87-8.15-3.87h-1.75l7.5-11.1c0.31-0.47,0.35-1.07,0.08-1.56c-0.26-0.5-0.78-0.81-1.34-0.81H80.37
	c-0.48,0-0.93,0.23-1.22,0.61l-8.3,11.06l-8.3-11.06c-0.29-0.38-0.74-0.61-1.22-0.61h-12.5c-0.56,0-1.08,0.31-1.34,0.81
	s-0.23,1.1,0.08,1.56l7.5,11.1h-1.75c-3.27,0-6.32,1.45-8.15,3.87c-1.56,2.07-2.07,4.65-1.38,7.08l2.05,7.22
	c0.14,0.4,0.33,0.77,0.51,1.14c-1.4,2.82-6.51,13.75-7.59,24.74c-1.15,11.7-0.95,19.67,11.84,23.62c0.15,0.05,0.3,0.07,0.45,0.07
	c0.2,0,0.38-0.11,0.56-0.18c1.93,2.01,4.63,3.27,7.63,3.27h23.25c3,0,5.7-1.26,7.63-3.27c0.18,0.08,0.36,0.18,0.56,0.18
	c0.15,0,0.3-0.02,0.45-0.07C103.92,111.23,104.12,103.26,102.97,91.56z M81.13,37.08h8.89l-7.05,10.44h-9.68L81.13,37.08z
	 M51.69,37.08h8.89l7.83,10.44h-9.67L51.69,37.08z M47.59,53.22c1.26-1.67,3.4-2.66,5.73-2.66h17.54H88.4
	c2.32,0,4.46,0.99,5.72,2.66c1,1.32,1.31,2.89,0.88,4.42l-1.99,7.05c-1.21,3.48-4.76,5.82-8.82,5.82h-6.55v-1.12
	c0-2.61-2.13-4.74-4.74-4.74h-4.08c-2.61,0-4.74,2.13-4.74,4.74v1.12h-6.55c-4.06,0-7.61-2.34-8.79-5.74l-2.02-7.13
	C46.28,56.11,46.59,54.54,47.59,53.22z M74.6,69.38V79.9c0,0.94-0.76,1.7-1.7,1.7h-4.08c-0.94,0-1.7-0.76-1.7-1.7V69.38
	c0-0.94,0.76-1.7,1.7-1.7h4.07C73.83,67.68,74.6,68.44,74.6,69.38z M82.48,115.3H59.24c-4.17,0-7.56-3.39-7.56-7.56v-7.23
	c0-4.17,3.39-7.56,7.56-7.56h23.25c4.17,0,7.56,3.39,7.56,7.56v7.23C90.05,111.9,86.65,115.3,82.48,115.3z M92.36,111.52
	c0.45-1.18,0.73-2.45,0.73-3.79v-7.23c0-5.85-4.76-10.61-10.61-10.61H59.24c-5.85,0-10.6,4.76-10.6,10.61v7.23
	c0,1.34,0.28,2.61,0.73,3.79c-8.28-3.26-8.68-8.54-7.58-19.66c0.88-8.93,4.69-18.1,6.56-22.16c2.28,2.38,5.57,3.85,9.18,3.85h6.55
	v6.36c0,2.61,2.13,4.74,4.74,4.74h4.07c2.61,0,4.74-2.13,4.74-4.74v-6.36h6.55c3.61,0,6.89-1.46,9.18-3.86
	c1.87,4.05,5.69,13.23,6.57,22.17C101.04,102.98,100.64,108.26,92.36,111.52z"/>
</svg>
