<?xml version="1.0" encoding="utf-8"?>
<!-- Generator: Adobe Illustrator 26.2.1, SVG Export Plug-In . SVG Version: 6.00 Build 0)  -->
<svg version="1.1" id="Capa_1" xmlns="http://www.w3.org/2000/svg" xmlns:xlink="http://www.w3.org/1999/xlink" x="0px" y="0px"
	 viewBox="0 0 141.73 141.73" style="enable-background:new 0 0 141.73 141.73;" xml:space="preserve" fill="#3e3736">
<path d="M114.62,64.58c-0.27-0.29-0.65-0.43-1.04-0.43h-1.84c-0.25-5.67-2.62-11.75-6.43-16.44c-4.39-5.4-10.01-8.38-15.83-8.38
	H78.53v-1.74c1.41-0.19,2.48-1.48,2.31-2.98c-0.16-1.37-1.37-2.38-2.75-2.38h-5.56c-1.38,0-2.6,1.01-2.75,2.38
	c-0.17,1.5,0.9,2.79,2.31,2.98v1.74H61.12c-5.81,0-11.44,2.97-15.83,8.38c-3.82,4.69-6.18,10.77-6.43,16.44h-1.84
	c-0.39,0-0.78,0.14-1.04,0.43c-0.45,0.48-0.49,1.18-0.14,1.71l2.31,3.47c0.72,1.09,1.94,1.74,3.25,1.74h19.52L59.58,77
	c-0.25,1.01-0.68,1.95-1.3,2.8l-2.63,3.61c-0.54,0.75-0.91,1.63-1.06,2.54l-0.96,5.75l-1.62-1.36c-0.88-0.74-2.21-0.62-2.95,0.26
	l-3.77,4.5c-0.36,0.43-0.53,0.97-0.48,1.53c0.03,0.39,0.18,0.76,0.41,1.06l-6.99,8.35c-0.36,0.43-0.3,1.07,0.13,1.42l0,0
	c0.43,0.36,1.07,0.3,1.42-0.13l6.95-8.3l15.7,13.14l-6.95,8.3c-0.36,0.43-0.3,1.07,0.13,1.42l0,0c0.43,0.36,1.07,0.3,1.42-0.13
	l6.99-8.35c0.29,0.14,0.6,0.22,0.93,0.22c0.06,0,0.13,0,0.19-0.01c0.56-0.05,1.06-0.31,1.42-0.74l3.72-4.44
	c0.34-0.41,0.55-0.92,0.54-1.45c-0.02-0.61-0.29-1.17-0.75-1.56l-1.37-1.15l13.15-9.15c0.89-0.62,1.6-1.47,2.06-2.45l4.7-10.07
	c0.19-0.41,0.32-0.84,0.38-1.29l1.41-9.86h18.82c1.31,0,2.52-0.65,3.25-1.74l2.31-3.47C115.11,65.76,115.07,65.06,114.62,64.58z
	 M71.78,34.93c0-0.37,0.3-0.67,0.67-0.67h5.72c0.37,0,0.67,0.3,0.67,0.67s-0.3,0.67-0.67,0.67h-5.72
	C72.07,35.6,71.78,35.3,71.78,34.93z M74.1,37.8h2.41v1.52H74.1V37.8z M40.88,64.15c0.25-5.22,2.45-10.82,5.98-15.17
	c4-4.92,9.06-7.63,14.26-7.63h10.96h6.45h10.96c5.19,0,10.26,2.71,14.26,7.63c3.53,4.34,5.73,9.94,5.98,15.17H40.88z M68.76,107.08
	l-3.77,4.5c0,0.01-0.02,0.02-0.05,0.03c-0.03,0-0.04-0.01-0.05-0.02l-15.88-13.3l-2.17-1.81c-0.01,0-0.02-0.02-0.03-0.05
	c0-0.03,0.01-0.05,0.02-0.05l3.77-4.5c0.01-0.02,0.04-0.03,0.06-0.03s0.03,0.01,0.05,0.02l18.05,15.11l0,0
	C68.78,107.01,68.78,107.05,68.76,107.08z M86.97,81.06c-0.04,0.25-0.11,0.49-0.21,0.72l-4.7,10.07c-0.31,0.66-0.79,1.23-1.38,1.64
	l-13.6,9.46l-11.65-9.76l1.15-6.92c0.1-0.6,0.34-1.19,0.71-1.68l2.63-3.61c0.77-1.06,1.32-2.24,1.63-3.51l1.46-5.97h3.93l-0.8,11.67
	c-0.1,1.45,0.67,2.8,1.97,3.45l1.05,0.52c0.55,0.28,1.17,0.42,1.79,0.42h2.9c1.05,0,2.04-0.4,2.79-1.13l5.4-5.23
	c0.53-0.52,0.93-1.17,1.14-1.88l2.29-7.82h2.9L86.97,81.06z M80.69,71.49h2.64l-2.12,7.25c-0.11,0.38-0.32,0.72-0.6,1l-2.87,2.78
	l1.49-3.72L80.69,71.49z M77.29,78.22l-2.89,7.23c-0.18,0.05-0.37,0.08-0.56,0.08h-2.9c-0.31,0-0.61-0.07-0.89-0.21L69,84.8
	c-0.56-0.28-0.9-0.87-0.86-1.5l0.81-11.81h9.69L77.29,78.22z M110.78,68.63c-0.35,0.52-0.94,0.84-1.57,0.84H90.67h-5.98h-0.76h-4.89
	h-9.95H61.4H41.4c-0.63,0-1.22-0.31-1.57-0.84l-1.64-2.46h74.22L110.78,68.63z"/>
</svg>
