<?xml version="1.0" encoding="utf-8"?>
<!-- Generator: Adobe Illustrator 26.2.1, SVG Export Plug-In . SVG Version: 6.00 Build 0)  -->
<svg version="1.1" id="Capa_1" xmlns="http://www.w3.org/2000/svg" xmlns:xlink="http://www.w3.org/1999/xlink" x="0px" y="0px"
	 viewBox="0 0 141.73 141.73" style="enable-background:new 0 0 141.73 141.73;" xml:space="preserve" fill="#3e3736">
<path d="M100.58,60.68c-2.96,0-5.77,0.64-8.31,1.77l-4.13-7.76V44.8c2.54-0.32,6.99-0.44,9.32,1.35c0.98,0.75,1.5,1.78,1.59,3.14
	c0.22,3.28-2.45,3.8-2.98,3.86c-0.83,0.1-1.43,0.85-1.34,1.68c0.09,0.83,0.84,1.43,1.68,1.34c2.11-0.24,6.01-2.03,5.67-7.09
	c-0.15-2.26-1.09-4.06-2.78-5.35c-4.43-3.39-12.64-1.79-12.99-1.72c-0.71,0.14-1.22,0.77-1.22,1.49v10.05l-25.84,0.03l2.05-2.05
	c1.39-1.39,1.78-3.38,1.03-5.19c-0.75-1.81-2.44-2.94-4.4-2.94H44.34c-0.64,0-1.21,0.4-1.43,1s-0.04,1.28,0.46,1.69l10.93,9.13
	l-4.28,7.49c-2.69-1.29-5.68-2.03-8.85-2.03c-11.36,0-20.6,9.24-20.6,20.6s9.24,20.6,20.6,20.6c10.86,0,19.76-8.44,20.53-19.11
	l9.81-0.01c0.05,0,0.09,0.04,0.13,0.04h0.01c0.19,0,0.35-0.08,0.52-0.14c0.02-0.01,0.05-0.01,0.07-0.02
	c0.14-0.06,0.25-0.15,0.36-0.24c0.07-0.06,0.13-0.12,0.19-0.19c0.05-0.06,0.12-0.1,0.16-0.17l13.59-23.82l3.02,5.67
	c-5.77,3.66-9.61,10.08-9.61,17.4c0,11.36,9.24,20.6,20.6,20.6s20.6-9.24,20.6-20.6C121.18,69.92,111.94,60.68,100.58,60.68z
	 M57.93,46.44c1.07,0,1.49,0.81,1.59,1.06s0.38,1.12-0.37,1.88l-3.23,3.23l-7.39-6.17H57.93z M56.15,58.11l12.81,21.62l-7.26,0.01
	c-0.48-6.46-3.94-12.11-9.03-15.54L56.15,58.11z M58.66,79.74L43.8,79.76l7.36-12.91C55.34,69.75,58.2,74.41,58.66,79.74z
	 M41.18,98.85c-9.68,0-17.56-7.88-17.56-17.56c0-9.69,7.88-17.56,17.56-17.56c2.62,0,5.1,0.59,7.34,1.63l-8.66,15.18
	c-0.27,0.47-0.27,1.05,0.01,1.52c0.27,0.47,0.77,0.76,1.31,0.76l0,0l17.49-0.02C57.9,91.77,50.36,98.85,41.18,98.85z M71.63,78.26
	L58.8,56.62l25.19-0.03L71.63,78.26z M100.58,98.85c-9.68,0-17.56-7.88-17.56-17.56c0-6.16,3.19-11.58,8-14.71l8.22,15.43
	c0.27,0.51,0.8,0.81,1.34,0.81c0.24,0,0.49-0.06,0.71-0.18c0.74-0.39,1.02-1.32,0.63-2.06l-8.23-15.44c2.12-0.9,4.44-1.41,6.88-1.41
	c9.69,0,17.56,7.88,17.56,17.56C118.14,90.97,110.26,98.85,100.58,98.85z"/>
</svg>
