<?xml version="1.0" encoding="utf-8"?>
<!-- Generator: Adobe Illustrator 26.2.1, SVG Export Plug-In . SVG Version: 6.00 Build 0)  -->
<svg version="1.1" id="Capa_1" xmlns="http://www.w3.org/2000/svg" xmlns:xlink="http://www.w3.org/1999/xlink" x="0px" y="0px"
	 viewBox="0 0 141.73 141.73" style="enable-background:new 0 0 141.73 141.73;" xml:space="preserve" fill="white">
<path d="M71.94,105.64c-18.73,0-33.97-15.24-33.97-33.97S53.21,37.7,71.94,37.7s33.97,15.24,33.97,33.97S90.67,105.64,71.94,105.64z
	 M71.94,41.08c-16.87,0-30.59,13.72-30.59,30.59s13.72,30.59,30.59,30.59s30.59-13.72,30.59-30.59
	C102.54,54.8,88.81,41.08,71.94,41.08z"/>
<path d="M102.65,123.44c-0.19,0-0.39,0-0.58-0.01c-4.3-0.15-8.29-1.97-11.22-5.12s-4.47-7.26-4.31-11.56
	c0.15-4.3,1.97-8.29,5.12-11.22s7.26-4.46,11.56-4.31c8.88,0.32,15.85,7.8,15.54,16.68C118.44,116.58,111.27,123.44,102.65,123.44z
	 M102.63,94.57c-3.23,0-6.3,1.2-8.68,3.42c-2.49,2.32-3.93,5.47-4.05,8.88c-0.12,3.4,1.09,6.65,3.41,9.14
	c2.32,2.49,5.47,3.93,8.88,4.05c7.03,0.24,12.94-5.26,13.19-12.29s-5.26-12.94-12.29-13.19C102.94,94.58,102.78,94.57,102.63,94.57z
	"/>
<path d="M75.11,105.47c-0.27,0-0.55-0.06-0.8-0.2c-1.15-0.62-2.34-1.39-3.63-2.35c-0.07-0.04-0.13-0.08-0.19-0.12
	c-9.9-7.43-15.57-18.77-15.57-31.12s5.68-23.69,15.57-31.12c0.06-0.05,0.13-0.09,0.2-0.13c1.18-0.88,2.4-1.67,3.62-2.36
	c0.81-0.46,1.84-0.17,2.3,0.64c0.46,0.81,0.17,1.84-0.64,2.3c-1.15,0.65-2.31,1.41-3.42,2.24c-0.06,0.05-0.12,0.09-0.19,0.12
	c-8.94,6.79-14.06,17.09-14.06,28.3s5.13,21.52,14.07,28.31c0.06,0.04,0.12,0.07,0.18,0.12c1.22,0.91,2.32,1.63,3.37,2.2
	c0.82,0.44,1.12,1.47,0.68,2.29C76.29,105.15,75.71,105.47,75.11,105.47z"/>
<path d="M68.08,105.39c-0.59,0-1.16-0.31-1.47-0.86c-0.46-0.81-0.17-1.84,0.64-2.3c1-0.57,2.04-1.25,3.25-2.15
	c0.06-0.04,0.11-0.08,0.18-0.11c8.94-6.81,14.07-17.11,14.07-28.3s-5.13-21.5-14.07-28.31c-0.07-0.04-0.13-0.08-0.19-0.12
	c-0.94-0.71-2.01-1.42-3.29-2.17c-0.8-0.47-1.07-1.5-0.6-2.31c0.47-0.8,1.5-1.07,2.31-0.6c1.32,0.77,2.45,1.52,3.46,2.27
	c0.06,0.04,0.12,0.07,0.18,0.12c9.9,7.45,15.57,18.79,15.57,31.12s-5.68,23.67-15.57,31.12c-0.07,0.05-0.14,0.09-0.21,0.13
	c-1.26,0.92-2.35,1.64-3.43,2.25C68.64,105.32,68.36,105.39,68.08,105.39z"/>
<path d="M100.8,58.9H43.08c-0.93,0-1.69-0.76-1.69-1.69s0.75-1.69,1.69-1.69h57.73c0.93,0,1.69,0.76,1.69,1.69
	S101.74,58.9,100.8,58.9z"/>
<path d="M100.8,87.79H43.08c-0.93,0-1.69-0.76-1.69-1.69s0.75-1.69,1.69-1.69h57.73c0.93,0,1.69,0.76,1.69,1.69
	S101.74,87.79,100.8,87.79z"/>
<path d="M103.59,73.35h-63.2c-0.93,0-1.69-0.76-1.69-1.69s0.75-1.69,1.69-1.69h63.2c0.93,0,1.69,0.76,1.69,1.69
	S104.52,73.35,103.59,73.35z"/>
<g>
	<g>
		<path d="M101.07,113.48c-0.42-0.07-0.83-0.17-1.21-0.29s-0.68-0.26-0.89-0.4l0.33-1.09c0.38,0.19,0.83,0.36,1.37,0.5
			c0.53,0.15,1.06,0.22,1.58,0.22c0.92,0,1.62-0.18,2.12-0.54s0.75-0.83,0.75-1.4c0-0.41-0.12-0.77-0.35-1.08
			c-0.24-0.31-0.57-0.59-1.01-0.85c-0.44-0.25-1.04-0.54-1.81-0.87c-1.09-0.47-1.89-0.98-2.4-1.53c-0.51-0.55-0.77-1.23-0.77-2.03
			c0-0.65,0.2-1.22,0.61-1.72s0.97-0.86,1.68-1.08v-1.89l1-0.18v1.87l0.53-0.02c0.14,0,0.34,0.01,0.6,0.04v-1.73l1.02-0.18v2.08
			c0.49,0.13,0.97,0.31,1.44,0.53l-0.48,1.07c-0.43-0.2-0.83-0.35-1.19-0.46s-0.8-0.16-1.31-0.16c-0.78,0-1.39,0.16-1.86,0.48
			c-0.46,0.32-0.7,0.76-0.7,1.32c0,0.42,0.11,0.78,0.34,1.08c0.23,0.3,0.55,0.57,0.98,0.82c0.42,0.25,1.05,0.56,1.87,0.93
			c0.74,0.34,1.34,0.67,1.79,0.99c0.45,0.32,0.8,0.68,1.03,1.08c0.23,0.41,0.35,0.89,0.35,1.45c0,0.66-0.2,1.24-0.59,1.74
			s-0.95,0.87-1.68,1.12v2.08h-1.02v-1.87c-0.27,0.05-0.58,0.07-0.93,0.07h-0.19v1.8h-1L101.07,113.48L101.07,113.48z"/>
		<path d="M104.51,115.68h-1.58v-1.83c-0.18,0.02-0.37,0.03-0.57,0.03v1.8h-1.57v-1.97c-0.35-0.07-0.69-0.15-1.01-0.26
			c-0.4-0.13-0.72-0.27-0.96-0.43l-0.17-0.12l0.49-1.61l0.3,0.15c0.36,0.18,0.8,0.34,1.31,0.48c0.51,0.14,1.01,0.21,1.5,0.21
			c0.85,0,1.51-0.16,1.96-0.48c0.42-0.31,0.63-0.69,0.63-1.17c0-0.35-0.1-0.65-0.3-0.91c-0.21-0.28-0.52-0.54-0.93-0.77
			c-0.43-0.25-1.03-0.53-1.78-0.86c-1.12-0.48-1.96-1.02-2.5-1.6c-0.56-0.6-0.84-1.35-0.84-2.22c0-0.71,0.23-1.35,0.67-1.89
			c0.4-0.49,0.95-0.87,1.62-1.11V99.2l1.57-0.28v1.91l0.24-0.01c0.1-0.02,0.2,0,0.33,0.01v-1.66l1.58-0.27v2.2
			c0.44,0.13,0.87,0.29,1.28,0.49l0.25,0.12l-0.7,1.58l-0.26-0.12c-0.42-0.19-0.81-0.34-1.15-0.44c-0.33-0.1-0.75-0.15-1.23-0.15
			c-0.71,0-1.29,0.14-1.7,0.43c-0.39,0.26-0.57,0.62-0.57,1.09c0,0.36,0.09,0.66,0.29,0.91c0.21,0.27,0.51,0.52,0.9,0.75
			c0.41,0.24,1.03,0.55,1.84,0.92c0.75,0.35,1.37,0.69,1.83,1.01c0.48,0.34,0.86,0.73,1.11,1.17c0.26,0.45,0.39,0.98,0.39,1.59
			c0,0.72-0.22,1.36-0.65,1.91c-0.39,0.5-0.94,0.88-1.62,1.14C104.51,113.5,104.51,115.68,104.51,115.68z M103.49,115.12h0.46v-2
			l0.19-0.06c0.67-0.23,1.19-0.57,1.55-1.03c0.36-0.45,0.53-0.96,0.53-1.56c0-0.51-0.11-0.95-0.31-1.31
			c-0.21-0.37-0.53-0.7-0.95-0.99c-0.44-0.31-1.02-0.63-1.74-0.96c-0.84-0.39-1.46-0.7-1.89-0.95c-0.45-0.26-0.81-0.56-1.06-0.89
			c-0.27-0.35-0.4-0.77-0.4-1.26c0-0.66,0.28-1.18,0.82-1.55c0.51-0.35,1.19-0.53,2.02-0.53c0.54,0,1.01,0.06,1.39,0.17
			c0.3,0.09,0.62,0.21,0.97,0.36l0.25-0.56c-0.37-0.16-0.76-0.3-1.15-0.4l-0.21-0.06v-1.96l-0.46,0.08v1.8l-0.31-0.03
			c-0.25-0.02-0.44-0.04-0.57-0.04l-0.81,0.03V99.6l-0.44,0.08v1.86l-0.2,0.06c-0.66,0.21-1.18,0.54-1.55,0.99s-0.54,0.96-0.54,1.54
			c0,0.73,0.23,1.33,0.69,1.84c0.48,0.52,1.26,1.01,2.31,1.47c0.77,0.33,1.38,0.63,1.83,0.89c0.47,0.27,0.84,0.58,1.1,0.92
			c0.27,0.36,0.41,0.78,0.41,1.25c0,0.67-0.29,1.22-0.87,1.63c-0.55,0.39-1.32,0.59-2.29,0.59c-0.54,0-1.09-0.08-1.65-0.23
			c-0.41-0.11-0.79-0.24-1.12-0.38l-0.18,0.57c0.17,0.09,0.39,0.18,0.64,0.26c0.37,0.12,0.76,0.22,1.17,0.28l0.23,0.04v1.88h0.44
			v-1.8h0.47c0.33,0,0.63-0.02,0.89-0.07l0.33-0.06L103.49,115.12L103.49,115.12z"/>
	</g>
</g>
<path d="M27.46,69.47c-0.93,0-1.69-0.76-1.69-1.69V46.56c0-0.93,0.75-1.69,1.69-1.69c0.93,0,1.69,0.76,1.69,1.69v21.23
	C29.14,68.72,28.39,69.47,27.46,69.47z"/>
<path d="M36,48.18H18.91c-0.65,0-1.24-0.37-1.52-0.96c-0.28-0.58-0.2-1.28,0.2-1.78l8.46-10.58c0.32-0.4,0.8-0.63,1.31-0.63h0.01
	c0.51,0,0.99,0.23,1.31,0.62l8.63,10.58c0.41,0.5,0.5,1.2,0.22,1.79C37.25,47.8,36.65,48.18,36,48.18z M22.42,44.81h10.03
	l-5.06-6.21L22.42,44.81z"/>
</svg>
