<?xml version="1.0" encoding="utf-8"?>
<!-- Generator: Adobe Illustrator 26.2.1, SVG Export Plug-In . SVG Version: 6.00 Build 0)  -->
<svg version="1.1" id="Capa_1" xmlns="http://www.w3.org/2000/svg" xmlns:xlink="http://www.w3.org/1999/xlink" x="0px" y="0px"
	 viewBox="0 0 141.73 141.73" style="enable-background:new 0 0 141.73 141.73;" xml:space="preserve" fill="white">
<g>
	<path d="M95.56,71.73h-0.01c-1.23,0-2.22,0.99-2.23,2.22s0.99,2.23,2.22,2.24h0.01c1.22,0,2.22-0.99,2.23-2.22
		C97.78,72.73,96.79,71.73,95.56,71.73z"/>
	<path d="M113.06,75.02c-0.62-0.77-1.49-1.25-2.47-1.35c-0.03,0-0.06-0.01-0.09-0.01l-4.92-0.17l-0.01-0.03
		c-1.34-4.03-2.32-6.99-7.18-11.47c1.15-2.71,2.45-4.47,5.13-7.09c0.32-0.31,0.44-0.76,0.33-1.19s-0.45-0.76-0.88-0.87
		c-4.21-1.09-8.5-1.73-14.54,2.19c-0.36-0.13-0.83-0.29-1.31-0.47c-0.85-0.31-1.6-0.57-2.22-0.79c1.54-2.62,2.4-5.63,2.42-8.77
		c0.05-9.66-7.77-17.56-17.43-17.61c-4.69-0.02-9.09,1.78-12.42,5.07s-5.17,7.68-5.19,12.36c-0.02,3.57,1.07,6.99,2.99,9.86
		C46.8,58,40.97,63.62,37.93,71.43c-1.21,3.08-2.64,5.6-4.32,7.63c-0.05-0.1-0.1-0.21-0.15-0.31c-1.2-2.34-3.34-3.76-6.05-3.99
		c-1.65-0.14-3.29,0.41-4.48,1.51c-1.1,1.01-1.69,2.4-1.67,3.9c0.02,2.21,1.01,3.95,2.78,4.89c2.05,1.1,4.93,0.92,7.01-0.43
		c0.32-0.21,0.63-0.43,0.94-0.66c-0.13,1.51-0.62,3.08-1.45,4.47c-0.35,0.58-0.16,1.33,0.42,1.68c0.2,0.12,0.41,0.17,0.63,0.17
		c0.42,0,0.82-0.21,1.05-0.59c1.47-2.45,2.07-5.29,1.76-7.85c0.69-0.72,1.35-1.5,1.97-2.35c-0.13,8.71,4.21,14.87,8.53,19.99
		l-3.59,10.23c-0.02,0.07-0.04,0.14-0.05,0.21c-0.15,0.97,0.08,1.94,0.66,2.73c0.58,0.8,1.43,1.32,2.4,1.47l7.87,1.24
		c0.2,0.03,0.39,0.05,0.57,0.05c1.97,0,2.94-1.73,3.49-2.69l2.9-5.1c0.12-0.2,0.2-0.31,0.26-0.39c3.65,1.01,7.47,1.53,11.35,1.55
		c3.89,0.02,7.72-0.46,11.38-1.44c0.04,0.05,0.11,0.14,0.18,0.29l1.87,4.68c0.01,0.03,0.03,0.07,0.05,0.1
		c0.47,0.92,1.58,3.09,4.05,2.72l7.89-1.16c2.01-0.3,3.4-2.17,3.1-4.17c-0.01-0.05-0.02-0.09-0.03-0.14l-2.61-9.66
		c0-0.03,0.02-0.05,0.04-0.07c1.9-1.61,3.57-3.39,4.97-5.31c0.08-0.11,0.16-0.25,0.26-0.4c0.07-0.12,0.19-0.31,0.3-0.47l2.06,0.23
		c1.75,0.19,4.06-0.85,4.91-3.16l4.6-12.85c0.03-0.09,0.05-0.18,0.06-0.28C113.96,76.75,113.68,75.79,113.06,75.02z M29.71,82.58
		c-1.33,0.87-3.23,1.01-4.51,0.32c-0.97-0.52-1.47-1.45-1.49-2.76c-0.01-1.03,0.48-1.7,0.89-2.08c0.61-0.56,1.45-0.88,2.31-0.88
		c0.1,0,0.2,0,0.3,0.01c1.86,0.16,3.27,1.08,4.08,2.67c0.19,0.36,0.33,0.75,0.45,1.16C31.09,81.6,30.41,82.12,29.71,82.58z
		 M54.74,44.85c0.02-4.03,1.61-7.8,4.47-10.64c2.84-2.81,6.61-4.36,10.6-4.36c0.03,0,0.05,0,0.08,0c8.31,0.04,15.04,6.84,15,15.15
		c-0.03,5.76-3.39,11.04-8.57,13.52c-1.96-0.39-4.22-0.67-6.56-0.69c-2.35-0.01-4.61,0.25-6.57,0.62
		C58.01,55.92,54.71,50.61,54.74,44.85z M106.88,90.01c-0.4,1.08-1.53,1.65-2.34,1.56l-2.55-0.28c-0.06-0.01-0.11-0.01-0.17-0.01
		c-0.98,0.03-1.54,0.94-2,1.67c-0.06,0.1-0.12,0.19-0.16,0.25c-1.28,1.76-2.82,3.4-4.57,4.88c-0.68,0.58-1.01,1.45-0.88,2.33
		c0.01,0.05,0.02,0.09,0.03,0.14l2.62,9.69c0.06,0.65-0.39,1.24-1.04,1.33l-7.89,1.16c-0.34,0.05-0.73,0.11-1.49-1.37l-1.87-4.67
		c-0.01-0.03-0.03-0.06-0.04-0.09c-0.96-1.92-2.37-1.78-2.93-1.63c-3.48,0.94-7.13,1.4-10.83,1.38c-3.71-0.02-7.35-0.52-10.82-1.49
		c-1.7-0.47-2.54,0.92-2.91,1.52c-0.01,0.01-0.01,0.02-0.02,0.03l-2.91,5.12c-0.83,1.46-1.13,1.5-1.55,1.43l-7.87-1.24
		c-0.32-0.05-0.61-0.23-0.8-0.49c-0.18-0.24-0.26-0.53-0.23-0.82l3.78-10.77c0.14-0.41,0.06-0.87-0.22-1.2
		c-4.7-5.51-9.21-11.68-8.28-20.97c0.15-1.5,0.5-3.01,1.03-4.49c0.08-0.22,0.16-0.44,0.25-0.65c0.01-0.03,0.02-0.06,0.04-0.09
		c0-0.01,0-0.01,0-0.02c2.88-7.3,8.46-12.52,16.61-15.53c0.87,0.96,1.85,1.82,2.92,2.57c-1.02,0.31-1.84,0.62-2.39,0.89
		c-0.61,0.3-0.86,1.03-0.56,1.64c0.3,0.61,1.03,0.86,1.64,0.56c1.42-0.69,6.04-2.11,11.28-2.09c5.24,0.03,9.85,1.49,11.26,2.2
		c0.18,0.09,0.36,0.13,0.55,0.13c0.45,0,0.88-0.25,1.1-0.68c0.3-0.6,0.06-1.34-0.55-1.64c-0.55-0.27-1.37-0.6-2.39-0.92
		c1.43-0.98,2.7-2.16,3.76-3.5c0.78,0.25,1.97,0.68,2.83,0.99c0.85,0.31,1.59,0.57,1.96,0.69c0.35,0.11,0.74,0.05,1.04-0.16
		c4.52-3.08,7.71-3.28,10.96-2.67c-2.16,2.33-3.35,4.27-4.47,7.15c-0.19,0.48-0.06,1.02,0.33,1.36c4.93,4.38,5.75,6.87,7.12,11
		l0.02,0.05c0.32,0.96,1.16,1.61,2.15,1.65l4.95,0.17c0.31,0.04,0.59,0.2,0.78,0.45c0.18,0.23,0.28,0.5,0.27,0.78L106.88,90.01z"/>
	<path d="M66.04,48.84c0-0.68-0.55-1.22-1.22-1.23l0,0c-0.68,0-1.22,0.55-1.22,1.22c0,2.49,2.02,4.39,4.96,4.82v0.04
		c0,0.02,0,0.04,0.01,0.06l-0.01,1.48c0,0.68,0.54,1.23,1.22,1.23c0,0,0,0,0.01,0c0.67,0,1.22-0.54,1.22-1.22l0.01-1.59
		c1.19-0.16,2.25-0.55,3.09-1.17c1.22-0.89,1.9-2.17,1.9-3.6c0.02-2.51-1.89-4.5-4.95-5.25l0.03-5.51c1.36,0.28,2.53,1.04,2.52,2.33
		c0,0.68,0.55,1.22,1.22,1.23l0,0c0.68,0,1.22-0.55,1.22-1.22c0-2.49-2.02-4.39-4.96-4.82l0.01-1.59c0-0.68-0.54-1.23-1.22-1.23
		c-0.67,0-1.23,0.54-1.23,1.22l-0.01,1.54l0,0v0.05c-2.95,0.4-4.99,2.28-5,4.77c-0.02,2.51,1.88,4.5,4.95,5.25l-0.03,5.51
		C67.19,50.89,66.03,50.14,66.04,48.84z M71.03,46.19c1.59,0.52,2.53,1.49,2.52,2.69c0,0.66-0.31,1.21-0.9,1.64
		c-0.43,0.32-1,0.54-1.64,0.67L71.03,46.19z M66.08,40.43c0.01-1.15,1-2.02,2.54-2.31l-0.03,5C67.01,42.6,66.07,41.63,66.08,40.43z"
		/>
</g>
</svg>
