<?xml version="1.0" encoding="UTF-8" standalone="no"?>
<svg
   xmlns:dc="http://purl.org/dc/elements/1.1/"
   xmlns:cc="http://creativecommons.org/ns#"
   xmlns:rdf="http://www.w3.org/1999/02/22-rdf-syntax-ns#"
   xmlns:svg="http://www.w3.org/2000/svg"
   xmlns="http://www.w3.org/2000/svg"
   viewBox="0 0 48.3456 42.666668"
   height="42.666668"
   width="48.3456"
   xml:space="preserve"
   id="svg2"
   version="1.1"><metadata
     id="metadata8"><rdf:RDF><cc:Work
         rdf:about=""><dc:format>image/svg+xml</dc:format><dc:type
           rdf:resource="http://purl.org/dc/dcmitype/StillImage" /></cc:Work></rdf:RDF></metadata><defs
     id="defs6"><clipPath
       id="clipPath18"
       clipPathUnits="userSpaceOnUse"><path
         id="path16"
         d="M 0,32 H 36.259 V 0 H 0 Z" /></clipPath></defs><g
     transform="matrix(1.3333333,0,0,-1.3333333,0,42.666667)"
     id="g10"><g
       id="g12"><g
         clip-path="url(#clipPath18)"
         id="g14"><g
           transform="translate(7.7642,8.0498)"
           id="g20"><path
             id="path22"
             style="fill:#3e3736;fill-opacity:1;fill-rule:nonzero;stroke:none"
             d="m 0,0 c -0.338,0 -0.612,-0.274 -0.612,-0.612 v -1.754 c 0,-0.339 0.274,-0.613 0.612,-0.613 0.338,0 0.612,0.274 0.612,0.613 v 1.754 C 0.612,-0.274 0.338,0 0,0" /></g><path
           id="path24"
           style="fill:#3e3736;fill-opacity:1;fill-rule:nonzero;stroke:none"
           d="m 29.767,4.662 h 2.808 V 2.933 h -2.808 z m -8.496,1.224 h -8.204 v 3.22 c 0,1.123 -0.808,2.061 -1.873,2.265 v 1.842 15.854 h 10.077 z m 0,-2.953 h -2.807 v 1.729 h 2.807 z m -9.428,1.081 c 0,-0.596 -0.486,-1.081 -1.083,-1.081 H 4.768 c -0.597,0 -1.083,0.485 -1.083,1.081 v 5.092 c 0,0.597 0.486,1.082 1.083,1.082 h 5.992 c 0.598,0 1.083,-0.485 1.083,-1.082 z m -6.284,9.199 c 0,0.993 0.808,1.801 1.801,1.801 h 0.807 c 0.994,0 1.803,-0.808 1.803,-1.801 V 11.412 H 5.559 Z M 33.187,30.292 H 10.582 C 10.244,30.292 9.97,30.018 9.97,29.68 V 15.641 C 9.466,16.016 8.842,16.238 8.167,16.238 H 7.36 c -1.668,0 -3.026,-1.357 -3.026,-3.025 V 11.371 C 3.269,11.167 2.461,10.229 2.461,9.106 V 4.014 c 0,-1.272 1.035,-2.306 2.307,-2.306 h 5.992 c 1.273,0 2.307,1.034 2.307,2.306 v 0.648 h 4.174 V 2.32 c 0,-0.338 0.274,-0.612 0.612,-0.612 h 4.03 c 0.338,0 0.612,0.274 0.612,0.612 v 2.342 h 6.047 V 2.32 c 0,-0.338 0.274,-0.612 0.612,-0.612 h 4.033 c 0.337,0 0.612,0.274 0.612,0.612 v 2.954 9.035 c 0,0.337 -0.275,0.611 -0.612,0.611 -0.338,0 -0.613,-0.274 -0.613,-0.611 V 5.886 H 22.495 v 23.181 h 10.079 v -9.266 c 0,-0.338 0.275,-0.612 0.613,-0.612 0.337,0 0.612,0.274 0.612,0.612 v 9.879 c 0,0.338 -0.275,0.612 -0.612,0.612" /><g
           transform="translate(30.2764,26.3325)"
           id="g26"><path
             id="path28"
             style="fill:#3e3736;fill-opacity:1;fill-rule:nonzero;stroke:none"
             d="m 0,0 h -5.485 c -0.338,0 -0.613,-0.274 -0.613,-0.612 0,-0.338 0.275,-0.612 0.613,-0.612 H 0 c 0.339,0 0.612,0.274 0.612,0.612 C 0.612,-0.274 0.339,0 0,0" /></g><g
           transform="translate(30.8887,22.9575)"
           id="g30"><path
             id="path32"
             style="fill:#3e3736;fill-opacity:1;fill-rule:nonzero;stroke:none"
             d="M 0,0 C 0,0.338 -0.273,0.612 -0.612,0.612 H -6.098 C -6.436,0.612 -6.71,0.338 -6.71,0 c 0,-0.338 0.274,-0.612 0.612,-0.612 h 5.486 C -0.273,-0.612 0,-0.338 0,0" /></g><g
           transform="translate(13.4897,25.1084)"
           id="g34"><path
             id="path36"
             style="fill:#3e3736;fill-opacity:1;fill-rule:nonzero;stroke:none"
             d="m 0,0 h 5.486 c 0.338,0 0.612,0.274 0.612,0.612 0,0.338 -0.274,0.612 -0.612,0.612 H 0 C -0.338,1.224 -0.612,0.95 -0.612,0.612 -0.612,0.274 -0.338,0 0,0" /></g><g
           transform="translate(13.4897,22.3457)"
           id="g38"><path
             id="path40"
             style="fill:#3e3736;fill-opacity:1;fill-rule:nonzero;stroke:none"
             d="m 0,0 h 5.486 c 0.338,0 0.612,0.274 0.612,0.612 0,0.338 -0.274,0.612 -0.612,0.612 H 0 C -0.338,1.224 -0.612,0.95 -0.612,0.612 -0.612,0.274 -0.338,0 0,0" /></g><g
           transform="translate(24.1787,17.7646)"
           id="g42"><path
             id="path44"
             style="fill:#3e3736;fill-opacity:1;fill-rule:nonzero;stroke:none"
             d="m 0,0 v -1.338 c 0,-0.338 0.274,-0.612 0.612,-0.612 0.338,0 0.613,0.274 0.613,0.612 V 0 C 1.225,0.338 0.95,0.612 0.612,0.612 0.274,0.612 0,0.338 0,0" /></g><g
           transform="translate(13.4897,15.8145)"
           id="g46"><path
             id="path48"
             style="fill:#3e3736;fill-opacity:1;fill-rule:nonzero;stroke:none"
             d="M 0,0 C 0.338,0 0.612,0.274 0.612,0.612 V 1.95 C 0.612,2.288 0.338,2.562 0,2.562 -0.338,2.562 -0.612,2.288 -0.612,1.95 V 0.612 C -0.612,0.274 -0.338,0 0,0" /></g><g
           transform="translate(33.1865,17.6694)"
           id="g50"><path
             id="path52"
             style="fill:#3e3736;fill-opacity:1;fill-rule:nonzero;stroke:none"
             d="m 0,0 c -0.338,0 -0.612,-0.274 -0.612,-0.612 v -0.004 c 0,-0.338 0.274,-0.61 0.612,-0.61 0.338,0 0.612,0.276 0.612,0.614 C 0.612,-0.274 0.338,0 0,0" /></g></g></g></g></svg>