<?xml version="1.0" encoding="UTF-8" standalone="no"?>
<svg
   xmlns:dc="http://purl.org/dc/elements/1.1/"
   xmlns:cc="http://creativecommons.org/ns#"
   xmlns:rdf="http://www.w3.org/1999/02/22-rdf-syntax-ns#"
   xmlns:svg="http://www.w3.org/2000/svg"
   xmlns="http://www.w3.org/2000/svg"
   viewBox="0 0 48.3456 42.666668"
   height="42.666668"
   width="48.3456"
   xml:space="preserve"
   id="svg2"
   version="1.1"><metadata
     id="metadata8"><rdf:RDF><cc:Work
         rdf:about=""><dc:format>image/svg+xml</dc:format><dc:type
           rdf:resource="http://purl.org/dc/dcmitype/StillImage" /></cc:Work></rdf:RDF></metadata><defs
     id="defs6"><clipPath
       id="clipPath18"
       clipPathUnits="userSpaceOnUse"><path
         id="path16"
         d="M 0,32 H 36.259 V 0 H 0 Z" /></clipPath></defs><g
     transform="matrix(1.3333333,0,0,-1.3333333,0,42.666667)"
     id="g10"><g
       id="g12"><g
         clip-path="url(#clipPath18)"
         id="g14"><g
           transform="translate(33.8506,26.769)"
           id="g20"><path
             id="path22"
             style="fill:#3e3736;fill-opacity:1;fill-rule:nonzero;stroke:none"
             d="m 0,0 c -0.322,0 -0.583,0.26 -0.583,0.582 0,0.321 0.261,0.582 0.583,0.582 0.321,0 0.582,-0.261 0.582,-0.582 C 0.582,0.26 0.321,0 0,0 m -4.657,-23.599 -0.388,0.388 c -0.749,0.75 -1.966,0.751 -2.716,10e-4 -10e-4,0 -0.002,-10e-4 -0.002,-10e-4 l -0.433,-0.434 c -0.296,-0.295 -0.776,-0.295 -1.073,0 l -0.432,0.434 c -0.218,0.214 -0.485,0.375 -0.778,0.464 v 6.448 c 0,0.321 -0.26,0.582 -0.582,0.582 -0.321,0 -0.582,-0.261 -0.582,-0.582 v -6.449 c -0.293,-0.09 -0.559,-0.251 -0.777,-0.465 l -0.433,-0.434 c -0.296,-0.295 -0.776,-0.295 -1.072,0 l -0.433,0.434 c -0.75,0.751 -1.966,0.751 -2.717,0.002 0,-0.001 -0.001,-0.002 -0.002,-0.002 l -0.433,-0.434 c -0.296,-0.295 -0.776,-0.295 -1.072,0 l -0.433,0.434 c -0.22,0.216 -0.49,0.377 -0.786,0.465 0,0.015 0.009,0.028 0.009,0.043 v 9.899 c 0,0.321 -0.261,0.582 -0.583,0.582 -0.321,0 -0.582,-0.261 -0.582,-0.582 v -9.897 c 0,-0.014 0.008,-0.027 0.009,-0.043 -0.296,-0.088 -0.566,-0.249 -0.785,-0.465 l -0.434,-0.433 c -0.296,-0.296 -0.775,-0.296 -1.072,0 l -0.433,0.433 c -0.75,0.751 -1.966,0.752 -2.717,0.002 0,-0.001 -0.001,-0.001 -0.002,-0.002 l -0.386,-0.388 V 2.328 h 22.12 z M -31.435,0 c -0.321,0 -0.582,0.26 -0.582,0.582 0,0.321 0.261,0.582 0.582,0.582 0.322,0 0.582,-0.261 0.582,-0.582 C -30.853,0.26 -31.113,0 -31.435,0 M 1.645,1.17 C 1.397,1.866 0.738,2.33 -0.001,2.328 -0.738,2.325 -1.394,1.859 -1.64,1.164 h -1.853 v 1.747 c 0,0.321 -0.261,0.582 -0.582,0.582 H -27.36 c -0.321,0 -0.582,-0.261 -0.582,-0.582 V 1.164 h -1.853 c -0.322,0.909 -1.319,1.386 -2.229,1.065 -0.909,-0.322 -1.386,-1.32 -1.064,-2.229 0.321,-0.91 1.319,-1.386 2.229,-1.064 0.497,0.175 0.888,0.566 1.064,1.064 h 1.853 v -24.449 c 0,-0.159 0.066,-0.311 0.181,-0.421 0.115,-0.108 0.27,-0.166 0.428,-0.161 l 0.582,0.028 c 0.145,0.006 0.282,0.067 0.385,0.17 l 0.799,0.798 c 0.295,0.296 0.774,0.297 1.07,0.002 0,-10e-4 0.001,-0.002 0.002,-0.002 l 0.433,-0.433 c 0.761,-0.726 1.958,-0.726 2.718,0 l 0.433,0.433 c 0.295,0.296 0.775,0.297 1.071,0.002 0,-10e-4 0.001,-0.002 0.002,-0.002 l 0.433,-0.433 c 0.76,-0.726 1.958,-0.726 2.718,0 l 0.434,0.433 c 0.295,0.296 0.774,0.297 1.069,0.002 10e-4,-10e-4 0.002,-0.002 0.003,-0.002 l 0.432,-0.433 c 0.761,-0.726 1.958,-0.726 2.719,0 l 0.433,0.433 c 0.111,0.105 0.25,0.173 0.401,0.196 0.087,-0.036 0.184,-0.036 0.271,0 0.151,-0.023 0.29,-0.091 0.401,-0.196 l 0.432,-0.433 c 0.761,-0.726 1.958,-0.726 2.719,0 l 0.434,0.433 c 0.294,0.296 0.773,0.297 1.069,0.002 0.001,-10e-4 0.002,-0.002 0.003,-0.002 l 0.798,-0.798 c 0.102,-0.103 0.24,-0.164 0.384,-0.17 l 0.582,-0.028 h 0.028 c 0.321,0 0.582,0.261 0.582,0.583 V 0 h 1.853 c 0.324,-0.907 1.321,-1.38 2.228,-1.058 0.907,0.324 1.38,1.321 1.057,2.228" /></g><g
           transform="translate(16.3867,27.9331)"
           id="g24"><path
             id="path26"
             style="fill:#3e3736;fill-opacity:1;fill-rule:nonzero;stroke:none"
             d="m 0,0 h -7.567 c -0.322,0 -0.582,-0.261 -0.582,-0.582 0,-0.322 0.26,-0.582 0.582,-0.582 H 0 c 0.322,0 0.582,0.26 0.582,0.582 C 0.582,-0.261 0.322,0 0,0" /></g><g
           transform="translate(27.4473,27.9331)"
           id="g28"><path
             id="path30"
             style="fill:#3e3736;fill-opacity:1;fill-rule:nonzero;stroke:none"
             d="m 0,0 h -7.568 c -0.321,0 -0.582,-0.261 -0.582,-0.582 0,-0.322 0.261,-0.582 0.582,-0.582 H 0 c 0.321,0 0.582,0.26 0.582,0.582 C 0.582,-0.261 0.321,0 0,0" /></g><g
           transform="translate(27.4473,25.0225)"
           id="g32"><path
             id="path34"
             style="fill:#3e3736;fill-opacity:1;fill-rule:nonzero;stroke:none"
             d="m 0,0 c -0.322,0 -0.582,-0.261 -0.582,-0.582 v -6.985 c 0,-0.322 0.26,-0.582 0.582,-0.582 0.321,0 0.582,0.26 0.582,0.582 v 6.985 C 0.582,-0.26 0.321,0 0,0" /></g><g
           transform="translate(18.1333,22.6943)"
           id="g36"><path
             id="path38"
             style="fill:#3e3736;fill-opacity:1;fill-rule:nonzero;stroke:none"
             d="m 0,0 c -0.322,0 -0.582,-0.261 -0.582,-0.583 v -6.985 c 0,-0.321 0.26,-0.581 0.582,-0.581 0.321,0 0.582,0.26 0.582,0.581 v 6.985 C 0.582,-0.261 0.321,0 0,0" /></g><g
           transform="translate(22.79,15.1265)"
           id="g40"><path
             id="path42"
             style="fill:#3e3736;fill-opacity:1;fill-rule:nonzero;stroke:none"
             d="m 0,0 c -0.321,0 -0.582,-0.26 -0.582,-0.582 v -1.747 c 0,-0.321 0.261,-0.582 0.582,-0.582 0.321,0 0.582,0.261 0.582,0.582 v 1.747 C 0.582,-0.26 0.321,0 0,0" /></g><g
           transform="translate(13.4761,18.0371)"
           id="g44"><path
             id="path46"
             style="fill:#3e3736;fill-opacity:1;fill-rule:nonzero;stroke:none"
             d="m 0,0 c -0.321,0 -0.582,-0.261 -0.582,-0.582 v -1.164 c 0,-0.322 0.261,-0.582 0.582,-0.582 0.322,0 0.583,0.26 0.583,0.582 v 1.164 C 0.583,-0.26 0.322,0 0,0" /></g></g></g></g></svg>