<?xml version="1.0" encoding="UTF-8" standalone="no"?>
<svg
   xmlns:dc="http://purl.org/dc/elements/1.1/"
   xmlns:cc="http://creativecommons.org/ns#"
   xmlns:rdf="http://www.w3.org/1999/02/22-rdf-syntax-ns#"
   xmlns:svg="http://www.w3.org/2000/svg"
   xmlns="http://www.w3.org/2000/svg"
   viewBox="0 0 28 28"
   height="28"
   width="28"
   xml:space="preserve"
   id="svg2"
   version="1.1"><metadata
     id="metadata8"><rdf:RDF><cc:Work
         rdf:about=""><dc:format>image/svg+xml</dc:format><dc:type
           rdf:resource="http://purl.org/dc/dcmitype/StillImage" /></cc:Work></rdf:RDF></metadata><defs
     id="defs6"><clipPath
       id="clipPath18"
       clipPathUnits="userSpaceOnUse"><path
         id="path16"
         d="M 0,21 H 21 V 0 H 0 Z" /></clipPath></defs><g
     transform="matrix(1.3333333,0,0,-1.3333333,0,28)"
     id="g10"><g
       id="g12"><g
         clip-path="url(#clipPath18)"
         id="g14"><g
           transform="translate(7.3857,11.0937)"
           id="g20"><path
             id="path22"
             style="fill:#ffffff;fill-opacity:1;fill-rule:nonzero;stroke:none"
             d="m 0,0 4.2,4.2 c 0.329,0.329 0.86,0.329 1.189,0 0.328,-0.328 0.328,-0.859 0,-1.187 L 1.782,-0.594 5.389,-4.2 c 0.328,-0.328 0.328,-0.86 0,-1.188 -0.164,-0.164 -0.379,-0.246 -0.595,-0.246 -0.215,0 -0.43,0.082 -0.594,0.246 L 0,-1.187 C -0.328,-0.859 -0.328,-0.328 0,0 m -6.966,-0.594 c 0,-5.558 4.522,-10.081 10.08,-10.081 5.559,0 10.081,4.523 10.081,10.081 0,5.559 -4.522,10.081 -10.081,10.081 -5.558,0 -10.08,-4.522 -10.08,-10.081" /></g></g></g></g></svg>