<?xml version="1.0" encoding="UTF-8" standalone="no"?>
<svg
   xmlns:dc="http://purl.org/dc/elements/1.1/"
   xmlns:cc="http://creativecommons.org/ns#"
   xmlns:rdf="http://www.w3.org/1999/02/22-rdf-syntax-ns#"
   xmlns:svg="http://www.w3.org/2000/svg"
   xmlns="http://www.w3.org/2000/svg"
   viewBox="0 0 125.7488 24"
   height="24"
   width="125.7488"
   xml:space="preserve"
   id="svg2"
   version="1.1"><metadata
     id="metadata8"><rdf:RDF><cc:Work
         rdf:about=""><dc:format>image/svg+xml</dc:format><dc:type
           rdf:resource="http://purl.org/dc/dcmitype/StillImage" /></cc:Work></rdf:RDF></metadata><defs
     id="defs6"><clipPath
       id="clipPath18"
       clipPathUnits="userSpaceOnUse"><path
         id="path16"
         d="M 0,18 H 94.312 V 0 H 0 Z" /></clipPath></defs><g
     transform="matrix(1.3333333,0,0,-1.3333333,0,24)"
     id="g10"><g
       id="g12"><g
         clip-path="url(#clipPath18)"
         id="g14"><g
           transform="translate(7.5498,8.1704)"
           id="g20"><path
             id="path22"
             style="fill:#3e3736;fill-opacity:1;fill-rule:nonzero;stroke:none"
             d="m 0,0 c 0,-0.564 0.458,-1.022 1.021,-1.022 0.565,0 1.022,0.458 1.022,1.022 0,0.564 -0.457,1.021 -1.022,1.021 C 0.458,1.021 0,0.564 0,0" /></g><g
           transform="translate(19.8521,8.1704)"
           id="g24"><path
             id="path26"
             style="fill:#3e3736;fill-opacity:1;fill-rule:nonzero;stroke:none"
             d="m 0,0 c 0,-0.564 0.457,-1.022 1.021,-1.022 0.564,0 1.022,0.458 1.022,1.022 0,0.564 -0.458,1.021 -1.022,1.021 C 0.457,1.021 0,0.564 0,0" /></g><g
           transform="translate(7.0923,6.6914)"
           id="g28"><path
             id="path30"
             style="fill:#3e3736;fill-opacity:1;fill-rule:nonzero;stroke:none"
             d="m 0,0 c -0.395,0.395 -0.613,0.92 -0.613,1.479 0,0.559 0.218,1.084 0.613,1.479 0.395,0.395 0.92,0.613 1.479,0.613 1.154,0 2.092,-0.939 2.092,-2.092 0,-1.154 -0.938,-2.092 -2.092,-2.092 C 0.92,-0.613 0.395,-0.396 0,0 m -0.653,3.612 c -0.57,-0.57 -0.884,-1.327 -0.884,-2.133 0,-0.806 0.314,-1.563 0.884,-2.132 0.569,-0.571 1.326,-0.884 2.132,-0.884 1.664,0 3.017,1.352 3.017,3.016 0,1.663 -1.353,3.016 -3.017,3.016 -0.806,0 -1.563,-0.313 -2.132,-0.883" /></g><g
           transform="translate(19.3945,6.6914)"
           id="g32"><path
             id="path34"
             style="fill:#3e3736;fill-opacity:1;fill-rule:nonzero;stroke:none"
             d="m 0,0 c -0.396,0.395 -0.613,0.92 -0.613,1.479 0,0.559 0.217,1.084 0.613,1.479 0.395,0.395 0.92,0.613 1.479,0.613 1.153,0 2.092,-0.939 2.092,-2.092 0,-1.154 -0.939,-2.092 -2.092,-2.092 C 0.92,-0.613 0.395,-0.396 0,0 m -0.654,3.612 c -0.57,-0.57 -0.883,-1.327 -0.883,-2.133 0,-0.806 0.313,-1.563 0.883,-2.132 0.57,-0.571 1.327,-0.884 2.133,-0.884 1.663,0 3.016,1.352 3.016,3.016 0,1.663 -1.353,3.016 -3.016,3.016 -0.806,0 -1.563,-0.313 -2.133,-0.883" /></g><g
           transform="translate(20.8735,3.125)"
           id="g36"><path
             id="path38"
             style="fill:#3e3736;fill-opacity:1;fill-rule:nonzero;stroke:none"
             d="m 0,0 c -2.782,0 -5.045,2.264 -5.045,5.045 0,2.782 2.263,5.045 5.045,5.045 2.782,0 5.045,-2.263 5.045,-5.045 C 5.045,2.264 2.782,0 0,0 m -12.302,0 c -2.782,0 -5.045,2.264 -5.045,5.045 0,2.782 2.263,5.045 5.045,5.045 2.782,0 5.045,-2.263 5.045,-5.045 C -7.257,2.264 -9.52,0 -12.302,0 M 4.86,9.012 c 0.237,0.705 0.599,1.535 1.099,2.035 H 1.837 c -0.068,0.021 -0.139,0.036 -0.209,0.054 -0.224,0.352 -1.757,2.33 -7.885,2.33 -6.726,0 -7.918,-2.384 -7.918,-2.384 h -4.299 c 0.548,-0.548 0.93,-1.492 1.162,-2.234 -0.792,-1.051 -1.268,-2.353 -1.268,-3.768 0,-3.461 2.816,-6.277 6.278,-6.277 1.919,0 3.637,0.867 4.789,2.228 l 1.426,-1.995 1.23,2.073 c 1.152,-1.406 2.901,-2.306 4.857,-2.306 3.461,0 6.277,2.816 6.277,6.277 0,1.504 -0.532,2.885 -1.417,3.967" /></g><g
           transform="translate(31.7935,12.8086)"
           id="g40"><path
             id="path42"
             style="fill:#3e3736;fill-opacity:1;fill-rule:nonzero;stroke:none"
             d="m 0,0 v -1.608 h 1.747 v -0.93 H 0 v -3.619 c 0,-0.832 0.236,-1.303 0.915,-1.303 0.333,0 0.527,0.027 0.707,0.083 l 0.056,-0.93 C 1.442,-8.39 1.068,-8.473 0.596,-8.473 c -0.568,0 -1.026,0.195 -1.317,0.513 -0.333,0.375 -0.471,0.971 -0.471,1.762 v 3.66 h -1.04 v 0.93 h 1.04 v 1.233 z" /></g><g
           transform="translate(34.6362,9.106)"
           id="g44"><path
             id="path46"
             style="fill:#3e3736;fill-opacity:1;fill-rule:nonzero;stroke:none"
             d="M 0,0 C 0,0.791 -0.014,1.47 -0.056,2.094 H 1.012 L 1.067,0.777 h 0.042 c 0.305,0.901 1.054,1.47 1.872,1.47 0.125,0 0.222,-0.014 0.333,-0.042 V 1.068 C 3.175,1.082 3.05,1.096 2.884,1.096 2.024,1.096 1.414,0.444 1.248,-0.458 1.22,-0.638 1.206,-0.832 1.206,-1.04 v -3.578 h -1.22 z" /></g><path
           id="path48"
           style="fill:#3e3736;fill-opacity:1;fill-rule:nonzero;stroke:none"
           d="m 38.921,11.2 h 1.22 V 4.488 h -1.22 z m 0.582,1.234 c -0.458,0 -0.763,0.361 -0.763,0.791 0,0.429 0.319,0.776 0.791,0.776 0.471,0 0.776,-0.347 0.776,-0.776 0,-0.43 -0.305,-0.791 -0.79,-0.791 z" /><g
           transform="translate(43.0942,7.2207)"
           id="g50"><path
             id="path52"
             style="fill:#3e3736;fill-opacity:1;fill-rule:nonzero;stroke:none"
             d="m 0,0 c 0,-0.167 0.014,-0.347 0.056,-0.499 0.208,-0.847 0.956,-1.429 1.816,-1.429 1.29,0 2.039,1.054 2.039,2.593 0,1.345 -0.694,2.496 -1.983,2.496 C 1.096,3.161 0.305,2.579 0.069,1.664 0.042,1.497 0,1.317 0,1.165 Z m -1.22,1.789 c 0,0.859 -0.014,1.552 -0.055,2.19 h 1.095 l 0.069,-1.15 h 0.028 c 0.485,0.832 1.29,1.303 2.371,1.303 1.636,0 2.857,-1.373 2.857,-3.411 0,-2.413 -1.484,-3.606 -3.051,-3.606 -0.901,0 -1.664,0.389 -2.066,1.054 H 0 v -3.647 h -1.22 z" /></g><g
           transform="translate(53.0088,7.9141)"
           id="g54"><path
             id="path56"
             style="fill:#3e3736;fill-opacity:1;fill-rule:nonzero;stroke:none"
             d="m 0,0 c -1.332,0.027 -2.843,-0.208 -2.843,-1.512 0,-0.804 0.527,-1.165 1.137,-1.165 0.888,0 1.456,0.555 1.65,1.123 C -0.014,-1.429 0,-1.29 0,-1.165 Z m 1.192,-1.816 c 0,-0.583 0.028,-1.152 0.098,-1.61 H 0.194 L 0.083,-2.579 H 0.042 c -0.361,-0.527 -1.096,-0.999 -2.053,-0.999 -1.359,0 -2.052,0.957 -2.052,1.928 0,1.622 1.442,2.509 4.035,2.495 v 0.139 c 0,0.555 -0.153,1.567 -1.525,1.553 -0.638,0 -1.29,-0.18 -1.761,-0.499 l -0.277,0.818 c 0.554,0.347 1.372,0.582 2.218,0.582 2.066,0 2.565,-1.4 2.565,-2.745 z" /></g><g
           transform="translate(60.4409,8.4683)"
           id="g58"><path
             id="path60"
             style="fill:#3e3736;fill-opacity:1;fill-rule:nonzero;stroke:none"
             d="m 0,0 c 0,0.167 -0.014,0.361 -0.055,0.527 -0.181,0.763 -0.846,1.401 -1.761,1.401 -1.263,0 -2.011,-1.11 -2.011,-2.58 0,-1.372 0.68,-2.495 1.983,-2.495 0.818,0 1.567,0.554 1.789,1.455 C -0.014,-1.525 0,-1.359 0,-1.165 Z m 1.22,5.866 v -8.113 c 0,-0.595 0.014,-1.275 0.056,-1.733 H 0.18 L 0.125,-2.815 H 0.097 c -0.374,-0.749 -1.179,-1.317 -2.274,-1.317 -1.622,0 -2.884,1.373 -2.884,3.411 -0.014,2.246 1.386,3.605 3.009,3.605 1.04,0 1.733,-0.485 2.024,-1.012 H 0 v 3.994 z" /></g><g
           transform="translate(63.8525,11.2002)"
           id="g62"><path
             id="path64"
             style="fill:#3e3736;fill-opacity:1;fill-rule:nonzero;stroke:none"
             d="m 0,0 1.317,-3.758 c 0.222,-0.624 0.402,-1.179 0.54,-1.733 h 0.042 c 0.153,0.554 0.347,1.109 0.569,1.733 L 3.771,0 H 5.047 L 2.412,-6.712 H 1.248 L -1.304,0 Z" /></g><path
           id="path66"
           style="fill:#3e3736;fill-opacity:1;fill-rule:nonzero;stroke:none"
           d="M 69.759,11.2 H 70.98 V 4.488 h -1.221 z m 0.583,1.234 c -0.458,0 -0.763,0.361 -0.763,0.791 0,0.429 0.319,0.776 0.79,0.776 0.472,0 0.777,-0.347 0.777,-0.776 0,-0.43 -0.305,-0.791 -0.791,-0.791 z" /><g
           transform="translate(72.5459,5.7227)"
           id="g68"><path
             id="path70"
             style="fill:#3e3736;fill-opacity:1;fill-rule:nonzero;stroke:none"
             d="m 0,0 c 0.375,-0.222 1.013,-0.472 1.623,-0.472 0.873,0 1.289,0.431 1.289,0.999 0,0.582 -0.347,0.902 -1.233,1.235 -1.221,0.443 -1.789,1.094 -1.789,1.899 0,1.082 0.886,1.969 2.315,1.969 0.68,0 1.275,-0.18 1.637,-0.416 L 3.55,4.34 C 3.287,4.493 2.802,4.729 2.178,4.729 1.456,4.729 1.068,4.312 1.068,3.813 1.068,3.245 1.456,2.995 2.33,2.663 3.48,2.232 4.091,1.65 4.091,0.638 c 0,-1.193 -0.929,-2.025 -2.496,-2.025 -0.735,0 -1.414,0.195 -1.886,0.472 z" /></g><g
           transform="translate(80.6855,5.251)"
           id="g72"><path
             id="path74"
             style="fill:#3e3736;fill-opacity:1;fill-rule:nonzero;stroke:none"
             d="M 0,0 C 1.165,0 2.039,1.096 2.039,2.621 2.039,3.758 1.47,5.187 0.028,5.187 -1.4,5.187 -2.024,3.855 -2.024,2.579 -2.024,1.109 -1.192,0 -0.014,0 Z m -0.041,-0.915 c -1.803,0 -3.218,1.332 -3.218,3.453 0,2.246 1.485,3.564 3.328,3.564 1.928,0 3.232,-1.401 3.232,-3.439 0,-2.496 -1.734,-3.578 -3.328,-3.578 z" /></g><g
           transform="translate(85.248,9.106)"
           id="g76"><path
             id="path78"
             style="fill:#3e3736;fill-opacity:1;fill-rule:nonzero;stroke:none"
             d="M 0,0 C 0,0.791 -0.015,1.47 -0.056,2.094 H 1.012 L 1.067,0.777 h 0.041 c 0.306,0.901 1.055,1.47 1.872,1.47 0.125,0 0.223,-0.014 0.333,-0.042 V 1.068 C 3.175,1.082 3.051,1.096 2.884,1.096 2.024,1.096 1.414,0.444 1.247,-0.458 1.22,-0.638 1.206,-0.832 1.206,-1.04 v -3.578 h -1.221 z" /></g><g
           transform="translate(90.7129,10.6733)"
           id="g80"><path
             id="path82"
             style="fill:#3e3736;fill-opacity:1;fill-rule:nonzero;stroke:none"
             d="M 0,0 H 0.125 C 0.282,0 0.376,0.081 0.376,0.207 0.376,0.338 0.289,0.406 0.144,0.406 0.066,0.406 0.023,0.402 0,0.396 Z m -0.312,0.618 c 0.101,0.019 0.25,0.032 0.42,0.032 0.207,0 0.353,-0.032 0.453,-0.115 0.085,-0.069 0.13,-0.169 0.13,-0.302 0,-0.182 -0.127,-0.308 -0.247,-0.353 V -0.126 C 0.542,-0.167 0.596,-0.261 0.631,-0.394 0.675,-0.558 0.716,-0.747 0.743,-0.802 H 0.42 c -0.022,0.041 -0.057,0.158 -0.096,0.336 -0.04,0.181 -0.099,0.228 -0.23,0.231 H 0 v -0.567 h -0.312 z" /></g><g
           transform="translate(89.791,10.5415)"
           id="g84"><path
             id="path86"
             style="fill:#3e3736;fill-opacity:1;fill-rule:nonzero;stroke:none"
             d="M 0,0 C 0,0.619 0.503,1.122 1.121,1.122 1.74,1.122 2.243,0.619 2.243,0 2.243,-0.618 1.74,-1.121 1.121,-1.121 0.503,-1.121 0,-0.618 0,0 m -0.308,0 c 0,-0.788 0.641,-1.429 1.429,-1.429 0.789,0 1.43,0.641 1.43,1.429 0,0.789 -0.641,1.43 -1.43,1.43 C 0.333,1.43 -0.308,0.789 -0.308,0" /></g></g></g></g></svg>