<?xml version="1.0" encoding="UTF-8" standalone="no"?>
<svg
   xmlns:dc="http://purl.org/dc/elements/1.1/"
   xmlns:cc="http://creativecommons.org/ns#"
   xmlns:rdf="http://www.w3.org/1999/02/22-rdf-syntax-ns#"
   xmlns:svg="http://www.w3.org/2000/svg"
   xmlns="http://www.w3.org/2000/svg"
   viewBox="0 0 82.666664 66.666664"
   height="66.666664"
   width="82.666664"
   xml:space="preserve"
   id="svg2"
   version="1.1"><metadata
     id="metadata8"><rdf:RDF><cc:Work
         rdf:about=""><dc:format>image/svg+xml</dc:format><dc:type
           rdf:resource="http://purl.org/dc/dcmitype/StillImage" /></cc:Work></rdf:RDF></metadata><defs
     id="defs6"><clipPath
       id="clipPath18"
       clipPathUnits="userSpaceOnUse"><path
         id="path16"
         d="M 0,50 H 62 V 0 H 0 Z" /></clipPath></defs><g
     transform="matrix(1.3333333,0,0,-1.3333333,0,66.666667)"
     id="g10"><g
       id="g12"><g
         clip-path="url(#clipPath18)"
         id="g14"><g
           transform="translate(49.8848,41.3779)"
           id="g20"><path
             id="path22"
             style="fill:#3e3736;fill-opacity:1;fill-rule:nonzero;stroke:none"
             d="m 0,0 c -0.461,0 -0.835,0.375 -0.835,0.836 0,0.461 0.374,0.835 0.835,0.835 0.461,0 0.836,-0.374 0.836,-0.835 C 0.836,0.375 0.461,0 0,0 m -16.879,-1.671 c -0.923,0 -1.671,0.749 -1.671,1.672 h 3.342 c 0,-0.921 -0.75,-1.672 -1.671,-1.672 m -10.028,0 c -0.923,0 -1.671,0.749 -1.671,1.672 h 3.343 c 0,-0.921 -0.75,-1.672 -1.672,-1.672 M 0,3.343 c -1.089,0 -2.018,-0.699 -2.363,-1.672 h -6.16 c 0,1.843 -1.499,3.343 -3.342,3.343 -1.847,0 -3.343,-1.496 -3.343,-3.343 h -3.342 c 0,1.843 -1.5,3.343 -3.343,3.343 -1.847,0 -3.342,-1.496 -3.342,-3.343 h -3.343 c 0,1.843 -1.5,3.343 -3.342,3.343 -1.847,0 -3.343,-1.496 -3.343,-3.343 h -4.178 c -0.461,0 -0.835,-0.374 -0.835,-0.835 0,-0.462 0.374,-0.835 0.835,-0.835 h 4.178 c 0,-0.921 -0.75,-1.672 -1.671,-1.672 h -2.507 c -0.461,0 -0.835,-0.374 -0.835,-0.836 v -12.2 c 0,-0.461 0.374,-0.835 0.835,-0.835 0.462,0 0.836,0.374 0.836,0.835 v 11.365 h 1.671 c 1.843,0 3.342,1.499 3.342,3.342 v 1.671 c 0,0.924 0.749,1.672 1.672,1.672 0.921,0 1.671,-0.75 1.671,-1.672 V 0 c 0,-1.846 1.496,-3.342 3.342,-3.342 1.843,0 3.343,1.499 3.343,3.342 v 1.671 c 0,0.924 0.748,1.672 1.671,1.672 0.921,0 1.671,-0.75 1.671,-1.672 V 0 c 0,-1.846 1.496,-3.342 3.343,-3.342 1.843,0 3.342,1.499 3.342,3.342 v 1.671 c 0,0.924 0.748,1.672 1.672,1.672 0.921,0 1.671,-0.75 1.671,-1.672 v -36.099 c 0,-0.923 -0.748,-1.671 -1.671,-1.671 -0.922,0 -1.672,0.75 -1.672,1.671 v 21.894 c 0,0.461 -0.374,0.836 -0.835,0.836 -0.462,0 -0.836,-0.375 -0.836,-0.836 v -17.327 c -0.503,0.292 -1.075,0.448 -1.671,0.448 -0.608,0 -1.18,-0.165 -1.671,-0.45 v 24.014 c 0,0.461 -0.375,0.835 -0.836,0.835 -0.462,0 -0.836,-0.374 -0.836,-0.835 v -28.579 c 0,-0.923 -0.748,-1.671 -1.671,-1.671 -0.921,0 -1.671,0.75 -1.671,1.671 v 21.894 c 0,0.461 -0.374,0.836 -0.836,0.836 -0.461,0 -0.835,-0.375 -0.835,-0.836 v -17.327 c -0.503,0.292 -1.076,0.448 -1.672,0.448 -0.608,0 -1.179,-0.165 -1.671,-0.45 v 24.014 c 0,0.461 -0.374,0.835 -0.836,0.835 -0.461,0 -0.835,-0.374 -0.835,-0.835 v -28.579 c 0,-0.923 -0.748,-1.671 -1.671,-1.671 -0.922,0 -1.672,0.75 -1.672,1.671 v 21.894 c 0,0.461 -0.374,0.836 -0.835,0.836 -0.462,0 -0.836,-0.375 -0.836,-0.836 v -17.329 c -0.492,0.285 -1.063,0.45 -1.671,0.45 h -1.671 v 8.021 c 0,0.462 -0.374,0.836 -0.836,0.836 -0.461,0 -0.835,-0.374 -0.835,-0.836 v -8.857 c 0,-0.462 0.374,-0.836 0.835,-0.836 h 2.507 c 0.921,0 1.671,-0.75 1.671,-1.671 v -1.672 c 0,-1.843 1.5,-3.342 3.343,-3.342 1.846,0 3.342,1.496 3.342,3.342 v 1.672 c 0,0.921 0.75,1.671 1.671,1.671 0.923,0 1.672,-0.748 1.672,-1.671 v -1.672 c 0,-1.843 1.499,-3.342 3.342,-3.342 1.847,0 3.343,1.496 3.343,3.342 v 1.672 c 0,0.921 0.749,1.671 1.671,1.671 0.923,0 1.671,-0.748 1.671,-1.671 v -1.672 c 0,-1.843 1.499,-3.342 3.343,-3.342 1.845,0 3.342,1.496 3.342,3.342 V 0 h 6.16 c 0.345,-0.973 1.274,-1.671 2.363,-1.671 1.383,0 2.507,1.125 2.507,2.507 0,1.382 -1.124,2.507 -2.507,2.507" /></g><g
           transform="translate(11.2793,23.3291)"
           id="g24"><path
             id="path26"
             style="fill:#3e3736;fill-opacity:1;fill-rule:nonzero;stroke:none"
             d="m 0,0 c 0,-0.462 -0.374,-0.836 -0.835,-0.836 -0.462,0 -0.836,0.374 -0.836,0.836 0,0.461 0.374,0.835 0.836,0.835 C -0.374,0.835 0,0.461 0,0" /></g></g></g></g></svg>