<?xml version="1.0" encoding="UTF-8" standalone="no"?>
<svg
   xmlns:dc="http://purl.org/dc/elements/1.1/"
   xmlns:cc="http://creativecommons.org/ns#"
   xmlns:rdf="http://www.w3.org/1999/02/22-rdf-syntax-ns#"
   xmlns:svg="http://www.w3.org/2000/svg"
   xmlns="http://www.w3.org/2000/svg"
   viewBox="0 0 82.666664 66.666664"
   height="66.666664"
   width="82.666664"
   xml:space="preserve"
   id="svg2"
   version="1.1"><metadata
     id="metadata8"><rdf:RDF><cc:Work
         rdf:about=""><dc:format>image/svg+xml</dc:format><dc:type
           rdf:resource="http://purl.org/dc/dcmitype/StillImage" /></cc:Work></rdf:RDF></metadata><defs
     id="defs6"><clipPath
       id="clipPath18"
       clipPathUnits="userSpaceOnUse"><path
         id="path16"
         d="M 0,50 H 62 V 0 H 0 Z" /></clipPath></defs><g
     transform="matrix(1.3333333,0,0,-1.3333333,0,66.666667)"
     id="g10"><g
       id="g12"><g
         clip-path="url(#clipPath18)"
         id="g14"><g
           transform="translate(53.0635,33.6074)"
           id="g20"><path
             id="path22"
             style="fill:#3e3736;fill-opacity:1;fill-rule:nonzero;stroke:none"
             d="m 0,0 c 0,-0.54 -0.439,-0.979 -0.979,-0.979 h -6.65 v 2.687 h 6.65 C -0.439,1.708 0,1.27 0,0.729 Z m -3.581,-19.753 c 0,-0.802 -0.399,-1.223 -0.537,-1.223 h -3.511 v 18.127 h 4.048 z M -8.354,6.41 C -8.969,5.747 -9.664,4.484 -9.498,2.234 v -14.351 h -31.733 v 1.786 h 9.146 c 0.517,0 0.935,0.419 0.935,0.935 0,0.516 -0.418,0.935 -0.935,0.935 h -9.146 V 7.686 c 0,1.719 1.398,3.118 3.118,3.118 h 29.55 c 0.009,0 0.02,0 0.03,0 1.315,0.042 2.552,-0.484 3.461,-1.473 0.595,-0.649 1.024,-1.463 1.274,-2.394 -0.614,0.367 -1.309,0.571 -2.033,0.571 -0.972,0 -1.868,-0.39 -2.523,-1.098 m -1.145,-24.417 h -31.732 v 4.02 h 31.732 z m 0,-4.782 c 0,-2.096 -0.035,-3.423 -0.533,-4.178 -0.323,-0.491 -1.038,-1.054 -3.727,-1.054 h -24.354 c -1.72,0 -3.118,1.398 -3.118,3.117 v 5.027 H -9.499 Z M -3.581,3.858 V 3.579 H -7.61 c 0.085,0.668 0.298,1.205 0.628,1.561 0.38,0.412 0.836,0.499 1.151,0.499 0.779,0 1.797,-0.56 2.25,-1.781 m -39.52,-4.837 h -0.046 c -0.541,0 -0.979,0.439 -0.979,0.979 v 0.729 c 0,0.541 0.438,0.98 0.979,0.98 h 0.046 z m 42.122,4.558 h -0.733 v 0.41 c 0.214,2.636 -0.49,4.98 -1.983,6.606 -1.279,1.391 -3.024,2.136 -4.884,2.079 h -29.534 c -2.75,0 -4.988,-2.238 -4.988,-4.988 V 3.579 h -0.046 c -1.571,0 -2.85,-1.279 -2.85,-2.85 V 0 c 0,-1.571 1.279,-2.849 2.85,-2.849 h 0.046 v -22.055 c 0,-2.75 2.238,-4.988 4.988,-4.988 h 24.354 c 2.832,0 4.414,0.568 5.289,1.897 0.833,1.266 0.841,3.066 0.841,5.149 h 3.511 c 1.349,0 2.406,1.359 2.406,3.093 v 16.904 h 0.733 c 1.571,0 2.848,1.278 2.848,2.849 v 0.729 c 0,1.571 -1.278,2.85 -2.848,2.85" /></g><g
           transform="translate(23.9092,25.146)"
           id="g24"><path
             id="path26"
             style="fill:#3e3736;fill-opacity:1;fill-rule:nonzero;stroke:none"
             d="m 0,0 h -0.075 c -0.517,0 -0.935,-0.418 -0.935,-0.935 0,-0.516 0.418,-0.935 0.935,-0.935 H 0 c 0.516,0 0.935,0.419 0.935,0.935 C 0.935,-0.418 0.516,0 0,0" /></g></g></g></g></svg>