<?xml version="1.0" encoding="UTF-8" standalone="no"?>
<svg
   xmlns:dc="http://purl.org/dc/elements/1.1/"
   xmlns:cc="http://creativecommons.org/ns#"
   xmlns:rdf="http://www.w3.org/1999/02/22-rdf-syntax-ns#"
   xmlns:svg="http://www.w3.org/2000/svg"
   xmlns="http://www.w3.org/2000/svg"
   viewBox="0 0 82.666664 66.666664"
   height="66.666664"
   width="82.666664"
   xml:space="preserve"
   id="svg2"
   version="1.1"><metadata
     id="metadata8"><rdf:RDF><cc:Work
         rdf:about=""><dc:format>image/svg+xml</dc:format><dc:type
           rdf:resource="http://purl.org/dc/dcmitype/StillImage" /></cc:Work></rdf:RDF></metadata><defs
     id="defs6"><clipPath
       id="clipPath18"
       clipPathUnits="userSpaceOnUse"><path
         id="path16"
         d="M 0,50 H 62 V 0 H 0 Z" /></clipPath></defs><g
     transform="matrix(1.3333333,0,0,-1.3333333,0,66.666667)"
     id="g10"><g
       id="g12"><g
         clip-path="url(#clipPath18)"
         id="g14"><g
           transform="translate(31.7061,34.8154)"
           id="g20"><path
             id="path22"
             style="fill:#3e3736;fill-opacity:1;fill-rule:nonzero;stroke:none"
             d="m 0,0 c -0.335,0.194 -0.765,0.08 -0.958,-0.255 -0.195,-0.336 -0.081,-0.765 0.255,-0.959 2.028,-1.175 3.513,-3.054 4.18,-5.291 0.09,-0.305 0.37,-0.502 0.671,-0.502 0.067,0 0.134,0.009 0.202,0.029 0.371,0.111 0.582,0.502 0.471,0.874 C 4.052,-3.523 2.34,-1.355 0,0" /></g><g
           transform="translate(26.4395,44.646)"
           id="g24"><path
             id="path26"
             style="fill:#3e3736;fill-opacity:1;fill-rule:nonzero;stroke:none"
             d="m 0,0 c -0.388,0 -0.702,-0.314 -0.702,-0.702 0,-0.387 0.314,-0.701 0.702,-0.701 1.161,0 2.105,-0.945 2.105,-2.105 0,-0.388 0.314,-0.702 0.702,-0.702 0.387,0 0.701,0.314 0.701,0.702 C 3.508,-1.574 1.934,0 0,0" /></g><g
           transform="translate(37.9023,7.459)"
           id="g28"><path
             id="path30"
             style="fill:#3e3736;fill-opacity:1;fill-rule:nonzero;stroke:none"
             d="M 0,0 6.479,15.313 C 6.848,15.03 7.289,14.836 7.771,14.765 L 1.523,0 Z m 5.376,-2.105 v -1.403 h -22.452 v 1.403 c 0,0.387 0.315,0.702 0.701,0.702 H 1.984 1.988 1.99 4.675 c 0.387,0 0.701,-0.315 0.701,-0.702 M -5.148,33.679 h 2.194 c -0.059,-0.224 -0.089,-0.46 -0.089,-0.702 0,-0.242 0.03,-0.477 0.089,-0.702 h -2.194 z m 3.772,-9.078 c 1.079,-1.703 1.702,-3.645 1.82,-5.657 h -23.815 c 0.119,2.012 0.742,3.954 1.821,5.657 1.114,1.756 2.666,3.191 4.501,4.166 h 6.989 c 0.388,0 0.702,0.315 0.702,0.702 0,0.387 -0.314,0.701 -0.702,0.701 h -6.315 v 3.509 c 0,2.708 2.204,4.911 4.912,4.911 2.708,0 4.911,-2.203 4.911,-4.911 V 30.17 h -0.701 c -0.388,0 -0.702,-0.314 -0.702,-0.701 0,-0.387 0.314,-0.702 0.702,-0.702 h 1.376 c 1.835,-0.975 3.387,-2.41 4.501,-4.166 m 2.543,8.376 c 0,-0.152 -0.025,-0.299 -0.07,-0.436 C 1.093,32.533 1.09,32.524 1.087,32.516 0.896,31.968 0.375,31.574 -0.236,31.574 c -0.096,0 -0.189,0.009 -0.279,0.028 -0.024,0.007 -0.048,0.013 -0.073,0.018 -0.259,0.067 -0.487,0.205 -0.666,0.393 -0.017,0.022 -0.037,0.043 -0.058,0.063 -0.204,0.244 -0.328,0.558 -0.328,0.901 0,0.342 0.123,0.656 0.328,0.899 0.021,0.021 0.041,0.044 0.06,0.068 0.256,0.268 0.616,0.436 1.016,0.436 0.773,0 1.403,-0.629 1.403,-1.403 M 1.68,30.929 7.498,20.263 C 7.029,20.145 6.608,19.909 6.267,19.589 L 0.448,30.255 c 0.469,0.119 0.89,0.354 1.232,0.674 M 8.183,16.138 c -0.774,0 -1.404,0.629 -1.404,1.403 0,0.144 0.023,0.282 0.063,0.412 0.014,0.033 0.027,0.068 0.037,0.103 0.206,0.519 0.712,0.888 1.304,0.888 0.774,0 1.403,-0.629 1.403,-1.403 0,-0.774 -0.629,-1.403 -1.403,-1.403 m 2.806,1.403 c 0,1.211 -0.77,2.245 -1.846,2.638 L 2.5,32.356 c 0.045,0.2 0.07,0.408 0.07,0.621 0,1.548 -1.259,2.807 -2.806,2.807 -0.71,0 -1.36,-0.266 -1.854,-0.702 h -3.218 c -0.639,2.809 -3.155,4.912 -6.155,4.912 -3.482,0 -6.315,-2.833 -6.315,-6.315 v -3.708 c -2.019,-1.089 -3.727,-2.679 -4.957,-4.619 -1.347,-2.124 -2.059,-4.583 -2.059,-7.109 0,-0.388 0.314,-0.702 0.701,-0.702 h 25.26 c 0.387,0 0.701,0.314 0.701,0.702 0,2.526 -0.712,4.985 -2.059,7.109 -1.23,1.94 -2.938,3.53 -4.957,4.619 v 0.901 h 3.058 c 0.26,-0.229 0.563,-0.412 0.895,-0.533 L 5.446,18.162 c -0.045,-0.2 -0.07,-0.408 -0.07,-0.621 0,-0.311 0.052,-0.609 0.145,-0.889 L -1.474,0.118 C -1.49,0.079 -1.502,0.04 -1.511,0 h -14.864 c -1.16,0 -2.104,-0.944 -2.104,-2.105 V -4.21 c 0,-0.388 0.313,-0.701 0.701,-0.701 H 6.078 c 0.388,0 0.701,0.313 0.701,0.701 v 2.105 C 6.779,-0.944 5.835,0 4.675,0 H 3.047 l 6.351,15.012 c 0.941,0.453 1.591,1.417 1.591,2.529" /></g></g></g></g></svg>