<?xml version="1.0" encoding="UTF-8" standalone="no"?>
<svg
   xmlns:dc="http://purl.org/dc/elements/1.1/"
   xmlns:cc="http://creativecommons.org/ns#"
   xmlns:rdf="http://www.w3.org/1999/02/22-rdf-syntax-ns#"
   xmlns:svg="http://www.w3.org/2000/svg"
   xmlns="http://www.w3.org/2000/svg"
   viewBox="0 0 93.333336 76"
   height="76"
   width="93.333336"
   xml:space="preserve"
   id="svg2"
   version="1.1"><metadata
     id="metadata8"><rdf:RDF><cc:Work
         rdf:about=""><dc:format>image/svg+xml</dc:format><dc:type
           rdf:resource="http://purl.org/dc/dcmitype/StillImage" /></cc:Work></rdf:RDF></metadata><defs
     id="defs6"><clipPath
       id="clipPath18"
       clipPathUnits="userSpaceOnUse"><path
         id="path16"
         d="M 0,57 H 70 V 0 H 0 Z" /></clipPath></defs><g
     transform="matrix(1.3333333,0,0,-1.3333333,0,76)"
     id="g10"><g
       id="g12"><g
         clip-path="url(#clipPath18)"
         id="g14"><g
           transform="translate(35,10.624)"
           id="g20"><path
             id="path22"
             style="fill:#3e3736;fill-opacity:1;fill-rule:nonzero;stroke:none"
             d="M 0,0 C 2.063,0 3.64,-0.692 4.766,-1.376 H -4.771 C -3.646,-0.692 -2.063,0 0,0 M -0.69,5.535 C -0.217,5.485 0.244,5.507 0.685,5.525 V 1.348 c -0.473,0.045 -0.934,0.02 -1.375,0 z m 9.342,8.031 C 8.596,13.349 8.532,13.135 8.46,12.924 c -0.314,-0.876 1.015,-1.33 1.302,-0.445 0.083,0.244 0.156,0.491 0.221,0.742 0.205,0.876 -1.077,1.233 -1.331,0.345 m -10.717,0.588 1.78,-1.779 -1.777,-1.777 -1.779,1.78 z M -5.302,12.862 C -5.569,12.593 -5.567,12.157 -5.296,11.89 L -2.547,9.141 C -2.28,8.871 -1.845,8.87 -1.575,9.136 l 2.749,2.749 c 0.27,0.268 0.27,0.707 0,0.976 l -2.749,2.749 c -0.267,0.267 -0.705,0.272 -0.977,0 z m 8.049,6.794 1.781,-1.78 -1.781,-1.78 -1.779,1.78 z m -3.236,-1.292 c -0.267,-0.269 -0.266,-0.704 0.003,-0.972 l 2.75,-2.749 c 0.267,-0.27 0.703,-0.271 0.972,-0.005 l 2.749,2.749 c 0.271,0.268 0.271,0.707 0,0.976 l -2.749,2.749 c -0.259,0.26 -0.704,0.272 -0.976,0 z m -8.193,11.173 c 0.324,-1.626 0.44,-2.935 0.383,-4.096 -1.256,0.01 -2.406,0.44 -3.325,1.154 z M 5.692,30.252 H 7.375 C 7.039,28.676 6.907,27.316 6.899,26.104 6.643,26.12 6.435,26.128 6.187,26.128 c -0.496,0 -1.016,-0.034 -1.55,-0.098 z m -2.75,0 H 4.274 L 3.15,25.758 C 2.671,25.639 2.188,25.487 1.704,25.297 Z m -10.325,0 H 1.524 L 0.095,24.537 c -1.65,-0.853 -3.394,-1.16 -4.907,-1.16 -0.726,0 -1.5,0.07 -2.303,0.238 0.311,1.834 0.319,3.882 -0.268,6.638 z m -6.325,0.003 h 3.796 l -2.687,-2.686 c -0.59,0.761 -0.985,1.68 -1.109,2.686 m 1.109,4.056 2.681,-2.681 h -3.79 c 0.125,1.005 0.52,1.921 1.109,2.681 m 8.693,10e-4 c 0.59,-0.76 0.983,-1.679 1.107,-2.685 h -3.792 z m -3.657,2.083 c 1.005,-0.125 1.924,-0.52 2.684,-1.111 l -2.684,-2.683 z m -1.375,0 V 32.6 l -2.686,2.686 c 0.761,0.59 1.68,0.985 2.686,1.109 M 6.187,37.128 H 13.75 V 35.753 H 6.187 c -0.316,0 -0.591,-0.214 -0.667,-0.521 L 4.618,31.628 H 3.286 l 0.818,3.271 c 0.315,1.26 0.983,2.229 2.083,2.229 m 0,1.375 c -1.954,0 -3.002,-1.607 -3.418,-3.271 L 1.868,31.628 H -1.41 c -0.347,3.468 -3.286,6.189 -6.843,6.189 -3.789,0 -6.872,-3.088 -6.872,-6.877 0,-3.728 2.985,-6.771 6.69,-6.869 -0.099,-0.639 -0.235,-1.233 -0.393,-1.798 -0.582,-2.076 -1.487,-3.889 -1.487,-6.46 0,-4.98 3.547,-9.145 8.248,-10.104 V 1.153 C -5.318,0.473 -7.364,-1.579 -7.364,-1.579 -7.795,-2.013 -7.489,-2.75 -6.878,-2.752 H 6.871 c 0.612,10e-4 0.919,0.739 0.488,1.173 0,0 -2.046,2.055 -5.299,2.734 V 5.711 C 4.532,6.214 6.689,7.598 8.174,9.525 8.736,10.253 7.643,11.094 7.084,10.364 5.449,8.242 2.889,6.876 -0.001,6.876 c -4.945,0 -8.938,3.993 -8.938,8.937 0,2.244 0.813,3.869 1.435,6.089 0.034,0.122 0.064,0.25 0.095,0.375 0.901,-0.189 1.782,-0.275 2.597,-0.275 1.78,0 3.86,0.367 5.832,1.462 1.723,0.958 3.577,1.289 5.167,1.289 0.259,0 0.529,-0.012 0.804,-0.033 0.081,-0.978 0.247,-1.849 0.461,-2.639 0.592,-2.19 1.399,-3.798 1.479,-5.915 0.009,-0.941 1.433,-0.888 1.373,0.053 -0.092,2.431 -0.973,4.182 -1.524,6.221 -0.551,2.039 -0.843,4.416 0.137,8.334 0.108,0.434 -0.221,0.854 -0.668,0.854 H 6.036 l 0.688,2.75 h 7.714 c 0.379,0 0.687,0.308 0.687,0.688 v 2.75 c 0,0.38 -0.308,0.687 -0.687,0.687 z" /></g></g></g></g></svg>