<?xml version="1.0" encoding="UTF-8" standalone="no"?>
<svg
   xmlns:dc="http://purl.org/dc/elements/1.1/"
   xmlns:cc="http://creativecommons.org/ns#"
   xmlns:rdf="http://www.w3.org/1999/02/22-rdf-syntax-ns#"
   xmlns:svg="http://www.w3.org/2000/svg"
   xmlns="http://www.w3.org/2000/svg"
   viewBox="0 0 93.333336 76"
   height="76"
   width="93.333336"
   xml:space="preserve"
   id="svg2"
   version="1.1"><metadata
     id="metadata8"><rdf:RDF><cc:Work
         rdf:about=""><dc:format>image/svg+xml</dc:format><dc:type
           rdf:resource="http://purl.org/dc/dcmitype/StillImage" /></cc:Work></rdf:RDF></metadata><defs
     id="defs6"><clipPath
       id="clipPath18"
       clipPathUnits="userSpaceOnUse"><path
         id="path16"
         d="M 0,57 H 70 V 0 H 0 Z" /></clipPath></defs><g
     transform="matrix(1.3333333,0,0,-1.3333333,0,76)"
     id="g10"><g
       id="g12"><g
         clip-path="url(#clipPath18)"
         id="g14"><path
           id="path20"
           style="fill:#3f4c49;fill-opacity:1;fill-rule:nonzero;stroke:none"
           d="M 42.173,35.116 H 25.685 v 3.308 h 16.488 z m 0,-5.272 H 25.685 v 3.308 h 16.488 z m 0,-5.169 H 25.685 v 3.308 h 16.488 z m 6.875,26.206 c -3.825,0 -6.927,-3.101 -6.927,-6.926 v -3.67 H 25.685 v 3.67 c 0,2.791 2.273,5.066 5.065,5.066 2.791,0 5.065,-2.275 5.065,-5.066 0,-0.517 0.414,-0.931 0.931,-0.931 0.517,0 0.93,0.414 0.93,0.931 0,3.825 -3.101,6.926 -6.926,6.926 -3.825,0 -6.926,-3.101 -6.926,-6.926 V 20.437 c -0.052,-0.517 0.413,-0.983 0.93,-0.983 0.517,0 0.931,0.414 0.931,0.931 v 2.326 h 16.488 v -2.326 c 0,-0.517 0.414,-0.931 0.931,-0.931 0.516,0 0.93,0.414 0.93,0.931 v 23.57 c 0,2.791 2.275,5.066 5.066,5.066 2.791,0 5.013,-2.275 5.013,-5.066 0,-0.517 0.413,-0.931 0.931,-0.931 0.517,0 0.93,0.414 0.93,0.931 0,3.825 -3.101,6.926 -6.926,6.926" /><g
           transform="translate(53.6484,15.8359)"
           id="g22"><path
             id="path24"
             style="fill:#3f4c49;fill-opacity:1;fill-rule:nonzero;stroke:none"
             d="m 0,0 c -0.207,0.466 -0.775,0.724 -1.241,0.466 -4.652,-2.017 -6.926,-1.034 -9.356,0 -2.481,1.033 -5.013,2.119 -9.51,0 -4.652,-2.017 -6.927,-1.034 -9.356,0 -2.481,1.033 -5.065,2.119 -9.562,0 -0.466,-0.207 -0.672,-0.776 -0.466,-1.241 0.207,-0.465 0.776,-0.672 1.241,-0.465 3.773,1.758 5.737,0.93 8.012,-0.052 1.499,-0.62 3.101,-1.292 5.22,-1.292 1.551,0 3.36,0.361 5.634,1.344 3.774,1.758 5.738,0.93 8.012,-0.052 1.499,-0.62 3.101,-1.292 5.221,-1.292 1.55,0 3.359,0.361 5.633,1.344 C -0.052,-1.033 0.206,-0.465 0,0" /></g><g
           transform="translate(53.5967,8.7031)"
           id="g26"><path
             id="path28"
             style="fill:#3f4c49;fill-opacity:1;fill-rule:nonzero;stroke:none"
             d="m 0,0 c -0.207,0.465 -0.775,0.724 -1.241,0.465 -4.652,-2.016 -6.926,-1.033 -9.356,0 -2.48,1.034 -5.013,2.12 -9.51,0 -4.652,-2.016 -6.927,-1.033 -9.356,0 -2.481,1.034 -5.014,2.12 -9.562,0 -0.466,-0.206 -0.672,-0.775 -0.466,-1.24 0.259,-0.465 0.827,-0.672 1.293,-0.465 3.773,1.757 5.737,0.93 8.011,-0.052 1.5,-0.62 3.102,-1.292 5.221,-1.292 1.55,0 3.36,0.361 5.634,1.344 3.773,1.757 5.737,0.93 8.012,-0.052 1.499,-0.62 3.101,-1.292 5.22,-1.292 1.551,0 3.36,0.361 5.634,1.344 C 0,-1.033 0.258,-0.465 0,0" /></g></g></g></g></svg>