<?xml version="1.0" encoding="UTF-8" standalone="no"?>
<svg
   xmlns:dc="http://purl.org/dc/elements/1.1/"
   xmlns:cc="http://creativecommons.org/ns#"
   xmlns:rdf="http://www.w3.org/1999/02/22-rdf-syntax-ns#"
   xmlns:svg="http://www.w3.org/2000/svg"
   xmlns="http://www.w3.org/2000/svg"
   viewBox="0 0 93.333336 76"
   height="76"
   width="93.333336"
   xml:space="preserve"
   id="svg2"
   version="1.1"><metadata
     id="metadata8"><rdf:RDF><cc:Work
         rdf:about=""><dc:format>image/svg+xml</dc:format><dc:type
           rdf:resource="http://purl.org/dc/dcmitype/StillImage" /></cc:Work></rdf:RDF></metadata><defs
     id="defs6"><clipPath
       id="clipPath18"
       clipPathUnits="userSpaceOnUse"><path
         id="path16"
         d="M 0,57 H 70 V 0 H 0 Z" /></clipPath></defs><g
     transform="matrix(1.3333333,0,0,-1.3333333,0,76)"
     id="g10"><g
       id="g12"><g
         clip-path="url(#clipPath18)"
         id="g14"><g
           transform="translate(50.7402,12.0439)"
           id="g20"><path
             id="path22"
             style="fill:#3f4c49;fill-opacity:1;fill-rule:nonzero;stroke:none"
             d="m 0,0 c 0,-1.183 -0.963,-2.146 -2.146,-2.146 h -27.188 c -1.184,0 -2.146,0.963 -2.146,2.146 V 26.473 H 0 Z m -31.48,32.912 c 0,1.183 0.962,2.146 2.146,2.146 H -2.146 C -0.963,35.058 0,34.095 0,32.912 v -5.009 h -31.48 z m 29.334,3.577 h -27.188 c -1.972,0 -3.577,-1.604 -3.577,-3.577 V 0 c 0,-1.973 1.605,-3.577 3.577,-3.577 h 27.188 c 1.973,0 3.577,1.604 3.577,3.577 v 32.912 c 0,1.973 -1.604,3.577 -3.577,3.577" /></g><g
           transform="translate(35,30.6465)"
           id="g24"><path
             id="path26"
             style="fill:#3f4c49;fill-opacity:1;fill-rule:nonzero;stroke:none"
             d="M 0,0 C 2.54,0 4.721,-1.491 5.769,-3.632 5.187,-4.078 4.881,-4.772 4.644,-5.329 4.29,-6.154 4.088,-6.523 3.644,-6.594 3.192,-6.665 2.894,-6.373 2.304,-5.695 1.728,-5.031 0.932,-4.127 -0.336,-4.32 -1.611,-4.521 -2.083,-5.628 -2.428,-6.437 -2.78,-7.261 -2.98,-7.63 -3.426,-7.7 -3.871,-7.771 -4.172,-7.481 -4.761,-6.802 -5.157,-6.344 -5.658,-5.779 -6.346,-5.53 -5.901,-2.413 -3.24,0 0,0 m 0,-12.879 c -3.295,0 -5.988,2.496 -6.363,5.692 0.153,-0.142 0.316,-0.314 0.519,-0.55 0.521,-0.603 1.215,-1.404 2.285,-1.404 1.324,0 1.982,1.062 2.446,2.145 0.352,0.824 0.552,1.193 0.997,1.264 0.454,0.076 0.751,-0.219 1.34,-0.899 0.578,-0.666 1.366,-1.567 2.639,-1.375 1.277,0.2 1.75,1.308 2.095,2.116 0.132,0.309 0.243,0.536 0.354,0.724 C 6.395,-5.578 6.44,-6.003 6.44,-6.437 6.439,-9.989 3.55,-12.879 0,-12.879 m 0,-1.431 c 4.339,0 7.87,3.532 7.87,7.871 0,4.338 -3.531,7.87 -7.87,7.87 -4.34,0 -7.87,-3.532 -7.87,-7.87 0,-4.339 3.53,-7.871 7.87,-7.871" /></g><g
           transform="translate(23.5527,27.0693)"
           id="g28"><path
             id="path30"
             style="fill:#3f4c49;fill-opacity:1;fill-rule:nonzero;stroke:none"
             d="M 0,0 C 0,0.394 0.32,0.715 0.715,0.715 1.11,0.715 1.431,0.394 1.431,0 V -5.724 C 1.431,-6.117 1.11,-6.439 0.715,-6.439 0.32,-6.439 0,-6.117 0,-5.724 Z m 11.447,7.154 c 5.522,0 10.017,-4.494 10.017,-10.016 0,-5.522 -4.495,-10.017 -10.017,-10.017 -3.918,0 -7.432,2.277 -9.072,5.812 0.299,0.369 0.487,0.833 0.487,1.343 V 0 c 0,0.511 -0.188,0.974 -0.487,1.343 1.64,3.536 5.153,5.811 9.072,5.811 M 0.715,-7.87 c 0.152,0 0.301,0.016 0.444,0.047 1.906,-3.949 5.868,-6.487 10.288,-6.487 6.312,0 11.448,5.136 11.448,11.448 0,6.312 -5.136,11.447 -11.448,11.447 C 7.027,8.585 3.065,6.048 1.159,2.099 1.016,2.129 0.867,2.146 0.715,2.146 -0.468,2.146 -1.431,1.183 -1.431,0 v -5.724 c 0,-1.183 0.963,-2.146 2.146,-2.146" /></g><g
           transform="translate(31.4229,42.8091)"
           id="g32"><path
             id="path34"
             style="fill:#3f4c49;fill-opacity:1;fill-rule:nonzero;stroke:none"
             d="m 0,0 h -8.586 c -0.394,0 -0.715,0.322 -0.715,0.716 0,0.393 0.321,0.715 0.715,0.715 H 0 C 0.395,1.431 0.715,1.109 0.715,0.716 0.715,0.322 0.395,0 0,0 m 0,2.862 h -8.586 c -1.183,0 -2.146,-0.963 -2.146,-2.146 0,-1.184 0.963,-2.147 2.146,-2.147 H 0 c 1.183,0 2.146,0.963 2.146,2.147 0,1.183 -0.963,2.146 -2.146,2.146" /></g><g
           transform="translate(41.4395,42.8091)"
           id="g36"><path
             id="path38"
             style="fill:#3f4c49;fill-opacity:1;fill-rule:nonzero;stroke:none"
             d="m 0,0 c -0.394,0 -0.716,0.322 -0.716,0.716 0,0.393 0.322,0.715 0.716,0.715 0.394,0 0.715,-0.322 0.715,-0.715 C 0.715,0.322 0.394,0 0,0 m 0,2.862 c -1.184,0 -2.146,-0.963 -2.146,-2.146 0,-1.184 0.962,-2.147 2.146,-2.147 1.183,0 2.146,0.963 2.146,2.147 0,1.183 -0.963,2.146 -2.146,2.146" /></g><g
           transform="translate(47.1631,42.8091)"
           id="g40"><path
             id="path42"
             style="fill:#3f4c49;fill-opacity:1;fill-rule:nonzero;stroke:none"
             d="m 0,0 c -0.394,0 -0.716,0.322 -0.716,0.716 0,0.393 0.322,0.715 0.716,0.715 0.394,0 0.715,-0.322 0.715,-0.715 C 0.715,0.322 0.394,0 0,0 m 0,2.862 c -1.184,0 -2.146,-0.963 -2.146,-2.146 0,-1.184 0.962,-2.147 2.146,-2.147 1.184,0 2.146,0.963 2.146,2.147 0,1.183 -0.962,2.146 -2.146,2.146" /></g><g
           transform="translate(37.1465,45.6709)"
           id="g44"><path
             id="path46"
             style="fill:#3f4c49;fill-opacity:1;fill-rule:nonzero;stroke:none"
             d="m 0,0 c 0.396,0 0.716,-0.32 0.716,-0.715 0,-0.395 -0.32,-0.716 -0.716,-0.716 -0.396,0 -0.716,0.321 -0.716,0.716 C -0.716,-0.32 -0.396,0 0,0" /></g><g
           transform="translate(37.1465,42.8091)"
           id="g48"><path
             id="path50"
             style="fill:#3f4c49;fill-opacity:1;fill-rule:nonzero;stroke:none"
             d="m 0,0 c 0.396,0 0.716,-0.32 0.716,-0.715 0,-0.395 -0.32,-0.716 -0.716,-0.716 -0.396,0 -0.716,0.321 -0.716,0.716 C -0.716,-0.32 -0.396,0 0,0" /></g></g></g></g></svg>