<?xml version="1.0" encoding="UTF-8" standalone="no"?>
<svg
   xmlns:dc="http://purl.org/dc/elements/1.1/"
   xmlns:cc="http://creativecommons.org/ns#"
   xmlns:rdf="http://www.w3.org/1999/02/22-rdf-syntax-ns#"
   xmlns:svg="http://www.w3.org/2000/svg"
   xmlns="http://www.w3.org/2000/svg"
   viewBox="0 0 93.333336 76"
   height="76"
   width="93.333336"
   xml:space="preserve"
   id="svg2"
   version="1.1"><metadata
     id="metadata8"><rdf:RDF><cc:Work
         rdf:about=""><dc:format>image/svg+xml</dc:format><dc:type
           rdf:resource="http://purl.org/dc/dcmitype/StillImage" /></cc:Work></rdf:RDF></metadata><defs
     id="defs6"><clipPath
       id="clipPath18"
       clipPathUnits="userSpaceOnUse"><path
         id="path16"
         d="M 0,57 H 70 V 0 H 0 Z" /></clipPath></defs><g
     transform="matrix(1.3333333,0,0,-1.3333333,0,76)"
     id="g10"><g
       id="g12"><g
         clip-path="url(#clipPath18)"
         id="g14"><g
           transform="translate(53.7461,11.877)"
           id="g20"><path
             id="path22"
             style="fill:#3e3736;fill-opacity:1;fill-rule:nonzero;stroke:none"
             d="m 0,0 c -5.909,0 -10.717,4.815 -10.717,10.734 0,3.494 1.683,6.594 4.272,8.555 l 5.309,-9.212 C -0.893,9.655 -0.451,9.42 0.002,9.42 c 0.222,0 0.447,0.056 0.655,0.176 0.627,0.363 0.842,1.167 0.481,1.796 l -5.318,9.225 c 1.285,0.547 2.699,0.851 4.182,0.851 5.909,0 10.716,-4.815 10.716,-10.734 C 10.718,4.815 5.909,0 0,0 m -18.314,13.472 -7.285,12.638 h 13.823 z m -5.902,-1.423 c -0.384,3.922 -2.474,7.343 -5.509,9.529 l 1.855,3.217 7.347,-12.746 z m -11.002,0 4.173,7.24 c 2.258,-1.711 3.819,-4.289 4.182,-7.24 z M -37.49,0 c -5.91,0 -10.717,4.815 -10.717,10.734 0,5.919 4.807,10.734 10.717,10.734 1.482,0 2.895,-0.304 4.181,-0.851 l -5.318,-9.225 c -0.234,-0.408 -0.234,-0.909 0,-1.315 0.235,-0.406 0.668,-0.657 1.137,-0.657 h 10.627 C -27.513,4.12 -32.026,0 -37.49,0 M 0,24.097 c -1.96,0 -3.816,-0.436 -5.495,-1.201 l -2.972,5.154 c -10e-4,0.003 -0.003,0.006 -0.005,0.01 l -2.976,5.165 h 5.462 c 0.676,0 1.226,-0.551 1.226,-1.229 0,-0.677 -0.55,-1.229 -1.226,-1.229 -0.726,0 -1.313,-0.589 -1.313,-1.314 0,-0.726 0.587,-1.315 1.313,-1.315 2.123,0 3.85,1.732 3.85,3.858 0,2.037 -1.588,3.692 -3.586,3.831 -0.085,0.018 -0.174,0.027 -0.264,0.027 h -7.631 c -0.726,0 -1.313,-0.588 -1.313,-1.314 0,-0.023 0.006,-0.044 0.008,-0.066 -0.023,-0.26 0.029,-0.528 0.168,-0.771 l 2.862,-4.964 h -15.222 l -2.597,4.507 h 1.535 c 0.725,0 1.312,0.588 1.312,1.314 0,0.726 -0.587,1.315 -1.312,1.315 h -7.615 c -0.725,0 -1.312,-0.589 -1.312,-1.315 0,-0.726 0.587,-1.314 1.312,-1.314 h 3.05 l 3.355,-5.821 -2.61,-4.528 c -1.678,0.765 -3.535,1.201 -5.495,1.201 -7.357,0 -13.341,-5.994 -13.341,-13.363 0,-7.368 5.984,-13.363 13.341,-13.363 6.912,0 12.613,5.296 13.274,12.049 h 5.965 10e-4 0.001 c 0.001,0 0.002,0.001 0.004,0.001 0.103,10e-4 0.203,0.016 0.3,0.038 0.012,0.003 0.025,0.004 0.037,0.007 0.018,0.006 0.034,0.015 0.053,0.021 0.074,0.024 0.146,0.054 0.213,0.089 0.016,0.009 0.033,0.011 0.047,0.02 0.003,0.002 0.005,0.005 0.008,0.006 0.011,0.005 0.021,0.014 0.03,0.02 0.04,0.024 0.076,0.053 0.113,0.082 0.031,0.024 0.063,0.049 0.091,0.075 0.014,0.013 0.029,0.025 0.041,0.037 0.014,0.015 0.025,0.033 0.039,0.047 0.002,0.003 0.004,0.007 0.007,0.01 0.028,0.032 0.056,0.063 0.08,0.098 0.025,0.034 0.045,0.071 0.066,0.108 0.003,0.005 0.007,0.009 0.009,0.015 0.008,0.011 0.017,0.02 0.024,0.034 l 7.53,14.557 1.791,-3.108 c -3.369,-2.428 -5.575,-6.379 -5.575,-10.844 0,-7.368 5.985,-13.363 13.341,-13.363 7.356,0 13.341,5.995 13.341,13.363 0,7.369 -5.984,13.363 -13.34,13.363" /></g></g></g></g></svg>