<?xml version="1.0" encoding="UTF-8" standalone="no"?>
<svg
   xmlns:dc="http://purl.org/dc/elements/1.1/"
   xmlns:cc="http://creativecommons.org/ns#"
   xmlns:rdf="http://www.w3.org/1999/02/22-rdf-syntax-ns#"
   xmlns:svg="http://www.w3.org/2000/svg"
   xmlns="http://www.w3.org/2000/svg"
   viewBox="0 0 93.333336 76"
   height="76"
   width="93.333336"
   xml:space="preserve"
   id="svg2"
   version="1.1"><metadata
     id="metadata8"><rdf:RDF><cc:Work
         rdf:about=""><dc:format>image/svg+xml</dc:format><dc:type
           rdf:resource="http://purl.org/dc/dcmitype/StillImage" /></cc:Work></rdf:RDF></metadata><defs
     id="defs6"><clipPath
       id="clipPath18"
       clipPathUnits="userSpaceOnUse"><path
         id="path16"
         d="M 0,57 H 70 V 0 H 0 Z" /></clipPath></defs><g
     transform="matrix(1.3333333,0,0,-1.3333333,0,76)"
     id="g10"><g
       id="g12"><g
         clip-path="url(#clipPath18)"
         id="g14"><path
           id="path20"
           style="fill:#ffffff;fill-opacity:1;fill-rule:nonzero;stroke:none"
           d="m 33.914,43.037 h -1.448 v 3.198 h 1.448 z m 2.385,-1.461 V 40.23 h -6.218 v 1.346 c 0,0.104 0.085,0.188 0.189,0.188 h 5.841 c 0.104,0 0.188,-0.084 0.188,-0.188 m 10.15,3.901 -0.167,0.395 c -1.115,2.642 -3.688,4.35 -6.556,4.35 h -9.209 c -0.351,0 -0.636,-0.285 -0.636,-0.637 0,-0.351 0.285,-0.636 0.636,-0.636 h 9.209 c 2.355,0 4.468,-1.402 5.384,-3.572 l 10e-4,-0.002 h -1.613 c -0.793,1.319 -2.223,2.132 -3.772,2.132 H 26.469 v 1.442 h 1.337 c 0.351,0 0.636,0.285 0.636,0.636 0,0.352 -0.285,0.637 -0.636,0.637 h -1.617 c -0.547,0 -0.993,-0.446 -0.993,-0.994 v -2 c 0,-0.548 0.446,-0.993 0.993,-0.993 h 5.005 V 43.037 H 30.27 c -0.806,0 -1.461,-0.656 -1.461,-1.461 V 40.23 h -0.573 c -0.544,0 -0.987,-0.443 -0.987,-0.987 V 37.295 L 25.142,35.64 C 24.081,34.806 23.473,33.554 23.473,32.206 V 9.87 c 0,-1.705 1.387,-3.092 3.091,-3.092 h 13.251 c 1.706,0 3.092,1.388 3.092,3.092 v 18.172 c 0,0.352 -0.284,0.637 -0.636,0.637 -0.351,0 -0.636,-0.285 -0.636,-0.637 V 9.87 c 0,-1.003 -0.816,-1.819 -1.82,-1.819 H 26.564 c -1.003,0 -1.819,0.816 -1.819,1.819 v 22.336 c 0,0.956 0.431,1.843 1.183,2.433 l 2.35,1.847 c 0.154,0.12 0.243,0.305 0.243,0.5 v 1.972 h 9.337 v -1.972 c 0,-0.195 0.09,-0.38 0.244,-0.5 l 2.35,-1.847 c 0.752,-0.59 1.183,-1.477 1.183,-2.433 v -1.452 c 0,-0.351 0.285,-0.636 0.636,-0.636 0.352,0 0.636,0.285 0.636,0.636 v 1.452 c 0,1.349 -0.608,2.6 -1.669,3.434 l -2.107,1.655 v 1.948 c 0,0.544 -0.443,0.987 -0.987,0.987 h -0.573 v 1.346 c 0,0.805 -0.655,1.461 -1.461,1.461 h -0.923 v 3.198 h 4.539 c 1.142,0 2.192,-0.621 2.741,-1.621 0.174,-0.315 0.505,-0.511 0.866,-0.511 h 2.204 c 0.333,0 0.641,0.165 0.825,0.442 0.184,0.277 0.217,0.626 0.087,0.932" /><g
           transform="translate(28.5488,26.5215)"
           id="g22"><path
             id="path24"
             style="fill:#ffffff;fill-opacity:1;fill-rule:nonzero;stroke:none"
             d="m 0,0 c -0.27,0.226 -0.671,0.189 -0.896,-0.08 -1.082,-1.294 -1.678,-2.936 -1.678,-4.624 0,-3.978 3.237,-7.215 7.216,-7.215 3.978,0 7.214,3.237 7.214,7.215 0,3.978 -3.236,7.215 -7.214,7.215 C 3.519,2.511 2.442,2.259 1.44,1.762 1.125,1.606 0.997,1.224 1.153,0.909 1.309,0.595 1.69,0.466 2.005,0.622 2.83,1.031 3.717,1.239 4.642,1.239 c 3.276,0 5.942,-2.666 5.942,-5.943 0,-3.276 -2.666,-5.942 -5.942,-5.942 -3.277,0 -5.943,2.666 -5.943,5.942 0,1.391 0.49,2.742 1.381,3.808 C 0.306,-0.626 0.27,-0.225 0,0" /></g><g
           transform="translate(35.9331,22.5186)"
           id="g26"><path
             id="path28"
             style="fill:#ffffff;fill-opacity:1;fill-rule:nonzero;stroke:none"
             d="m 0,0 v -1.401 h -1.406 c -0.351,0 -0.636,-0.286 -0.636,-0.637 v -1.405 h -1.402 v 1.405 c 0,0.351 -0.285,0.637 -0.636,0.637 H -5.485 V 0 h 1.405 c 0.351,0 0.636,0.285 0.636,0.637 v 1.405 h 1.402 V 0.637 C -2.042,0.285 -1.757,0 -1.406,0 Z m -1.795,3.314 h -1.896 c -0.565,0 -1.025,-0.46 -1.025,-1.025 V 1.272 h -1.017 c -0.565,0 -1.025,-0.46 -1.025,-1.025 v -1.895 c 0,-0.566 0.46,-1.026 1.025,-1.026 h 1.017 V -3.69 c 0,-0.566 0.46,-1.026 1.025,-1.026 h 1.896 c 0.566,0 1.025,0.46 1.025,1.026 v 1.016 h 1.017 c 0.565,0 1.025,0.46 1.025,1.026 v 1.895 c 0,0.565 -0.46,1.025 -1.025,1.025 H -0.77 v 1.017 c 0,0.565 -0.459,1.025 -1.025,1.025" /></g></g></g></g></svg>