<?xml version="1.0" encoding="UTF-8" standalone="no"?>
<svg
   xmlns:dc="http://purl.org/dc/elements/1.1/"
   xmlns:cc="http://creativecommons.org/ns#"
   xmlns:rdf="http://www.w3.org/1999/02/22-rdf-syntax-ns#"
   xmlns:svg="http://www.w3.org/2000/svg"
   xmlns="http://www.w3.org/2000/svg"
   viewBox="0 0 93.333336 76"
   height="76"
   width="93.333336"
   xml:space="preserve"
   id="svg2"
   version="1.1"><metadata
     id="metadata8"><rdf:RDF><cc:Work
         rdf:about=""><dc:format>image/svg+xml</dc:format><dc:type
           rdf:resource="http://purl.org/dc/dcmitype/StillImage" /></cc:Work></rdf:RDF></metadata><defs
     id="defs6"><clipPath
       id="clipPath18"
       clipPathUnits="userSpaceOnUse"><path
         id="path16"
         d="M 0,57 H 70 V 0 H 0 Z" /></clipPath></defs><g
     transform="matrix(1.3333333,0,0,-1.3333333,0,76)"
     id="g10"><g
       id="g12"><g
         clip-path="url(#clipPath18)"
         id="g14"><g
           transform="translate(34.9219,17.2197)"
           id="g20"><path
             id="path22"
             style="fill:#ffffff;fill-opacity:1;fill-rule:nonzero;stroke:none"
             d="m 0,0 c 1.423,0 2.576,-1.153 2.576,-2.576 0,-1.423 -1.153,-2.576 -2.576,-2.576 -1.423,0 -2.576,1.153 -2.576,2.576 C -2.576,-1.153 -1.423,0 0,0" /></g><g
           transform="translate(54.5654,36.395)"
           id="g24"><path
             id="path26"
             style="fill:#ffffff;fill-opacity:1;fill-rule:nonzero;stroke:none"
             d="M 0,0 C -5.132,5.505 -12.079,8.537 -19.566,8.538 -27.051,8.537 -34,5.505 -39.131,0 c -0.587,-0.631 -0.553,-1.619 0.078,-2.207 0.631,-0.587 1.619,-0.553 2.207,0.078 4.533,4.865 10.671,7.544 17.281,7.544 6.61,0 12.747,-2.679 17.281,-7.544 0.307,-0.33 0.723,-0.496 1.142,-0.496 0.381,0 0.763,0.138 1.064,0.418 C 0.553,-1.619 0.588,-0.631 0,0" /></g><g
           transform="translate(48.832,29.9473)"
           id="g28"><path
             id="path30"
             style="fill:#ffffff;fill-opacity:1;fill-rule:nonzero;stroke:none"
             d="m 0,0 c -3.793,3.822 -8.705,5.926 -13.832,5.926 -5.128,0 -10.041,-2.105 -13.833,-5.926 -0.607,-0.612 -0.604,-1.601 0.009,-2.208 0.612,-0.607 1.6,-0.604 2.208,0.009 3.2,3.226 7.326,5.002 11.616,5.003 4.288,0 8.414,-1.777 11.616,-5.004 0.305,-0.307 0.706,-0.461 1.109,-0.461 0.397,0 0.795,0.151 1.099,0.453 C 0.604,-1.601 0.607,-0.612 0,0" /></g><g
           transform="translate(42.584,23.4814)"
           id="g32"><path
             id="path34"
             style="fill:#ffffff;fill-opacity:1;fill-rule:nonzero;stroke:none"
             d="M 0,0 C -2.031,2.012 -4.942,3.262 -7.599,3.262 H -7.6 -7.712 -7.713 c -2.657,0 -5.568,-1.25 -7.6,-3.262 -0.612,-0.607 -0.617,-1.596 -0.01,-2.208 0.305,-0.309 0.708,-0.463 1.11,-0.463 0.397,0 0.794,0.15 1.098,0.452 1.446,1.433 3.566,2.359 5.402,2.359 h 0.001 0.112 10e-4 c 1.835,0 3.955,-0.926 5.401,-2.359 0.613,-0.606 1.601,-0.602 2.208,0.011 C 0.617,-1.596 0.612,-0.607 0,0" /></g></g></g></g></svg>