<?xml version="1.0" encoding="UTF-8" standalone="no"?>
<svg
   xmlns:dc="http://purl.org/dc/elements/1.1/"
   xmlns:cc="http://creativecommons.org/ns#"
   xmlns:rdf="http://www.w3.org/1999/02/22-rdf-syntax-ns#"
   xmlns:svg="http://www.w3.org/2000/svg"
   xmlns="http://www.w3.org/2000/svg"
   viewBox="0 0 93.333336 76"
   height="76"
   width="93.333336"
   xml:space="preserve"
   id="svg2"
   version="1.1"><metadata
     id="metadata8"><rdf:RDF><cc:Work
         rdf:about=""><dc:format>image/svg+xml</dc:format><dc:type
           rdf:resource="http://purl.org/dc/dcmitype/StillImage" /></cc:Work></rdf:RDF></metadata><defs
     id="defs6"><clipPath
       id="clipPath18"
       clipPathUnits="userSpaceOnUse"><path
         id="path16"
         d="M 0,57 H 70 V 0 H 0 Z" /></clipPath></defs><g
     transform="matrix(1.3333333,0,0,-1.3333333,0,76)"
     id="g10"><g
       id="g12"><g
         clip-path="url(#clipPath18)"
         id="g14"><g
           transform="translate(45.4678,24.6572)"
           id="g20"><path
             id="path22"
             style="fill:#3f4c49;fill-opacity:1;fill-rule:nonzero;stroke:none"
             d="m 0,0 c 1.625,-1.411 2.788,-3.211 3.458,-5.074 -2.937,-4.584 -8.066,-7.619 -13.925,-7.619 -0.876,0 -1.732,0.067 -2.571,0.199 C -6.842,-10.602 -2.03,-6.313 0,0 m -7.658,2.822 c 1.824,0 3.716,-0.401 5.459,-1.311 -1.999,-7.347 -7.856,-11.561 -15.754,-12.415 -2.104,1.073 -3.943,2.584 -5.406,4.412 2.531,-0.069 5.184,0.51 7.606,1.908 2.997,1.73 5.032,4.405 6.16,7.261 0.631,0.096 1.279,0.146 1.935,0.145 M -8.4,12.76 C -2.74,12.839 2.271,9.908 6.055,4.73 6.07,4.436 6.068,4.142 6.068,3.843 6.068,1.719 5.669,-0.309 4.942,-2.173 3.735,0.059 1.91,2.084 -0.517,3.485 -2.968,4.9 -5.668,5.479 -8.228,5.393 -8.813,5.374 -9.387,5.309 -9.95,5.221 c -1.485,1.874 -2.514,4.296 -2.624,6.943 1.424,0.376 2.817,0.577 4.174,0.596 m -4.571,7.433 c -1.33,-2.163 -2.16,-4.75 -2.16,-7.552 0,-3.482 1.279,-6.641 3.207,-9.05 -0.882,-2.218 -2.46,-4.32 -4.691,-5.737 -5.362,5.406 -6.088,12.592 -2.875,19.861 1.932,1.258 4.14,2.118 6.519,2.478 m 3.272,0.173 c 6.728,-0.308 12.393,-4.621 14.68,-10.614 -3.576,3.353 -7.929,5.346 -12.653,5.512 -1.53,0.054 -3.11,-0.082 -4.703,-0.424 0.412,2.111 1.396,4.016 2.676,5.526 m -0.768,2.557 c -10.218,0 -18.604,-8.058 -19.079,-18.166 -0.033,-0.702 0.509,-1.299 1.212,-1.332 0.702,-0.032 1.298,0.51 1.332,1.213 0.17,3.637 1.52,6.955 3.669,9.606 -1.457,-6.312 -0.149,-12.629 4.307,-17.543 -2.029,-0.7 -4.161,-0.801 -6.108,-0.45 -0.655,1.264 -1.158,2.627 -1.471,4.054 -0.181,0.681 -0.879,1.087 -1.561,0.907 -0.638,-0.17 -1.042,-0.799 -0.93,-1.45 1.878,-8.568 9.513,-14.999 18.629,-14.999 10.522,0 19.079,8.557 19.079,19.08 0,10.522 -8.557,19.08 -19.079,19.08" /></g></g></g></g></svg>