<?xml version="1.0" encoding="UTF-8" standalone="no"?>
<svg
   xmlns:dc="http://purl.org/dc/elements/1.1/"
   xmlns:cc="http://creativecommons.org/ns#"
   xmlns:rdf="http://www.w3.org/1999/02/22-rdf-syntax-ns#"
   xmlns:svg="http://www.w3.org/2000/svg"
   xmlns="http://www.w3.org/2000/svg"
   viewBox="0 0 93.333336 76"
   height="76"
   width="93.333336"
   xml:space="preserve"
   id="svg2"
   version="1.1"><metadata
     id="metadata8"><rdf:RDF><cc:Work
         rdf:about=""><dc:format>image/svg+xml</dc:format><dc:type
           rdf:resource="http://purl.org/dc/dcmitype/StillImage" /></cc:Work></rdf:RDF></metadata><defs
     id="defs6"><clipPath
       id="clipPath18"
       clipPathUnits="userSpaceOnUse"><path
         id="path16"
         d="M 0,57 H 70 V 0 H 0 Z" /></clipPath></defs><g
     transform="matrix(1.3333333,0,0,-1.3333333,0,76)"
     id="g10"><g
       id="g12"><g
         clip-path="url(#clipPath18)"
         id="g14"><path
           id="path20"
           style="fill:white;fill-opacity:1;fill-rule:nonzero;stroke:none"
           d="M 13.983,10.504 H 30.521 V 46.496 H 13.983 Z M 31.44,8.667 H 13.065 c -0.508,0 -0.919,0.409 -0.919,0.918 v 37.83 c 0,0.508 0.411,0.918 0.919,0.918 H 31.44 c 0.508,0 0.918,-0.41 0.918,-0.918 V 9.585 C 32.359,9.076 31.948,8.667 31.44,8.667" /><g
           transform="translate(60.6553,32.2559)"
           id="g22"><path
             id="path24"
             style="fill:white;fill-opacity:1;fill-rule:nonzero;stroke:none"
             d="m 0,0 h -51.311 c -0.507,0 -0.918,0.41 -0.918,0.918 0,0.509 0.411,0.919 0.918,0.919 L 0,1.837 c 0.508,0 0.918,-0.41 0.918,-0.919 C 0.918,0.41 0.507,0 0,0" /></g><g
           transform="translate(27.0757,36.5742)"
           id="g26"><path
             id="path28"
             style="fill:white;fill-opacity:1;fill-rule:nonzero;stroke:none"
             d="m 0,0 c -0.508,0 -0.918,0.411 -0.918,0.918 v 3.72 c 0,0.508 0.411,0.919 0.918,0.919 0.508,0 0.919,-0.411 0.919,-0.919 V 0.918 C 0.919,0.411 0.508,0 0,0" /></g><g
           transform="translate(27.0757,23.7559)"
           id="g30"><path
             id="path32"
             style="fill:white;fill-opacity:1;fill-rule:nonzero;stroke:none"
             d="m 0,0 c -0.508,0 -0.918,0.411 -0.918,0.92 v 3.451 c 0,0.509 0.411,0.92 0.918,0.92 0.508,0 0.919,-0.411 0.919,-0.92 V 0.92 C 0.919,0.411 0.508,0 0,0" /></g><g
           transform="translate(40.7021,38.7617)"
           id="g34"><path
             id="path36"
             style="fill:white;fill-opacity:1;fill-rule:nonzero;stroke:none"
             d="m 0,0 c 0.431,-2.202 2.373,-3.869 4.701,-3.869 2.328,0 4.271,1.667 4.702,3.869 z m 4.701,-5.706 c -3.653,0 -6.627,2.971 -6.627,6.625 0,0.508 0.411,0.919 0.919,0.919 H 10.41 c 0.508,0 0.918,-0.411 0.918,-0.919 0,-3.654 -2.974,-6.625 -6.627,-6.625" /></g><g
           transform="translate(57.9971,9.7822)"
           id="g38"><path
             id="path40"
             style="fill:white;fill-opacity:1;fill-rule:nonzero;stroke:none"
             d="m 0,0 h -26.557 c -0.508,0 -0.919,0.41 -0.919,0.919 0,0.509 0.411,0.918 0.919,0.918 h 25.638 v 21.554 c 0,0.509 0.411,0.919 0.919,0.919 0.508,0 0.919,-0.41 0.919,-0.919 V 0.919 C 0.919,0.411 0.508,0 0,0" /></g><path
           id="path42"
           style="fill:white;fill-opacity:1;fill-rule:nonzero;stroke:none"
           d="m 37.99,16.317 h 13.606 v 8.817 H 37.99 Z M 52.515,14.48 H 37.071 c -0.508,0 -0.919,0.412 -0.919,0.919 v 10.654 c 0,0.509 0.411,0.919 0.919,0.919 h 15.444 c 0.508,0 0.919,-0.41 0.919,-0.919 V 15.399 c 0,-0.507 -0.411,-0.919 -0.919,-0.919" /><g
           transform="translate(51.4922,28.2354)"
           id="g44"><path
             id="path46"
             style="fill:white;fill-opacity:1;fill-rule:nonzero;stroke:none"
             d="m 0,0 h -13.397 c -0.509,0 -0.919,0.411 -0.919,0.918 0,0.509 0.41,0.92 0.919,0.92 H 0 c 0.508,0 0.919,-0.411 0.919,-0.92 C 0.919,0.411 0.508,0 0,0" /></g><g
           transform="translate(45.0928,19.6143)"
           id="g48"><path
             id="path50"
             style="fill:white;fill-opacity:1;fill-rule:nonzero;stroke:none"
             d="M 0,0 C -0.12,0 -0.24,0.047 -0.33,0.141 -0.505,0.322 -0.501,0.613 -0.318,0.79 L 2.285,3.317 C 2.467,3.492 2.762,3.488 2.935,3.306 3.111,3.125 3.107,2.834 2.924,2.656 L 0.319,0.129 C 0.231,0.043 0.114,0 0,0" /></g><g
           transform="translate(47.6426,17.0879)"
           id="g52"><path
             id="path54"
             style="fill:white;fill-opacity:1;fill-rule:nonzero;stroke:none"
             d="m 0,0 c -0.12,0 -0.24,0.046 -0.33,0.14 -0.176,0.181 -0.172,0.473 0.011,0.649 L 2.285,3.316 C 2.467,3.492 2.759,3.489 2.935,3.306 3.11,3.125 3.106,2.834 2.924,2.656 L 0.319,0.13 C 0.232,0.044 0.115,0 0,0" /></g><g
           transform="translate(45.0928,17.0879)"
           id="g56"><path
             id="path58"
             style="fill:white;fill-opacity:1;fill-rule:nonzero;stroke:none"
             d="m 0,0 c -0.118,0 -0.236,0.045 -0.327,0.138 -0.177,0.178 -0.177,0.468 0.004,0.649 l 5.1,5.053 C 4.956,6.018 5.247,6.018 5.427,5.836 5.604,5.656 5.604,5.365 5.423,5.187 L 0.322,0.134 C 0.233,0.045 0.116,0 0,0" /></g></g></g></g></svg>