<?xml version="1.0" encoding="UTF-8" standalone="no"?>
<svg
   xmlns:dc="http://purl.org/dc/elements/1.1/"
   xmlns:cc="http://creativecommons.org/ns#"
   xmlns:rdf="http://www.w3.org/1999/02/22-rdf-syntax-ns#"
   xmlns:svg="http://www.w3.org/2000/svg"
   xmlns="http://www.w3.org/2000/svg"
   viewBox="0 0 93.333336 76"
   height="76"
   width="93.333336"
   xml:space="preserve"
   id="svg2"
   version="1.1"><metadata
     id="metadata8"><rdf:RDF><cc:Work
         rdf:about=""><dc:format>image/svg+xml</dc:format><dc:type
           rdf:resource="http://purl.org/dc/dcmitype/StillImage" /></cc:Work></rdf:RDF></metadata><defs
     id="defs6"><clipPath
       id="clipPath18"
       clipPathUnits="userSpaceOnUse"><path
         id="path16"
         d="M 0,57 H 70 V 0 H 0 Z" /></clipPath></defs><g
     transform="matrix(1.3333333,0,0,-1.3333333,0,76)"
     id="g10"><g
       id="g12"><g
         clip-path="url(#clipPath18)"
         id="g14"><g
           transform="translate(57.0645,12.7402)"
           id="g20"><path
             id="path22"
             style="fill:#3f4c49;fill-opacity:1;fill-rule:nonzero;stroke:none"
             d="m 0,0 c 0,-1.306 -1.059,-2.364 -2.364,-2.364 h -39.401 c -1.305,0 -2.364,1.058 -2.364,2.364 v 2.363 h 14.185 V 1.575 c 0,-1.305 1.058,-2.363 2.363,-2.363 h 11.032 c 1.306,0 2.364,1.058 2.364,2.363 V 2.363 H 0 Z m -28.369,2.363 h 12.608 V 1.575 c 0,-0.434 -0.352,-0.788 -0.788,-0.788 h -11.032 c -0.435,0 -0.788,0.354 -0.788,0.788 z M 0.788,3.939 H 0 v 29.157 c 0,1.305 -1.059,2.364 -2.364,2.364 h -39.401 c -1.305,0 -2.364,-1.059 -2.364,-2.364 v -3.152 c 0,-0.435 0.353,-0.788 0.788,-0.788 0.436,0 0.788,0.353 0.788,0.788 v 3.152 c 0,0.435 0.353,0.788 0.788,0.788 h 39.401 c 0.435,0 0.788,-0.353 0.788,-0.788 V 3.939 h -40.977 v 22.853 c 0,0.435 -0.352,0.788 -0.788,0.788 -0.435,0 -0.788,-0.353 -0.788,-0.788 V 3.939 h -0.788 c -0.435,0 -0.788,-0.352 -0.788,-0.788 V 0 c 0,-2.177 1.764,-3.94 3.94,-3.94 h 39.401 c 2.176,0 3.94,1.763 3.94,3.94 v 3.151 c 0,0.436 -0.353,0.788 -0.788,0.788" /></g><g
           transform="translate(53.124,26.1357)"
           id="g24"><path
             id="path26"
             style="fill:#3f4c49;fill-opacity:1;fill-rule:nonzero;stroke:none"
             d="m 0,0 c 0.436,0 0.788,0.354 0.788,0.788 v 17.337 c 0,0.435 -0.352,0.788 -0.788,0.788 h -36.248 c -0.436,0 -0.788,-0.353 -0.788,-0.788 V -7.092 c 0,-0.435 0.352,-0.788 0.788,-0.788 L 0,-7.88 c 0.436,0 0.788,0.353 0.788,0.788 v 4.728 c 0,0.435 -0.352,0.788 -0.788,0.788 -0.435,0 -0.788,-0.353 -0.788,-0.788 v -3.94 H -35.46 v 23.64 H -0.788 V 0.788 C -0.788,0.354 -0.435,0 0,0" /></g></g></g></g></svg>