<?xml version="1.0" encoding="UTF-8" standalone="no"?>
<svg
   xmlns:dc="http://purl.org/dc/elements/1.1/"
   xmlns:cc="http://creativecommons.org/ns#"
   xmlns:rdf="http://www.w3.org/1999/02/22-rdf-syntax-ns#"
   xmlns:svg="http://www.w3.org/2000/svg"
   xmlns="http://www.w3.org/2000/svg"
   viewBox="0 0 93.333336 76"
   height="76"
   width="93.333336"
   xml:space="preserve"
   id="svg2"
   version="1.1"><metadata
     id="metadata8"><rdf:RDF><cc:Work
         rdf:about=""><dc:format>image/svg+xml</dc:format><dc:type
           rdf:resource="http://purl.org/dc/dcmitype/StillImage" /></cc:Work></rdf:RDF></metadata><defs
     id="defs6"><clipPath
       id="clipPath18"
       clipPathUnits="userSpaceOnUse"><path
         id="path16"
         d="M 0,57 H 70 V 0 H 0 Z" /></clipPath></defs><g
     transform="matrix(1.3333333,0,0,-1.3333333,0,76)"
     id="g10"><g
       id="g12"><g
         clip-path="url(#clipPath18)"
         id="g14"><g
           transform="translate(56.9961,15.502)"
           id="g20"><path
             id="path22"
             style="fill:#ffffff;fill-opacity:1;fill-rule:nonzero;stroke:none"
             d="m 0,0 c 0,-2.757 -2.242,-4.999 -4.999,-4.999 h -33.994 c -2.757,0 -4.999,2.242 -4.999,4.999 v 19.997 c 0,2.757 2.242,4.999 4.999,4.999 H -4.999 C -2.241,24.996 0,22.754 0,19.997 Z m -4.999,26.996 h -33.994 c -3.86,0 -6.999,-3.14 -6.999,-6.999 V 0.001 c 0,-3.859 3.139,-6.999 6.999,-6.999 H -4.999 C -1.14,-6.998 2,-3.858 2,0.001 v 19.996 c -10e-4,3.859 -3.14,6.999 -6.999,6.999" /></g><g
           transform="translate(40.999,42.4976)"
           id="g24"><path
             id="path26"
             style="fill:#ffffff;fill-opacity:1;fill-rule:nonzero;stroke:none"
             d="m 0,0 h -11.998 v 3 c 0,0.549 0.45,0.999 1,0.999 H -1 c 0.55,0 1,-0.45 1,-0.999 z m -1,5.999 h -9.998 c -1.654,0 -3,-1.346 -3,-2.999 v -4 c 0,-0.552 0.448,-1 1,-1 L 1,-2 c 0.552,0 1,0.448 1,1 V 3 C 1.999,4.653 0.653,5.999 -1,5.999" /></g><path
           id="path28"
           style="fill:#ffffff;fill-opacity:1;fill-rule:nonzero;stroke:none"
           d="m 23.002,10.503 h -2 v 29.995 h 2 z m 1,31.995 h -3.999 c -0.552,0 -1,-0.449 -1,-1 V 9.504 c 0,-0.553 0.448,-1 1,-1 h 3.999 c 0.552,0 1,0.447 1,1 v 31.994 c 0,0.552 -0.448,1 -1,1" /><path
           id="path30"
           style="fill:#ffffff;fill-opacity:1;fill-rule:nonzero;stroke:none"
           d="m 48.997,10.503 h -1.999 v 29.995 h 1.999 z m 1,31.995 h -3.999 c -0.552,0 -1,-0.449 -1,-1 V 9.504 c 0,-0.553 0.448,-1 1,-1 h 3.999 c 0.552,0 1,0.447 1,1 v 31.994 c 0,0.552 -0.448,1 -1,1" /></g></g></g></svg>