<?xml version="1.0" encoding="UTF-8" standalone="no"?>
<svg
   xmlns:dc="http://purl.org/dc/elements/1.1/"
   xmlns:cc="http://creativecommons.org/ns#"
   xmlns:rdf="http://www.w3.org/1999/02/22-rdf-syntax-ns#"
   xmlns:svg="http://www.w3.org/2000/svg"
   xmlns="http://www.w3.org/2000/svg"
   viewBox="0 0 93.333336 76"
   height="76"
   width="93.333336"
   xml:space="preserve"
   id="svg2"
   version="1.1"><metadata
     id="metadata8"><rdf:RDF><cc:Work
         rdf:about=""><dc:format>image/svg+xml</dc:format><dc:type
           rdf:resource="http://purl.org/dc/dcmitype/StillImage" /></cc:Work></rdf:RDF></metadata><defs
     id="defs6"><clipPath
       id="clipPath18"
       clipPathUnits="userSpaceOnUse"><path
         id="path16"
         d="M 0,57 H 70 V 0 H 0 Z" /></clipPath></defs><g
     transform="matrix(1.3333333,0,0,-1.3333333,0,76)"
     id="g10"><g
       id="g12"><g
         clip-path="url(#clipPath18)"
         id="g14"><g
           transform="translate(56.6797,22.2754)"
           id="g20"><path
             id="path22"
             style="fill:#3f4c49;fill-opacity:1;fill-rule:nonzero;stroke:none"
             d="m 0,0 c 0,-2.363 -1.286,-4.542 -3.356,-5.685 -0.959,-0.53 -2.044,-0.81 -3.137,-0.81 -1.206,0 -2.361,0.328 -3.378,0.95 0.302,0.444 0.58,0.904 0.835,1.38 0.776,-0.475 1.657,-0.717 2.543,-0.717 0.807,0 1.62,0.201 2.359,0.609 1.556,0.859 2.522,2.497 2.522,4.273 v 2.336 c 0,1.06 -0.495,2.019 -1.359,2.634 -0.865,0.614 -1.935,0.767 -2.934,0.418 L -7.217,4.932 V 6.64 l 0.781,0.271 c 1.479,0.514 3.123,0.28 4.399,-0.628 C -0.762,5.377 0,3.901 0,2.336 Z m -7.217,3.095 v 0.408 l 1.756,0.61 C -4.88,4.316 -4.257,4.228 -3.753,3.87 -3.25,3.512 -2.962,2.953 -2.962,2.336 V 0 c 0,-1.285 -0.699,-2.471 -1.824,-3.092 -1.16,-0.64 -2.57,-0.575 -3.662,0.151 0.793,1.854 1.231,3.894 1.231,6.036 m 5.962,4.288 c -1.631,1.16 -3.733,1.46 -5.624,0.803 L -7.237,8.061 C -7.379,9.039 -8.224,9.793 -9.24,9.793 h -6.51 c -0.372,0 -0.675,-0.301 -0.675,-0.674 0,-0.373 0.303,-0.675 0.675,-0.675 h 6.51 c 0.372,0 0.675,-0.302 0.675,-0.674 V 3.095 c 0,-7.757 -6.311,-14.068 -14.068,-14.068 h -2.871 c -3.683,0 -7.165,1.413 -9.805,3.981 -0.268,0.26 -0.694,0.253 -0.954,-0.014 -0.26,-0.267 -0.254,-0.694 0.013,-0.954 1.308,-1.271 2.805,-2.284 4.426,-3.013 h -12.21 c -0.373,0 -0.674,-0.301 -0.674,-0.674 0,-2.356 1.916,-4.273 4.272,-4.273 h 26.445 c 0.373,0 0.675,0.302 0.675,0.674 0,0.373 -0.302,0.675 -0.675,0.675 h -26.445 c -1.379,0 -2.539,0.961 -2.845,2.249 h 38.426 c -0.124,-0.524 -0.39,-1.003 -0.78,-1.394 -0.551,-0.552 -1.285,-0.855 -2.066,-0.855 h -3.35 c -0.372,0 -0.675,-0.302 -0.675,-0.675 0,-0.372 0.303,-0.674 0.675,-0.674 h 3.35 c 1.142,0 2.216,0.444 3.02,1.251 0.808,0.807 1.252,1.88 1.252,3.022 0,0.373 -0.301,0.674 -0.675,0.674 h -12.224 c 2.206,0.993 4.138,2.49 5.648,4.343 1.247,-0.786 2.711,-1.214 4.187,-1.214 1.32,0 2.631,0.338 3.789,0.978 2.5,1.38 4.054,4.011 4.054,6.866 v 2.336 c 0,2.002 -0.975,3.889 -2.605,5.047" /></g><g
           transform="translate(16.7095,20.0264)"
           id="g24"><path
             id="path26"
             style="fill:#3f4c49;fill-opacity:1;fill-rule:nonzero;stroke:none"
             d="m 0,0 c 0.337,-0.912 0.765,-1.799 1.271,-2.636 0.127,-0.21 0.35,-0.325 0.578,-0.325 0.119,0 0.239,0.031 0.348,0.097 0.319,0.193 0.422,0.608 0.229,0.927 C 1.963,-1.174 1.573,-0.364 1.266,0.468 1.055,1.037 0.88,1.628 0.746,2.225 0.515,3.242 0.398,4.292 0.398,5.344 v 4.675 c 0,0.372 0.303,0.674 0.675,0.674 h 20.208 c 0.373,0 0.675,0.302 0.675,0.675 0,0.373 -0.302,0.674 -0.675,0.674 H 1.073 c -1.116,0 -2.024,-0.907 -2.024,-2.023 V 5.344 c 0,-1.153 0.128,-2.302 0.381,-3.417 C -0.423,1.273 -0.231,0.625 0,0" /></g><g
           transform="translate(31.7432,35.6104)"
           id="g28"><path
             id="path30"
             style="fill:#3f4c49;fill-opacity:1;fill-rule:nonzero;stroke:none"
             d="m 0,0 c -0.209,-0.309 -0.129,-0.728 0.179,-0.937 0.116,-0.079 0.248,-0.117 0.379,-0.117 0.215,0 0.428,0.104 0.558,0.296 3.014,4.438 1.309,6.635 -0.06,8.401 -1.31,1.689 -2.346,3.023 0.048,6.32 0.219,0.302 0.152,0.724 -0.149,0.943 C 0.653,15.125 0.231,15.058 0.012,14.756 -2.977,10.639 -1.401,8.608 -0.011,6.816 1.317,5.105 2.463,3.627 0,0" /></g><g
           transform="translate(24.6201,38.5513)"
           id="g32"><path
             id="path34"
             style="fill:#3f4c49;fill-opacity:1;fill-rule:nonzero;stroke:none"
             d="m 0,0 c -0.236,-0.289 -0.193,-0.714 0.096,-0.95 0.125,-0.102 0.276,-0.152 0.426,-0.152 0.196,0 0.39,0.085 0.523,0.248 C 3.42,2.052 2.015,3.557 0.99,4.655 0.039,5.674 -0.536,6.289 1.031,8.082 1.276,8.363 1.247,8.789 0.966,9.034 0.686,9.279 0.26,9.25 0.015,8.97 -2.354,6.259 -0.991,4.8 0.003,3.734 0.982,2.686 1.629,1.993 0,0" /></g><g
           transform="translate(38.9375,38.5513)"
           id="g36"><path
             id="path38"
             style="fill:#3f4c49;fill-opacity:1;fill-rule:nonzero;stroke:none"
             d="m 0,0 c -0.235,-0.289 -0.193,-0.714 0.096,-0.95 0.125,-0.102 0.276,-0.152 0.426,-0.152 0.196,0 0.389,0.085 0.523,0.248 C 3.42,2.052 2.016,3.557 0.989,4.655 0.038,5.674 -0.536,6.289 1.03,8.082 1.275,8.363 1.247,8.789 0.966,9.034 0.686,9.279 0.26,9.25 0.015,8.97 -2.354,6.259 -0.991,4.8 0.003,3.734 0.982,2.686 1.629,1.993 0,0" /></g></g></g></g></svg>