<?xml version="1.0" encoding="UTF-8" standalone="no"?>
<svg
   xmlns:dc="http://purl.org/dc/elements/1.1/"
   xmlns:cc="http://creativecommons.org/ns#"
   xmlns:rdf="http://www.w3.org/1999/02/22-rdf-syntax-ns#"
   xmlns:svg="http://www.w3.org/2000/svg"
   xmlns="http://www.w3.org/2000/svg"
   viewBox="0 0 33.333332 30.197733"
   height="30.197733"
   width="33.333332"
   xml:space="preserve"
   id="svg2"
   version="1.1"><metadata
     id="metadata8"><rdf:RDF><cc:Work
         rdf:about=""><dc:format>image/svg+xml</dc:format><dc:type
           rdf:resource="http://purl.org/dc/dcmitype/StillImage" /></cc:Work></rdf:RDF></metadata><defs
     id="defs6"><clipPath
       id="clipPath18"
       clipPathUnits="userSpaceOnUse"><path
         id="path16"
         d="M 0,22.648 H 25 V 0 H 0 Z" /></clipPath></defs><g
     transform="matrix(1.3333333,0,0,-1.3333333,0,30.197733)"
     id="g10"><g
       id="g12"><g
         clip-path="url(#clipPath18)"
         id="g14"><g
           transform="translate(15.9102,9.5654)"
           id="g20"><path
             id="path22"
             style="fill:#3f4c49;fill-opacity:1;fill-rule:nonzero;stroke:none"
             d="M 0,0 -2.669,2.002 V 6.08 C -2.669,6.49 -3,6.821 -3.41,6.821 -3.82,6.821 -4.152,6.49 -4.152,6.08 V 1.631 c 0,-0.234 0.11,-0.453 0.297,-0.593 l 2.965,-2.225 c 0.134,-0.099 0.289,-0.148 0.445,-0.148 0.226,0 0.448,0.102 0.593,0.298 C 0.395,-0.71 0.328,-0.245 0,0" /></g><g
           transform="translate(12.5,3.1669)"
           id="g24"><path
             id="path26"
             style="fill:#3f4c49;fill-opacity:1;fill-rule:nonzero;stroke:none"
             d="m 0,0 c -4.46,0 -8.089,3.629 -8.089,8.089 0,4.46 3.629,8.089 8.089,8.089 4.461,0 8.089,-3.629 8.089,-8.089 C 8.089,3.629 4.46,0 0,0 m 0,17.661 c -5.278,0 -9.572,-4.294 -9.572,-9.572 0,-5.278 4.294,-9.572 9.572,-9.572 5.278,0 9.572,4.294 9.572,9.572 0,5.278 -4.294,9.572 -9.572,9.572" /></g></g></g></g></svg>