<?xml version="1.0" encoding="UTF-8" standalone="no"?>
<svg
   xmlns:dc="http://purl.org/dc/elements/1.1/"
   xmlns:cc="http://creativecommons.org/ns#"
   xmlns:rdf="http://www.w3.org/1999/02/22-rdf-syntax-ns#"
   xmlns:svg="http://www.w3.org/2000/svg"
   xmlns="http://www.w3.org/2000/svg"
   viewBox="0 0 33.333332 30.197733"
   height="30.197733"
   width="33.333332"
   xml:space="preserve"
   id="svg2"
   version="1.1"><metadata
     id="metadata8"><rdf:RDF><cc:Work
         rdf:about=""><dc:format>image/svg+xml</dc:format><dc:type
           rdf:resource="http://purl.org/dc/dcmitype/StillImage" /></cc:Work></rdf:RDF></metadata><defs
     id="defs6"><clipPath
       id="clipPath18"
       clipPathUnits="userSpaceOnUse"><path
         id="path16"
         d="M 0,22.648 H 25 V 0 H 0 Z" /></clipPath></defs><g
     transform="matrix(1.3333333,0,0,-1.3333333,0,30.197733)"
     id="g10"><g
       id="g12"><g
         clip-path="url(#clipPath18)"
         id="g14"><g
           transform="translate(22.9756,5.2812)"
           id="g20"><path
             id="path22"
             style="fill:#3f4c49;fill-opacity:1;fill-rule:nonzero;stroke:none"
             d="M 0,0 -6.009,5.971 0,11.948 Z m -19.963,-0.979 6.006,5.969 1.023,-1.016 c 0.657,-0.658 1.53,-1.019 2.458,-1.019 0.929,0 1.802,0.361 2.457,1.017 l 1.024,1.018 6.007,-5.969 z M -20.951,0 v 11.948 l 6.009,-5.977 z m 19.964,12.928 c -0.426,-0.424 -7.76,-7.72 -8.014,-7.972 -0.394,-0.394 -0.917,-0.61 -1.475,-0.61 -0.557,0 -1.081,0.216 -1.476,0.612 -0.17,0.169 -7.423,7.384 -8.012,7.97 z m 0.292,1.39 h -19.561 c -1.153,0 -2.086,-0.939 -2.086,-2.086 V -0.283 c 0,-1.154 0.94,-2.086 2.086,-2.086 h 19.561 c 1.142,0 2.086,0.929 2.086,2.086 v 12.515 c 0,1.145 -0.93,2.086 -2.086,2.086" /></g></g></g></g></svg>