<?xml version="1.0" encoding="UTF-8" standalone="no"?>
<svg
   xmlns:dc="http://purl.org/dc/elements/1.1/"
   xmlns:cc="http://creativecommons.org/ns#"
   xmlns:rdf="http://www.w3.org/1999/02/22-rdf-syntax-ns#"
   xmlns:svg="http://www.w3.org/2000/svg"
   xmlns="http://www.w3.org/2000/svg"
   viewBox="0 0 82.666664 66.666664"
   height="66.666664"
   width="82.666664"
   xml:space="preserve"
   id="svg2"
   version="1.1"><metadata
     id="metadata8"><rdf:RDF><cc:Work
         rdf:about=""><dc:format>image/svg+xml</dc:format><dc:type
           rdf:resource="http://purl.org/dc/dcmitype/StillImage" /></cc:Work></rdf:RDF></metadata><defs
     id="defs6"><clipPath
       id="clipPath18"
       clipPathUnits="userSpaceOnUse"><path
         id="path16"
         d="M 0,50 H 62 V 0 H 0 Z" /></clipPath></defs><g
     transform="matrix(1.3333333,0,0,-1.3333333,0,66.666667)"
     id="g10"><g
       id="g12"><g
         clip-path="url(#clipPath18)"
         id="g14"><g
           transform="translate(51.6982,14.6514)"
           id="g20"><path
             id="path22"
             style="fill:#3e3736;fill-opacity:1;fill-rule:nonzero;stroke:none"
             d="m 0,0 c 0,-0.52 -0.421,-0.941 -0.94,-0.941 h -39.516 c -0.519,0 -0.94,0.421 -0.94,0.941 v 26.343 c 0,0.519 0.421,0.941 0.94,0.941 H -0.94 c 0.519,0 0.94,-0.422 0.94,-0.941 z m -18.816,-4.705 h -3.764 v 1.882 h 3.764 z M -0.94,29.166 h -39.516 c -1.556,0 -2.822,-1.267 -2.822,-2.823 V -10e-4 c 0,-1.556 1.266,-2.822 2.822,-2.822 h 15.995 V -4.85 L -34.965,-6.6 c -0.512,-0.085 -0.858,-0.57 -0.773,-1.082 0.077,-0.461 0.475,-0.786 0.927,-0.786 0.051,0 0.102,0.004 0.154,0.013 l 11.212,1.869 h 5.492 l 11.211,-1.869 c 0.053,-0.009 0.105,-0.013 0.156,-0.013 0.454,0 0.853,0.325 0.926,0.786 0.087,0.512 -0.262,0.997 -0.774,1.082 l -10.501,1.75 v 2.027 H -0.94 c 1.555,0 2.822,1.266 2.822,2.823 v 26.343 c 0,1.556 -1.267,2.823 -2.822,2.823" /></g><g
           transform="translate(31,23.1182)"
           id="g24"><path
             id="path26"
             style="fill:#3e3736;fill-opacity:1;fill-rule:nonzero;stroke:none"
             d="m 0,0 c -1.039,0 -1.882,-0.843 -1.882,-1.882 0,-1.038 0.843,-1.881 1.882,-1.881 1.039,0 1.882,0.843 1.882,1.881 C 1.882,-0.843 1.039,0 0,0" /></g><g
           transform="translate(25.0127,28.165)"
           id="g28"><path
             id="path30"
             style="fill:#3e3736;fill-opacity:1;fill-rule:nonzero;stroke:none"
             d="m 0,0 c -0.367,-0.367 -0.367,-0.963 0,-1.331 0.367,-0.366 0.963,-0.366 1.33,0 2.567,2.567 6.748,2.567 9.315,0 0.184,-0.182 0.424,-0.274 0.666,-0.274 0.241,0 0.479,0.09 0.664,0.274 0.367,0.368 0.367,0.964 0,1.331 C 8.673,3.3 3.302,3.3 0,0" /></g><g
           transform="translate(22.3521,30.8257)"
           id="g32"><path
             id="path34"
             style="fill:#3e3736;fill-opacity:1;fill-rule:nonzero;stroke:none"
             d="m 0,0 c -0.367,-0.367 -0.367,-0.963 0,-1.331 0.367,-0.366 0.963,-0.366 1.33,0 4.034,4.037 10.599,4.037 14.636,0 0.184,-0.182 0.425,-0.274 0.666,-0.274 0.241,0 0.482,0.092 0.664,0.274 0.368,0.368 0.368,0.964 0,1.331 C 12.528,4.768 4.768,4.768 0,0" /></g><g
           transform="translate(27.6733,25.5024)"
           id="g36"><path
             id="path38"
             style="fill:#3e3736;fill-opacity:1;fill-rule:nonzero;stroke:none"
             d="m 0,0 c -0.367,-0.367 -0.367,-0.963 0,-1.331 0.367,-0.367 0.963,-0.367 1.33,0 1.066,1.066 2.926,1.066 3.992,0 0.183,-0.182 0.425,-0.274 0.666,-0.274 0.24,0 0.481,0.092 0.664,0.274 0.367,0.368 0.367,0.964 0,1.331 C 4.877,1.776 1.774,1.776 0,0" /></g></g></g></g></svg>