<?xml version="1.0" encoding="UTF-8" standalone="no"?>
<svg
   xmlns:dc="http://purl.org/dc/elements/1.1/"
   xmlns:cc="http://creativecommons.org/ns#"
   xmlns:rdf="http://www.w3.org/1999/02/22-rdf-syntax-ns#"
   xmlns:svg="http://www.w3.org/2000/svg"
   xmlns="http://www.w3.org/2000/svg"
   xmlns:sodipodi="http://sodipodi.sourceforge.net/DTD/sodipodi-0.dtd"
   xmlns:inkscape="http://www.inkscape.org/namespaces/inkscape"
   version="1.1"
   id="svg2"
   xml:space="preserve"
   width="26.666668"
   height="26.666668"
   viewBox="0 0 26.666668 26.666668"
   sodipodi:docname="menu-cerrar.ai"><metadata
     id="metadata8"><rdf:RDF><cc:Work
         rdf:about=""><dc:format>image/svg+xml</dc:format><dc:type
           rdf:resource="http://purl.org/dc/dcmitype/StillImage" /></cc:Work></rdf:RDF></metadata><defs
     id="defs6"><clipPath
       clipPathUnits="userSpaceOnUse"
       id="clipPath18"><path
         d="M 0,20 H 20 V 0 H 0 Z"
         id="path16" /></clipPath></defs><sodipodi:namedview
     pagecolor="#ffffff"
     bordercolor="#666666"
     borderopacity="1"
     objecttolerance="10"
     gridtolerance="10"
     guidetolerance="10"
     inkscape:pageopacity="0"
     inkscape:pageshadow="2"
     inkscape:window-width="640"
     inkscape:window-height="480"
     id="namedview4" /><g
     id="g10"
     inkscape:groupmode="layer"
     inkscape:label="menu-cerrar"
     transform="matrix(1.3333333,0,0,-1.3333333,0,26.666667)"><g
       id="g12"><g
         id="g14"
         clip-path="url(#clipPath18)"><g
           id="g20"
           transform="translate(11.6533,10)"><path
             d="m 0,0 7.353,7.352 c 0.457,0.457 0.457,1.197 0,1.653 -0.457,0.457 -1.197,0.457 -1.654,0 L -1.653,1.653 -9.006,9.005 c -0.457,0.457 -1.197,0.457 -1.653,0 -0.457,-0.456 -0.457,-1.196 0,-1.653 L -3.307,0 -10.659,-7.353 c -0.457,-0.456 -0.457,-1.197 0,-1.653 0.228,-0.228 0.528,-0.343 0.826,-0.343 0.299,0 0.599,0.115 0.827,0.343 l 7.353,7.353 7.352,-7.353 c 0.229,-0.228 0.528,-0.343 0.827,-0.343 0.299,0 0.598,0.115 0.827,0.343 0.457,0.457 0.457,1.197 0,1.653 z"
             style="fill:#967b6b"
             id="path22" /></g></g></g></g></svg>
