<?xml version="1.0" encoding="UTF-8" standalone="no"?>
<svg
   xmlns:dc="http://purl.org/dc/elements/1.1/"
   xmlns:cc="http://creativecommons.org/ns#"
   xmlns:rdf="http://www.w3.org/1999/02/22-rdf-syntax-ns#"
   xmlns:svg="http://www.w3.org/2000/svg"
   xmlns="http://www.w3.org/2000/svg"
   viewBox="0 0 24 24"
   height="24"
   width="24"
   xml:space="preserve"
   id="svg2"
   version="1.1"><metadata
     id="metadata8"><rdf:RDF><cc:Work
         rdf:about=""><dc:format>image/svg+xml</dc:format><dc:type
           rdf:resource="http://purl.org/dc/dcmitype/StillImage" /></cc:Work></rdf:RDF></metadata><defs
     id="defs6"><clipPath
       id="clipPath18"
       clipPathUnits="userSpaceOnUse"><path
         id="path16"
         d="M 0,18 H 18 V 0 H 0 Z" /></clipPath></defs><g
     transform="matrix(1.3333333,0,0,-1.3333333,0,24)"
     id="g10"><g
       id="g12"><g
         clip-path="url(#clipPath18)"
         id="g14"><g
           transform="translate(11.707,8.3091)"
           id="g20"><path
             id="path22"
             style="fill:#ffffff;fill-opacity:1;fill-rule:nonzero;stroke:none"
             d="m 0,0 -3.577,-3.577 c -0.139,-0.139 -0.322,-0.21 -0.506,-0.21 -0.183,0 -0.366,0.071 -0.505,0.21 -0.28,0.28 -0.28,0.732 0,1.011 l 3.071,3.072 -3.071,3.071 c -0.28,0.279 -0.28,0.732 0,1.011 0.279,0.28 0.732,0.28 1.011,0 L 0,1.011 C 0.28,0.732 0.28,0.28 0,0 m -2.651,9.09 c -4.734,0 -8.585,-3.851 -8.585,-8.584 0,-4.734 3.851,-8.585 8.585,-8.585 4.733,0 8.584,3.851 8.584,8.585 0,4.733 -3.851,8.584 -8.584,8.584" /></g></g></g></g></svg>